<?xml version="1.0" encoding="utf-8"?>
<!-- Generator: Adobe Illustrator 16.0.0, SVG Export Plug-In . SVG Version: 6.00 Build 0)  -->
<!DOCTYPE svg PUBLIC "-//W3C//DTD SVG 1.1//EN" "http://www.w3.org/Graphics/SVG/1.1/DTD/svg11.dtd">
<svg version="1.1" id="Layer_1" xmlns="http://www.w3.org/2000/svg" xmlns:xlink="http://www.w3.org/1999/xlink" x="0px" y="0px"
	 width="26.921px" height="37px" viewBox="0 0 26.921 37" enable-background="new 0 0 26.921 37" xml:space="preserve">
<g>
	<defs>
		<path id="SVGID_1_" d="M25.757,35.208c0,0.328-0.264,0.598-0.586,0.598H1.757c-0.322,0-0.586-0.27-0.586-0.598V7.757
			c0-0.328,0.264-0.598,0.586-0.598h7.607v2.39h8.193v-2.39h7.607c0.321,0,0.585,0.27,0.585,0.598v27.451H25.757z M10.536,1.194
			h5.857v7.16h-5.857V1.194z M25.171,5.965h-7.607V0h-8.2v5.965H1.757C0.786,5.965,0,6.767,0,7.757v27.451
			C0,36.199,0.786,37,1.757,37h23.407c0.971,0,1.757-0.801,1.757-1.792V7.757C26.929,6.773,26.136,5.965,25.171,5.965z"/>
	</defs>
	<clipPath id="SVGID_2_">
		<use xlink:href="#SVGID_1_"  overflow="visible"/>
	</clipPath>
	<g clip-path="url(#SVGID_2_)">
		<defs>
			<rect id="SVGID_3_" x="-203.036" y="-1165" width="1024" height="2360"/>
		</defs>
		<clipPath id="SVGID_4_">
			<use xlink:href="#SVGID_3_"  overflow="visible"/>
		</clipPath>
		<rect x="-5" y="-5" clip-path="url(#SVGID_4_)" width="36.921" height="47"/>
	</g>
</g>
<g>
	<defs>
		<path id="SVGID_5_" d="M13.464,22.083h-0.628c-0.2-1.427-1.107-2.622-2.35-3.197c0.372-0.415,0.607-0.969,0.607-1.573
			c0-1.296-1.036-2.353-2.307-2.353s-2.307,1.057-2.307,2.353c0,0.604,0.236,1.158,0.607,1.573c-1.243,0.583-2.15,1.777-2.35,3.197
			H4.107v-8.354h9.357V22.083z M8.786,19.694c1.415,0,2.593,1.027,2.864,2.389H5.915C6.186,20.722,7.372,19.694,8.786,19.694z
			 M8.786,18.464c-0.628,0-1.136-0.518-1.136-1.158s0.507-1.158,1.136-1.158c0.629,0,1.136,0.518,1.136,1.158
			C9.915,17.946,9.407,18.464,8.786,18.464z M14.636,12.535H2.929v10.743h11.707V12.535z"/>
	</defs>
	<clipPath id="SVGID_6_">
		<use xlink:href="#SVGID_5_"  overflow="visible"/>
	</clipPath>
	<g clip-path="url(#SVGID_6_)">
		<defs>
			<rect id="SVGID_7_" x="-203.036" y="-1165" width="1024" height="2360"/>
		</defs>
		<clipPath id="SVGID_8_">
			<use xlink:href="#SVGID_7_"  overflow="visible"/>
		</clipPath>
		<rect x="-2.071" y="7.535" clip-path="url(#SVGID_8_)" width="21.707" height="20.743"/>
	</g>
</g>
<g>
	<defs>
		<rect id="SVGID_9_" x="19.807" y="12.535" width="1.264" height="1.194"/>
	</defs>
	<clipPath id="SVGID_10_">
		<use xlink:href="#SVGID_9_"  overflow="visible"/>
	</clipPath>
	<g clip-path="url(#SVGID_10_)">
		<defs>
			<rect id="SVGID_11_" x="-203.036" y="-1165" width="1024" height="2360"/>
		</defs>
		<clipPath id="SVGID_12_">
			<use xlink:href="#SVGID_11_"  overflow="visible"/>
		</clipPath>
		<rect x="14.807" y="7.535" clip-path="url(#SVGID_12_)" width="11.264" height="11.194"/>
	</g>
</g>
<g>
	<defs>
		<rect id="SVGID_13_" x="22.2" y="12.535" width="1.264" height="1.194"/>
	</defs>
	<clipPath id="SVGID_14_">
		<use xlink:href="#SVGID_13_"  overflow="visible"/>
	</clipPath>
	<g clip-path="url(#SVGID_14_)">
		<defs>
			<rect id="SVGID_15_" x="-203.036" y="-1165" width="1024" height="2360"/>
		</defs>
		<clipPath id="SVGID_16_">
			<use xlink:href="#SVGID_15_"  overflow="visible"/>
		</clipPath>
		<rect x="17.2" y="7.535" clip-path="url(#SVGID_16_)" width="11.264" height="11.194"/>
	</g>
</g>
<g>
	<defs>
		<rect id="SVGID_17_" x="17.514" y="12.535" width="1.265" height="1.194"/>
	</defs>
	<clipPath id="SVGID_18_">
		<use xlink:href="#SVGID_17_"  overflow="visible"/>
	</clipPath>
	<g clip-path="url(#SVGID_18_)">
		<defs>
			<rect id="SVGID_19_" x="-203.036" y="-1165" width="1024" height="2360"/>
		</defs>
		<clipPath id="SVGID_20_">
			<use xlink:href="#SVGID_19_"  overflow="visible"/>
		</clipPath>
		<rect x="12.514" y="7.535" clip-path="url(#SVGID_20_)" width="11.265" height="11.194"/>
	</g>
</g>
<g>
	<defs>
		<rect id="SVGID_21_" x="16.393" y="17.306" width="7.607" height="1.194"/>
	</defs>
	<clipPath id="SVGID_22_">
		<use xlink:href="#SVGID_21_"  overflow="visible"/>
	</clipPath>
	<g clip-path="url(#SVGID_22_)">
		<defs>
			<rect id="SVGID_23_" x="-203.036" y="-1165" width="1024" height="2360"/>
		</defs>
		<clipPath id="SVGID_24_">
			<use xlink:href="#SVGID_23_"  overflow="visible"/>
		</clipPath>
		<rect x="11.393" y="12.306" clip-path="url(#SVGID_24_)" width="17.607" height="11.194"/>
	</g>
</g>
<g>
	<defs>
		<rect id="SVGID_25_" x="16.393" y="22.083" width="7.607" height="1.195"/>
	</defs>
	<clipPath id="SVGID_26_">
		<use xlink:href="#SVGID_25_"  overflow="visible"/>
	</clipPath>
	<g clip-path="url(#SVGID_26_)">
		<defs>
			<rect id="SVGID_27_" x="-203.036" y="-1165" width="1024" height="2360"/>
		</defs>
		<clipPath id="SVGID_28_">
			<use xlink:href="#SVGID_27_"  overflow="visible"/>
		</clipPath>
		<rect x="11.393" y="17.083" clip-path="url(#SVGID_28_)" width="17.607" height="11.195"/>
	</g>
</g>
<g>
	<defs>
		<rect id="SVGID_29_" x="2.929" y="26.854" width="21.071" height="1.194"/>
	</defs>
	<clipPath id="SVGID_30_">
		<use xlink:href="#SVGID_29_"  overflow="visible"/>
	</clipPath>
	<g clip-path="url(#SVGID_30_)">
		<defs>
			<rect id="SVGID_31_" x="-203.036" y="-1165" width="1024" height="2360"/>
		</defs>
		<clipPath id="SVGID_32_">
			<use xlink:href="#SVGID_31_"  overflow="visible"/>
		</clipPath>
		<rect x="-2.071" y="21.854" clip-path="url(#SVGID_32_)" width="31.071" height="11.194"/>
	</g>
</g>
<g>
	<defs>
		<rect id="SVGID_33_" x="2.929" y="31.632" width="21.071" height="1.194"/>
	</defs>
	<clipPath id="SVGID_34_">
		<use xlink:href="#SVGID_33_"  overflow="visible"/>
	</clipPath>
	<g clip-path="url(#SVGID_34_)">
		<defs>
			<rect id="SVGID_35_" x="-203.036" y="-1165" width="1024" height="2360"/>
		</defs>
		<clipPath id="SVGID_36_">
			<use xlink:href="#SVGID_35_"  overflow="visible"/>
		</clipPath>
		<rect x="-2.071" y="26.632" clip-path="url(#SVGID_36_)" width="31.071" height="11.194"/>
	</g>
</g>
</svg>
