<?xml version="1.0" encoding="utf-8"?>
<!-- Generator: Adobe Illustrator 16.0.0, SVG Export Plug-In . SVG Version: 6.00 Build 0)  -->
<!DOCTYPE svg PUBLIC "-//W3C//DTD SVG 1.1//EN" "http://www.w3.org/Graphics/SVG/1.1/DTD/svg11.dtd">
<svg version="1.1" id="Layer_1" xmlns="http://www.w3.org/2000/svg" xmlns:xlink="http://www.w3.org/1999/xlink" x="0px" y="0px"
	 width="29px" height="16px" viewBox="0 0 29 16" enable-background="new 0 0 29 16" xml:space="preserve">
<g>
	<defs>
		<path id="SVGID_1_" d="M-134.041,151.821c0,0.328-0.264,0.598-0.586,0.598h-23.414c-0.322,0-0.586-0.27-0.586-0.598V124.37
			c0-0.328,0.264-0.598,0.586-0.598h7.607v2.39h8.193v-2.39h7.607c0.321,0,0.585,0.27,0.585,0.598v27.451H-134.041z
			 M-149.262,117.807h5.857v7.16h-5.857V117.807z M-134.626,122.578h-7.607v-5.965h-8.2v5.965h-7.607
			c-0.972,0-1.757,0.802-1.757,1.792v27.451c0,0.991,0.786,1.792,1.757,1.792h23.407c0.971,0,1.757-0.801,1.757-1.792V124.37
			C-132.869,123.386-133.662,122.578-134.626,122.578z"/>
	</defs>
	<clipPath id="SVGID_2_">
		<use xlink:href="#SVGID_1_"  overflow="visible"/>
	</clipPath>
	<g clip-path="url(#SVGID_2_)">
		<defs>
			<rect id="SVGID_3_" x="-362.833" y="-1048.387" width="1024" height="2360"/>
		</defs>
		<clipPath id="SVGID_4_">
			<use xlink:href="#SVGID_3_"  overflow="visible"/>
		</clipPath>
	</g>
</g>
<g>
	<defs>
		<path id="SVGID_5_" d="M-146.333,138.696h-0.628c-0.2-1.427-1.107-2.622-2.35-3.197c0.372-0.415,0.607-0.969,0.607-1.573
			c0-1.296-1.036-2.353-2.307-2.353s-2.307,1.057-2.307,2.353c0,0.604,0.236,1.158,0.607,1.573c-1.243,0.583-2.15,1.777-2.35,3.197
			h-0.628v-8.354h9.357V138.696z M-151.012,136.307c1.415,0,2.593,1.027,2.864,2.389h-5.735
			C-153.612,137.334-152.426,136.307-151.012,136.307z M-151.012,135.077c-0.628,0-1.136-0.518-1.136-1.158s0.507-1.158,1.136-1.158
			c0.629,0,1.136,0.518,1.136,1.158C-149.883,134.559-150.391,135.077-151.012,135.077z M-145.162,129.148h-11.707v10.743h11.707
			V129.148z"/>
	</defs>
	<clipPath id="SVGID_6_">
		<use xlink:href="#SVGID_5_"  overflow="visible"/>
	</clipPath>
	<g clip-path="url(#SVGID_6_)">
		<defs>
			<rect id="SVGID_7_" x="-362.833" y="-1048.387" width="1024" height="2360"/>
		</defs>
		<clipPath id="SVGID_8_">
			<use xlink:href="#SVGID_7_"  overflow="visible"/>
		</clipPath>
	</g>
</g>
<g>
	<defs>
		<rect id="SVGID_9_" x="-139.991" y="129.148" width="1.264" height="1.194"/>
	</defs>
	<clipPath id="SVGID_10_">
		<use xlink:href="#SVGID_9_"  overflow="visible"/>
	</clipPath>
	<g clip-path="url(#SVGID_10_)">
		<defs>
			<rect id="SVGID_11_" x="-362.833" y="-1048.387" width="1024" height="2360"/>
		</defs>
		<clipPath id="SVGID_12_">
			<use xlink:href="#SVGID_11_"  overflow="visible"/>
		</clipPath>
	</g>
</g>
<g>
	<defs>
		<rect id="SVGID_13_" x="-137.598" y="129.148" width="1.264" height="1.194"/>
	</defs>
	<clipPath id="SVGID_14_">
		<use xlink:href="#SVGID_13_"  overflow="visible"/>
	</clipPath>
	<g clip-path="url(#SVGID_14_)">
		<defs>
			<rect id="SVGID_15_" x="-362.833" y="-1048.387" width="1024" height="2360"/>
		</defs>
		<clipPath id="SVGID_16_">
			<use xlink:href="#SVGID_15_"  overflow="visible"/>
		</clipPath>
	</g>
</g>
<g>
	<defs>
		<rect id="SVGID_17_" x="-142.284" y="129.148" width="1.265" height="1.194"/>
	</defs>
	<clipPath id="SVGID_18_">
		<use xlink:href="#SVGID_17_"  overflow="visible"/>
	</clipPath>
	<g clip-path="url(#SVGID_18_)">
		<defs>
			<rect id="SVGID_19_" x="-362.833" y="-1048.387" width="1024" height="2360"/>
		</defs>
		<clipPath id="SVGID_20_">
			<use xlink:href="#SVGID_19_"  overflow="visible"/>
		</clipPath>
	</g>
</g>
<g>
	<defs>
		<rect id="SVGID_21_" x="-143.405" y="133.918" width="7.607" height="1.194"/>
	</defs>
	<clipPath id="SVGID_22_">
		<use xlink:href="#SVGID_21_"  overflow="visible"/>
	</clipPath>
	<g clip-path="url(#SVGID_22_)">
		<defs>
			<rect id="SVGID_23_" x="-362.833" y="-1048.387" width="1024" height="2360"/>
		</defs>
		<clipPath id="SVGID_24_">
			<use xlink:href="#SVGID_23_"  overflow="visible"/>
		</clipPath>
	</g>
</g>
<g>
	<defs>
		<rect id="SVGID_25_" x="-143.405" y="138.696" width="7.607" height="1.195"/>
	</defs>
	<clipPath id="SVGID_26_">
		<use xlink:href="#SVGID_25_"  overflow="visible"/>
	</clipPath>
	<g clip-path="url(#SVGID_26_)">
		<defs>
			<rect id="SVGID_27_" x="-362.833" y="-1048.387" width="1024" height="2360"/>
		</defs>
		<clipPath id="SVGID_28_">
			<use xlink:href="#SVGID_27_"  overflow="visible"/>
		</clipPath>
	</g>
</g>
<g>
	<defs>
		<rect id="SVGID_29_" x="-156.869" y="143.467" width="21.071" height="1.194"/>
	</defs>
	<clipPath id="SVGID_30_">
		<use xlink:href="#SVGID_29_"  overflow="visible"/>
	</clipPath>
	<g clip-path="url(#SVGID_30_)">
		<defs>
			<rect id="SVGID_31_" x="-362.833" y="-1048.387" width="1024" height="2360"/>
		</defs>
		<clipPath id="SVGID_32_">
			<use xlink:href="#SVGID_31_"  overflow="visible"/>
		</clipPath>
	</g>
</g>
<g>
	<defs>
		<rect id="SVGID_33_" x="-156.869" y="148.245" width="21.071" height="1.194"/>
	</defs>
	<clipPath id="SVGID_34_">
		<use xlink:href="#SVGID_33_"  overflow="visible"/>
	</clipPath>
	<g clip-path="url(#SVGID_34_)">
		<defs>
			<rect id="SVGID_35_" x="-362.833" y="-1048.387" width="1024" height="2360"/>
		</defs>
		<clipPath id="SVGID_36_">
			<use xlink:href="#SVGID_35_"  overflow="visible"/>
		</clipPath>
	</g>
</g>
<g>
	<defs>
		<path id="SVGID_37_" d="M205.188,122.173c0-2.925,2.458-5.304,5.479-5.304s5.479,2.379,5.479,5.304v0.526h-4.469
			c-0.643,0-1.165,0.505-1.165,1.129c0,0.623,0.522,1.128,1.165,1.128h4.469v1.354h-4.469c-0.643,0-1.165,0.505-1.165,1.128
			c0,0.624,0.522,1.129,1.165,1.129h4.469v1.354h-4.469c-0.643,0-1.165,0.505-1.165,1.128s0.522,1.129,1.165,1.129h4.469v1.354
			h-4.469c-0.643,0-1.165,0.505-1.165,1.129c0,0.623,0.522,1.128,1.165,1.128h4.469v0.678c0,2.924-2.458,5.304-5.479,5.304
			s-5.479-2.38-5.479-5.304V122.173z M210.667,144.028c4.307,0,7.81-3.392,7.81-7.561v-14.294c0-4.169-3.503-7.561-7.81-7.561
			s-7.81,3.392-7.81,7.561v14.294C202.857,140.636,206.36,144.028,210.667,144.028z M221,129.433c-0.644,0-1.165,0.506-1.165,1.129
			v1.09c0,0.624,0.521,1.129,1.165,1.129c0.645,0,1.166-0.505,1.166-1.129v-1.09C222.167,129.939,221.645,129.433,221,129.433z
			 M221,133.833c-0.644,0-1.165,0.505-1.165,1.129v1.468c0,4.895-4.113,8.877-9.169,8.877s-9.169-3.982-9.169-8.877v-5.868
			c0-0.623-0.521-1.129-1.165-1.129c-0.645,0-1.166,0.506-1.166,1.129v5.868c0,5.758,4.539,10.51,10.334,11.077v5.849h-2.953
			c-0.644,0-1.165,0.505-1.165,1.128c0,0.624,0.521,1.129,1.165,1.129h8.238c0.644,0,1.165-0.505,1.165-1.129
			c0-0.623-0.521-1.128-1.165-1.128h-2.953v-5.849c5.795-0.567,10.334-5.319,10.334-11.077v-1.468
			C222.167,134.338,221.645,133.833,221,133.833z"/>
	</defs>
	<clipPath id="SVGID_38_">
		<use xlink:href="#SVGID_37_"  overflow="visible"/>
	</clipPath>
	<g clip-path="url(#SVGID_38_)">
		<defs>
			<rect id="SVGID_39_" x="-362.833" y="-1048.387" width="1024" height="2360"/>
		</defs>
		<clipPath id="SVGID_40_">
			<use xlink:href="#SVGID_39_"  overflow="visible"/>
		</clipPath>
	</g>
</g>
<g>
	<defs>
		<rect id="SVGID_41_" x="-164.833" y="245.613" width="38" height="38"/>
	</defs>
	<clipPath id="SVGID_42_">
		<use xlink:href="#SVGID_41_"  overflow="visible"/>
	</clipPath>
	<g clip-path="url(#SVGID_42_)">
		<defs>
			<rect id="SVGID_43_" x="-362.833" y="-1048.387" width="1024" height="2360"/>
		</defs>
		<clipPath id="SVGID_44_">
			<use xlink:href="#SVGID_43_"  overflow="visible"/>
		</clipPath>
	</g>
</g>
<g>
	<defs>
		<path id="SVGID_51_" d="M221.299,263.469c0.993,0.757,2.221,1.213,3.557,1.213c1.332,0,2.566-0.461,3.559-1.213
			c1.895,0.958,3.247,2.69,3.247,5.492v2.64c-3.041,2.039-5.936,2.698-8.861,2.098v-2.901c0-2.774-0.86-5.087-2.235-6.886
			C220.797,263.753,221.043,263.601,221.299,263.469z M200.051,263.469c0.256,0.133,0.486,0.298,0.718,0.459
			c-1.368,1.796-2.235,4.099-2.235,6.869v2.885c-2.947,0.617-5.827-0.042-8.862-2.065v-2.655c0-2.791,1.347-4.51,3.247-5.476
			c0.992,0.75,2.229,1.196,3.559,1.196C197.815,264.682,199.057,264.228,200.051,263.469z M205.681,262.551
			c1.361,1.118,3.087,1.804,4.978,1.804c1.894,0,3.646-0.673,5.01-1.787c2.918,1.393,5.043,4.038,5.043,8.229v3.983
			c-6.773,4.641-13.238,4.648-20.09-0.032v-3.951C200.622,266.59,202.746,263.951,205.681,262.551L205.681,262.551z
			 M224.856,255.043c2.113,0,3.803,1.673,3.803,3.787c0,2.088-1.689,3.754-3.803,3.754c-2.217-0.05-3.754-1.611-3.785-3.754
			C221.071,256.716,222.743,255.043,224.856,255.043z M196.477,255.043c2.113,0,3.803,1.673,3.803,3.787
			c0,2.088-1.689,3.754-3.803,3.754c-2.134-0.131-3.769-1.454-3.803-3.754C192.674,256.716,194.364,255.043,196.477,255.043z
			 M210.659,250.732c3.233,0,5.81,2.548,5.81,5.754c-0.199,3.321-2.685,5.724-5.81,5.771c-3.207,0-5.777-2.588-5.777-5.771
			C204.881,253.28,207.449,250.732,210.659,250.732z M210.659,248.633c-4.326,0-7.866,3.506-7.866,7.853
			c0,1.665,0.511,3.219,1.403,4.492c-0.705,0.392-1.364,0.856-1.975,1.394c-0.235-0.178-0.481-0.323-0.734-0.476
			c0.556-0.893,0.881-1.94,0.881-3.065c0-3.253-2.663-5.886-5.891-5.886c-3.229,0-5.892,2.633-5.892,5.886
			c0,1.125,0.325,2.173,0.882,3.065c-2.23,1.365-3.885,3.794-3.885,7.065v3.213c0.008,0.472,0.389,0.771,0.652,1
			c3.954,2.79,6.906,3.25,10.412,2.623c0.006,0.006,0.012,0.011,0.017,0.017c10.038,8.057,19.743,3.975,24.038-0.017
			c3.49,0.61,7.034-0.295,10.429-2.656c0.508-0.33,0.589-0.567,0.62-1.131v-3.049c0-3.284-1.651-5.724-3.885-7.082
			c0.552-0.89,0.882-1.929,0.882-3.049c0-3.253-2.663-5.886-5.892-5.886c-3.228,0-5.875,2.633-5.875,5.886
			c0,1.118,0.315,2.16,0.865,3.049c-0.248,0.147-0.499,0.301-0.734,0.476c-0.607-0.531-1.275-0.989-1.975-1.377
			c0.895-1.273,1.42-2.827,1.42-4.492C218.557,252.139,215.002,248.633,210.659,248.633L210.659,248.633z"/>
	</defs>
	<clipPath id="SVGID_46_">
		<use xlink:href="#SVGID_51_"  overflow="visible"/>
	</clipPath>
	<g clip-path="url(#SVGID_46_)">
		<defs>
			<rect id="SVGID_53_" x="-362.833" y="-1048.387" width="1024" height="2360"/>
		</defs>
		<clipPath id="SVGID_48_">
			<use xlink:href="#SVGID_53_"  overflow="visible"/>
		</clipPath>
	</g>
</g>
<g>
	<defs>
		<path id="SVGID_55_" d="M361.485,147.46c-0.043,0.084-0.127,0.21-0.338,0.252l-21.406,6.385c-0.297,0.084-0.592-0.084-0.676-0.378
			l-1.521-5.082c0.169,0.084,0.338,0.168,0.464,0.294c0.423,0.336,1.057,0.294,1.436-0.126c0.338-0.42,0.297-1.051-0.126-1.429
			c-0.676-0.546-1.521-0.84-2.407-0.84l-1.646-5.46c0.169,0.084,0.338,0.168,0.465,0.294c0.422,0.336,1.056,0.294,1.436-0.126
			c0.338-0.42,0.295-1.05-0.127-1.428c-0.676-0.546-1.52-0.84-2.406-0.84l-1.646-5.46c0.168,0.084,0.338,0.168,0.464,0.294
			c0.423,0.336,1.056,0.294,1.436-0.126c0.338-0.42,0.296-1.05-0.126-1.429c-0.676-0.546-1.521-0.84-2.407-0.84l-1.646-5.46
			c0.169,0.084,0.337,0.168,0.464,0.294c0.423,0.336,1.057,0.294,1.436-0.126c0.338-0.42,0.296-1.05-0.127-1.428
			c-0.675-0.546-1.52-0.84-2.406-0.84l-0.168-0.504c-0.085-0.294,0.084-0.588,0.379-0.672l21.365-6.511
			c0.042,0,0.084-0.042,0.168-0.042c0.254,0,0.465,0.168,0.508,0.378l9.204,30.534C361.569,147.25,361.527,147.418,361.485,147.46z
			 M335.18,150.821c-0.169-0.588,0-1.218,0.38-1.68l0.845,2.855C335.856,151.871,335.349,151.451,335.18,150.821z M333.745,144.269
			c-0.422-0.21-0.718-0.588-0.845-1.05c-0.126-0.463-0.085-0.925,0.127-1.345c0.085-0.126,0.126-0.252,0.253-0.336l0.845,2.856
			C333.998,144.395,333.872,144.353,333.745,144.269z M331.464,136.667c-0.423-0.21-0.718-0.588-0.845-1.05
			c-0.168-0.588,0-1.218,0.381-1.68l0.844,2.855C331.717,136.792,331.591,136.75,331.464,136.667z M329.184,129.065
			c-0.422-0.21-0.717-0.588-0.844-1.05s-0.085-0.925,0.127-1.345c0.084-0.126,0.126-0.252,0.253-0.336l0.845,2.856
			C329.438,129.191,329.311,129.149,329.184,129.065z M363.469,146.495l-9.205-30.534c-0.338-1.05-1.351-1.806-2.449-1.806
			c-0.253,0-0.506,0.042-0.717,0.126l-21.449,6.342c-1.352,0.42-2.111,1.849-1.73,3.192l0.126,0.462
			c-0.591,0.336-1.056,0.84-1.394,1.428c-0.465,0.882-0.591,1.891-0.295,2.856c0.295,0.966,0.929,1.764,1.814,2.226
			c0.55,0.294,1.184,0.462,1.773,0.462c0.043,0,0.127,0,0.17,0l0.168,0.588c-1.436,0.883-2.195,2.646-1.688,4.326
			c0.507,1.639,1.984,2.688,3.632,2.688c0.041,0,0.126,0,0.168,0l0.169,0.588c-0.591,0.336-1.056,0.84-1.394,1.428
			c-0.464,0.882-0.591,1.89-0.295,2.856c0.295,0.966,0.929,1.764,1.815,2.226c0.549,0.294,1.183,0.462,1.773,0.462
			c0.042,0,0.126,0,0.169,0l0.168,0.588c-1.436,0.882-2.195,2.646-1.688,4.326c0.506,1.638,1.984,2.688,3.631,2.688
			c0.042,0,0.126,0,0.168,0l0.085,0.252c0.338,1.092,1.351,1.806,2.448,1.806c0.254,0,0.508-0.042,0.719-0.126l21.406-6.384
			c0.676-0.21,1.182-0.63,1.52-1.218C363.596,147.838,363.637,147.125,363.469,146.495z"/>
	</defs>
	<clipPath id="SVGID_50_">
		<use xlink:href="#SVGID_55_"  overflow="visible"/>
	</clipPath>
	<g clip-path="url(#SVGID_50_)">
		<defs>
			<rect id="SVGID_57_" x="-229.109" y="-1297.845" width="1024" height="2360"/>
		</defs>
		<clipPath id="SVGID_52_">
			<use xlink:href="#SVGID_57_"  overflow="visible"/>
		</clipPath>
	</g>
</g>
<g>
	<defs>
		<path id="SVGID_59_" d="M350.76,131.207c-0.043,0.084-0.127,0.21-0.338,0.252l-10.767,3.192c-0.296,0.084-0.591-0.084-0.676-0.378
			l-1.604-5.25c-0.042-0.168,0-0.336,0.043-0.42c0.041-0.084,0.126-0.21,0.337-0.252l10.767-3.192c0.043,0,0.084-0.042,0.169-0.042
			c0.253,0,0.465,0.168,0.507,0.378l1.604,5.292C350.887,130.997,350.802,131.123,350.76,131.207z M351.182,124.949
			c-0.338-1.092-1.352-1.806-2.449-1.806c-0.253,0-0.506,0.042-0.717,0.126l-10.768,3.191c-0.676,0.21-1.182,0.63-1.52,1.219
			c-0.338,0.588-0.38,1.302-0.211,1.932l1.604,5.25c0.338,1.092,1.352,1.806,2.449,1.806c0.254,0,0.507-0.042,0.719-0.126
			l10.766-3.191c0.676-0.21,1.183-0.63,1.521-1.219c0.338-0.588,0.38-1.302,0.211-1.932L351.182,124.949z"/>
	</defs>
	<clipPath id="SVGID_54_">
		<use xlink:href="#SVGID_59_"  overflow="visible"/>
	</clipPath>
	<g clip-path="url(#SVGID_54_)">
		<defs>
			<rect id="SVGID_61_" x="-229.109" y="-1297.845" width="1024" height="2360"/>
		</defs>
		<clipPath id="SVGID_56_">
			<use xlink:href="#SVGID_61_"  overflow="visible"/>
		</clipPath>
	</g>
</g>
<g>
	<defs>
		<path id="SVGID_63_" d="M348.057,127.637l-8.528,2.52c-0.549,0.168-0.845,0.714-0.675,1.26c0.126,0.42,0.549,0.714,0.971,0.714
			c0.084,0,0.211,0,0.295-0.042l8.529-2.52c0.549-0.168,0.844-0.714,0.676-1.26C349.156,127.763,348.606,127.469,348.057,127.637z"
			/>
	</defs>
	<clipPath id="SVGID_58_">
		<use xlink:href="#SVGID_63_"  overflow="visible"/>
	</clipPath>
	<g clip-path="url(#SVGID_58_)">
		<defs>
			<rect id="SVGID_65_" x="-229.109" y="-1297.845" width="1024" height="2360"/>
		</defs>
		<clipPath id="SVGID_60_">
			<use xlink:href="#SVGID_65_"  overflow="visible"/>
		</clipPath>
	</g>
</g>
<g>
	<defs>
		<path id="SVGID_67_" d="M-126.905-79.437v21.853c0,0.454-0.393,0.852-0.842,0.852h-19.025v-1.702h18.184v-20.15h-22.112v1.702
			c-0.505-0.34-1.066-0.624-1.684-0.851v-1.703c0-0.454,0.393-0.852,0.842-0.852h23.796
			C-127.298-80.289-126.905-79.891-126.905-79.437z M-148.736-63.09c-0.449,0-0.842,0.397-0.842,0.852v14.304h-8.643v-16.46h17.679
			c0.337,0,0.673,0.283,0.673,0.681s-0.281,0.682-0.673,0.682h-8.194V-63.09z M-138.186-63.771c0-1.306-1.066-2.384-2.357-2.384
			h-18.521c-0.449,0-0.842,0.397-0.842,0.852v18.163c0,0.454,0.393,0.852,0.842,0.852h10.271c0.449,0,0.842-0.397,0.842-0.852
			v-14.247h7.352C-139.252-61.387-138.186-62.409-138.186-63.771z M-148.231-67.234c-0.224,0-0.393-0.057-0.561-0.227
			c-0.337-0.341-0.393-0.852-0.056-1.192l4.377-4.881c0.168-0.171,0.393-0.284,0.617-0.284l0,0c0.225,0,0.449,0.113,0.618,0.284
			l1.796,2.043l2.469-3.462c0.168-0.228,0.449-0.341,0.729-0.341c0.281,0,0.562,0.17,0.674,0.397l1.515,2.554l4.434-4.824
			c0.337-0.341,0.842-0.341,1.179-0.057c0.336,0.34,0.336,0.852,0.056,1.191l-5.164,5.677c-0.168,0.17-0.449,0.283-0.729,0.283
			c-0.28,0-0.505-0.17-0.617-0.397l-1.459-2.44l-2.357,3.292c-0.168,0.228-0.393,0.341-0.617,0.341
			c-0.225,0-0.505-0.113-0.674-0.284l-1.852-2.1l-3.76,4.2C-147.782-67.347-148.007-67.234-148.231-67.234z M-153.9-75.067
			c1.459,0,2.638,1.192,2.638,2.668s-1.179,2.668-2.638,2.668c-1.459,0-2.638-1.192-2.638-2.668S-155.359-75.067-153.9-75.067z
			 M-153.9-68.028c2.414,0,4.322-1.987,4.322-4.371s-1.964-4.37-4.322-4.37c-2.357,0-4.321,1.986-4.321,4.37
			S-156.313-68.028-153.9-68.028z"/>
	</defs>
	<clipPath id="SVGID_62_">
		<use xlink:href="#SVGID_67_"  overflow="visible"/>
	</clipPath>
	<g clip-path="url(#SVGID_62_)">
		<defs>
			<rect id="SVGID_69_" x="-359.905" y="-1659.289" width="1024" height="2360"/>
		</defs>
		<clipPath id="SVGID_64_">
			<use xlink:href="#SVGID_69_"  overflow="visible"/>
		</clipPath>
	</g>
</g>
<g>
	<defs>
		<path id="SVGID_71_" d="M177.027-60.297c4.647,0.097,8.235,0.687,9.658,2.108c0.236,0.241,0.56,0.379,0.897,0.382h8.022
			c0.489,0,0.845,0.354,0.845,0.844c0,0.488-0.355,0.843-0.845,0.843H183.36c-0.457-0.006-0.881,0.233-1.111,0.628
			c-0.23,0.394-0.23,0.881,0,1.275c0.23,0.394,0.654,0.634,1.111,0.627h12.245c1.462,0,2.688-0.968,3.153-2.279
			c0.018-0.009,0.035-0.018,0.053-0.026c0,0,0.625-0.388,1.425-0.778c0.801-0.39,1.837-0.711,2.124-0.711
			c0.211,0,0.825,0.009,1.268,0.145c0.221,0.068,0.371,0.162,0.408,0.198c0.037,0.035,0.014-0.026,0.014,0.079
			c0,0.491-0.041,0.557-0.132,0.685c-0.092,0.128-0.384,0.388-0.989,0.791c-0.019,0.008-0.036,0.017-0.053,0.026
			c0,0-2.373,1.756-5.516,3.505c-3.143,1.75-7.09,3.427-9.777,3.427c-2.998,0-4.716-0.566-6.241-1.424
			c-1.359-0.764-2.653-1.854-4.314-3.018V-60.297z M171.116-62.023h3.378v0.343c-0.001,0.026-0.001,0.053,0,0.079v9.276v2.952
			h-3.378V-62.023z M169.717-64.554c-0.647,0.067-1.139,0.615-1.135,1.265v15.182c0,0.698,0.566,1.265,1.267,1.265h5.911
			c0.699,0,1.267-0.566,1.267-1.265v-1.753c0.985,0.745,1.94,1.472,3.074,2.108c1.853,1.041,4.146,1.753,7.481,1.753
			c3.645,0,7.721-1.921,11.018-3.756c3.248-1.809,5.655-3.585,5.727-3.638c0.018-0.011,0.035-0.015,0.053-0.026v-0.013
			c0.635-0.423,1.173-0.792,1.596-1.384c0.438-0.61,0.607-1.375,0.607-2.147c0-0.738-0.34-1.446-0.791-1.885
			s-0.961-0.661-1.426-0.804c-0.93-0.286-1.795-0.264-2.006-0.264c-1.229,0-2.301,0.509-3.232,0.962
			c-0.354,0.172-0.367,0.195-0.633,0.343c-0.586-1.015-1.646-1.727-2.89-1.727h-7.573c-2.491-2.104-6.403-2.47-11.005-2.517v-0.436
			c0-0.698-0.567-1.265-1.267-1.265h-5.911C169.805-64.556,169.761-64.556,169.717-64.554z M189.139-72.144
			c-0.452,0.023-0.857,0.286-1.064,0.689c-0.205,0.403-0.18,0.885,0.066,1.265c0.247,0.38,0.678,0.6,1.131,0.575h10.977
			c0.457,0.007,0.883-0.232,1.113-0.627c0.229-0.395,0.229-0.882,0-1.275c-0.23-0.395-0.656-0.634-1.113-0.627h-10.977
			C189.227-72.146,189.184-72.146,189.139-72.144z M189.139-75.518c-0.452,0.023-0.857,0.286-1.064,0.689
			c-0.205,0.403-0.18,0.886,0.066,1.266c0.247,0.379,0.678,0.599,1.131,0.575h10.977c0.457,0.007,0.883-0.233,1.113-0.627
			c0.229-0.395,0.229-0.882,0-1.276c-0.23-0.394-0.656-0.634-1.113-0.627h-10.977C189.227-75.52,189.184-75.52,189.139-75.518z
			 M194.76-78.048c2.443,0,4.639,0.691,6.148,1.739c1.51,1.049,2.296,2.371,2.296,3.743c0,1.371-0.786,2.681-2.296,3.729
			c-1.51,1.048-3.705,1.752-6.148,1.752c-0.922,0-1.208-0.155-2.243-0.396c-0.304-0.071-0.623-0.029-0.897,0.119l-2.189,1.199
			l0.237-1.081c0.121-0.551-0.138-1.114-0.634-1.384c-1.992-1.089-2.718-2.224-2.718-3.939c0-1.372,0.786-2.694,2.296-3.743
			C190.122-77.356,192.317-78.048,194.76-78.048z M194.76-80.578c-2.92,0-5.582,0.808-7.587,2.201s-3.391,3.457-3.391,5.812
			c0,2.279,1.216,4.217,3.22,5.601l-0.66,2.978c-0.108,0.485,0.078,0.989,0.477,1.288c0.398,0.298,0.935,0.336,1.371,0.096
			l4.222-2.306c0.692,0.174,1.343,0.355,2.349,0.355c2.92,0,5.582-0.82,7.587-2.214s3.392-3.443,3.392-5.798
			s-1.387-4.418-3.392-5.812S197.68-80.578,194.76-80.578z"/>
	</defs>
	<clipPath id="SVGID_66_">
		<use xlink:href="#SVGID_71_"  overflow="visible"/>
	</clipPath>
	<g clip-path="url(#SVGID_66_)">
		<defs>
			<rect id="SVGID_73_" x="-386.417" y="-1659.73" width="1024" height="2360"/>
		</defs>
		<clipPath id="SVGID_68_">
			<use xlink:href="#SVGID_73_"  overflow="visible"/>
		</clipPath>
	</g>
</g>
<g>
	<defs>
		<path id="SVGID_79_" d="M54.5,172.245l-8-5.653v-7.693l8-5.653V172.245z M42.5,171.826c0,0.795-0.625,1.419-1.422,1.419H19.922
			c-0.796,0-1.422-0.624-1.422-1.419v-18.162c0-0.795,0.625-1.419,1.422-1.419h21.156c0.796,0,1.422,0.624,1.422,1.419V171.826z
			 M56.589,149.552c-1.124-0.625-2.473-0.568-3.596,0.114l-6.968,4.549v-0.568c0-2.957-2.417-5.402-5.338-5.402H19.838
			c-2.922,0-5.338,2.445-5.338,5.402v18.195c0,2.957,2.417,5.402,5.338,5.402h20.904c2.922,0,5.338-2.445,5.338-5.402v-0.568
			l6.968,4.549c0.562,0.398,1.236,0.569,1.911,0.569c0.562,0,1.124-0.171,1.686-0.455c1.124-0.626,1.854-1.877,1.854-3.185v-19.959
			C58.444,151.429,57.77,150.178,56.589,149.552z"/>
	</defs>
	<clipPath id="SVGID_70_">
		<use xlink:href="#SVGID_79_"  overflow="visible"/>
	</clipPath>
	<g clip-path="url(#SVGID_70_)">
		<defs>
			<rect id="SVGID_81_" x="-179.5" y="-1268.755" width="1024" height="2360"/>
		</defs>
		<clipPath id="SVGID_72_">
			<use xlink:href="#SVGID_81_"  overflow="visible"/>
		</clipPath>
	</g>
</g>
<g>
	<defs>
		<polygon id="SVGID_83_" points="29,0 0,4.778 5.358,8.653 6.053,7.668 3.053,5.5 25.395,1.819 13.426,13.407 8.46,9.497 
			7.727,10.45 13.506,15 		"/>
	</defs>
	<clipPath id="SVGID_74_">
		<use xlink:href="#SVGID_83_"  overflow="visible"/>
	</clipPath>
	<g clip-path="url(#SVGID_74_)">
		<defs>
			<rect id="SVGID_85_" x="-558" y="-1965" width="1024" height="2360"/>
		</defs>
		<clipPath id="SVGID_76_">
			<use xlink:href="#SVGID_85_"  overflow="visible"/>
		</clipPath>
		<rect x="-5" y="-5" clip-path="url(#SVGID_76_)" fill="#007F7E" width="39" height="25"/>
	</g>
</g>
<g>
	<defs>
		<polygon id="SVGID_87_" points="5,8.127 5,16 10.664,12.53 10.034,11.542 6.189,13.899 6.189,8.954 26,2.098 25.604,1 		"/>
	</defs>
	<clipPath id="SVGID_78_">
		<use xlink:href="#SVGID_87_"  overflow="visible"/>
	</clipPath>
	<g clip-path="url(#SVGID_78_)">
		<defs>
			<rect id="SVGID_89_" x="-558" y="-1965" width="1024" height="2360"/>
		</defs>
		<clipPath id="SVGID_80_">
			<use xlink:href="#SVGID_89_"  overflow="visible"/>
		</clipPath>
		<rect y="-4" clip-path="url(#SVGID_80_)" fill="#007F7E" width="31" height="25"/>
	</g>
</g>
</svg>
