<?xml version="1.0" encoding="utf-8"?>
<!-- Generator: Adobe Illustrator 16.0.0, SVG Export Plug-In . SVG Version: 6.00 Build 0)  -->
<!DOCTYPE svg PUBLIC "-//W3C//DTD SVG 1.1//EN" "http://www.w3.org/Graphics/SVG/1.1/DTD/svg11.dtd">
<svg version="1.1" id="Layer_1" xmlns="http://www.w3.org/2000/svg" xmlns:xlink="http://www.w3.org/1999/xlink" x="0px" y="0px"
	 width="38px" height="38px" viewBox="0 0 38 38" enable-background="new 0 0 38 38" xml:space="preserve">
<g>
	<defs>
		<path id="SVGID_1_" d="M30.793-93.792c0,0.328-0.264,0.598-0.586,0.598H6.793c-0.322,0-0.586-0.27-0.586-0.598v-27.451
			c0-0.328,0.264-0.598,0.586-0.598H14.4v2.39h8.193v-2.39H30.2c0.321,0,0.585,0.27,0.585,0.598v27.451H30.793z M15.571-127.806
			h5.857v7.16h-5.857V-127.806z M30.207-123.035H22.6V-129h-8.2v5.965H6.793c-0.972,0-1.757,0.802-1.757,1.792v27.451
			C5.036-92.801,5.821-92,6.793-92H30.2c0.971,0,1.757-0.801,1.757-1.792v-27.451C31.964-122.227,31.171-123.035,30.207-123.035z"/>
	</defs>
	<clipPath id="SVGID_2_">
		<use xlink:href="#SVGID_1_"  overflow="visible"/>
	</clipPath>
	<g clip-path="url(#SVGID_2_)">
		<defs>
			<rect id="SVGID_3_" x="-198" y="-1294" width="1024" height="2360"/>
		</defs>
		<clipPath id="SVGID_4_">
			<use xlink:href="#SVGID_3_"  overflow="visible"/>
		</clipPath>
		<rect x="0.036" y="-134" clip-path="url(#SVGID_4_)" width="36.921" height="47"/>
	</g>
</g>
<g>
	<defs>
		<path id="SVGID_5_" d="M18.5-106.917h-0.628c-0.2-1.427-1.107-2.622-2.35-3.197c0.372-0.415,0.607-0.969,0.607-1.573
			c0-1.296-1.036-2.353-2.307-2.353s-2.307,1.057-2.307,2.353c0,0.604,0.236,1.158,0.607,1.573c-1.243,0.583-2.15,1.777-2.35,3.197
			H9.143v-8.354H18.5V-106.917z M13.821-109.306c1.415,0,2.593,1.027,2.864,2.389H10.95
			C11.221-108.278,12.407-109.306,13.821-109.306z M13.821-110.536c-0.628,0-1.136-0.518-1.136-1.158s0.507-1.158,1.136-1.158
			c0.629,0,1.136,0.518,1.136,1.158C14.95-111.054,14.443-110.536,13.821-110.536z M19.671-116.465H7.964v10.743h11.707V-116.465z"
			/>
	</defs>
	<clipPath id="SVGID_6_">
		<use xlink:href="#SVGID_5_"  overflow="visible"/>
	</clipPath>
	<g clip-path="url(#SVGID_6_)">
		<defs>
			<rect id="SVGID_7_" x="-198" y="-1294" width="1024" height="2360"/>
		</defs>
		<clipPath id="SVGID_8_">
			<use xlink:href="#SVGID_7_"  overflow="visible"/>
		</clipPath>
		<rect x="2.964" y="-121.465" clip-path="url(#SVGID_8_)" width="21.707" height="20.743"/>
	</g>
</g>
<g>
	<defs>
		<rect id="SVGID_9_" x="24.843" y="-116.465" width="1.264" height="1.194"/>
	</defs>
	<clipPath id="SVGID_10_">
		<use xlink:href="#SVGID_9_"  overflow="visible"/>
	</clipPath>
	<g clip-path="url(#SVGID_10_)">
		<defs>
			<rect id="SVGID_11_" x="-198" y="-1294" width="1024" height="2360"/>
		</defs>
		<clipPath id="SVGID_12_">
			<use xlink:href="#SVGID_11_"  overflow="visible"/>
		</clipPath>
		<rect x="19.843" y="-121.465" clip-path="url(#SVGID_12_)" width="11.264" height="11.194"/>
	</g>
</g>
<g>
	<defs>
		<rect id="SVGID_13_" x="27.236" y="-116.465" width="1.264" height="1.194"/>
	</defs>
	<clipPath id="SVGID_14_">
		<use xlink:href="#SVGID_13_"  overflow="visible"/>
	</clipPath>
	<g clip-path="url(#SVGID_14_)">
		<defs>
			<rect id="SVGID_15_" x="-198" y="-1294" width="1024" height="2360"/>
		</defs>
		<clipPath id="SVGID_16_">
			<use xlink:href="#SVGID_15_"  overflow="visible"/>
		</clipPath>
		<rect x="22.236" y="-121.465" clip-path="url(#SVGID_16_)" width="11.264" height="11.194"/>
	</g>
</g>
<g>
	<defs>
		<rect id="SVGID_17_" x="22.55" y="-116.465" width="1.265" height="1.194"/>
	</defs>
	<clipPath id="SVGID_18_">
		<use xlink:href="#SVGID_17_"  overflow="visible"/>
	</clipPath>
	<g clip-path="url(#SVGID_18_)">
		<defs>
			<rect id="SVGID_19_" x="-198" y="-1294" width="1024" height="2360"/>
		</defs>
		<clipPath id="SVGID_20_">
			<use xlink:href="#SVGID_19_"  overflow="visible"/>
		</clipPath>
		<rect x="17.55" y="-121.465" clip-path="url(#SVGID_20_)" width="11.265" height="11.194"/>
	</g>
</g>
<g>
	<defs>
		<rect id="SVGID_21_" x="21.429" y="-111.694" width="7.607" height="1.194"/>
	</defs>
	<clipPath id="SVGID_22_">
		<use xlink:href="#SVGID_21_"  overflow="visible"/>
	</clipPath>
	<g clip-path="url(#SVGID_22_)">
		<defs>
			<rect id="SVGID_23_" x="-198" y="-1294" width="1024" height="2360"/>
		</defs>
		<clipPath id="SVGID_24_">
			<use xlink:href="#SVGID_23_"  overflow="visible"/>
		</clipPath>
		<rect x="16.429" y="-116.694" clip-path="url(#SVGID_24_)" width="17.607" height="11.194"/>
	</g>
</g>
<g>
	<defs>
		<rect id="SVGID_25_" x="21.429" y="-106.917" width="7.607" height="1.195"/>
	</defs>
	<clipPath id="SVGID_26_">
		<use xlink:href="#SVGID_25_"  overflow="visible"/>
	</clipPath>
	<g clip-path="url(#SVGID_26_)">
		<defs>
			<rect id="SVGID_27_" x="-198" y="-1294" width="1024" height="2360"/>
		</defs>
		<clipPath id="SVGID_28_">
			<use xlink:href="#SVGID_27_"  overflow="visible"/>
		</clipPath>
		<rect x="16.429" y="-111.917" clip-path="url(#SVGID_28_)" width="17.607" height="11.195"/>
	</g>
</g>
<g>
	<defs>
		<rect id="SVGID_29_" x="7.964" y="-102.146" width="21.071" height="1.194"/>
	</defs>
	<clipPath id="SVGID_30_">
		<use xlink:href="#SVGID_29_"  overflow="visible"/>
	</clipPath>
	<g clip-path="url(#SVGID_30_)">
		<defs>
			<rect id="SVGID_31_" x="-198" y="-1294" width="1024" height="2360"/>
		</defs>
		<clipPath id="SVGID_32_">
			<use xlink:href="#SVGID_31_"  overflow="visible"/>
		</clipPath>
		<rect x="2.964" y="-107.146" clip-path="url(#SVGID_32_)" width="31.071" height="11.194"/>
	</g>
</g>
<g>
	<defs>
		<rect id="SVGID_33_" x="7.964" y="-97.368" width="21.071" height="1.194"/>
	</defs>
	<clipPath id="SVGID_34_">
		<use xlink:href="#SVGID_33_"  overflow="visible"/>
	</clipPath>
	<g clip-path="url(#SVGID_34_)">
		<defs>
			<rect id="SVGID_35_" x="-198" y="-1294" width="1024" height="2360"/>
		</defs>
		<clipPath id="SVGID_36_">
			<use xlink:href="#SVGID_35_"  overflow="visible"/>
		</clipPath>
		<rect x="2.964" y="-102.368" clip-path="url(#SVGID_36_)" width="31.071" height="11.194"/>
	</g>
</g>
<g>
	<defs>
		<path id="SVGID_37_" d="M370.021-123.439c0-2.925,2.458-5.304,5.479-5.304s5.479,2.379,5.479,5.304v0.526h-4.469
			c-0.643,0-1.165,0.505-1.165,1.129c0,0.623,0.522,1.128,1.165,1.128h4.469v1.354h-4.469c-0.643,0-1.165,0.505-1.165,1.128
			c0,0.624,0.522,1.129,1.165,1.129h4.469v1.354h-4.469c-0.643,0-1.165,0.505-1.165,1.128s0.522,1.129,1.165,1.129h4.469v1.354
			h-4.469c-0.643,0-1.165,0.505-1.165,1.129c0,0.623,0.522,1.128,1.165,1.128h4.469v0.678c0,2.924-2.458,5.304-5.479,5.304
			s-5.479-2.38-5.479-5.304V-123.439z M375.5-101.585c4.307,0,7.81-3.392,7.81-7.561v-14.294c0-4.169-3.503-7.561-7.81-7.561
			s-7.81,3.392-7.81,7.561v14.294C367.69-104.977,371.193-101.585,375.5-101.585z M385.834-116.18c-0.644,0-1.165,0.506-1.165,1.129
			v1.09c0,0.624,0.521,1.129,1.165,1.129c0.645,0,1.166-0.505,1.166-1.129v-1.09C387-115.674,386.479-116.18,385.834-116.18z
			 M385.834-111.779c-0.644,0-1.165,0.505-1.165,1.129v1.468c0,4.895-4.113,8.877-9.169,8.877s-9.169-3.982-9.169-8.877v-5.868
			c0-0.623-0.521-1.129-1.165-1.129c-0.645,0-1.166,0.506-1.166,1.129v5.868c0,5.758,4.539,10.51,10.334,11.077v5.849h-2.953
			c-0.644,0-1.165,0.505-1.165,1.128c0,0.624,0.521,1.129,1.165,1.129h8.238c0.644,0,1.165-0.505,1.165-1.129
			c0-0.623-0.521-1.128-1.165-1.128h-2.953v-5.849c5.795-0.567,10.334-5.319,10.334-11.077v-1.468
			C387-111.274,386.479-111.779,385.834-111.779z"/>
	</defs>
	<clipPath id="SVGID_38_">
		<use xlink:href="#SVGID_37_"  overflow="visible"/>
	</clipPath>
	<g clip-path="url(#SVGID_38_)">
		<defs>
			<rect id="SVGID_39_" x="-198" y="-1294" width="1024" height="2360"/>
		</defs>
		<clipPath id="SVGID_40_">
			<use xlink:href="#SVGID_39_"  overflow="visible"/>
		</clipPath>
		<rect x="359" y="-136" clip-path="url(#SVGID_40_)" width="33" height="51"/>
	</g>
</g>
<g>
	<defs>
		<rect id="SVGID_41_" width="38" height="38"/>
	</defs>
	<clipPath id="SVGID_42_">
		<use xlink:href="#SVGID_41_"  overflow="visible"/>
	</clipPath>
	<g clip-path="url(#SVGID_42_)">
		<defs>
			<rect id="SVGID_43_" x="-198" y="-1294" width="1024" height="2360"/>
		</defs>
		<clipPath id="SVGID_44_">
			<use xlink:href="#SVGID_43_"  overflow="visible"/>
		</clipPath>
		<g clip-path="url(#SVGID_44_)" enable-background="new    ">
			<g>
				<defs>
					<rect id="SVGID_45_" width="38" height="38"/>
				</defs>
				<clipPath id="SVGID_46_">
					<use xlink:href="#SVGID_45_"  overflow="visible"/>
				</clipPath>
				<g clip-path="url(#SVGID_46_)">
					<defs>
						<path id="SVGID_47_" d="M38,9.243c0-0.374-0.149-0.733-0.414-0.999l-7.832-7.83c-0.551-0.552-1.445-0.552-1.997,0
							l-4.814,4.812c-0.004,0.004-0.01,0.008-0.014,0.012c-0.004,0.005-0.008,0.01-0.012,0.014L2.635,25.533
							c-0.002,0.002-0.004,0.004-0.006,0.006l-0.019,0.02c-0.018,0.018-0.03,0.039-0.046,0.058
							c-0.043,0.047-0.086,0.095-0.122,0.147C2.417,25.8,2.4,25.838,2.379,25.874c-0.024,0.043-0.049,0.085-0.068,0.131
							c-0.022,0.053-0.038,0.106-0.053,0.161c-0.009,0.03-0.022,0.058-0.029,0.089l-2.197,10.03
							c-0.104,0.471,0.041,0.96,0.381,1.301C0.682,37.854,1.042,38,1.413,38c0.1,0,0.202-0.012,0.302-0.033l9.993-2.189
							c0.009-0.002,0.017-0.004,0.026-0.006l0.01-0.002c0.013-0.003,0.022-0.009,0.035-0.012c0.078-0.02,0.153-0.042,0.227-0.074
							c0.026-0.012,0.048-0.026,0.074-0.04c0.056-0.028,0.114-0.058,0.165-0.094c0.029-0.02,0.054-0.044,0.081-0.065
							c0.039-0.032,0.08-0.06,0.115-0.095l20.318-20.318c0.001-0.002,0.003-0.003,0.004-0.004c0.001-0.001,0.002-0.002,0.003-0.004
							l4.823-4.822C37.851,9.977,38,9.618,38,9.243z M23.929,8.235l1.423,1.423L7.029,27.981l-1.424-1.424L23.929,8.235z
							 M29.764,14.069L11.439,32.394l-2.415-2.415L27.35,11.654L29.764,14.069z M4.435,29.382l1.592,1.592
							c0,0.001,0.002,0.003,0.002,0.004s0.002,0.002,0.003,0.003l2.582,2.583l-5.352,1.173L4.435,29.382z M31.762,12.072
							l-3.409-3.408c-0.001-0.002-0.003-0.004-0.004-0.006c-0.002-0.002-0.004-0.002-0.006-0.004l-2.416-2.416l2.829-2.829
							l5.834,5.834L31.762,12.072z"/>
					</defs>
					<clipPath id="SVGID_48_">
						<use xlink:href="#SVGID_47_"  overflow="visible"/>
					</clipPath>
					<g clip-path="url(#SVGID_48_)">
						<defs>
							<rect id="SVGID_49_" width="38" height="38"/>
						</defs>
						<clipPath id="SVGID_50_">
							<use xlink:href="#SVGID_49_"  overflow="visible"/>
						</clipPath>
						<rect x="-5" y="-5" clip-path="url(#SVGID_50_)" width="48" height="48"/>
					</g>
				</g>
			</g>
		</g>
	</g>
</g>
<g>
	<defs>
		<path id="SVGID_51_" d="M386.133,17.856c0.993,0.757,2.221,1.213,3.557,1.213c1.332,0,2.566-0.461,3.559-1.213
			c1.895,0.958,3.247,2.69,3.247,5.492v2.64c-3.041,2.039-5.936,2.698-8.861,2.098v-2.901c0-2.774-0.86-5.087-2.235-6.886
			C385.631,18.141,385.877,17.988,386.133,17.856z M364.885,17.856c0.256,0.133,0.486,0.298,0.718,0.459
			c-1.368,1.796-2.235,4.099-2.235,6.869v2.885c-2.947,0.617-5.827-0.042-8.862-2.065v-2.655c0-2.791,1.347-4.51,3.247-5.476
			c0.992,0.75,2.229,1.196,3.559,1.196C362.648,19.069,363.891,18.615,364.885,17.856z M370.515,16.938
			c1.361,1.118,3.087,1.804,4.978,1.804c1.894,0,3.646-0.673,5.01-1.787c2.918,1.393,5.043,4.038,5.043,8.229v3.983
			c-6.773,4.641-13.238,4.648-20.09-0.032v-3.951C365.455,20.978,367.579,18.338,370.515,16.938L370.515,16.938z M389.689,9.431
			c2.113,0,3.803,1.673,3.803,3.787c0,2.088-1.689,3.754-3.803,3.754c-2.217-0.05-3.754-1.611-3.785-3.754
			C385.904,11.104,387.576,9.431,389.689,9.431z M361.311,9.431c2.113,0,3.803,1.673,3.803,3.787c0,2.088-1.689,3.754-3.803,3.754
			c-2.134-0.131-3.769-1.454-3.803-3.754C357.508,11.104,359.197,9.431,361.311,9.431z M375.492,5.119
			c3.233,0,5.81,2.548,5.81,5.754c-0.199,3.321-2.685,5.724-5.81,5.771c-3.207,0-5.777-2.588-5.777-5.771
			C369.715,7.667,372.282,5.119,375.492,5.119z M375.492,3.021c-4.326,0-7.866,3.506-7.866,7.853c0,1.665,0.511,3.219,1.403,4.492
			c-0.705,0.392-1.364,0.856-1.975,1.394c-0.235-0.178-0.481-0.323-0.734-0.476c0.556-0.893,0.881-1.94,0.881-3.065
			c0-3.253-2.663-5.886-5.891-5.886c-3.229,0-5.892,2.633-5.892,5.886c0,1.125,0.325,2.173,0.882,3.065
			c-2.23,1.365-3.885,3.794-3.885,7.065v3.213c0.008,0.472,0.389,0.771,0.652,1c3.954,2.79,6.906,3.25,10.412,2.623
			c0.006,0.006,0.012,0.011,0.017,0.017c10.038,8.057,19.743,3.975,24.038-0.017c3.49,0.61,7.034-0.295,10.429-2.656
			c0.508-0.33,0.589-0.567,0.62-1.131v-3.049c0-3.284-1.651-5.724-3.885-7.082c0.552-0.89,0.882-1.929,0.882-3.049
			c0-3.253-2.663-5.886-5.892-5.886c-3.228,0-5.875,2.633-5.875,5.886c0,1.118,0.315,2.16,0.865,3.049
			c-0.248,0.147-0.499,0.301-0.734,0.476c-0.607-0.531-1.275-0.989-1.975-1.377c0.895-1.273,1.42-2.827,1.42-4.492
			C383.391,6.526,379.836,3.021,375.492,3.021L375.492,3.021z"/>
	</defs>
	<clipPath id="SVGID_52_">
		<use xlink:href="#SVGID_51_"  overflow="visible"/>
	</clipPath>
	<g clip-path="url(#SVGID_52_)">
		<defs>
			<rect id="SVGID_53_" x="-198" y="-1294" width="1024" height="2360"/>
		</defs>
		<clipPath id="SVGID_54_">
			<use xlink:href="#SVGID_53_"  overflow="visible"/>
		</clipPath>
		<rect x="347.416" y="-1.979" clip-path="url(#SVGID_54_)" width="56.168" height="41.814"/>
	</g>
</g>
<g>
	<defs>
		<path id="SVGID_55_" d="M526.318-98.152c-0.043,0.084-0.127,0.21-0.338,0.252l-21.406,6.385c-0.297,0.084-0.592-0.084-0.676-0.378
			l-1.521-5.082c0.169,0.084,0.338,0.168,0.464,0.294c0.423,0.336,1.057,0.294,1.436-0.126c0.338-0.42,0.297-1.051-0.126-1.429
			c-0.676-0.546-1.521-0.84-2.407-0.84l-1.646-5.46c0.169,0.084,0.338,0.168,0.465,0.294c0.422,0.336,1.056,0.294,1.436-0.126
			c0.338-0.42,0.295-1.05-0.127-1.428c-0.676-0.546-1.52-0.84-2.406-0.84l-1.646-5.46c0.168,0.084,0.338,0.168,0.464,0.294
			c0.423,0.336,1.056,0.294,1.436-0.126c0.338-0.42,0.296-1.05-0.126-1.429c-0.676-0.546-1.521-0.84-2.407-0.84l-1.646-5.46
			c0.169,0.084,0.337,0.168,0.464,0.294c0.423,0.336,1.057,0.294,1.436-0.126c0.338-0.42,0.296-1.05-0.127-1.428
			c-0.675-0.546-1.52-0.84-2.406-0.84l-0.168-0.504c-0.085-0.294,0.084-0.588,0.379-0.672l21.365-6.511
			c0.042,0,0.084-0.042,0.168-0.042c0.254,0,0.465,0.168,0.508,0.378l9.204,30.534C526.402-98.362,526.36-98.194,526.318-98.152z
			 M500.014-94.792c-0.169-0.588,0-1.218,0.38-1.68l0.845,2.855C500.689-93.742,500.183-94.162,500.014-94.792z M498.578-101.344
			c-0.422-0.21-0.718-0.588-0.845-1.05c-0.126-0.463-0.085-0.925,0.127-1.345c0.085-0.126,0.126-0.252,0.253-0.336l0.845,2.856
			C498.831-101.218,498.705-101.26,498.578-101.344z M496.298-108.946c-0.423-0.21-0.718-0.588-0.845-1.05
			c-0.168-0.588,0-1.218,0.381-1.68l0.844,2.855C496.551-108.82,496.425-108.862,496.298-108.946z M494.018-116.548
			c-0.422-0.21-0.717-0.588-0.844-1.05s-0.085-0.925,0.127-1.345c0.084-0.126,0.126-0.252,0.253-0.336l0.845,2.856
			C494.271-116.422,494.145-116.464,494.018-116.548z M528.303-99.118l-9.205-30.534c-0.338-1.05-1.351-1.806-2.449-1.806
			c-0.253,0-0.506,0.042-0.717,0.126l-21.449,6.342c-1.352,0.42-2.111,1.849-1.73,3.192l0.126,0.462
			c-0.591,0.336-1.056,0.84-1.394,1.428c-0.465,0.882-0.591,1.891-0.295,2.856c0.295,0.966,0.929,1.764,1.814,2.226
			c0.55,0.294,1.184,0.462,1.773,0.462c0.043,0,0.127,0,0.17,0l0.168,0.588c-1.436,0.883-2.195,2.646-1.688,4.326
			c0.507,1.639,1.984,2.688,3.632,2.688c0.041,0,0.126,0,0.168,0l0.169,0.588c-0.591,0.336-1.056,0.84-1.394,1.428
			c-0.464,0.882-0.591,1.89-0.295,2.856c0.295,0.966,0.929,1.764,1.815,2.226c0.549,0.294,1.183,0.462,1.773,0.462
			c0.042,0,0.126,0,0.169,0l0.168,0.588c-1.436,0.882-2.195,2.646-1.688,4.326c0.506,1.638,1.984,2.688,3.631,2.688
			c0.042,0,0.126,0,0.168,0l0.085,0.252c0.338,1.092,1.351,1.806,2.448,1.806c0.254,0,0.508-0.042,0.719-0.126l21.406-6.384
			c0.676-0.21,1.182-0.63,1.52-1.218C528.43-97.774,528.471-98.488,528.303-99.118z"/>
	</defs>
	<clipPath id="SVGID_56_">
		<use xlink:href="#SVGID_55_"  overflow="visible"/>
	</clipPath>
	<g clip-path="url(#SVGID_56_)">
		<defs>
			<rect id="SVGID_57_" x="-64.275" y="-1543.458" width="1024" height="2360"/>
		</defs>
		<clipPath id="SVGID_58_">
			<use xlink:href="#SVGID_57_"  overflow="visible"/>
		</clipPath>
		<rect x="486.03" y="-136.458" clip-path="url(#SVGID_58_)" width="47.361" height="51.916"/>
	</g>
</g>
<g>
	<defs>
		<path id="SVGID_59_" d="M515.594-114.406c-0.043,0.084-0.127,0.21-0.338,0.252l-10.767,3.192
			c-0.296,0.084-0.591-0.084-0.676-0.378l-1.604-5.25c-0.042-0.168,0-0.336,0.043-0.42c0.041-0.084,0.126-0.21,0.337-0.252
			l10.767-3.192c0.043,0,0.084-0.042,0.169-0.042c0.253,0,0.465,0.168,0.507,0.378l1.604,5.292
			C515.721-114.616,515.636-114.49,515.594-114.406z M516.016-120.664c-0.338-1.092-1.352-1.806-2.449-1.806
			c-0.253,0-0.506,0.042-0.717,0.126l-10.768,3.191c-0.676,0.21-1.182,0.63-1.52,1.219c-0.338,0.588-0.38,1.302-0.211,1.932
			l1.604,5.25c0.338,1.092,1.352,1.806,2.449,1.806c0.254,0,0.507-0.042,0.719-0.126l10.766-3.191
			c0.676-0.21,1.183-0.63,1.521-1.219c0.338-0.588,0.38-1.302,0.211-1.932L516.016-120.664z"/>
	</defs>
	<clipPath id="SVGID_60_">
		<use xlink:href="#SVGID_59_"  overflow="visible"/>
	</clipPath>
	<g clip-path="url(#SVGID_60_)">
		<defs>
			<rect id="SVGID_61_" x="-64.275" y="-1543.458" width="1024" height="2360"/>
		</defs>
		<clipPath id="SVGID_62_">
			<use xlink:href="#SVGID_61_"  overflow="visible"/>
		</clipPath>
		<rect x="495.255" y="-127.47" clip-path="url(#SVGID_62_)" width="27.462" height="23.523"/>
	</g>
</g>
<g>
	<defs>
		<path id="SVGID_63_" d="M512.891-117.976l-8.528,2.52c-0.549,0.168-0.845,0.714-0.675,1.26c0.126,0.42,0.549,0.714,0.971,0.714
			c0.084,0,0.211,0,0.295-0.042l8.529-2.52c0.549-0.168,0.844-0.714,0.676-1.26C513.989-117.85,513.439-118.144,512.891-117.976z"/>
	</defs>
	<clipPath id="SVGID_64_">
		<use xlink:href="#SVGID_63_"  overflow="visible"/>
	</clipPath>
	<g clip-path="url(#SVGID_64_)">
		<defs>
			<rect id="SVGID_65_" x="-64.275" y="-1543.458" width="1024" height="2360"/>
		</defs>
		<clipPath id="SVGID_66_">
			<use xlink:href="#SVGID_65_"  overflow="visible"/>
		</clipPath>
		<rect x="498.64" y="-123.023" clip-path="url(#SVGID_66_)" width="20.565" height="14.541"/>
	</g>
</g>
<g>
	<defs>
		<path id="SVGID_67_" d="M37.929-325.05v21.853c0,0.454-0.393,0.852-0.842,0.852H18.062v-1.702h18.184v-20.15H14.133v1.702
			c-0.505-0.34-1.066-0.624-1.684-0.851v-1.703c0-0.454,0.393-0.852,0.842-0.852h23.796
			C37.536-325.901,37.929-325.504,37.929-325.05z M16.097-308.703c-0.449,0-0.842,0.397-0.842,0.852v14.304H6.612v-16.46h17.679
			c0.337,0,0.673,0.283,0.673,0.681s-0.281,0.682-0.673,0.682h-8.194V-308.703z M26.648-309.384c0-1.306-1.066-2.384-2.357-2.384
			H5.771c-0.449,0-0.842,0.397-0.842,0.852v18.163c0,0.454,0.393,0.852,0.842,0.852h10.271c0.449,0,0.842-0.397,0.842-0.852V-307
			h7.352C25.582-307,26.648-308.021,26.648-309.384z M16.602-312.847c-0.224,0-0.393-0.057-0.561-0.227
			c-0.337-0.341-0.393-0.852-0.056-1.192l4.377-4.881c0.168-0.171,0.393-0.284,0.617-0.284l0,0c0.225,0,0.449,0.113,0.618,0.284
			l1.796,2.043l2.469-3.462c0.168-0.228,0.449-0.341,0.729-0.341c0.281,0,0.562,0.17,0.674,0.397l1.515,2.554l4.434-4.824
			c0.337-0.341,0.842-0.341,1.179-0.057c0.336,0.34,0.336,0.852,0.056,1.191l-5.164,5.677c-0.168,0.17-0.449,0.283-0.729,0.283
			c-0.28,0-0.505-0.17-0.617-0.397l-1.459-2.44l-2.357,3.292c-0.168,0.228-0.393,0.341-0.617,0.341
			c-0.225,0-0.505-0.113-0.674-0.284l-1.852-2.1l-3.76,4.2C17.051-312.96,16.827-312.847,16.602-312.847z M10.934-320.68
			c1.459,0,2.638,1.192,2.638,2.668s-1.179,2.668-2.638,2.668c-1.459,0-2.638-1.192-2.638-2.668S9.475-320.68,10.934-320.68z
			 M10.934-313.641c2.414,0,4.322-1.987,4.322-4.371s-1.964-4.37-4.322-4.37c-2.357,0-4.321,1.986-4.321,4.37
			S8.521-313.641,10.934-313.641z"/>
	</defs>
	<clipPath id="SVGID_68_">
		<use xlink:href="#SVGID_67_"  overflow="visible"/>
	</clipPath>
	<g clip-path="url(#SVGID_68_)">
		<defs>
			<rect id="SVGID_69_" x="-195.071" y="-1904.901" width="1024" height="2360"/>
		</defs>
		<clipPath id="SVGID_70_">
			<use xlink:href="#SVGID_69_"  overflow="visible"/>
		</clipPath>
		<rect x="-0.071" y="-330.901" clip-path="url(#SVGID_70_)" width="43" height="44"/>
	</g>
</g>
<g>
	<defs>
		<path id="SVGID_71_" d="M341.86-305.91c4.647,0.097,8.235,0.687,9.658,2.108c0.236,0.241,0.56,0.379,0.897,0.382h8.022
			c0.489,0,0.845,0.354,0.845,0.844c0,0.488-0.355,0.843-0.845,0.843h-12.245c-0.457-0.006-0.881,0.233-1.111,0.628
			c-0.23,0.394-0.23,0.881,0,1.275c0.23,0.394,0.654,0.634,1.111,0.627h12.245c1.462,0,2.688-0.968,3.153-2.279
			c0.018-0.009,0.035-0.018,0.053-0.026c0,0,0.625-0.388,1.425-0.778c0.801-0.39,1.837-0.711,2.124-0.711
			c0.211,0,0.825,0.009,1.268,0.145c0.221,0.068,0.371,0.162,0.408,0.198c0.037,0.035,0.014-0.026,0.014,0.079
			c0,0.491-0.041,0.557-0.132,0.685c-0.092,0.128-0.384,0.388-0.989,0.791c-0.019,0.008-0.036,0.017-0.053,0.026
			c0,0-2.373,1.756-5.516,3.505c-3.143,1.75-7.09,3.427-9.777,3.427c-2.998,0-4.716-0.566-6.241-1.424
			c-1.359-0.764-2.653-1.854-4.314-3.018V-305.91z M335.949-307.636h3.378v0.343c-0.001,0.026-0.001,0.053,0,0.079v9.276v2.952
			h-3.378V-307.636z M334.551-310.167c-0.647,0.067-1.139,0.615-1.135,1.265v15.182c0,0.698,0.566,1.265,1.267,1.265h5.911
			c0.699,0,1.267-0.566,1.267-1.265v-1.753c0.985,0.745,1.94,1.472,3.074,2.108c1.853,1.041,4.146,1.753,7.481,1.753
			c3.645,0,7.721-1.921,11.018-3.756c3.248-1.809,5.655-3.585,5.727-3.638c0.018-0.011,0.035-0.015,0.053-0.026v-0.013
			c0.635-0.423,1.173-0.792,1.596-1.384c0.438-0.61,0.607-1.375,0.607-2.147c0-0.738-0.34-1.446-0.791-1.885
			s-0.961-0.661-1.426-0.804c-0.93-0.286-1.795-0.264-2.006-0.264c-1.229,0-2.301,0.509-3.232,0.962
			c-0.354,0.172-0.367,0.195-0.633,0.343c-0.586-1.015-1.646-1.727-2.89-1.727h-7.573c-2.491-2.104-6.403-2.47-11.005-2.517v-0.436
			c0-0.698-0.567-1.265-1.267-1.265h-5.911C334.639-310.168,334.595-310.168,334.551-310.167z M353.973-317.756
			c-0.452,0.023-0.857,0.286-1.064,0.689c-0.205,0.403-0.18,0.885,0.066,1.265c0.247,0.38,0.678,0.6,1.131,0.575h10.977
			c0.457,0.007,0.883-0.232,1.113-0.627c0.229-0.395,0.229-0.882,0-1.275c-0.23-0.395-0.656-0.634-1.113-0.627h-10.977
			C354.061-317.759,354.018-317.759,353.973-317.756z M353.973-321.13c-0.452,0.023-0.857,0.286-1.064,0.689
			c-0.205,0.403-0.18,0.886,0.066,1.266c0.247,0.379,0.678,0.599,1.131,0.575h10.977c0.457,0.007,0.883-0.233,1.113-0.627
			c0.229-0.395,0.229-0.882,0-1.276c-0.23-0.394-0.656-0.634-1.113-0.627h-10.977C354.061-321.132,354.018-321.132,353.973-321.13z
			 M359.594-323.661c2.443,0,4.639,0.691,6.148,1.739c1.51,1.049,2.296,2.371,2.296,3.743c0,1.371-0.786,2.681-2.296,3.729
			c-1.51,1.048-3.705,1.752-6.148,1.752c-0.922,0-1.208-0.155-2.243-0.396c-0.304-0.071-0.623-0.029-0.897,0.119l-2.189,1.199
			l0.237-1.081c0.121-0.551-0.138-1.114-0.634-1.384c-1.992-1.089-2.718-2.224-2.718-3.939c0-1.372,0.786-2.694,2.296-3.743
			C354.955-322.969,357.15-323.661,359.594-323.661z M359.594-326.191c-2.92,0-5.582,0.808-7.587,2.201s-3.391,3.457-3.391,5.812
			c0,2.279,1.216,4.217,3.22,5.601l-0.66,2.978c-0.108,0.485,0.078,0.989,0.477,1.288c0.398,0.298,0.935,0.336,1.371,0.096
			l4.222-2.306c0.692,0.174,1.343,0.355,2.349,0.355c2.92,0,5.582-0.82,7.587-2.214s3.392-3.443,3.392-5.798
			s-1.387-4.418-3.392-5.812S362.514-326.191,359.594-326.191z"/>
	</defs>
	<clipPath id="SVGID_72_">
		<use xlink:href="#SVGID_71_"  overflow="visible"/>
	</clipPath>
	<g clip-path="url(#SVGID_72_)">
		<defs>
			<rect id="SVGID_73_" x="-221.584" y="-1905.343" width="1024" height="2360"/>
		</defs>
		<clipPath id="SVGID_74_">
			<use xlink:href="#SVGID_73_"  overflow="visible"/>
		</clipPath>
		<rect x="328.416" y="-331.191" clip-path="url(#SVGID_74_)" width="48" height="44.579"/>
	</g>
</g>
<g>
	<defs>
		<path id="SVGID_75_" d="M585.395-259.038c1.942,0,3.518,1.527,3.518,3.411s-1.575,3.411-3.518,3.411
			c-1.943,0-3.518-1.527-3.518-3.411C581.879-257.51,583.453-259.035,585.395-259.038z M605.955-270.486
			c1.943,0,3.518,1.527,3.518,3.411s-1.574,3.411-3.518,3.411c-1.942,0-3.518-1.527-3.518-3.411
			c0.006-1.882,1.578-3.404,3.518-3.407V-270.486z M605.955-247.559c1.943,0,3.518,1.527,3.518,3.411s-1.574,3.411-3.518,3.411
			c-1.942,0-3.518-1.527-3.518-3.411c0.006-1.881,1.578-3.404,3.518-3.406V-247.559z M585.395-249.117
			c1.668-0.001,3.273-0.608,4.502-1.703l9.727,4.578c-1.103,3.117,0.368,6.542,3.428,7.979c3.059,1.436,6.741,0.43,8.578-2.343
			s1.25-6.438-1.369-8.54c-2.617-2.101-6.441-1.975-8.906,0.294l-9.668-4.552c0.577-1.527,0.537-3.21-0.113-4.709l9.531-4.49
			c2.345,2.387,6.158,2.699,8.883,0.727c2.724-1.973,3.499-5.607,1.805-8.466c-1.693-2.858-5.322-4.039-8.451-2.75
			c-3.129,1.29-4.771,4.643-3.825,7.809l-9.882,4.657c-2.28-1.812-5.516-1.964-7.966-0.373c-2.45,1.59-3.54,4.548-2.682,7.284
			c0.858,2.735,3.46,4.604,6.409,4.604V-249.117z"/>
	</defs>
	<clipPath id="SVGID_76_">
		<use xlink:href="#SVGID_75_"  overflow="visible"/>
	</clipPath>
	<g clip-path="url(#SVGID_76_)">
		<defs>
			<rect id="SVGID_77_" x="378.695" y="-2019.612" width="1024" height="2360"/>
		</defs>
		<clipPath id="SVGID_78_">
			<use xlink:href="#SVGID_77_"  overflow="visible"/>
		</clipPath>
		<rect x="573.695" y="-278.612" clip-path="url(#SVGID_78_)" width="44" height="46"/>
	</g>
</g>
<g>
	<defs>
		<path id="SVGID_79_" d="M219.333-73.368l-8-5.653v-7.693l8-5.653V-73.368z M207.333-73.787c0,0.795-0.625,1.419-1.422,1.419
			h-21.156c-0.796,0-1.422-0.624-1.422-1.419v-18.162c0-0.795,0.625-1.419,1.422-1.419h21.156c0.796,0,1.422,0.624,1.422,1.419
			V-73.787z M221.423-96.061c-1.124-0.625-2.473-0.568-3.596,0.114l-6.968,4.549v-0.568c0-2.957-2.417-5.402-5.338-5.402h-20.848
			c-2.922,0-5.338,2.445-5.338,5.402v18.195c0,2.957,2.417,5.402,5.338,5.402h20.904c2.922,0,5.338-2.445,5.338-5.402v-0.568
			l6.968,4.549c0.562,0.398,1.236,0.569,1.911,0.569c0.562,0,1.124-0.171,1.686-0.455c1.124-0.626,1.854-1.877,1.854-3.185v-19.959
			C223.277-94.184,222.603-95.435,221.423-96.061z"/>
	</defs>
	<clipPath id="SVGID_80_">
		<use xlink:href="#SVGID_79_"  overflow="visible"/>
	</clipPath>
	<g clip-path="url(#SVGID_80_)">
		<defs>
			<rect id="SVGID_81_" x="-14.667" y="-1514.368" width="1024" height="2360"/>
		</defs>
		<clipPath id="SVGID_82_">
			<use xlink:href="#SVGID_81_"  overflow="visible"/>
		</clipPath>
		<rect x="174.333" y="-102.368" clip-path="url(#SVGID_82_)" width="54" height="39"/>
	</g>
</g>
</svg>
