<svg xmlns="http://www.w3.org/2000/svg" viewBox="256.051 1.391 447.961 445.218">
<path d="M428.891,56c65.326,0,118.283,52.957,118.283,118.283c0,65.323-52.957,118.28-118.283,118.28
	c-65.324,0-118.281-52.957-118.281-118.28C310.607,108.957,363.564,56,428.891,56L428.891,56 M428.891,1.391
	C333.389,1.439,256.004,78.9,256.051,174.405c0.035,69.427,41.592,132.102,105.525,159.166
	c88.143,36.771,189.404-4.874,226.174-93.019c36.531-87.568-4.32-188.216-91.547-225.554C474.911,5.979,452.016,1.352,428.891,1.391
	L428.891,1.391z"/>
<rect x="583.908" y="249.876" transform="matrix(0.7071 -0.7071 0.7071 0.7071 -71.1658 535.8036)" width="54.609" height="207.867"/>
</svg>
