<svg xmlns="http://www.w3.org/2000/svg" viewBox="0 0 403.545 367.36">
<path fill="none" d="M217.4,126.98c5.265,2.855,8.005,8.85,6.72,14.7l-2.521,11.48l23.24-12.74c2.91-1.578,6.3-2.027,9.521-1.26
	c10.98,2.552,14.024,4.2,23.8,4.2c25.927,0,49.225-7.479,65.24-18.62c16.016-11.142,24.359-25.047,24.359-39.62
	s-8.344-28.619-24.359-39.76c-16.016-11.142-39.313-18.48-65.24-18.48c-25.928,0-49.225,7.338-65.24,18.48
	c-16.016,11.141-24.36,25.187-24.36,39.76C188.56,103.356,196.254,115.412,217.4,126.98z M218.52,53.72
	c0.467-0.024,0.935-0.04,1.4-0.04H336.4c0.126,0,0.253,0.038,0.38,0.04c7.423,0.105,13.354,6.247,13.25,13.67
	c-0.105,7.423-6.208,13.29-13.63,13.29H219.92c-7.423,0-13.753-5.357-14.14-12.78C205.394,60.478,211.098,54.107,218.52,53.72z
	 M218.52,89.64c0.467-0.024,0.935,0.04,1.4,0.04H336.4c0.126,0,0.253-0.042,0.38-0.04c7.423,0.105,13.354,6.288,13.25,13.71
	c-0.105,7.423-6.208,13.33-13.63,13.33H219.92c-7.423,0-13.753-5.397-14.14-12.82S211.098,90.027,218.52,89.64z"/>
<path fill="none" d="M27,331.68h36v-31.52V201.6c0-0.279,0-0.561,0-0.84v-4.08H27V331.68z"/>
<path fill="none" d="M376.58,250.04c-0.393-0.381-1.996-1.379-4.34-2.1c-4.688-1.441-11.2-1.539-13.44-1.539
	c-3.05,0-14.044,3.418-22.54,7.559c-8.495,4.143-15.12,8.261-15.12,8.261c-0.185,0.098-0.371,0.171-0.56,0.261
	c-4.93,13.934-17.952,24.199-33.46,24.199H157.2c-0.127,0-0.254,0.021-0.38,0.02c-7.423-0.105-13.355-6.276-13.25-13.699
	c0.104-7.423,6.207-13.32,13.63-13.32h129.92c5.196,0,8.96-3.804,8.96-9s-3.764-9-8.96-9H202c-3.588,0-7.016-1.37-9.52-3.94
	c-15.104-15.104-53.174-21.254-102.48-22.28V293.3c17.627,12.354,31.354,23.945,45.78,32.06c16.182,9.103,34.412,15.12,66.22,15.12
	c28.523,0,70.398-17.815,103.74-36.399s58.52-37.24,58.52-37.24c0.185-0.098,0.371-0.191,0.561-0.28
	c6.433-4.288,9.529-7.042,10.5-8.399c0.97-1.359,1.399-2.054,1.399-7.28C376.72,249.762,376.973,250.42,376.58,250.04z"/>
<path d="M219.92,80.68H336.4c7.422,0,13.524-5.847,13.63-13.27c0.104-7.423-5.827-13.575-13.25-13.68
	c-0.127-0.002-0.254-0.05-0.38-0.05H219.92c-0.466,0-0.934,0.016-1.4,0.04c-7.422,0.387-13.126,6.757-12.739,14.18
	C206.167,75.323,212.497,80.68,219.92,80.68z"/>
<path d="M219.92,116.68H336.4c7.422,0,13.524-5.927,13.63-13.35c0.104-7.422-5.827-13.535-13.25-13.64
	c-0.127-0.002-0.254-0.01-0.38-0.01H219.92c-0.466,0-0.934-0.064-1.4-0.04c-7.422,0.387-13.126,6.797-12.739,14.22
	S212.497,116.68,219.92,116.68z"/>
<path d="M195.84,144.62l-7,31.64c-1.615,7.246,2.95,14.429,10.195,16.043c3.194,0.713,6.538,0.234,9.405-1.344l44.8-24.5
	c7.35,1.848,14.25,3.78,24.92,3.78c30.98,0,59.223-8.718,80.5-23.52s35.979-36.585,35.979-61.6s-14.702-46.938-35.979-61.74
	C337.383,8.579,309.141,0,278.16,0s-59.223,8.579-80.5,23.38c-21.277,14.801-35.98,36.725-35.98,61.74
	C161.68,109.339,174.578,129.927,195.84,144.62z M212.92,45.36c16.016-11.142,39.312-18.48,65.24-18.48
	c25.927,0,49.225,7.338,65.24,18.48c16.016,11.141,24.359,25.187,24.359,39.76s-8.344,28.479-24.359,39.62
	c-16.016,11.141-39.313,18.62-65.24,18.62c-9.775,0-12.819-1.648-23.8-4.2c-3.221-0.767-6.61-0.318-9.521,1.26l-23.24,12.74
	l2.521-11.48c1.285-5.85-1.455-11.845-6.72-14.7c-21.146-11.568-28.841-23.624-28.841-41.86
	C188.56,70.547,196.904,56.501,212.92,45.36z"/>
<path d="M395.2,230.86c-4.788-4.658-10.185-7.021-15.12-8.539c-9.872-3.038-19.04-2.801-21.28-2.801
	c-13.033,0-24.416,5.402-34.3,10.221c-3.756,1.83-3.896,1.893-6.72,3.46c-6.218-10.78-17.458-18.521-30.66-18.521h-80.36
	c-26.426-22-67.935-25.876-116.76-26.38v-4.62c-0.001-7.422-6.018-13-13.44-13H13.84c-0.466,0-1.134-0.244-1.6-0.22
	C5.369,171.18,0,176.772,0,183.68v161.28c0,7.422,6.417,13.72,13.84,13.72h62.72c7.422,0,13.439-6.298,13.44-13.72v-18.62
	c10.457,7.92,20.594,15.635,32.62,22.399c19.658,11.058,43.988,18.62,79.38,18.62c38.678,0,81.922-20.403,116.9-39.899
	c34.47-19.213,59.898-38.086,60.65-38.641c0.182-0.12,0.449-0.159,0.449-0.279V288.4c7-4.496,12.557-8.409,17.051-14.7
	c4.629-6.481,6.494-14.605,6.494-22.819C403.545,243.04,399.987,235.518,395.2,230.86z M63,200.76c0,0.279,0,0.561,0,0.84v98.561
	v31.52H27v-135h36V200.76z M376.72,250.88c0,5.227-0.43,5.921-1.399,7.28c-0.971,1.357-4.067,4.111-10.5,8.399
	c-0.189,0.089-0.376,0.183-0.561,0.28c0,0-25.178,18.656-58.52,37.24S230.523,340.48,202,340.48c-31.808,0-50.038-6.018-66.22-15.12
	c-14.426-8.114-28.153-19.706-45.78-32.06v-77.841c49.307,1.026,87.376,7.176,102.48,22.28c2.504,2.57,5.932,3.94,9.52,3.94h85.12
	c5.196,0,8.96,3.804,8.96,9s-3.764,9-8.96,9H157.2c-7.423,0-13.525,5.907-13.63,13.33c-0.105,7.423,5.827,13.545,13.25,13.65
	c0.126,0.002,0.253,0.02,0.38,0.02h129.92c15.508,0,28.53-10.266,33.46-24.199c0.188-0.09,0.375-0.173,0.56-0.271
	c0,0,6.625-4.113,15.12-8.256c8.496-4.141,19.49-7.557,22.54-7.557c2.24,0,8.753,0.1,13.44,1.541c2.344,0.721,3.947,1.719,4.34,2.1
	S376.72,249.762,376.72,250.88z"/>
</svg>
