<svg xmlns="http://www.w3.org/2000/svg" viewBox="323.2 17.933 313.6 412.169">
<polygon fill="none" points="439.68,319.354 456.76,295.693 422.6,295.693 "/>
<path fill="none" d="M381.44,125.453c17.479,0,31.36-13.881,31.36-31.36s-13.881-31.36-31.36-31.36s-31.36,13.881-31.36,31.36
	S363.961,125.453,381.44,125.453z"/>
<rect x="350.08" y="161.293" fill="none" width="179.2" height="107.52"/>
<path fill="none" d="M432.68,121.813c-2.525,4.631-5.743,8.829-9.38,12.6h20.16C439.396,130.657,435.725,126.456,432.68,121.813z"/>
<path fill="none" d="M488.96,44.813c-22.428,0-40.32,17.893-40.32,40.32s17.893,40.32,40.32,40.32s40.32-17.893,40.32-40.32
	S511.388,44.813,488.96,44.813z"/>
<polygon fill="none" points="556.16,240.113 609.92,252.013 609.92,177.954 556.16,189.853 "/>
<path d="M620.42,148.133l-64.26,14.28v-14.56c-0.001-7.037-6.403-13.439-13.44-13.44h-8.26c13.309-12.3,21.7-29.844,21.7-49.28
	c0-36.955-30.246-67.2-67.2-67.2c-27.494,0-51.226,16.81-61.6,40.6c-10.685-13.721-27.307-22.68-45.92-22.68
	c-32.006,0-58.24,26.234-58.24,58.24c0,15.616,6.266,29.829,16.38,40.32h-2.94c-7.405,0.018-13.293,7.776-13.44,13.44v134.401
	c0,7.036,6.403,13.438,13.44,13.439h52.64l33.74,46.619L375,408.674c-4.387,6.017-3.066,14.451,2.951,18.839
	c6.018,4.388,14.452,3.065,18.84-2.952c0.017-0.021,0.032-0.045,0.049-0.067l42.84-59.221l42.84,59.22
	c4.351,6.045,12.776,7.419,18.821,3.068c6.044-4.35,7.418-12.775,3.068-18.82c-0.017-0.021-0.032-0.045-0.049-0.067l-48.021-66.36
	l33.74-46.619h52.64c7.037-0.002,13.439-6.404,13.44-13.44v-14.7l64.26,14.279c7.8,1.748,16.323-5.026,16.38-13.019v-107.52
	C635.922,150.523,627.255,146.656,620.42,148.133z M432.68,121.813c3.045,4.643,6.717,8.844,10.78,12.6H423.3
	C426.937,130.642,430.154,126.444,432.68,121.813z M381.44,62.733c17.479,0,31.36,13.881,31.36,31.36s-13.881,31.36-31.36,31.36
	s-31.36-13.881-31.36-31.36S363.961,62.733,381.44,62.733z M439.68,319.354l-17.08-23.66h34.16L439.68,319.354z M529.28,268.813
	h-179.2v-107.52h179.2V268.813z M488.96,125.453c-22.428,0-40.32-17.893-40.32-40.32s17.893-40.32,40.32-40.32
	s40.32,17.893,40.32,40.32S511.388,125.453,488.96,125.453z M609.92,252.013l-53.76-11.9v-50.26l53.76-11.899V252.013z"/>
</svg>
