<svg xmlns="http://www.w3.org/2000/svg" viewBox="0 0 18 14.629">
<path d="M0,12.968c1.635,1.05,3.575,1.659,5.66,1.659c6.793,0.002,10.508-5.626,10.508-10.506
	c0-0.159-0.003-0.318-0.01-0.478c0.721-0.52,1.348-1.17,1.842-1.912c-0.662,0.294-1.374,0.492-2.121,0.582
	c0.764-0.457,1.348-1.181,1.624-2.043C16.789,0.693,16,1.001,15.158,1.167C14.484,0.449,13.523,0,12.463,0
	C10.423,0,8.77,1.654,8.77,3.692c0,0.29,0.031,0.572,0.096,0.843c-3.07-0.154-5.791-1.624-7.612-3.858
	c-0.317,0.545-0.5,1.18-0.5,1.855c0,1.281,0.651,2.412,1.644,3.074C1.791,5.588,1.221,5.421,0.724,5.145
	C0.723,5.16,0.723,5.176,0.723,5.191c0,1.789,1.273,3.282,2.963,3.622C3.375,8.896,3.049,8.941,2.712,8.941
	c-0.237,0-0.47-0.023-0.694-0.066c0.471,1.468,1.834,2.535,3.45,2.564c-1.265,0.99-2.856,1.582-4.587,1.582
	C0.583,13.021,0.289,13.002,0,12.968z"/>
</svg>
