<svg xmlns="http://www.w3.org/2000/svg" viewBox="369.496 20.536 221.008 406.928">
<path fill="none" d="M480,290.08c29.026,0,52.64-23.614,52.64-52.64v-6.72h-42.932c-6.187,0-11.2-5.013-11.2-11.2
	s5.014-11.2,11.2-11.2h42.932v-13.44h-42.932c-6.187,0-11.2-5.013-11.2-11.2c0-6.187,5.014-11.2,11.2-11.2h42.932v-13.44h-42.932
	c-6.187,0-11.2-5.013-11.2-11.2c0-6.187,5.014-11.2,11.2-11.2h42.932V123.2h-42.932c-6.187,0-11.2-5.013-11.2-11.2
	s5.014-11.2,11.2-11.2h42.932v-5.224c0-29.026-23.613-52.64-52.64-52.64s-52.64,23.614-52.64,52.64V237.44
	C427.36,266.466,450.974,290.08,480,290.08z"/>
<path d="M480,312.48c41.377,0,75.04-33.663,75.04-75.041V95.576c0-41.377-33.663-75.04-75.04-75.04s-75.04,33.663-75.04,75.04
	V237.44C404.96,278.817,438.623,312.48,480,312.48z M427.36,95.576c0-29.026,23.613-52.64,52.64-52.64s52.64,23.614,52.64,52.64
	v5.224h-42.932c-6.187,0-11.2,5.013-11.2,11.2s5.014,11.2,11.2,11.2h42.932v13.44h-42.932c-6.187,0-11.2,5.013-11.2,11.2
	c0,6.187,5.014,11.2,11.2,11.2h42.932v13.44h-42.932c-6.187,0-11.2,5.013-11.2,11.2c0,6.187,5.014,11.2,11.2,11.2h42.932v13.44
	h-42.932c-6.187,0-11.2,5.013-11.2,11.2s5.014,11.2,11.2,11.2h42.932v6.72c0,29.026-23.613,52.64-52.64,52.64
	s-52.64-23.614-52.64-52.64V95.576z"/>
<path d="M579.304,211.304c-6.187,0-11.2,5.013-11.2,11.2v14.569c0,48.582-39.522,88.104-88.104,88.104s-88.104-39.522-88.104-88.104
	v-58.24c0-6.187-5.013-11.2-11.2-11.2s-11.2,5.013-11.2,11.2v58.24c0,57.152,43.613,104.308,99.304,109.939v58.052h-28.376
	c-6.188,0-11.2,5.014-11.2,11.2s5.013,11.2,11.2,11.2h79.152c6.188,0,11.2-5.014,11.2-11.2s-5.013-11.2-11.2-11.2H491.2v-58.052
	c55.69-5.631,99.304-52.787,99.304-109.939v-14.569C590.504,216.317,585.49,211.304,579.304,211.304z"/>
<path d="M579.304,167.633c-6.187,0-11.2,5.013-11.2,11.2v10.819c0,6.187,5.014,11.2,11.2,11.2s11.2-5.013,11.2-11.2v-10.819
	C590.504,172.646,585.49,167.633,579.304,167.633z"/>
</svg>
