<svg xmlns="http://www.w3.org/2000/svg" viewBox="310.352 44.312 335.597 366.41">
<path fill="none" d="M376.467,192.64c-19.165,0.024-34.695,15.555-34.72,34.72c0,19.175,15.545,34.72,34.72,34.72
	s34.72-15.545,34.72-34.72S395.643,192.64,376.467,192.64z"/>
<path fill="none" d="M579.411,309.479v0.045c-19.147,0.024-34.671,15.527-34.72,34.675c0,19.176,15.545,34.72,34.72,34.72
	c19.176,0,34.72-15.544,34.72-34.72C614.131,325.023,598.587,309.479,579.411,309.479z"/>
<path fill="none" d="M579.411,145.555c19.176,0,34.72-15.544,34.72-34.72c0-19.175-15.544-34.72-34.72-34.72v0.045
	c-19.147,0.024-34.671,15.527-34.72,34.675C544.691,130.011,560.236,145.555,579.411,145.555z"/>
<path d="M601.153,281.688c-23.365-8.021-49.251-2.386-67.169,14.619l-95.425-46.323c5.704-15.545,5.304-32.674-1.119-47.936
	l94.079-45.696c25.26,26.512,67.229,27.528,93.741,2.268c26.512-25.259,27.527-67.228,2.269-93.74
	c-25.26-26.512-67.229-27.528-93.741-2.269c-17.914,17.068-24.835,42.691-17.948,66.458l-97.529,47.398
	c-28.231-23.128-69.866-18.991-92.993,9.24c-23.128,28.231-18.991,69.866,9.24,92.993c11.82,9.683,26.63,14.971,41.91,14.963v-0.045
	c16.461-0.014,32.32-6.2,44.442-17.337l96.006,46.592c-11.889,34.635,6.552,72.35,41.187,84.238s72.35-6.552,84.238-41.187
	C654.229,331.29,635.789,293.576,601.153,281.688z M579.411,76.16v-0.045c19.176,0,34.72,15.544,34.72,34.72
	c0,19.176-15.544,34.72-34.72,34.72c-19.175,0-34.72-15.544-34.72-34.72C544.74,91.688,560.264,76.185,579.411,76.16z
	 M376.467,262.08c-19.175,0-34.72-15.545-34.72-34.72c0.025-19.165,15.555-34.695,34.72-34.72c19.175,0,34.72,15.544,34.72,34.72
	S395.643,262.08,376.467,262.08z M579.411,378.918c-19.175,0-34.72-15.544-34.72-34.72c0.049-19.147,15.572-34.65,34.72-34.675
	v-0.045c19.176,0,34.72,15.545,34.72,34.72C614.131,363.374,598.587,378.918,579.411,378.918z"/>
</svg>
