<svg xmlns="http://www.w3.org/2000/svg" viewBox="348.288 89.6 263.424 268.352">
<path fill="none" d="M508.224,220.416c0-3.136-2.688-5.376-5.376-5.376h-141.12v129.92h68.992V232.064
	c0-3.584,3.137-6.72,6.721-6.72v0.448h65.407C505.984,225.792,508.224,223.552,508.224,220.416z"/>
<path fill="none" d="M396.224,172.928c11.648,0,21.057-9.408,21.057-21.056s-9.408-21.056-21.057-21.056
	c-11.647,0-21.056,9.408-21.056,21.056S384.576,172.928,396.224,172.928z"/>
<path d="M396.224,186.368c19.265,0,34.496-15.68,34.496-34.496s-15.68-34.496-34.496-34.496c-18.815,0-34.496,15.68-34.496,34.496
	S376.96,186.368,396.224,186.368z M396.224,130.816c11.648,0,21.057,9.408,21.057,21.056s-9.408,21.056-21.057,21.056
	c-11.647,0-21.056-9.408-21.056-21.056S384.576,130.816,396.224,130.816z"/>
<path d="M521.664,219.968c0-10.304-8.512-18.816-18.816-18.816h-147.84c-3.584,0-6.72,3.136-6.72,6.72v143.36
	c0,3.584,3.136,6.72,6.72,6.72h81.984c3.584,0,6.72-3.136,6.72-6.72V238.784H502.4C513.152,238.784,521.664,230.72,521.664,219.968z
	 M437.44,225.792v-0.448c-3.584,0-6.721,3.136-6.721,6.72V344.96h-68.992V215.04h141.12c2.688,0,5.376,2.24,5.376,5.376
	c0,3.136-2.239,5.376-5.376,5.376H437.44z"/>
<path d="M604.992,89.6H415.04c-3.584,0-6.72,3.136-6.72,6.72v13.44c4.928,1.792,9.407,4.032,13.439,6.72v-13.44h176.512v159.04
	H453.12v13.44h151.872c3.584,0,6.72-3.136,6.72-6.72V96.32C611.712,92.736,608.576,89.6,604.992,89.6z"/>
<path d="M446.4,190.848l30.016-33.152l14.784,16.576c1.344,1.344,3.584,2.24,5.376,2.24s3.584-0.896,4.928-2.688l18.816-25.984
	l11.647,19.264c0.896,1.792,2.688,3.136,4.929,3.136c2.239,0,4.479-0.896,5.823-2.24l41.216-44.8c2.24-2.688,2.24-6.72-0.447-9.408
	c-2.688-2.24-6.721-2.24-9.408,0.448l-35.393,38.08l-12.096-20.16c-0.896-1.792-3.136-3.136-5.376-3.136s-4.479,0.896-5.824,2.688
	L495.68,159.04l-14.336-16.128c-1.344-1.344-3.136-2.24-4.928-2.24s-3.584,0.896-4.928,2.24l-34.944,38.528
	c-2.688,2.688-2.24,6.72,0.448,9.408c1.344,1.344,2.688,1.792,4.479,1.792S445.056,191.744,446.4,190.848z"/>
</svg>
