<svg xmlns="http://www.w3.org/2000/svg" viewBox="269.454 14.421 421.093 419.158">
<path fill="none" d="M463.554,318.241c-0.004-0.009-0.014-0.018-0.018-0.026l-11.299-11.299l-8.333,38.013l38-8.328l-18.328-18.337
	C463.572,318.255,463.559,318.25,463.554,318.241z"/>
<polygon fill="none" points="600.745,166.88 590.643,156.777 460.543,286.859 470.654,296.971 "/>
<rect x="546.326" y="162.678" transform="matrix(-0.7069 -0.7073 0.7073 -0.7069 773.103 829.6949)" fill="none" width="24.247" height="183.994"/>
<path fill="none" d="M604.826,142.599l17.154,17.154c0.013,0.013,0.026,0.018,0.04,0.031s0.022,0.027,0.031,0.041l24.206,24.196
	l20.079-20.084l-41.423-41.422L604.826,142.599z"/>
<path d="M687.612,156.845l-55.605-55.597c-3.916-3.916-10.26-3.916-14.18,0l-34.178,34.169c-0.031,0.031-0.071,0.054-0.099,0.085
	s-0.054,0.072-0.085,0.099l-144.01,143.987c-0.014,0.013-0.027,0.031-0.045,0.045l-0.135,0.134c-0.125,0.125-0.21,0.278-0.331,0.412
	c-0.305,0.332-0.609,0.672-0.864,1.048c-0.175,0.255-0.296,0.524-0.444,0.784c-0.17,0.305-0.349,0.6-0.483,0.923
	c-0.157,0.376-0.265,0.757-0.372,1.146c-0.062,0.216-0.161,0.407-0.206,0.632l-15.595,71.214c-0.734,3.338,0.287,6.814,2.706,9.233
	c1.899,1.904,4.457,2.939,7.092,2.939c0.712,0,1.434-0.081,2.146-0.233l70.945-15.546c0.063-0.013,0.121-0.026,0.188-0.045
	l0.071-0.013c0.09-0.019,0.157-0.063,0.247-0.085c0.551-0.135,1.089-0.296,1.608-0.524c0.184-0.081,0.345-0.188,0.523-0.282
	c0.399-0.206,0.807-0.408,1.174-0.668c0.206-0.139,0.381-0.313,0.574-0.466c0.272-0.224,0.564-0.421,0.819-0.672L653.331,205.31
	c0.009-0.009,0.022-0.014,0.031-0.022c0.009-0.009,0.014-0.018,0.022-0.027l34.245-34.241c1.859-1.877,2.917-4.422,2.917-7.083
	C690.547,161.28,689.489,158.727,687.612,156.845z M590.643,156.777l10.103,10.103L470.654,296.971l-10.111-10.111L590.643,156.777z
	 M443.904,344.929l8.333-38.013l11.299,11.299c0.004,0.009,0.014,0.018,0.018,0.026c0.005,0.009,0.019,0.014,0.022,0.022
	l18.328,18.337L443.904,344.929z M501.966,328.299l-17.141-17.149l130.104-130.095l17.145,17.145L501.966,328.299z M646.258,184.021
	l-24.206-24.196c-0.009-0.014-0.018-0.027-0.031-0.041s-0.027-0.018-0.04-0.031l-17.154-17.154l20.088-20.084l41.423,41.422
	L646.258,184.021z"/>
<path d="M582.095,317.578c-5.533,0-10.026,4.493-10.026,10.026v85.927H289.506V34.474h282.562v55.454
	c0,5.537,4.493,10.026,10.026,10.026s10.026-4.489,10.026-10.026v-65.48c0-5.537-4.493-10.026-10.026-10.026H279.479
	c-5.537,0-10.026,4.489-10.026,10.026v399.105c0,5.537,4.489,10.026,10.026,10.026h302.615c5.533,0,10.026-4.489,10.026-10.026
	v-95.948C592.121,322.071,587.628,317.578,582.095,317.578z"/>
<path d="M412.58,268.702c0-5.538-4.488-10.026-10.025-10.026h-64.638c-5.538,0-10.026,4.489-10.026,10.026
	c0,5.533,4.489,10.021,10.026,10.021h64.633C408.092,278.723,412.58,274.234,412.58,268.702z"/>
<path d="M500.008,179.312c0-5.537-4.493-10.026-10.026-10.026H337.917c-5.538,0-10.026,4.489-10.026,10.026
	s4.489,10.026,10.026,10.026h152.06C495.515,189.338,500.008,184.849,500.008,179.312z"/>
<path d="M533.68,89.927c0-5.538-4.494-10.026-10.026-10.026H337.917c-5.538,0-10.026,4.489-10.026,10.026
	c0,5.537,4.489,10.026,10.026,10.026h185.736C529.186,99.958,533.68,95.469,533.68,89.927z"/>
<path d="M337.917,348.042c-5.538,0-10.026,4.494-10.026,10.026c0,5.533,4.489,10.026,10.026,10.026h46.91
	c5.537,0,10.026-4.493,10.026-10.026c0-5.532-4.489-10.026-10.026-10.026H337.917z"/>
</svg>
