<svg xmlns="http://www.w3.org/2000/svg" viewBox="0 0 329.788 444.5">
<path display="none" fill="none" d="M107.625,236.55c-17.325,0-31.85,12.7-35.175,28.7h70.263
	C139.388,249.25,124.95,236.55,107.625,236.55z"/>
<path fill="none" d="M49.938,265.25h8.075c2.45-17,13.562-31.387,28.787-38.387c-4.55-4.988-7.438-11.626-7.438-18.889
	c0-15.574,12.688-28.256,28.263-28.256s28.263,12.691,28.263,28.266c0,7.263-2.888,13.889-7.438,18.877
	c15.225,6.912,26.337,21.389,28.787,38.389h7.7v-100h-115V265.25z"/>
<rect x="128.938" y="14.25" fill="none" width="72" height="86"/>
<path fill="none" d="M121.537,207.9c0-7.7-6.212-13.913-13.912-13.913S93.713,200.2,93.713,207.9c0,7.7,6.212,13.913,13.912,13.913
	C115.237,221.812,121.45,215.6,121.537,207.9z"/>
<path fill="none" d="M314.938,93.188c0-3.938-2.737-6.938-6.675-6.938h-93.325v28h-100v-28H21.525c-3.938,0-7.587,3-7.587,6.938
	v329.787c0,3.938,3.65,7.275,7.587,7.275H308.35c3.938,0,7.176-3,7.176-7h-0.588V93.188z M271.938,150.25h15v15h-15V150.25z
	 M242.938,150.25h15v15h-15V150.25z M214.938,150.25h15v15h-15V150.25z M35.938,150.25h143v129h-143V150.25z M293.938,394.25h-258
	v-14h258V394.25z M293.938,337.25h-258v-15h258V337.25z M293.938,279.25h-93v-14h93V279.25z M293.938,222.25h-93v-14h93V222.25z"/>
<path d="M308.35,71.25h-93.412v-71h-100v71H21.525c-11.9,0-21.587,10.038-21.587,21.938v329.787c0,11.9,9.688,21.275,21.587,21.275
	h286.738c11.899,0,21.675-9.375,21.675-21.275V93.188C329.938,81.375,320.162,71.25,308.35,71.25z M128.938,14.25h72v86h-72V14.25z
	 M308.35,430.25H21.525c-3.938,0-7.587-3.338-7.587-7.275V93.188c0-3.938,3.65-6.938,7.587-6.938h93.413v28h100v-28h93.325
	c3.938,0,6.675,3,6.675,6.938V423.25h0.588C315.525,427.25,312.287,430.25,308.35,430.25z"/>
<path d="M178.938,150.25h-143v129h143V150.25z M72.45,265.25c3.325-16,17.85-28.7,35.175-28.7s31.763,12.7,35.088,28.7H72.45z
	 M93.713,207.9c0-7.7,6.212-13.913,13.912-13.913s13.912,6.213,13.912,13.913c-0.087,7.7-6.3,13.913-13.912,13.913
	C99.925,221.812,93.713,215.6,93.713,207.9z M164.938,265.25h-7.7c-2.45-17-13.562-31.475-28.787-38.387
	c4.55-4.988,7.438-11.626,7.438-18.889c0-15.574-12.688-28.256-28.263-28.256s-28.263,12.691-28.263,28.266
	c0,7.263,2.888,13.889,7.438,18.877c-15.225,7-26.337,21.389-28.787,38.389h-8.075v-100h115V265.25z"/>
<rect x="242.938" y="150.25" width="15" height="15"/>
<rect x="271.938" y="150.25" width="15" height="15"/>
<rect x="214.938" y="150.25" width="15" height="15"/>
<rect x="200.938" y="208.25" width="93" height="14"/>
<rect x="200.938" y="265.25" width="93" height="14"/>
<rect x="35.938" y="322.25" width="258" height="15"/>
<rect x="35.938" y="380.25" width="258" height="14"/>
</svg>
