<svg xmlns="http://www.w3.org/2000/svg" viewBox="256 0 448 448.023">
<path fill="none" d="M273.696,192.416c1.274-0.801,2.596-1.524,3.958-2.166l2.166-0.971c1.461-0.567,2.958-1.042,4.48-1.418
	l2.09-0.522c2.289-0.44,4.614-0.666,6.944-0.672h22.4v-67.2h-22.4c-12.372,0-22.4,10.029-22.4,22.4v52.267l0.896-0.522
	L273.696,192.416z"/>
<path fill="none" d="M426.464,311.062l99.232-96.246l-5.227-5.301c-2.896-2.912-2.896-7.616,0-10.528l68.768-68.768l-26.432-26.432
	l-21.579,21.206l-1.493,1.493l-47.861,46.518L457.6,206.677L330.667,331.296v7.467l33.227,33.152L426.464,311.062z"/>
<polygon fill="none" points="322.005,351.307 318.272,347.573 316.928,350.336 281.312,421.568 351.872,381.174 "/>
<path fill="none" d="M310.059,331.072c0.268-0.509,0.594-0.985,0.971-1.419l4.704-4.629v-41.291h-22.4
	c-12.372,0-22.4,10.028-22.4,22.4v89.6c0.015,3.169,0.702,6.3,2.016,9.184l36.587-73.248
	C309.686,331.072,310.059,331.072,310.059,331.072z"/>
<path fill="none" d="M273.696,274.549c1.274-0.801,2.596-1.524,3.958-2.166l2.166-0.971c1.461-0.567,2.958-1.041,4.48-1.418
	l2.09-0.522c2.289-0.44,4.614-0.666,6.944-0.672h22.4v-67.2h-22.4c-12.372,0-22.4,10.029-22.4,22.4v52.267l0.896-0.522
	L273.696,274.549z"/>
<polygon fill="none" points="537.866,205.781 546.826,214.816 557.504,204.288 546.901,193.686 536.299,204.288 537.194,205.184 "/>
<path fill="none" d="M526.592,237.44l-1.344-1.568l-49.205,47.861h63.69V268.8C539.645,257.026,534.924,245.76,526.592,237.44z"/>
<path fill="none" d="M652.928,108.341c0.996-1.283,1.547-2.856,1.568-4.48c0.031-2.01-0.749-3.949-2.165-5.376
	c-0.015-0.015-0.029-0.029-0.044-0.043c-2.928-2.904-7.655-2.884-10.559,0.043l-36.886,37.333l-47.562,47.562l10.603,10.603
	l84.373-84.821L652.928,108.341z"/>
<path fill="none" d="M273.696,110.283c1.274-0.801,2.596-1.524,3.958-2.166l2.166-0.971c1.461-0.567,2.958-1.042,4.48-1.418
	l2.09-0.523c2.289-0.44,4.614-0.665,6.944-0.672h22.4v-67.2h-22.4c-12.372,0-22.4,10.029-22.4,22.4V112l0.896-0.522L273.696,110.283
	z"/>
<path fill="none" d="M443.712,315.168c15.653,8.799,33.309,13.417,51.266,13.409c57.731-0.024,104.514-46.845,104.489-104.577
	c-0.098-11.797-2.219-23.491-6.272-34.571l-41.365,41.366c-0.703,0.706-1.541,1.265-2.464,1.643c-0.373,0.028-0.747,0.028-1.12,0
	c-0.546,0.06-1.097,0.06-1.643,0c-0.546,0.06-1.097,0.06-1.643,0c-0.373,0.028-0.747,0.028-1.12,0
	c-0.923-0.378-1.761-0.937-2.464-1.643l-2.751-2.751c10.295,11.049,16.053,25.603,16.042,40.756v22.4
	c0,4.124-3.343,7.466-7.467,7.466h-86.539L443.712,315.168z"/>
<path fill="none" d="M667.638,94.005v0.597c0.354,0.876,0.654,1.774,0.896,2.688c0.522,0.523,0.522,1.045,0.522,1.643
	c1.356,6.161-0.004,12.607-3.733,17.696c-0.705,1.019-1.505,1.969-2.389,2.837l-58.017,58.389
	c14.617,35.153,11.604,75.168-8.113,107.736c-34.17,56.442-107.626,74.498-164.067,40.328l-63.691,61.898
	c-0.449,0.435-0.951,0.811-1.494,1.12l-36.885,21.354v22.773h321.067V425.6c0-4.123,3.343-7.466,7.467-7.466
	s7.467,3.343,7.467,7.466v7.467H681.6c4.124,0,7.467-3.343,7.467-7.467V72.501l-18.891,18.965L667.638,94.005z M666.667,395.733
	c0,4.124-3.343,7.467-7.467,7.467s-7.467-3.343-7.467-7.467V380.8c0-4.124,3.343-7.467,7.467-7.467s7.467,3.343,7.467,7.467V395.733
	z M666.667,350.934c0,4.123-3.343,7.467-7.467,7.467s-7.467-3.344-7.467-7.467V336c0-4.124,3.343-7.467,7.467-7.467
	s7.467,3.343,7.467,7.467V350.934z M666.667,306.134c0,4.123-3.343,7.466-7.467,7.466s-7.467-3.343-7.467-7.466V291.2
	c0-4.124,3.343-7.467,7.467-7.467s7.467,3.343,7.467,7.467V306.134z M666.667,261.333c0,4.124-3.343,7.466-7.467,7.466
	s-7.467-3.343-7.467-7.466V246.4c0-4.124,3.343-7.466,7.467-7.466s7.467,3.343,7.467,7.466V261.333z M666.667,216.533
	c0,4.124-3.343,7.467-7.467,7.467s-7.467-3.343-7.467-7.467V201.6c0-4.124,3.343-7.467,7.467-7.467s7.467,3.343,7.467,7.467V216.533
	z M666.667,171.733c0,4.124-3.343,7.467-7.467,7.467s-7.467-3.343-7.467-7.467V156.8c0-4.124,3.343-7.466,7.467-7.466
	s7.467,3.343,7.467,7.466V171.733z"/>
<path fill="none" d="M663.456,14.934c-7.551-0.007-14.798,2.972-20.16,8.288l-70.112,70.112l26.283,26.133l32.182-31.211
	c0.987-0.968,2.062-1.843,3.21-2.613l1.12-0.672l2.464-1.27l1.27-0.522l2.613-0.747h1.195c1.267-0.108,2.54-0.108,3.808,0h0.746
	c1.045-0.073,2.093-0.073,3.137,0h1.27l2.538,0.747l1.27,0.448h0.747l24.564-24.64c4.857-4.839,7.551-11.438,7.467-18.293v-0.597
	c-0.137-6.636-2.809-12.968-7.467-17.696C676.802,17.573,670.262,14.882,663.456,14.934z"/>
<path fill="none" d="M381.291,260.736c-3.833-11.87-5.798-24.263-5.824-36.736c0.003-13.253,2.213-26.414,6.537-38.942
	c21.526-62.369,89.537-95.479,151.906-73.954l23.595-23.146l1.568-1.568l71.456-71.456H330.667V310.39l13.813-13.59L381.291,260.736
	z"/>
<path fill="none" d="M500.234,134.4l4.256,0.896c1.312,0.181,2.61,0.456,3.883,0.821l13.44-13.216
	c-16.974-4.523-34.812-4.695-51.869-0.502c-56.063,13.782-90.339,70.402-76.558,126.465l11.051-10.901l39.647-38.901
	c-0.298-1.195-0.298-3.062-0.672-3.733c-0.373-0.672-0.373-1.344-0.373-2.091c-0.261-2.18-0.385-4.375-0.373-6.571
	c0-28.866,23.4-52.267,52.267-52.267C496.699,134.306,498.469,134.306,500.234,134.4z"/>
<path fill="none" d="M480.522,152.619c-0.821,0.299-1.493,0.821-2.239,1.195c-1.415,0.66-2.786,1.408-4.107,2.24
	c-0.746,0.523-1.418,1.195-2.165,1.792c-1.173,0.855-2.295,1.777-3.36,2.763c-0.672,0.672-1.194,1.494-1.866,2.24
	c-0.956,1.019-1.853,2.091-2.688,3.21c-0.597,0.821-0.971,1.792-1.493,2.688c-0.712,1.159-1.36,2.355-1.941,3.584
	c-0.448,0.971-1.045,2.016-1.045,3.062c-0.468,1.247-0.866,2.518-1.195,3.808c-0.224,0.747-0.821,1.866-0.821,3.061s0,2.39,0,3.584
	l19.563-19.04l17.771-17.472c-2.508-0.002-5.01,0.248-7.467,0.747l-1.419,0.821C484.164,151.33,482.317,151.904,480.522,152.619z"/>
<path d="M681.6,0H323.2c-4.124,0-7.467,3.343-7.467,7.467V22.4h-22.4C272.715,22.4,256,39.115,256,59.733v336
	c0.028,9.014,3.317,17.712,9.259,24.49l-8.438,16.95c-1.869,3.676-0.403,8.17,3.272,10.039c2.248,1.143,4.92,1.073,7.106-0.184
	l24.267-13.963h1.867h22.4v7.467c0,4.124,3.343,7.467,7.467,7.467H681.6c12.371,0,22.4-10.029,22.4-22.4V22.4
	C704,10.029,693.971,0,681.6,0z M330.667,14.934h299.862l-71.456,71.456l-1.568,1.568l-23.595,23.146
	c-62.369-21.526-130.38,11.584-151.906,73.954c-4.324,12.528-6.533,25.689-6.537,38.942c0.026,12.473,1.991,24.866,5.824,36.736
	L344.48,296.8l-13.813,13.59V14.934z M442.667,186.667c-0.012,2.196,0.112,4.391,0.373,6.571c0,0.747,0,1.419,0.373,2.091
	c0.374,0.672,0.374,2.539,0.672,3.733l-39.647,38.901l-11.051,10.901c-13.782-56.063,20.494-112.684,76.558-126.465
	c17.057-4.193,34.896-4.021,51.869,0.502l-13.44,13.216c-1.272-0.366-2.57-0.64-3.883-0.821l-4.256-0.896
	c-1.766-0.094-3.535-0.094-5.301,0C466.067,134.4,442.667,157.801,442.667,186.667z M494.934,149.333l-17.771,17.472l-19.563,19.04
	c0-1.194,0-2.389,0-3.584s0.598-2.314,0.821-3.061c0.329-1.291,0.728-2.562,1.195-3.808c0-1.045,0.597-2.091,1.045-3.062
	c0.581-1.229,1.229-2.425,1.941-3.584c0.522-0.896,0.896-1.867,1.493-2.688c0.836-1.12,1.732-2.191,2.688-3.21
	c0.672-0.747,1.194-1.568,1.866-2.24c1.065-0.985,2.188-1.908,3.36-2.763c0.747-0.597,1.419-1.269,2.165-1.792
	c1.321-0.832,2.692-1.58,4.107-2.24c0.746-0.374,1.418-0.896,2.239-1.195c1.795-0.714,3.642-1.289,5.525-1.717l1.419-0.821
	C489.924,149.581,492.426,149.331,494.934,149.333z M330.667,331.296L457.6,206.677l34.272-33.674l47.861-46.518l1.493-1.493
	l21.579-21.206l26.432,26.432l-68.768,68.768c-2.896,2.912-2.896,7.616,0,10.528l5.227,5.301l-99.232,96.246l-62.57,60.854
	l-33.227-33.152V331.296z M547.2,298.666c4.124,0,7.467-3.342,7.467-7.466v-22.4c0.011-15.153-5.747-29.707-16.042-40.756
	L536,225.418l1.194,1.12c0.49,0.491,0.959,0.999,1.431,1.505l2.751,2.751c0.703,0.706,1.541,1.265,2.464,1.643
	c0.373,0.028,0.747,0.028,1.12,0c0.546,0.06,1.097,0.06,1.643,0c0.546,0.06,1.097,0.06,1.643,0c0.373,0.028,0.747,0.028,1.12,0
	c0.923-0.378,1.761-0.937,2.464-1.643l41.365-41.366c4.054,11.08,6.175,22.773,6.272,34.571
	c0.024,57.732-46.758,104.553-104.489,104.577c-17.957,0.008-35.612-4.61-51.266-13.409l16.949-16.502H547.2z M476.043,283.733
	l49.205-47.861l1.344,1.568c8.332,8.32,13.053,19.586,13.142,31.36v14.934H476.043z M536.299,204.288l10.603-10.603l10.603,10.603
	l-10.678,10.528l-8.96-9.035l-0.672-0.597L536.299,204.288z M567.883,193.984l-10.603-10.603l47.562-47.562l36.886-37.333
	c2.903-2.928,7.631-2.947,10.559-0.043c0.015,0.015,0.029,0.029,0.044,0.043c1.416,1.427,2.196,3.366,2.165,5.376
	c-0.021,1.624-0.572,3.197-1.568,4.48l-0.672,0.821L567.883,193.984z M270.933,59.733c0-12.371,10.029-22.4,22.4-22.4h22.4v67.2
	h-22.4c-2.331,0.007-4.656,0.232-6.944,0.672l-2.09,0.523c-1.522,0.377-3.019,0.851-4.48,1.418l-2.166,0.971
	c-1.361,0.642-2.683,1.365-3.958,2.166l-1.867,1.195L270.933,112V59.733z M270.933,141.867c0-12.371,10.029-22.4,22.4-22.4h22.4
	v67.2h-22.4c-2.331,0.007-4.656,0.232-6.944,0.672l-2.09,0.522c-1.522,0.377-3.019,0.851-4.48,1.418l-2.166,0.971
	c-1.361,0.642-2.683,1.365-3.958,2.166l-1.867,1.195l-0.896,0.522V141.867z M270.933,224c0-12.371,10.029-22.4,22.4-22.4h22.4v67.2
	h-22.4c-2.331,0.007-4.656,0.232-6.944,0.672l-2.09,0.522c-1.522,0.377-3.019,0.851-4.48,1.418l-2.166,0.971
	c-1.361,0.642-2.683,1.365-3.958,2.166l-1.867,1.195l-0.896,0.522V224z M270.933,395.733v-89.6c0-12.372,10.029-22.4,22.4-22.4h22.4
	v41.291l-4.704,4.629c-0.377,0.434-0.703,0.91-0.971,1.419c0,0-0.373,0-0.522,0.597l-36.587,73.248
	C271.635,402.033,270.948,398.902,270.933,395.733z M281.312,421.568l35.616-71.232l1.344-2.763l3.733,3.733l29.867,29.867
	L281.312,421.568z M689.066,425.6c0,4.124-3.343,7.467-7.467,7.467h-14.933V425.6c0-4.123-3.343-7.466-7.467-7.466
	s-7.467,3.343-7.467,7.466v7.467H330.667v-22.773l36.885-21.354c0.543-0.31,1.044-0.686,1.494-1.12l63.691-61.898
	c56.441,34.17,129.897,16.114,164.067-40.328c19.717-32.567,22.73-72.583,8.113-107.736l58.017-58.389
	c0.884-0.869,1.684-1.819,2.389-2.837c3.729-5.088,5.09-11.535,3.733-17.696c0-0.598,0-1.12-0.522-1.643
	c-0.241-0.914-0.541-1.812-0.896-2.688v-0.597l2.538-2.539l18.891-18.965V425.6z M689.066,40.693
	c0.084,6.856-2.609,13.454-7.467,18.293l-24.564,24.64h-0.747l-1.27-0.448l-2.538-0.747h-1.27c-1.044-0.073-2.092-0.073-3.137,0
	h-0.746c-1.268-0.108-2.541-0.108-3.808,0h-1.195l-2.613,0.747l-1.27,0.522l-2.464,1.27l-1.12,0.672
	c-1.148,0.77-2.223,1.645-3.21,2.613l-32.182,31.211l-26.283-26.133l70.112-70.112c5.362-5.316,12.609-8.295,20.16-8.288
	c6.806-0.052,13.346,2.64,18.144,7.466c4.658,4.729,7.33,11.06,7.467,17.696V40.693z"/>
<path d="M536,225.418l2.625,2.625c-0.472-0.506-0.94-1.014-1.431-1.505L536,225.418z"/>
<path d="M659.2,149.333c-4.124,0-7.467,3.343-7.467,7.466v14.934c0,4.124,3.343,7.467,7.467,7.467s7.467-3.343,7.467-7.467V156.8
	C666.667,152.676,663.324,149.333,659.2,149.333z"/>
<path d="M659.2,194.133c-4.124,0-7.467,3.343-7.467,7.467v14.933c0,4.124,3.343,7.467,7.467,7.467s7.467-3.343,7.467-7.467V201.6
	C666.667,197.476,663.324,194.133,659.2,194.133z"/>
<path d="M659.2,238.934c-4.124,0-7.467,3.343-7.467,7.466v14.934c0,4.124,3.343,7.466,7.467,7.466s7.467-3.343,7.467-7.466V246.4
	C666.667,242.276,663.324,238.934,659.2,238.934z"/>
<path d="M659.2,283.733c-4.124,0-7.467,3.343-7.467,7.467v14.934c0,4.123,3.343,7.466,7.467,7.466s7.467-3.343,7.467-7.466V291.2
	C666.667,287.076,663.324,283.733,659.2,283.733z"/>
<path d="M659.2,328.533c-4.124,0-7.467,3.343-7.467,7.467v14.934c0,4.123,3.343,7.467,7.467,7.467s7.467-3.344,7.467-7.467V336
	C666.667,331.876,663.324,328.533,659.2,328.533z"/>
<path d="M659.2,373.333c-4.124,0-7.467,3.343-7.467,7.467v14.934c0,4.124,3.343,7.467,7.467,7.467s7.467-3.343,7.467-7.467V380.8
	C666.667,376.676,663.324,373.333,659.2,373.333z"/>
</svg>
