<svg xmlns="http://www.w3.org/2000/svg" viewBox="281.97 88.154 396.059 271.693">
<path fill="none" d="M358.271,207.293c18.132,0,32.62-14.226,32.62-32.06c0-18.048-14.488-32.34-32.62-32.34
	s-32.62,14.292-32.62,32.34C325.944,194.881,339.968,206.179,358.271,207.293z"/>
<path fill="none" d="M388.931,214.854c-8.529,6.477-19.179,10.36-30.66,10.36c-11.412,0-22.017-3.814-30.52-10.22
	c-16.306,8.244-27.86,22.927-27.86,46.76v22.68c26.037,17.281,50.743,22.908,76.021,17.641v-24.641
	c0-23.662,7.44-43.323,19.18-58.66C393.106,217.396,391.126,215.987,388.931,214.854z"/>
<path fill="none" d="M479.931,204.494c26.805-0.399,48.131-20.916,49.84-49.28c0-27.382-22.101-49.14-49.84-49.14
	c-27.536,0-49.561,21.757-49.561,49.14C430.37,182.393,452.427,204.494,479.931,204.494z"/>
<path fill="none" d="M601.73,207.293c18.132,0,32.62-14.226,32.62-32.06c0-18.048-14.488-32.34-32.62-32.34
	s-32.48,14.292-32.48,32.34C569.522,193.531,582.709,206.873,601.73,207.293z"/>
<path fill="none" d="M522.91,207.154c-11.697,9.514-26.732,15.259-42.979,15.259c-16.211,0-31.02-5.854-42.7-15.399v0.002
	c-25.183,11.95-43.4,34.491-43.4,70.42v33.74c58.773,39.971,114.229,39.904,172.34,0.277v-34.02
	C566.171,241.642,547.949,219.048,522.91,207.154z"/>
<path fill="none" d="M632.251,214.854c-8.509,6.421-19.095,10.36-30.521,10.36c-11.466,0-21.996-3.898-30.52-10.36
	c-2.187,1.125-4.307,2.423-6.3,3.78c11.802,15.357,19.18,35.104,19.18,58.8v24.779c25.101,5.129,49.934-0.5,76.02-17.92v-22.54
	C660.11,237.829,648.514,223.032,632.251,214.854z"/>
<path d="M644.71,201.274c4.727-7.599,7.56-16.473,7.56-26.04c0-27.772-22.851-50.26-50.54-50.26s-50.4,22.488-50.4,50.26
	c0,9.553,2.706,18.449,7.421,26.04c-2.133,1.263-4.281,2.568-6.301,4.06c-5.209-4.538-10.941-8.45-16.939-11.76
	c7.669-10.875,12.18-24.138,12.18-38.36c0-37.119-30.498-67.059-67.759-67.06c-37.111,0-67.48,29.941-67.48,67.06
	c0,14.222,4.385,27.485,12.041,38.36c-6.044,3.345-11.705,7.315-16.94,11.9c-2.02-1.518-4.131-2.758-6.301-4.06
	c4.767-7.62,7.561-16.571,7.561-26.18c0-27.772-22.851-50.26-50.54-50.26c-27.689,0-50.54,22.487-50.54,50.26
	c0,9.609,2.794,18.56,7.561,26.18c-19.125,11.658-33.321,32.407-33.321,60.34v27.44c0.067,4.023,3.333,6.587,5.6,8.54
	c33.917,23.822,59.235,27.755,89.321,22.399c0.044,0.05,0.094,0.095,0.139,0.14c86.113,68.804,169.369,33.95,206.219-0.14
	c29.942,5.213,60.34-2.515,89.461-22.68c4.355-2.822,5.056-4.854,5.319-9.66v-26.04C678.029,233.706,663.862,212.871,644.71,201.274
	z M601.73,142.894c18.132,0,32.62,14.292,32.62,32.34c0,17.834-14.488,32.06-32.62,32.06c-19.021-0.421-32.208-13.762-32.48-32.06
	C569.25,157.186,583.599,142.894,601.73,142.894z M479.931,106.074c27.739,0,49.84,21.758,49.84,49.14
	c-1.709,28.364-23.035,48.881-49.84,49.28c-27.504,0-49.561-22.101-49.561-49.28C430.37,127.831,452.395,106.074,479.931,106.074z
	 M358.271,142.894c18.132,0,32.62,14.292,32.62,32.34c0,17.834-14.488,32.06-32.62,32.06c-18.302-1.115-32.326-12.413-32.62-32.06
	C325.65,157.186,340.139,142.894,358.271,142.894z M375.911,277.434v24.641c-25.278,5.268-49.983-0.359-76.021-17.641v-22.68
	c0-23.833,11.554-38.516,27.86-46.76c8.503,6.406,19.108,10.22,30.52,10.22c11.481,0,22.131-3.883,30.66-10.36
	c2.195,1.133,4.175,2.542,6.16,3.92C383.351,234.111,375.911,253.771,375.911,277.434z M566.171,311.453
	c-58.111,39.627-113.567,39.693-172.34-0.277v-33.74c0-35.929,18.217-58.47,43.4-70.42v-0.002
	c11.681,9.545,26.489,15.399,42.7,15.399c16.247,0,31.282-5.745,42.979-15.259c25.039,11.895,43.261,34.488,43.261,70.279V311.453z
	 M660.11,284.293c-26.086,17.42-50.919,23.049-76.02,17.92v-24.779c0-23.695-7.378-43.443-19.18-58.8
	c1.993-1.357,4.113-2.656,6.3-3.78c8.523,6.461,19.054,10.36,30.52,10.36c11.426,0,22.012-3.939,30.521-10.36
	c16.263,8.178,27.859,22.976,27.859,46.9V284.293z"/>
<polygon points="479.93,88.154 479.93,88.154 479.931,88.154 "/>
</svg>
