<svg xmlns="http://www.w3.org/2000/svg" viewBox="0 0 17 17">
<path d="M14.086,17C15.695,17,17,15.695,17,14.086V2.914C17,1.305,15.695,0,14.086,0H2.914C1.305,0,0,1.305,0,2.914
	v11.172C0,15.695,1.305,17,2.914,17H14.086z M13.357,2.064c0-0.134,0.108-0.243,0.242-0.243h1.336c0.135,0,0.244,0.109,0.244,0.243
	V3.4c0,0.134-0.109,0.242-0.244,0.242H13.6c-0.134,0-0.242-0.108-0.242-0.242V2.064z M5.848,7.026c0-0.002,0.002-0.004,0.004-0.007
	C5.885,6.959,5.921,6.9,5.959,6.842c0.022-0.034,0.046-0.067,0.07-0.101c0.025-0.036,0.053-0.072,0.08-0.107
	c0.023-0.031,0.047-0.062,0.072-0.091c0.047-0.056,0.097-0.11,0.147-0.163C6.352,6.355,6.38,6.33,6.405,6.306
	C6.443,6.271,6.48,6.236,6.52,6.203c0.025-0.022,0.05-0.045,0.078-0.066c0.06-0.049,0.121-0.095,0.186-0.139
	c0.022-0.017,0.047-0.031,0.07-0.046c0.051-0.033,0.102-0.063,0.154-0.094c0.025-0.015,0.05-0.028,0.075-0.042
	c0.073-0.039,0.146-0.075,0.222-0.107c0.018-0.008,0.036-0.014,0.054-0.021C7.424,5.661,7.49,5.637,7.557,5.615
	C7.58,5.607,7.604,5.6,7.629,5.593c0.083-0.025,0.168-0.048,0.254-0.065c0.009-0.002,0.02-0.003,0.028-0.005
	C7.99,5.507,8.07,5.495,8.152,5.485C8.176,5.482,8.199,5.48,8.224,5.479C8.314,5.47,8.406,5.464,8.5,5.464
	c0.093,0,0.185,0.006,0.275,0.015C8.8,5.48,8.824,5.482,8.848,5.485c0.082,0.01,0.162,0.021,0.24,0.037
	c0.01,0.002,0.02,0.003,0.029,0.005c0.086,0.018,0.17,0.04,0.254,0.065C9.395,5.6,9.419,5.607,9.443,5.615
	C9.51,5.638,9.576,5.662,9.643,5.688C9.66,5.695,9.677,5.701,9.695,5.709C9.77,5.741,9.844,5.777,9.917,5.816
	c0.024,0.013,0.05,0.027,0.075,0.041c0.053,0.03,0.104,0.062,0.154,0.095c0.021,0.016,0.047,0.029,0.068,0.045
	c0.062,0.044,0.126,0.091,0.188,0.14c0.024,0.021,0.052,0.043,0.076,0.065c0.039,0.033,0.078,0.068,0.113,0.104
	c0.025,0.024,0.053,0.049,0.076,0.073c0.053,0.053,0.104,0.108,0.146,0.164c0.024,0.029,0.047,0.059,0.07,0.089
	c0.029,0.036,0.057,0.073,0.084,0.11c0.022,0.033,0.045,0.065,0.067,0.099c0.312,0.478,0.495,1.047,0.495,1.659
	c0,1.676-1.359,3.035-3.035,3.035c-1.677,0-3.036-1.359-3.036-3.035C5.465,7.965,5.604,7.463,5.848,7.026z M1.821,13.18V7.026h2.051
	C3.725,7.491,3.643,7.986,3.643,8.5c0,2.684,2.176,4.857,4.857,4.857c2.682,0,4.857-2.176,4.857-4.857
	c0-0.514-0.082-1.009-0.229-1.474h2.052v6.154c0,1.182-0.957,2.137-2.139,2.137H3.959C2.778,15.316,1.821,14.361,1.821,13.18z"/>
</svg>
