<svg xmlns="http://www.w3.org/2000/svg" viewBox="0 0 73 26">
<path d="M17.688,11.98c0.602-1.522,1.272-3.017,1.887-4.535c0.335-0.825,0.475-1.673,0.141-2.55
	c-0.227-0.597-0.582-1.1-1.176-1.311c-1.023-0.363-2.065-0.441-3.07,0.125c-0.423,0.238-0.574,0.205-0.939-0.117
	c-0.177-0.157-0.367-0.302-0.528-0.474c-0.698-0.75-2.126-0.631-2.788,0.014c-0.264,0.258-0.555,0.491-0.842,0.724
	c-0.35,0.285-0.746,0.401-1.181,0.218c-0.311-0.129-0.61-0.291-0.914-0.441C7.479,3.237,6.68,2.877,5.744,3.163
	C4.848,3.436,4.066,3.876,3.584,4.69C2.879,5.879,2.52,7.215,2.075,8.512c-0.226,0.659-0.421,1.329-0.63,1.994
	c-0.224,0.714-0.453,1.426-0.668,2.143c-0.227,0.755-0.444,1.514-0.661,2.273c-0.234,0.82-0.116,1.594,0.369,2.291
	c0.61,0.876,1.503,1.221,2.538,1.207c0.331-0.005,0.679-0.082,0.987-0.206c0.608-0.245,0.97-0.767,1.209-1.34
	c0.648-1.55,1.259-3.114,1.88-4.675c0.52-1.304,1.026-2.612,1.554-3.912c0.15-0.37,0.464-0.577,0.864-0.614
	c0.364-0.033,0.624,0.184,0.757,0.484c0.169,0.39,0.126,0.81-0.02,1.206C10.045,9.93,9.823,10.492,9.6,11.054
	c-0.415,1.047-0.836,2.093-1.252,3.139c-0.189,0.479-0.365,0.959-0.285,1.494c0.056,0.377,0.267,0.623,0.605,0.75
	c1,0.373,1.922,0.008,2.413-0.951c0.518-1.012,1.022-2.029,1.535-3.044c0.684-1.352,1.363-2.708,2.065-4.051
	c0.211-0.406,0.463-0.799,0.748-1.157c0.226-0.286,0.591-0.315,0.902-0.155c0.302,0.157,0.25,0.444,0.237,0.705
	c-0.007,0.143-0.03,0.293-0.087,0.422c-0.313,0.701-0.637,1.398-0.959,2.095c-0.619,1.339-1.278,2.662-1.846,4.02
	c-0.52,1.242-0.293,2.436,0.557,3.465c1.06,1.285,2.513,1.55,4.079,1.396c1.284-0.127,2.539-0.398,3.757-0.839
	c0.98-0.354,1.918-0.784,2.73-1.452c0.452-0.369,0.481-0.371,0.926,0.016c0.629,0.543,1.324,0.994,2.127,1.207
	c1.283,0.338,2.523,0.053,3.701-0.456c0.664-0.286,1.273-0.7,1.9-1.068c0.149-0.088,0.242-0.086,0.41-0.007
	c0.731,0.345,1.454,0.777,2.229,0.945c1.514,0.328,2.963,0.003,4.303-0.787c0.998-0.59,1.731-1.44,2.385-2.373
	c0.068-0.1,0.133-0.204,0.234-0.355c0.234,0.303,0.385,0.495,0.537,0.69c0.569,0.716,1.254,1.289,2.146,1.538
	c0.914,0.254,1.83,0.127,2.691-0.236c0.773-0.327,1.521-0.717,2.27-1.098c0.211-0.107,0.289-0.037,0.376,0.143
	c0.155,0.321,0.301,0.653,0.499,0.947c0.64,0.949,1.539,1.54,2.668,1.719c0.783,0.124,1.587,0.193,2.347-0.138
	c0.629-0.274,1.16-0.697,1.64-1.183c0.361-0.367,0.777-0.556,1.31-0.438c0.784,0.172,1.571,0.327,2.358,0.484
	c0.381,0.074,0.473,0.168,0.436,0.564c-0.045,0.491-0.119,0.98-0.176,1.471c-0.081,0.703-0.145,1.41-0.238,2.113
	c-0.184,1.383-0.23,2.768-0.117,4.156c0.023,0.281,0.113,0.562,0.211,0.831c0.114,0.317,0.367,0.467,0.711,0.411
	c0.572-0.092,0.986-0.456,1.115-0.984c0.239-0.975,0.426-1.967,0.549-2.963c0.195-1.582,0.395-3.159,0.771-4.71
	c0.06-0.248,0.199-0.349,0.439-0.333c0.473,0.033,0.944,0.074,1.418,0.1c0.627,0.035,1.26,0.118,1.883,0.076
	c1.467-0.099,2.734-0.66,3.666-1.833c0.219-0.276,0.352-0.638,0.461-0.981c0.066-0.203-0.073-0.336-0.312-0.225
	c-0.258,0.122-0.526,0.235-0.771,0.383c-1.086,0.656-2.271,0.942-3.526,0.963c-0.131,0.002-0.265-0.108-0.397-0.168
	c0.076-0.098,0.133-0.224,0.229-0.289c1.052-0.717,1.806-1.659,2.216-2.867c0.357-1.044,0.477-2.091,0.174-3.175
	c-0.396-1.427-1.699-2.27-2.945-2.414c-0.815-0.094-1.641-0.07-2.459,0.129c-1.36,0.33-2.098,1.36-2.293,2.495
	c-0.133,0.768-0.144,1.556-0.211,2.334c-0.058,0.655-0.073,1.318-0.192,1.963c-0.142,0.766-0.621,1.258-1.297,1.181
	c-0.386-0.044-0.771-0.133-1.142-0.245c-0.746-0.226-1.177-0.771-1.104-1.537c0.116-1.248,0.321-2.485,0.464-3.729
	c0.038-0.335,0.062-0.709-0.047-1.015c-0.133-0.366-0.659-0.528-1.061-0.442c-0.348,0.074-0.627,0.417-0.68,0.863
	c-0.129,1.092-0.212,2.192-0.388,3.276c-0.124,0.765-0.295,1.539-0.583,2.253c-0.277,0.691-0.664,0.935-1.318,0.927
	c-0.779-0.009-1.566-0.496-1.463-1.479c0.104-0.971,0.189-1.943,0.283-2.916c0.074-0.787,0.178-1.574,0.216-2.363
	c0.028-0.564-0.339-1.062-0.872-1.108c-0.85-0.073-1.709-0.065-2.561-0.039c-0.156,0.004-0.377,0.228-0.438,0.396
	c-0.108,0.304-0.146,0.642-0.165,0.968c-0.066,1.129-0.121,2.26-0.165,3.39c-0.022,0.619-0.325,1.066-0.788,1.432
	c-0.834,0.659-1.791,1.024-2.837,1.199c-0.71,0.119-1.222-0.141-1.522-0.797c-0.37-0.812-0.5-1.681-0.525-2.549
	c-0.048-1.656-0.01-3.313-0.021-4.97c-0.004-0.335,0.16-0.492,0.459-0.546c0.445-0.082,0.899-0.128,1.338-0.236
	c0.625-0.154,1.253-0.32,1.857-0.539c0.434-0.156,0.557-0.549,0.453-1.121c-0.061-0.33-0.309-0.509-0.754-0.562
	c-0.941-0.111-1.881-0.242-2.822-0.338c-0.328-0.033-0.418-0.188-0.412-0.479c0.006-0.411,0.018-0.823-0.011-1.233
	c-0.034-0.5-0.3-0.854-0.803-0.966c-0.358-0.081-0.726-0.144-1.091-0.158c-0.612-0.024-0.75,0.118-0.787,0.719
	c-0.025,0.4-0.037,0.802-0.062,1.202c-0.035,0.516-0.219,0.647-0.74,0.62c-1.06-0.056-2.121-0.09-3.182-0.129
	c-1.028-0.037-1.235,0.427-1.193,1.281c0.002,0.041,0.006,0.082,0.01,0.123c0.074,0.726,0.18,1.449,0.216,2.177
	c0.035,0.721,0.546,0.974,1.164,0.864c0.284-0.052,0.568-0.086,0.854-0.138c0.9-0.164,1.801-0.324,2.699-0.505
	c0.34-0.069,0.397-0.048,0.408,0.308c0.029,0.998,0.064,1.995,0.084,2.992c0.025,1.278,0.02,2.549-0.477,3.764
	c-0.414,1.014-1.142,1.698-2.176,2.03c-0.945,0.305-1.918,0.334-2.856-0.004c-0.431-0.154-0.819-0.449-1.202-0.717
	c-0.248-0.174-0.242-0.412-0.059-0.673c0.459-0.656,0.877-1.331,1.081-2.125c0.284-1.105,0.116-2.117-0.546-3.041
	c-0.551-0.77-1.364-1.128-2.26-1.241C33.12,7.443,32.52,7.437,31.989,7.58c-0.859,0.229-1.228,0.983-1.373,1.781
	c-0.385,2.131,0.122,4.071,1.403,5.813c0.184,0.251,0.179,0.418-0.087,0.598c-0.557,0.377-1.178,0.535-1.846,0.401
	c-0.31-0.063-0.621-0.151-0.914-0.271c-0.779-0.314-1.479-0.76-2.094-1.332c-0.131-0.121-0.18-0.254-0.096-0.461
	c0.305-0.75,0.623-1.498,0.846-2.271c0.398-1.383,0.093-2.674-0.836-3.747c-1.072-1.24-2.257-1.469-3.717-0.639
	c-0.989,0.563-1.376,1.492-1.475,2.56c-0.114,1.221,0.312,2.326,0.83,3.397c0.246,0.505,0.538,0.99,0.816,1.479
	c0.136,0.241,0.116,0.432-0.143,0.562c-0.302,0.152-0.597,0.328-0.913,0.441c-0.656,0.236-1.317,0.463-1.989,0.648
	c-0.787,0.217-1.592,0.37-2.413,0.266c-0.539-0.067-1.073-0.259-1.22-0.839c-0.096-0.384-0.096-0.836,0.008-1.218
	C17.032,13.812,17.333,12.884,17.688,11.98z M65.516,13.145c0.264-1.021,0.529-2.048,1.115-2.944
	c0.176-0.269,0.409-0.52,0.666-0.711c0.571-0.423,1.276-0.109,1.391,0.592c0.02,0.122,0.02,0.246,0.029,0.369
	c0.016,0.634-0.251,1.178-0.576,1.693c-0.533,0.849-1.166,1.611-2.021,2.161c-0.412,0.266-0.701,0.121-0.711-0.369
	C65.402,13.672,65.45,13.401,65.516,13.145z M33.973,9.467c0.287-0.089,0.536-0.005,0.736,0.189c0.36,0.351,0.474,0.802,0.466,1.289
	c-0.007,0.567-0.14,1.096-0.481,1.561c-0.243,0.333-0.422,0.343-0.61-0.016c-0.366-0.698-0.722-1.408-0.672-2.233
	C33.439,9.831,33.627,9.574,33.973,9.467z M25.49,9.474c0.375-0.098,0.801,0.064,0.966,0.421c0.13,0.282,0.188,0.594,0.28,0.893
	c-0.041,0.607-0.254,1.129-0.532,1.627c-0.201,0.361-0.414,0.357-0.618-0.016c-0.151-0.276-0.28-0.574-0.363-0.879
	c-0.114-0.413-0.212-0.838-0.248-1.264C24.933,9.768,25.092,9.578,25.49,9.474z"/>
</svg>
