<?xml version="1.0" encoding="UTF-8"?><!DOCTYPE svg PUBLIC "-//W3C//DTD SVG 1.1//EN" "http://www.w3.org/Graphics/SVG/1.1/DTD/svg11.dtd"><svg xmlns="http://www.w3.org/2000/svg"><symbol id="icon-arrow" viewBox="0 0 228.247 430.082"><path d="M22.552 426.216c-2.581 2.585-5.963 3.866-9.341 3.866s-6.765-1.281-9.341-3.866c-5.161-5.161-5.161-13.521 0-18.677l192.487-192.497L3.87 22.541c-5.161-5.147-5.161-13.507 0-18.677 5.161-5.152 13.521-5.152 18.682 0L224.375 205.71c5.162 5.152 5.162 13.508 0 18.683L22.552 426.216z"/></symbol><symbol id="icon-attend" viewBox="0 0 329.788 444.5"><path fill="none" d="M49.938 265.25h8.075c2.45-17 13.562-31.387 28.787-38.387-4.55-4.988-7.438-11.626-7.438-18.889 0-15.574 12.688-28.256 28.263-28.256s28.263 12.691 28.263 28.266c0 7.263-2.888 13.889-7.438 18.877 15.225 6.912 26.337 21.389 28.787 38.389h7.7v-100h-115v100zM128.938 14.25h72v86h-72z"/><path fill="none" d="M121.537 207.9c0-7.7-6.212-13.913-13.912-13.913S93.713 200.2 93.713 207.9s6.212 13.913 13.912 13.913c7.612-.001 13.825-6.213 13.912-13.913z"/><path fill="none" d="M314.938 93.188c0-3.938-2.737-6.938-6.675-6.938h-93.325v28h-100v-28H21.525c-3.938 0-7.587 3-7.587 6.938v329.787c0 3.938 3.65 7.275 7.587 7.275H308.35c3.938 0 7.176-3 7.176-7h-.588V93.188zm-43 57.062h15v15h-15v-15zm-29 0h15v15h-15v-15zm-28 0h15v15h-15v-15zm-179 0h143v129h-143v-129zm258 244h-258v-14h258v14zm0-57h-258v-15h258v15zm0-58h-93v-14h93v14zm0-57h-93v-14h93v14z"/><path d="M308.35 71.25h-93.412v-71h-100v71H21.525c-11.9 0-21.587 10.038-21.587 21.938v329.787c0 11.9 9.688 21.275 21.587 21.275h286.738c11.899 0 21.675-9.375 21.675-21.275V93.188c0-11.813-9.776-21.938-21.588-21.938zm-179.412-57h72v86h-72v-86zm179.412 416H21.525c-3.938 0-7.587-3.338-7.587-7.275V93.188c0-3.938 3.65-6.938 7.587-6.938h93.413v28h100v-28h93.325c3.938 0 6.675 3 6.675 6.938V423.25h.588c-.001 4-3.239 7-7.176 7z"/><path d="M178.938 150.25h-143v129h143v-129zm-106.488 115c3.325-16 17.85-28.7 35.175-28.7s31.763 12.7 35.088 28.7H72.45zm21.263-57.35c0-7.7 6.212-13.913 13.912-13.913s13.912 6.213 13.912 13.913c-.087 7.7-6.3 13.913-13.912 13.913A13.892 13.892 0 0 1 93.713 207.9zm71.225 57.35h-7.7c-2.45-17-13.562-31.475-28.787-38.387 4.55-4.988 7.438-11.626 7.438-18.889 0-15.574-12.688-28.256-28.263-28.256s-28.263 12.691-28.263 28.266c0 7.263 2.888 13.889 7.438 18.877-15.225 7-26.337 21.389-28.787 38.389h-8.075v-100h115v100zM242.938 150.25h15v15h-15zM271.938 150.25h15v15h-15zM214.938 150.25h15v15h-15zM200.938 208.25h93v14h-93zM200.938 265.25h93v14h-93zM35.938 322.25h258v15h-258zM35.938 380.25h258v14h-258z"/></symbol><symbol id="icon-collaborate" viewBox="281.97 88.154 396.059 271.693"><path fill="none" d="M358.271 207.293c18.132 0 32.62-14.226 32.62-32.06 0-18.048-14.488-32.34-32.62-32.34s-32.62 14.292-32.62 32.34c.293 19.648 14.317 30.946 32.62 32.06zM388.931 214.854c-8.529 6.477-19.179 10.36-30.66 10.36-11.412 0-22.017-3.814-30.52-10.22-16.306 8.244-27.86 22.927-27.86 46.76v22.68c26.037 17.281 50.743 22.908 76.021 17.641v-24.641c0-23.662 7.44-43.323 19.18-58.66-1.986-1.378-3.966-2.787-6.161-3.92zM479.931 204.494c26.805-.399 48.131-20.916 49.84-49.28 0-27.382-22.101-49.14-49.84-49.14-27.536 0-49.561 21.757-49.561 49.14 0 27.179 22.057 49.28 49.561 49.28zM601.73 207.293c18.132 0 32.62-14.226 32.62-32.06 0-18.048-14.488-32.34-32.62-32.34s-32.48 14.292-32.48 32.34c.272 18.298 13.459 31.64 32.48 32.06zM522.91 207.154a68.054 68.054 0 0 1-42.979 15.259c-16.211 0-31.02-5.854-42.7-15.399v.002c-25.183 11.95-43.4 34.491-43.4 70.42v33.74c58.773 39.971 114.229 39.904 172.34.277v-34.02c0-35.791-18.222-58.385-43.261-70.279zM632.251 214.854c-8.509 6.421-19.095 10.36-30.521 10.36-11.466 0-21.996-3.898-30.52-10.36-2.187 1.125-4.307 2.423-6.3 3.78 11.802 15.357 19.18 35.104 19.18 58.8v24.779c25.101 5.129 49.934-.5 76.02-17.92v-22.54c0-23.924-11.596-38.721-27.859-46.899z"/><path d="M644.71 201.274c4.727-7.599 7.56-16.473 7.56-26.04 0-27.772-22.851-50.26-50.54-50.26s-50.4 22.488-50.4 50.26a49.12 49.12 0 0 0 7.421 26.04c-2.133 1.263-4.281 2.568-6.301 4.06-5.209-4.538-10.941-8.45-16.939-11.76 7.669-10.875 12.18-24.138 12.18-38.36 0-37.119-30.498-67.059-67.759-67.06-37.111 0-67.48 29.941-67.48 67.06 0 14.222 4.385 27.485 12.041 38.36a96.823 96.823 0 0 0-16.94 11.9c-2.02-1.518-4.131-2.758-6.301-4.06 4.767-7.62 7.561-16.571 7.561-26.18 0-27.772-22.851-50.26-50.54-50.26s-50.54 22.487-50.54 50.26c0 9.609 2.794 18.56 7.561 26.18-19.125 11.658-33.321 32.407-33.321 60.34v27.44c.067 4.023 3.333 6.587 5.6 8.54 33.917 23.822 59.235 27.755 89.321 22.399.044.05.094.095.139.14 86.113 68.804 169.369 33.95 206.219-.14 29.942 5.213 60.34-2.515 89.461-22.68 4.355-2.822 5.056-4.854 5.319-9.66v-26.04c-.003-28.047-14.17-48.882-33.322-60.479zm-42.98-58.38c18.132 0 32.62 14.292 32.62 32.34 0 17.834-14.488 32.06-32.62 32.06-19.021-.421-32.208-13.762-32.48-32.06 0-18.048 14.349-32.34 32.48-32.34zm-121.799-36.82c27.739 0 49.84 21.758 49.84 49.14-1.709 28.364-23.035 48.881-49.84 49.28-27.504 0-49.561-22.101-49.561-49.28 0-27.383 22.025-49.14 49.561-49.14zm-121.66 36.82c18.132 0 32.62 14.292 32.62 32.34 0 17.834-14.488 32.06-32.62 32.06-18.302-1.115-32.326-12.413-32.62-32.06-.001-18.048 14.488-32.34 32.62-32.34zm17.64 134.54v24.641c-25.278 5.268-49.983-.359-76.021-17.641v-22.68c0-23.833 11.554-38.516 27.86-46.76 8.503 6.406 19.108 10.22 30.52 10.22 11.481 0 22.131-3.883 30.66-10.36 2.195 1.133 4.175 2.542 6.16 3.92-11.739 15.337-19.179 34.997-19.179 58.66zm190.26 34.019c-58.111 39.627-113.567 39.693-172.34-.277v-33.74c0-35.929 18.217-58.47 43.4-70.42v-.002c11.681 9.545 26.489 15.399 42.7 15.399a68.054 68.054 0 0 0 42.979-15.259c25.039 11.895 43.261 34.488 43.261 70.279v34.02zm93.939-27.16c-26.086 17.42-50.919 23.049-76.02 17.92v-24.779c0-23.695-7.378-43.443-19.18-58.8 1.993-1.357 4.113-2.656 6.3-3.78 8.523 6.461 19.054 10.36 30.52 10.36 11.426 0 22.012-3.939 30.521-10.36 16.263 8.178 27.859 22.976 27.859 46.9v22.539zM479.93 88.154h.001z"/></symbol><symbol id="icon-email-us" viewBox="0 0 272.031 152.93"><path d="M126.694 139.014L72.48 96.852l6.877-8.848 46.586 36.237L238.207 16.855 28.638 50.971l28.134 20.097-6.506 9.118L0 44.285 272.031 0z"/><path d="M47.919 152.93V77.263L242.055 8.747l3.729 10.562L59.119 85.192v47.533l36.232-22.646 5.936 9.498z"/></symbol><symbol id="icon-email" viewBox="0 0 18.842 13"><path d="M18 0H1l8.5 8z"/><path d="M9.421 10.193L6.542 7.521.889 13h17.027a.118.118 0 0 1 .033-.049l-5.702-5.375-2.826 2.617zM13.17 6.579l5.672 5.464V1.006zM0 1.006v11.078l5.696-5.481z"/></symbol><symbol id="icon-facebook" viewBox="0 0 10 19.256"><path d="M8.188 3.197L10 3.196V.135C9.688.093 8.609 0 7.359 0 4.745 0 2.956 1.596 2.956 4.525V7.05H0v3.424h2.956v8.782H6.49v-8.782h2.949l.442-3.424H6.49V4.864c0-.991.276-1.667 1.698-1.667z"/></symbol><symbol id="icon-get_connected_online" viewBox="310.352 44.312 335.597 366.41"><path fill="none" d="M376.467 192.64c-19.165.024-34.695 15.555-34.72 34.72 0 19.175 15.545 34.72 34.72 34.72s34.72-15.545 34.72-34.72-15.544-34.72-34.72-34.72zM579.411 309.479v.045c-19.147.024-34.671 15.527-34.72 34.675 0 19.176 15.545 34.72 34.72 34.72 19.176 0 34.72-15.544 34.72-34.72s-15.544-34.72-34.72-34.72zM579.411 145.555c19.176 0 34.72-15.544 34.72-34.72 0-19.175-15.544-34.72-34.72-34.72v.045c-19.147.024-34.671 15.527-34.72 34.675 0 19.176 15.545 34.72 34.72 34.72z"/><path d="M601.153 281.688a66.302 66.302 0 0 0-67.169 14.619l-95.425-46.323a65.453 65.453 0 0 0-1.119-47.936l94.079-45.696c25.26 26.512 67.229 27.528 93.741 2.268 26.512-25.259 27.527-67.228 2.269-93.74-25.26-26.512-67.229-27.528-93.741-2.269a66.304 66.304 0 0 0-17.948 66.458l-97.529 47.398c-28.231-23.128-69.866-18.991-92.993 9.24-23.128 28.231-18.991 69.866 9.24 92.993a66.08 66.08 0 0 0 41.91 14.963v-.045a65.773 65.773 0 0 0 44.442-17.337l96.006 46.592c-11.889 34.635 6.552 72.35 41.187 84.238s72.35-6.552 84.238-41.187c11.888-34.634-6.552-72.348-41.188-84.236zM579.411 76.16v-.045c19.176 0 34.72 15.544 34.72 34.72s-15.544 34.72-34.72 34.72c-19.175 0-34.72-15.544-34.72-34.72.049-19.147 15.573-34.65 34.72-34.675zM376.467 262.08c-19.175 0-34.72-15.545-34.72-34.72.025-19.165 15.555-34.695 34.72-34.72 19.175 0 34.72 15.544 34.72 34.72s-15.544 34.72-34.72 34.72zm202.944 116.838c-19.175 0-34.72-15.544-34.72-34.72.049-19.147 15.572-34.65 34.72-34.675v-.045c19.176 0 34.72 15.545 34.72 34.72 0 19.176-15.544 34.72-34.72 34.72z"/></symbol><symbol id="icon-help" viewBox="256 0 448 448.023"><path fill="none" d="M273.696 192.416a37.375 37.375 0 0 1 3.958-2.166l2.166-.971a36.747 36.747 0 0 1 4.48-1.418l2.09-.522a37.298 37.298 0 0 1 6.944-.672h22.4v-67.2h-22.4c-12.372 0-22.4 10.029-22.4 22.4v52.267l.896-.522 1.866-1.196zM426.464 311.062l99.232-96.246-5.227-5.301a7.465 7.465 0 0 1 0-10.528l68.768-68.768-26.432-26.432-21.579 21.206-1.493 1.493-47.861 46.518-34.272 33.673-126.933 124.619v7.467l33.227 33.152 62.57-60.853zM322.005 351.307l-3.733-3.734-1.344 2.763-35.616 71.232 70.56-40.394zM310.059 331.072c.268-.509.594-.985.971-1.419l4.704-4.629v-41.291h-22.4c-12.372 0-22.4 10.028-22.4 22.4v89.6c.015 3.169.702 6.3 2.016 9.184l36.587-73.248c.149-.597.522-.597.522-.597zM273.696 274.549a37.375 37.375 0 0 1 3.958-2.166l2.166-.971a36.922 36.922 0 0 1 4.48-1.418l2.09-.522a37.298 37.298 0 0 1 6.944-.672h22.4v-67.2h-22.4c-12.372 0-22.4 10.029-22.4 22.4v52.267l.896-.522 1.866-1.196zM537.866 205.781l8.96 9.035 10.678-10.528-10.603-10.602-10.602 10.602.895.896zM526.592 237.44l-1.344-1.568-49.205 47.861h63.69V268.8a44.791 44.791 0 0 0-13.141-31.36zM652.928 108.341a7.464 7.464 0 0 0 1.568-4.48 7.47 7.47 0 0 0-2.165-5.376l-.044-.043a7.467 7.467 0 0 0-10.559.043l-36.886 37.333-47.562 47.562 10.603 10.603 84.373-84.821.672-.821zM273.696 110.283a37.375 37.375 0 0 1 3.958-2.166l2.166-.971a36.747 36.747 0 0 1 4.48-1.418l2.09-.523a37.383 37.383 0 0 1 6.944-.672h22.4v-67.2h-22.4c-12.372 0-22.4 10.029-22.4 22.4V112l.896-.522 1.866-1.195z"/><path fill="none" d="M443.712 315.168a104.526 104.526 0 0 0 51.266 13.409c57.731-.024 104.514-46.845 104.489-104.577a103.13 103.13 0 0 0-6.272-34.571l-41.365 41.366a7.477 7.477 0 0 1-2.464 1.643 7.477 7.477 0 0 1-1.12 0c-.546.06-1.097.06-1.643 0-.546.06-1.097.06-1.643 0a7.477 7.477 0 0 1-1.12 0 7.477 7.477 0 0 1-2.464-1.643l-2.751-2.751a59.726 59.726 0 0 1 16.042 40.756v22.4a7.466 7.466 0 0 1-7.467 7.466h-86.539l-16.949 16.502z"/><path fill="none" d="M667.638 94.005v.597c.354.876.654 1.774.896 2.688.522.523.522 1.045.522 1.643a21.954 21.954 0 0 1-3.733 17.696 19.624 19.624 0 0 1-2.389 2.837l-58.017 58.389a119.463 119.463 0 0 1-8.113 107.736c-34.17 56.442-107.626 74.498-164.067 40.328l-63.691 61.898a7.422 7.422 0 0 1-1.494 1.12l-36.885 21.354v22.773h321.067V425.6c0-4.123 3.343-7.466 7.467-7.466s7.467 3.343 7.467 7.466v7.467H681.6a7.467 7.467 0 0 0 7.467-7.467V72.501l-18.891 18.965-2.538 2.539zm-.971 301.728a7.467 7.467 0 1 1-14.934 0V380.8a7.467 7.467 0 1 1 14.934 0v14.933zm0-44.799a7.468 7.468 0 0 1-14.934 0V336a7.467 7.467 0 1 1 14.934 0v14.934zm0-44.8c0 4.123-3.343 7.466-7.467 7.466s-7.467-3.343-7.467-7.466V291.2a7.467 7.467 0 1 1 14.934 0v14.934zm0-44.801c0 4.124-3.343 7.466-7.467 7.466s-7.467-3.343-7.467-7.466V246.4c0-4.124 3.343-7.466 7.467-7.466s7.467 3.343 7.467 7.466v14.933zm0-44.8a7.467 7.467 0 1 1-14.934 0V201.6a7.467 7.467 0 1 1 14.934 0v14.933zm0-44.8a7.467 7.467 0 1 1-14.934 0V156.8c0-4.124 3.343-7.466 7.467-7.466s7.467 3.343 7.467 7.466v14.933zM663.456 14.934a28.596 28.596 0 0 0-20.16 8.288l-70.112 70.112 26.283 26.133 32.182-31.211a22.425 22.425 0 0 1 3.21-2.613l1.12-.672 2.464-1.27 1.27-.522 2.613-.747h1.195a22.418 22.418 0 0 1 3.808 0h.746a22.495 22.495 0 0 1 3.137 0h1.27l2.538.747 1.27.448h.747l24.564-24.64a25.386 25.386 0 0 0 7.467-18.293v-.597a25.98 25.98 0 0 0-7.467-17.696 25.31 25.31 0 0 0-18.145-7.467zM381.291 260.736A120.364 120.364 0 0 1 375.467 224a119.445 119.445 0 0 1 6.537-38.942c21.526-62.369 89.537-95.479 151.906-73.954l23.595-23.146 1.568-1.568 71.456-71.456H330.667V310.39l13.813-13.59 36.811-36.064z"/><path fill="none" d="M500.234 134.4l4.256.896a27.95 27.95 0 0 1 3.883.821l13.44-13.216a104.53 104.53 0 0 0-51.869-.502c-56.063 13.782-90.339 70.402-76.558 126.465l11.051-10.901 39.647-38.901c-.298-1.195-.298-3.062-.672-3.733-.373-.672-.373-1.344-.373-2.091a52.851 52.851 0 0 1-.373-6.571c0-28.866 23.4-52.267 52.267-52.267a49.859 49.859 0 0 1 5.301 0z"/><path fill="none" d="M480.522 152.619c-.821.299-1.493.821-2.239 1.195a37.254 37.254 0 0 0-4.107 2.24c-.746.523-1.418 1.195-2.165 1.792a37.186 37.186 0 0 0-3.36 2.763c-.672.672-1.194 1.494-1.866 2.24a37.254 37.254 0 0 0-2.688 3.21c-.597.821-.971 1.792-1.493 2.688a37.31 37.31 0 0 0-1.941 3.584c-.448.971-1.045 2.016-1.045 3.062a36.52 36.52 0 0 0-1.195 3.808c-.224.747-.821 1.866-.821 3.061v3.584l19.563-19.04 17.771-17.472a37.37 37.37 0 0 0-7.467.747l-1.419.821a37.153 37.153 0 0 0-5.528 1.717z"/><path d="M681.6 0H323.2a7.467 7.467 0 0 0-7.467 7.467V22.4h-22.4C272.715 22.4 256 39.115 256 59.733v336a37.325 37.325 0 0 0 9.259 24.49l-8.438 16.95a7.467 7.467 0 0 0 10.378 9.855l24.267-13.963h24.267v7.467a7.467 7.467 0 0 0 7.467 7.467h358.4c12.371 0 22.4-10.029 22.4-22.4V22.4C704 10.029 693.971 0 681.6 0zM330.667 14.934h299.862L559.073 86.39l-1.568 1.568-23.595 23.146c-62.369-21.526-130.38 11.584-151.906 73.954A119.472 119.472 0 0 0 375.467 224a120.364 120.364 0 0 0 5.824 36.736L344.48 296.8l-13.813 13.59V14.934zm112 171.733a52.851 52.851 0 0 0 .373 6.571c0 .747 0 1.419.373 2.091.374.672.374 2.539.672 3.733l-39.647 38.901-11.051 10.901c-13.782-56.063 20.494-112.684 76.558-126.465a104.53 104.53 0 0 1 51.869.502l-13.44 13.216a27.746 27.746 0 0 0-3.883-.821l-4.256-.896a49.859 49.859 0 0 0-5.301 0c-28.867 0-52.267 23.401-52.267 52.267zm52.267-37.334l-17.771 17.472-19.563 19.04v-3.584c0-1.195.598-2.314.821-3.061a36.61 36.61 0 0 1 1.195-3.808c0-1.045.597-2.091 1.045-3.062a37.31 37.31 0 0 1 1.941-3.584c.522-.896.896-1.867 1.493-2.688a37.283 37.283 0 0 1 2.688-3.21c.672-.747 1.194-1.568 1.866-2.24a37.496 37.496 0 0 1 3.36-2.763c.747-.597 1.419-1.269 2.165-1.792a37.254 37.254 0 0 1 4.107-2.24c.746-.374 1.418-.896 2.239-1.195a37.345 37.345 0 0 1 5.525-1.717l1.419-.821a37.421 37.421 0 0 1 7.47-.747zM330.667 331.296L457.6 206.677l34.272-33.674 47.861-46.518 1.493-1.493 21.579-21.206 26.432 26.432-68.768 68.768a7.465 7.465 0 0 0 0 10.528l5.227 5.301-99.232 96.246-62.57 60.854-33.227-33.152v-7.467zm216.533-32.63a7.466 7.466 0 0 0 7.467-7.466v-22.4a59.726 59.726 0 0 0-16.042-40.756L536 225.418l1.194 1.12c.49.491.959.999 1.431 1.505l2.751 2.751a7.477 7.477 0 0 0 2.464 1.643c.373.028.747.028 1.12 0 .546.06 1.097.06 1.643 0 .546.06 1.097.06 1.643 0 .373.028.747.028 1.12 0a7.477 7.477 0 0 0 2.464-1.643l41.365-41.366a103.076 103.076 0 0 1 6.272 34.571c.024 57.732-46.758 104.553-104.489 104.577a104.529 104.529 0 0 1-51.266-13.409l16.949-16.502H547.2zm-71.157-14.933l49.205-47.861 1.344 1.568a44.796 44.796 0 0 1 13.142 31.36v14.934h-63.691zm60.256-79.445l10.603-10.603 10.603 10.603-10.678 10.528-8.96-9.035-.672-.597-.896-.896zm31.584-10.304l-10.603-10.603 47.562-47.562 36.886-37.333a7.466 7.466 0 0 1 10.559-.043l.044.043a7.47 7.47 0 0 1 2.165 5.376 7.464 7.464 0 0 1-1.568 4.48l-.672.821-84.373 84.821zM270.933 59.733c0-12.371 10.029-22.4 22.4-22.4h22.4v67.2h-22.4a37.366 37.366 0 0 0-6.944.672l-2.09.523a36.922 36.922 0 0 0-4.48 1.418l-2.166.971a37.573 37.573 0 0 0-3.958 2.166l-1.867 1.195-.895.522V59.733zm0 82.134c0-12.371 10.029-22.4 22.4-22.4h22.4v67.2h-22.4a37.366 37.366 0 0 0-6.944.672l-2.09.522a36.922 36.922 0 0 0-4.48 1.418l-2.166.971a37.573 37.573 0 0 0-3.958 2.166l-1.867 1.195-.896.522v-52.266zm0 82.133c0-12.371 10.029-22.4 22.4-22.4h22.4v67.2h-22.4a37.366 37.366 0 0 0-6.944.672l-2.09.522a36.922 36.922 0 0 0-4.48 1.418l-2.166.971a37.573 37.573 0 0 0-3.958 2.166l-1.867 1.195-.896.522V224zm0 171.733v-89.6c0-12.372 10.029-22.4 22.4-22.4h22.4v41.291l-4.704 4.629c-.377.434-.703.91-.971 1.419 0 0-.373 0-.522.597l-36.587 73.248a22.409 22.409 0 0 1-2.016-9.184zm10.379 25.835l35.616-71.232 1.344-2.763 3.733 3.733 29.867 29.867-70.56 40.395zm407.754 4.032a7.467 7.467 0 0 1-7.467 7.467h-14.933V425.6c0-4.123-3.343-7.466-7.467-7.466s-7.467 3.343-7.467 7.466v7.467H330.667v-22.773l36.885-21.354a7.527 7.527 0 0 0 1.494-1.12l63.691-61.898c56.441 34.17 129.897 16.114 164.067-40.328a119.462 119.462 0 0 0 8.113-107.736l58.017-58.389a19.732 19.732 0 0 0 2.389-2.837 21.95 21.95 0 0 0 3.733-17.696c0-.598 0-1.12-.522-1.643a22.292 22.292 0 0 0-.896-2.688v-.597l2.538-2.539 18.891-18.965V425.6zm0-384.907a25.38 25.38 0 0 1-7.467 18.293l-24.564 24.64h-.747l-1.27-.448-2.538-.747h-1.27a22.495 22.495 0 0 0-3.137 0h-.746a22.418 22.418 0 0 0-3.808 0h-1.195l-2.613.747-1.27.522-2.464 1.27-1.12.672a22.425 22.425 0 0 0-3.21 2.613l-32.182 31.211-26.283-26.133 70.112-70.112a28.596 28.596 0 0 1 20.16-8.288 25.314 25.314 0 0 1 18.144 7.466 25.981 25.981 0 0 1 7.467 17.696v.598z"/><path d="M536 225.418l2.625 2.625c-.472-.506-.94-1.014-1.431-1.505l-1.194-1.12zM659.2 149.333a7.467 7.467 0 0 0-7.467 7.466v14.934a7.467 7.467 0 1 0 14.934 0V156.8a7.467 7.467 0 0 0-7.467-7.467zM659.2 194.133a7.467 7.467 0 0 0-7.467 7.467v14.933a7.467 7.467 0 1 0 14.934 0V201.6a7.467 7.467 0 0 0-7.467-7.467zM659.2 238.934a7.467 7.467 0 0 0-7.467 7.466v14.934c0 4.124 3.343 7.466 7.467 7.466s7.467-3.343 7.467-7.466V246.4a7.466 7.466 0 0 0-7.467-7.466zM659.2 283.733a7.467 7.467 0 0 0-7.467 7.467v14.934c0 4.123 3.343 7.466 7.467 7.466s7.467-3.343 7.467-7.466V291.2a7.467 7.467 0 0 0-7.467-7.467zM659.2 328.533a7.467 7.467 0 0 0-7.467 7.467v14.934a7.468 7.468 0 0 0 14.934 0V336a7.467 7.467 0 0 0-7.467-7.467zM659.2 373.333a7.467 7.467 0 0 0-7.467 7.467v14.934a7.467 7.467 0 1 0 14.934 0V380.8a7.467 7.467 0 0 0-7.467-7.467z"/></symbol><symbol id="icon-instagram" viewBox="0 0 17 17"><path d="M14.086 17A2.914 2.914 0 0 0 17 14.086V2.914A2.914 2.914 0 0 0 14.086 0H2.914A2.914 2.914 0 0 0 0 2.914v11.172A2.914 2.914 0 0 0 2.914 17h11.172zm-.729-14.936c0-.134.108-.243.242-.243h1.336c.135 0 .244.109.244.243V3.4a.243.243 0 0 1-.244.242H13.6a.242.242 0 0 1-.242-.242V2.064zM5.848 7.026l.004-.007c.033-.06.069-.119.107-.177.022-.034.046-.067.07-.101.025-.036.053-.072.08-.107a3.791 3.791 0 0 1 .219-.254c.024-.025.052-.05.077-.074.038-.035.075-.07.115-.103.025-.022.05-.045.078-.066a2.57 2.57 0 0 1 .186-.139c.022-.017.047-.031.07-.046.051-.033.102-.063.154-.094l.075-.042c.073-.039.146-.075.222-.107l.054-.021a2.759 2.759 0 0 1 .524-.16l.028-.005a3.104 3.104 0 0 1 .589-.059c.093 0 .185.006.275.015a3.007 3.007 0 0 1 .313.043l.029.005c.086.018.17.04.254.065l.072.023c.067.023.133.047.2.073l.052.021c.075.032.149.068.222.107l.075.041c.053.03.104.062.154.095.021.016.047.029.068.045.062.044.126.091.188.14.024.021.052.043.076.065a1.6 1.6 0 0 1 .113.104c.025.024.053.049.076.073a3.044 3.044 0 0 1 .216.253c.029.036.057.073.084.11l.067.099A3.035 3.035 0 1 1 5.458 8.5a3.096 3.096 0 0 1 .39-1.474zM1.821 13.18V7.026h2.051a4.857 4.857 0 1 0 9.256 0h2.052v6.154a2.136 2.136 0 0 1-2.139 2.137H3.959a2.138 2.138 0 0 1-2.138-2.137z"/></symbol><symbol id="icon-meetup" viewBox="0 0 73 26"><path d="M17.688 11.98c.602-1.522 1.272-3.017 1.887-4.535.335-.825.475-1.673.141-2.55-.227-.597-.582-1.1-1.176-1.311-1.023-.363-2.065-.441-3.07.125-.423.238-.574.205-.939-.117-.177-.157-.367-.302-.528-.474-.698-.75-2.126-.631-2.788.014-.264.258-.555.491-.842.724-.35.285-.746.401-1.181.218-.311-.129-.61-.291-.914-.441-.799-.396-1.598-.756-2.534-.47-.896.273-1.678.713-2.16 1.527-.705 1.189-1.064 2.525-1.509 3.822-.226.659-.421 1.329-.63 1.994-.224.714-.453 1.426-.668 2.143-.227.755-.444 1.514-.661 2.273-.234.82-.116 1.594.369 2.291.61.876 1.503 1.221 2.538 1.207.331-.005.679-.082.987-.206.608-.245.97-.767 1.209-1.34.648-1.55 1.259-3.114 1.88-4.675.52-1.304 1.026-2.612 1.554-3.912.15-.37.464-.577.864-.614.364-.033.624.184.757.484.169.39.126.81-.02 1.206a73.735 73.735 0 0 1-.654 1.691c-.415 1.047-.836 2.093-1.252 3.139-.189.479-.365.959-.285 1.494a.893.893 0 0 0 .605.75c1 .373 1.922.008 2.413-.951.518-1.012 1.022-2.029 1.535-3.044.684-1.352 1.363-2.708 2.065-4.051a7.19 7.19 0 0 1 .748-1.157c.226-.286.591-.315.902-.155.302.157.25.444.237.705-.007.143-.03.293-.087.422-.313.701-.637 1.398-.959 2.095-.619 1.339-1.278 2.662-1.846 4.02-.52 1.242-.293 2.436.557 3.465 1.06 1.285 2.513 1.55 4.079 1.396a15.456 15.456 0 0 0 3.757-.839c.98-.354 1.918-.784 2.73-1.452.452-.369.481-.371.926.016.629.543 1.324.994 2.127 1.207 1.283.338 2.523.053 3.701-.456.664-.286 1.273-.7 1.9-1.068.149-.088.242-.086.41-.007.731.345 1.454.777 2.229.945 1.514.328 2.963.003 4.303-.787.998-.59 1.731-1.44 2.385-2.373.068-.1.133-.204.234-.355.234.303.385.495.537.69.569.716 1.254 1.289 2.146 1.538.914.254 1.83.127 2.691-.236.773-.327 1.521-.717 2.27-1.098.211-.107.289-.037.376.143.155.321.301.653.499.947.64.949 1.539 1.54 2.668 1.719.783.124 1.587.193 2.347-.138.629-.274 1.16-.697 1.64-1.183.361-.367.777-.556 1.31-.438.784.172 1.571.327 2.358.484.381.074.473.168.436.564-.045.491-.119.98-.176 1.471-.081.703-.145 1.41-.238 2.113a19.455 19.455 0 0 0-.117 4.156c.023.281.113.562.211.831.114.317.367.467.711.411.572-.092.986-.456 1.115-.984a25.7 25.7 0 0 0 .549-2.963c.195-1.582.395-3.159.771-4.71.06-.248.199-.349.439-.333.473.033.944.074 1.418.1.627.035 1.26.118 1.883.076 1.467-.099 2.734-.66 3.666-1.833.219-.276.352-.638.461-.981.066-.203-.073-.336-.312-.225-.258.122-.526.235-.771.383-1.086.656-2.271.942-3.526.963-.131.002-.265-.108-.397-.168.076-.098.133-.224.229-.289 1.052-.717 1.806-1.659 2.216-2.867.357-1.044.477-2.091.174-3.175-.396-1.427-1.699-2.27-2.945-2.414a6.966 6.966 0 0 0-2.459.129c-1.36.33-2.098 1.36-2.293 2.495-.133.768-.144 1.556-.211 2.334-.058.655-.073 1.318-.192 1.963-.142.766-.621 1.258-1.297 1.181a6.543 6.543 0 0 1-1.142-.245c-.746-.226-1.177-.771-1.104-1.537.116-1.248.321-2.485.464-3.729.038-.335.062-.709-.047-1.015-.133-.366-.659-.528-1.061-.442-.348.074-.627.417-.68.863-.129 1.092-.212 2.192-.388 3.276-.124.765-.295 1.539-.583 2.253-.277.691-.664.935-1.318.927-.779-.009-1.566-.496-1.463-1.479.104-.971.189-1.943.283-2.916.074-.787.178-1.574.216-2.363.028-.564-.339-1.062-.872-1.108-.85-.073-1.709-.065-2.561-.039-.156.004-.377.228-.438.396-.108.304-.146.642-.165.968a174.36 174.36 0 0 0-.165 3.39c-.022.619-.325 1.066-.788 1.432-.834.659-1.791 1.024-2.837 1.199-.71.119-1.222-.141-1.522-.797-.37-.812-.5-1.681-.525-2.549-.048-1.656-.01-3.313-.021-4.97-.004-.335.16-.492.459-.546.445-.082.899-.128 1.338-.236.625-.154 1.253-.32 1.857-.539.434-.156.557-.549.453-1.121-.061-.33-.309-.509-.754-.562-.941-.111-1.881-.242-2.822-.338-.328-.033-.418-.188-.412-.479.006-.411.018-.823-.011-1.233-.034-.5-.3-.854-.803-.966a6.03 6.03 0 0 0-1.091-.158c-.612-.024-.75.118-.787.719-.025.4-.037.802-.062 1.202-.035.516-.219.647-.74.62-1.06-.056-2.121-.09-3.182-.129-1.028-.037-1.235.427-1.193 1.281.002.041.006.082.01.123.074.726.18 1.449.216 2.177.035.721.546.974 1.164.864.284-.052.568-.086.854-.138.9-.164 1.801-.324 2.699-.505.34-.069.397-.048.408.308.029.998.064 1.995.084 2.992.025 1.278.02 2.549-.477 3.764-.414 1.014-1.142 1.698-2.176 2.03-.945.305-1.918.334-2.856-.004-.431-.154-.819-.449-1.202-.717-.248-.174-.242-.412-.059-.673.459-.656.877-1.331 1.081-2.125.284-1.105.116-2.117-.546-3.041-.551-.77-1.364-1.128-2.26-1.241-.554-.07-1.154-.076-1.685.067-.859.229-1.228.983-1.373 1.781-.385 2.131.122 4.071 1.403 5.813.184.251.179.418-.087.598-.557.377-1.178.535-1.846.401a5.104 5.104 0 0 1-.914-.271 6.773 6.773 0 0 1-2.094-1.332c-.131-.121-.18-.254-.096-.461.305-.75.623-1.498.846-2.271.398-1.383.093-2.674-.836-3.747-1.072-1.24-2.257-1.469-3.717-.639-.989.563-1.376 1.492-1.475 2.56-.114 1.221.312 2.326.83 3.397.246.505.538.99.816 1.479.136.241.116.432-.143.562-.302.152-.597.328-.913.441-.656.236-1.317.463-1.989.648-.787.217-1.592.37-2.413.266-.539-.067-1.073-.259-1.22-.839a2.51 2.51 0 0 1 .008-1.218c.256-.936.557-1.864.912-2.768zm47.828 1.165c.264-1.021.529-2.048 1.115-2.944.176-.269.409-.52.666-.711.571-.423 1.276-.109 1.391.592.02.122.02.246.029.369.016.634-.251 1.178-.576 1.693-.533.849-1.166 1.611-2.021 2.161-.412.266-.701.121-.711-.369a2.907 2.907 0 0 1 .107-.791zM33.973 9.467c.287-.089.536-.005.736.189.36.351.474.802.466 1.289-.007.567-.14 1.096-.481 1.561-.243.333-.422.343-.61-.016-.366-.698-.722-1.408-.672-2.233.027-.426.215-.683.561-.79zm-8.483.007c.375-.098.801.064.966.421.13.282.188.594.28.893-.041.607-.254 1.129-.532 1.627-.201.361-.414.357-.618-.016a4.092 4.092 0 0 1-.363-.879 7.012 7.012 0 0 1-.248-1.264c-.042-.488.117-.678.515-.782z"/></symbol><symbol id="icon-offer" viewBox="0 0 403.545 367.36"><path fill="none" d="M217.4 126.98a13.441 13.441 0 0 1 6.72 14.7l-2.521 11.48 23.24-12.74a13.44 13.44 0 0 1 9.521-1.26c10.98 2.552 14.024 4.2 23.8 4.2 25.927 0 49.225-7.479 65.24-18.62 16.016-11.142 24.359-25.047 24.359-39.62s-8.344-28.619-24.359-39.76c-16.016-11.142-39.313-18.48-65.24-18.48-25.928 0-49.225 7.338-65.24 18.48-16.016 11.141-24.36 25.187-24.36 39.76 0 18.236 7.694 30.292 28.84 41.86zm1.12-73.26c.467-.024.935-.04 1.4-.04H336.4c.126 0 .253.038.38.04 7.423.105 13.354 6.247 13.25 13.67-.105 7.423-6.208 13.29-13.63 13.29H219.92c-7.423 0-13.753-5.357-14.14-12.78-.386-7.422 5.318-13.793 12.74-14.18zm0 35.92c.467-.024.935.04 1.4.04H336.4c.126 0 .253-.042.38-.04 7.423.105 13.354 6.288 13.25 13.71-.105 7.423-6.208 13.33-13.63 13.33H219.92c-7.423 0-13.753-5.397-14.14-12.82s5.318-13.833 12.74-14.22zM27 331.68h36V201.6v-4.92H27v135zM376.58 250.04c-.393-.381-1.996-1.379-4.34-2.1-4.688-1.441-11.2-1.539-13.44-1.539-3.05 0-14.044 3.418-22.54 7.559-8.495 4.143-15.12 8.261-15.12 8.261-.185.098-.371.171-.56.261-4.93 13.934-17.952 24.199-33.46 24.199H157.2c-.127 0-.254.021-.38.02-7.423-.105-13.355-6.276-13.25-13.699.104-7.423 6.207-13.32 13.63-13.32h129.92c5.196 0 8.96-3.804 8.96-9s-3.764-9-8.96-9H202c-3.588 0-7.016-1.37-9.52-3.94-15.104-15.104-53.174-21.254-102.48-22.28V293.3c17.627 12.354 31.354 23.945 45.78 32.06 16.182 9.103 34.412 15.12 66.22 15.12 28.523 0 70.398-17.815 103.74-36.399s58.52-37.24 58.52-37.24c.185-.098.371-.191.561-.28 6.433-4.288 9.529-7.042 10.5-8.399.97-1.359 1.399-2.054 1.399-7.28 0-1.12.253-.462-.14-.842z"/><path d="M219.92 80.68H336.4c7.422 0 13.524-5.847 13.63-13.27.104-7.423-5.827-13.575-13.25-13.68-.127-.002-.254-.05-.38-.05H219.92c-.466 0-.934.016-1.4.04-7.422.387-13.126 6.757-12.739 14.18.386 7.423 6.716 12.78 14.139 12.78zM219.92 116.68H336.4c7.422 0 13.524-5.927 13.63-13.35.104-7.422-5.827-13.535-13.25-13.64-.127-.002-.254-.01-.38-.01H219.92c-.466 0-.934-.064-1.4-.04-7.422.387-13.126 6.797-12.739 14.22s6.716 12.82 14.139 12.82z"/><path d="M195.84 144.62l-7 31.64c-1.615 7.246 2.95 14.429 10.195 16.043 3.194.713 6.538.234 9.405-1.344l44.8-24.5c7.35 1.848 14.25 3.78 24.92 3.78 30.98 0 59.223-8.718 80.5-23.52s35.979-36.585 35.979-61.6-14.702-46.938-35.979-61.74C337.383 8.579 309.141 0 278.16 0s-59.223 8.579-80.5 23.38c-21.277 14.801-35.98 36.725-35.98 61.74 0 24.219 12.898 44.807 34.16 59.5zm17.08-99.26c16.016-11.142 39.312-18.48 65.24-18.48 25.927 0 49.225 7.338 65.24 18.48 16.016 11.141 24.359 25.187 24.359 39.76s-8.344 28.479-24.359 39.62c-16.016 11.141-39.313 18.62-65.24 18.62-9.775 0-12.819-1.648-23.8-4.2a13.442 13.442 0 0 0-9.521 1.26l-23.24 12.74 2.521-11.48a13.441 13.441 0 0 0-6.72-14.7c-21.146-11.568-28.841-23.624-28.841-41.86.001-14.573 8.345-28.619 24.361-39.76z"/><path d="M395.2 230.86c-4.788-4.658-10.185-7.021-15.12-8.539-9.872-3.038-19.04-2.801-21.28-2.801-13.033 0-24.416 5.402-34.3 10.221-3.756 1.83-3.896 1.893-6.72 3.46-6.218-10.78-17.458-18.521-30.66-18.521h-80.36c-26.426-22-67.935-25.876-116.76-26.38v-4.62c-.001-7.422-6.018-13-13.44-13H13.84c-.466 0-1.134-.244-1.6-.22C5.369 171.18 0 176.772 0 183.68v161.28c0 7.422 6.417 13.72 13.84 13.72h62.72c7.422 0 13.439-6.298 13.44-13.72v-18.62c10.457 7.92 20.594 15.635 32.62 22.399 19.658 11.058 43.988 18.62 79.38 18.62 38.678 0 81.922-20.403 116.9-39.899 34.47-19.213 59.898-38.086 60.65-38.641.182-.12.449-.159.449-.279v-.14c7-4.496 12.557-8.409 17.051-14.7 4.629-6.481 6.494-14.605 6.494-22.819.001-7.841-3.557-15.363-8.344-20.021zM63 200.76V331.681H27v-135h36v4.079zm313.72 50.12c0 5.227-.43 5.921-1.399 7.28-.971 1.357-4.067 4.111-10.5 8.399-.189.089-.376.183-.561.28 0 0-25.178 18.656-58.52 37.24S230.523 340.48 202 340.48c-31.808 0-50.038-6.018-66.22-15.12-14.426-8.114-28.153-19.706-45.78-32.06v-77.841c49.307 1.026 87.376 7.176 102.48 22.28 2.504 2.57 5.932 3.94 9.52 3.94h85.12c5.196 0 8.96 3.804 8.96 9s-3.764 9-8.96 9H157.2c-7.423 0-13.525 5.907-13.63 13.33-.105 7.423 5.827 13.545 13.25 13.65.126.002.253.02.38.02h129.92c15.508 0 28.53-10.266 33.46-24.199.188-.09.375-.173.56-.271 0 0 6.625-4.113 15.12-8.256 8.496-4.141 19.49-7.557 22.54-7.557 2.24 0 8.753.1 13.44 1.541 2.344.721 3.947 1.719 4.34 2.1s.14-.275.14.843z"/></symbol><symbol id="icon-record" viewBox="323.2 17.933 313.6 412.169"><path fill="none" d="M439.68 319.354l17.08-23.661H422.6zM381.44 125.453c17.479 0 31.36-13.881 31.36-31.36s-13.881-31.36-31.36-31.36-31.36 13.881-31.36 31.36 13.881 31.36 31.36 31.36zM350.08 161.293h179.2v107.52h-179.2zM432.68 121.813c-2.525 4.631-5.743 8.829-9.38 12.6h20.16c-4.064-3.756-7.735-7.957-10.78-12.6zM488.96 44.813c-22.428 0-40.32 17.893-40.32 40.32s17.893 40.32 40.32 40.32 40.32-17.893 40.32-40.32-17.892-40.32-40.32-40.32zM556.16 240.113l53.76 11.9v-74.059l-53.76 11.899z"/><path d="M620.42 148.133l-64.26 14.28v-14.56c-.001-7.037-6.403-13.439-13.44-13.44h-8.26c13.309-12.3 21.7-29.844 21.7-49.28 0-36.955-30.246-67.2-67.2-67.2-27.494 0-51.226 16.81-61.6 40.6-10.685-13.721-27.307-22.68-45.92-22.68-32.006 0-58.24 26.234-58.24 58.24 0 15.616 6.266 29.829 16.38 40.32h-2.94c-7.405.018-13.293 7.776-13.44 13.44v134.401c0 7.036 6.403 13.438 13.44 13.439h52.64l33.74 46.619L375 408.674c-4.387 6.017-3.066 14.451 2.951 18.839 6.018 4.388 14.452 3.065 18.84-2.952.017-.021.032-.045.049-.067l42.84-59.221 42.84 59.22c4.351 6.045 12.776 7.419 18.821 3.068 6.044-4.35 7.418-12.775 3.068-18.82-.017-.021-.032-.045-.049-.067l-48.021-66.36 33.74-46.619h52.64c7.037-.002 13.439-6.404 13.44-13.44v-14.7l64.26 14.279c7.8 1.748 16.323-5.026 16.38-13.019v-107.52c-.877-10.772-9.544-14.639-16.379-13.162zm-187.74-26.32c3.045 4.643 6.717 8.844 10.78 12.6H423.3c3.637-3.771 6.854-7.969 9.38-12.6zm-51.24-59.08c17.479 0 31.36 13.881 31.36 31.36s-13.881 31.36-31.36 31.36-31.36-13.881-31.36-31.36 13.881-31.36 31.36-31.36zm58.24 256.621l-17.08-23.66h34.16l-17.08 23.66zm89.6-50.541h-179.2v-107.52h179.2v107.52zm-40.32-143.36c-22.428 0-40.32-17.893-40.32-40.32s17.893-40.32 40.32-40.32 40.32 17.893 40.32 40.32-17.892 40.32-40.32 40.32zm120.96 126.56l-53.76-11.9v-50.26l53.76-11.899v74.059z"/></symbol><symbol id="icon-search" viewBox="256.051 1.391 447.961 445.218"><path d="M428.891 56c65.326 0 118.283 52.957 118.283 118.283 0 65.323-52.957 118.28-118.283 118.28-65.324 0-118.281-52.957-118.281-118.28C310.607 108.957 363.564 56 428.891 56m0-54.609c-95.502.048-172.887 77.509-172.84 173.014.035 69.427 41.592 132.102 105.525 159.166 88.143 36.771 189.404-4.874 226.174-93.019 36.531-87.568-4.32-188.216-91.547-225.554a171.835 171.835 0 0 0-67.312-13.607z"/><path d="M518.403 299.61l38.614-38.614L704 407.978l-38.614 38.614z"/></symbol><symbol id="icon-talk" viewBox="369.496 20.536 221.008 406.928"><path fill="none" d="M480 290.08c29.026 0 52.64-23.614 52.64-52.64v-6.72h-42.932c-6.187 0-11.2-5.013-11.2-11.2s5.014-11.2 11.2-11.2h42.932v-13.44h-42.932c-6.187 0-11.2-5.013-11.2-11.2 0-6.187 5.014-11.2 11.2-11.2h42.932v-13.44h-42.932c-6.187 0-11.2-5.013-11.2-11.2 0-6.187 5.014-11.2 11.2-11.2h42.932V123.2h-42.932c-6.187 0-11.2-5.013-11.2-11.2s5.014-11.2 11.2-11.2h42.932v-5.224c0-29.026-23.613-52.64-52.64-52.64s-52.64 23.614-52.64 52.64V237.44c0 29.026 23.614 52.64 52.64 52.64z"/><path d="M480 312.48c41.377 0 75.04-33.663 75.04-75.041V95.576c0-41.377-33.663-75.04-75.04-75.04s-75.04 33.663-75.04 75.04V237.44c0 41.377 33.663 75.04 75.04 75.04zM427.36 95.576c0-29.026 23.613-52.64 52.64-52.64s52.64 23.614 52.64 52.64v5.224h-42.932c-6.187 0-11.2 5.013-11.2 11.2s5.014 11.2 11.2 11.2h42.932v13.44h-42.932c-6.187 0-11.2 5.013-11.2 11.2 0 6.187 5.014 11.2 11.2 11.2h42.932v13.44h-42.932c-6.187 0-11.2 5.013-11.2 11.2 0 6.187 5.014 11.2 11.2 11.2h42.932v13.44h-42.932c-6.187 0-11.2 5.013-11.2 11.2s5.014 11.2 11.2 11.2h42.932v6.72c0 29.026-23.613 52.64-52.64 52.64s-52.64-23.614-52.64-52.64V95.576z"/><path d="M579.304 211.304c-6.187 0-11.2 5.013-11.2 11.2v14.569c0 48.582-39.522 88.104-88.104 88.104s-88.104-39.522-88.104-88.104v-58.24c0-6.187-5.013-11.2-11.2-11.2s-11.2 5.013-11.2 11.2v58.24c0 57.152 43.613 104.308 99.304 109.939v58.052h-28.376c-6.188 0-11.2 5.014-11.2 11.2s5.013 11.2 11.2 11.2h79.152c6.188 0 11.2-5.014 11.2-11.2s-5.013-11.2-11.2-11.2H491.2v-58.052c55.69-5.631 99.304-52.787 99.304-109.939v-14.569c0-6.187-5.014-11.2-11.2-11.2zM579.304 167.633c-6.187 0-11.2 5.013-11.2 11.2v10.819c0 6.187 5.014 11.2 11.2 11.2s11.2-5.013 11.2-11.2v-10.819c0-6.187-5.014-11.2-11.2-11.2z"/></symbol><symbol id="icon-teach" viewBox="348.288 89.6 263.424 268.352"><path fill="none" d="M508.224 220.416c0-3.136-2.688-5.376-5.376-5.376h-141.12v129.92h68.992V232.064c0-3.584 3.137-6.72 6.721-6.72v.448h65.407c3.136 0 5.376-2.24 5.376-5.376zM396.224 172.928c11.648 0 21.057-9.408 21.057-21.056s-9.408-21.056-21.057-21.056c-11.647 0-21.056 9.408-21.056 21.056s9.408 21.056 21.056 21.056z"/><path d="M396.224 186.368c19.265 0 34.496-15.68 34.496-34.496s-15.68-34.496-34.496-34.496c-18.815 0-34.496 15.68-34.496 34.496s15.232 34.496 34.496 34.496zm0-55.552c11.648 0 21.057 9.408 21.057 21.056s-9.408 21.056-21.057 21.056c-11.647 0-21.056-9.408-21.056-21.056s9.408-21.056 21.056-21.056zM521.664 219.968c0-10.304-8.512-18.816-18.816-18.816h-147.84c-3.584 0-6.72 3.136-6.72 6.72v143.36c0 3.584 3.136 6.72 6.72 6.72h81.984c3.584 0 6.72-3.136 6.72-6.72V238.784H502.4c10.752 0 19.264-8.064 19.264-18.816zm-84.224 5.824v-.448c-3.584 0-6.721 3.136-6.721 6.72V344.96h-68.992V215.04h141.12c2.688 0 5.376 2.24 5.376 5.376s-2.239 5.376-5.376 5.376H437.44z"/><path d="M604.992 89.6H415.04c-3.584 0-6.72 3.136-6.72 6.72v13.44c4.928 1.792 9.407 4.032 13.439 6.72v-13.44h176.512v159.04H453.12v13.44h151.872c3.584 0 6.72-3.136 6.72-6.72V96.32c0-3.584-3.136-6.72-6.72-6.72z"/><path d="M446.4 190.848l30.016-33.152 14.784 16.576c1.344 1.344 3.584 2.24 5.376 2.24s3.584-.896 4.928-2.688l18.816-25.984 11.647 19.264c.896 1.792 2.688 3.136 4.929 3.136 2.239 0 4.479-.896 5.823-2.24l41.216-44.8c2.24-2.688 2.24-6.72-.447-9.408-2.688-2.24-6.721-2.24-9.408.448l-35.393 38.08-12.096-20.16c-.896-1.792-3.136-3.136-5.376-3.136s-4.479.896-5.824 2.688L495.68 159.04l-14.336-16.128c-1.344-1.344-3.136-2.24-4.928-2.24s-3.584.896-4.928 2.24l-34.944 38.528c-2.688 2.688-2.24 6.72.448 9.408 1.344 1.344 2.688 1.792 4.479 1.792s3.585-.896 4.929-1.792z"/></symbol><symbol id="icon-twitter" viewBox="0 0 18 14.629"><path d="M0 12.968a10.434 10.434 0 0 0 5.66 1.659c6.793.002 10.508-5.626 10.508-10.506 0-.159-.003-.318-.01-.478A7.46 7.46 0 0 0 18 1.731a7.396 7.396 0 0 1-2.121.582A3.7 3.7 0 0 0 17.503.27a7.406 7.406 0 0 1-2.345.897 3.693 3.693 0 0 0-6.292 3.368A10.483 10.483 0 0 1 1.254.677c-.317.545-.5 1.18-.5 1.855 0 1.281.651 2.412 1.644 3.074a3.667 3.667 0 0 1-1.674-.461l-.001.046a3.697 3.697 0 0 0 2.963 3.622 3.77 3.77 0 0 1-1.668.062 3.695 3.695 0 0 0 3.45 2.564A7.416 7.416 0 0 1 0 12.968z"/></symbol><symbol id="icon-write" viewBox="269.454 14.421 421.093 419.158"><path fill="none" d="M463.554 318.241c-.004-.009-.014-.018-.018-.026l-11.299-11.299-8.333 38.013 38-8.328-18.328-18.337c-.004-.009-.017-.014-.022-.023zM600.745 166.88l-10.102-10.103-130.1 130.082 10.111 10.112zM501.967 328.281l-17.14-17.15 130.14-130.065 17.14 17.15zM604.826 142.599l17.154 17.154c.013.013.026.018.04.031s.022.027.031.041l24.206 24.196 20.079-20.084-41.423-41.422-20.087 20.084z"/><path d="M687.612 156.845l-55.605-55.597c-3.916-3.916-10.26-3.916-14.18 0l-34.178 34.169c-.031.031-.071.054-.099.085s-.054.072-.085.099l-144.01 143.987c-.014.013-.027.031-.045.045l-.135.134c-.125.125-.21.278-.331.412-.305.332-.609.672-.864 1.048-.175.255-.296.524-.444.784-.17.305-.349.6-.483.923a9.393 9.393 0 0 0-.372 1.146c-.062.216-.161.407-.206.632l-15.595 71.214a10.011 10.011 0 0 0 2.706 9.233 10.009 10.009 0 0 0 9.238 2.706l70.945-15.546a2.54 2.54 0 0 0 .188-.045l.071-.013c.09-.019.157-.063.247-.085a9.714 9.714 0 0 0 1.608-.524c.184-.081.345-.188.523-.282.399-.206.807-.408 1.174-.668.206-.139.381-.313.574-.466.272-.224.564-.421.819-.672L653.331 205.31c.009-.009.022-.014.031-.022.009-.009.014-.018.022-.027l34.245-34.241a10.046 10.046 0 0 0-.017-14.175zm-96.969-.068l10.103 10.103-130.092 130.091-10.111-10.111 130.1-130.083zM443.904 344.929l8.333-38.013 11.299 11.299c.004.009.014.018.018.026.005.009.019.014.022.022l18.328 18.337-38 8.329zm58.062-16.63l-17.141-17.149 130.104-130.095 17.145 17.145-130.108 130.099zm144.292-144.278l-24.206-24.196c-.009-.014-.018-.027-.031-.041s-.027-.018-.04-.031l-17.154-17.154 20.088-20.084 41.423 41.422-20.08 20.084z"/><path d="M582.095 317.578c-5.533 0-10.026 4.493-10.026 10.026v85.927H289.506V34.474h282.562v55.454c0 5.537 4.493 10.026 10.026 10.026s10.026-4.489 10.026-10.026v-65.48c0-5.537-4.493-10.026-10.026-10.026H279.479c-5.537 0-10.026 4.489-10.026 10.026v399.105c0 5.537 4.489 10.026 10.026 10.026h302.615c5.533 0 10.026-4.489 10.026-10.026v-95.948c.001-5.534-4.492-10.027-10.025-10.027z"/><path d="M412.58 268.702c0-5.538-4.488-10.026-10.025-10.026h-64.638c-5.538 0-10.026 4.489-10.026 10.026 0 5.533 4.489 10.021 10.026 10.021h64.633c5.542 0 10.03-4.489 10.03-10.021zM500.008 179.312c0-5.537-4.493-10.026-10.026-10.026H337.917c-5.538 0-10.026 4.489-10.026 10.026s4.489 10.026 10.026 10.026h152.06c5.538 0 10.031-4.489 10.031-10.026zM533.68 89.927c0-5.538-4.494-10.026-10.026-10.026H337.917c-5.538 0-10.026 4.489-10.026 10.026s4.489 10.026 10.026 10.026h185.736c5.533.005 10.027-4.484 10.027-10.026zM337.917 348.042c-5.538 0-10.026 4.494-10.026 10.026 0 5.533 4.489 10.026 10.026 10.026h46.91c5.537 0 10.026-4.493 10.026-10.026 0-5.532-4.489-10.026-10.026-10.026h-46.91z"/></symbol><symbol id="icon-youtube" viewBox="0 0 17 12"><path d="M14.123 12C15.712 12 17 10.688 17 9.066V2.934C17 1.313 15.712 0 14.123 0H2.877C1.288 0 0 1.313 0 2.934v6.132C0 10.688 1.288 12 2.877 12h11.246zM6.67 3.333l2.549 1.334L11.77 6 9.219 7.333 6.67 8.667V3.333z"/></symbol></svg>