<?xml version="1.0" encoding="UTF-8"?><!DOCTYPE svg PUBLIC "-//W3C//DTD SVG 1.1//EN" "http://www.w3.org/Graphics/SVG/1.1/DTD/svg11.dtd"><svg xmlns="http://www.w3.org/2000/svg"><symbol id="icon-email" viewBox="0 0 18.842 13"><path d="M18 0H1l8.5 8z"/><path d="M9.421 10.193L6.542 7.521.889 13h17.027a.118.118 0 0 1 .033-.049l-5.702-5.375-2.826 2.617zM13.17 6.579l5.672 5.464V1.006zM0 1.006v11.078l5.696-5.481z"/></symbol><symbol id="icon-facebook" viewBox="0 0 10 19.256"><path d="M8.188 3.197L10 3.196V.135C9.688.093 8.609 0 7.359 0 4.745 0 2.956 1.596 2.956 4.525V7.05H0v3.424h2.956v8.782H6.49v-8.782h2.949l.442-3.424H6.49V4.864c0-.991.276-1.667 1.698-1.667z"/></symbol><symbol id="icon-instagram" viewBox="0 0 17 17"><path d="M14.086 17A2.914 2.914 0 0 0 17 14.086V2.914A2.914 2.914 0 0 0 14.086 0H2.914A2.914 2.914 0 0 0 0 2.914v11.172A2.914 2.914 0 0 0 2.914 17h11.172zm-.729-14.936c0-.134.108-.243.242-.243h1.336c.135 0 .244.109.244.243V3.4a.243.243 0 0 1-.244.242H13.6a.242.242 0 0 1-.242-.242V2.064zM5.848 7.026l.004-.007c.033-.06.069-.119.107-.177.022-.034.046-.067.07-.101.025-.036.053-.072.08-.107a3.791 3.791 0 0 1 .219-.254c.024-.025.052-.05.077-.074.038-.035.075-.07.115-.103.025-.022.05-.045.078-.066a2.57 2.57 0 0 1 .186-.139c.022-.017.047-.031.07-.046.051-.033.102-.063.154-.094l.075-.042c.073-.039.146-.075.222-.107l.054-.021a2.759 2.759 0 0 1 .524-.16l.028-.005a3.104 3.104 0 0 1 .589-.059c.093 0 .185.006.275.015a3.007 3.007 0 0 1 .313.043l.029.005c.086.018.17.04.254.065l.072.023c.067.023.133.047.2.073l.052.021c.075.032.149.068.222.107l.075.041c.053.03.104.062.154.095.021.016.047.029.068.045.062.044.126.091.188.14.024.021.052.043.076.065a1.6 1.6 0 0 1 .113.104c.025.024.053.049.076.073a3.044 3.044 0 0 1 .216.253c.029.036.057.073.084.11l.067.099A3.035 3.035 0 1 1 5.458 8.5a3.096 3.096 0 0 1 .39-1.474zM1.821 13.18V7.026h2.051a4.857 4.857 0 1 0 9.256 0h2.052v6.154a2.136 2.136 0 0 1-2.139 2.137H3.959a2.138 2.138 0 0 1-2.138-2.137z"/></symbol><symbol id="icon-meetup" viewBox="0 0 73 26"><path d="M17.688 11.98c.602-1.522 1.272-3.017 1.887-4.535.335-.825.475-1.673.141-2.55-.227-.597-.582-1.1-1.176-1.311-1.023-.363-2.065-.441-3.07.125-.423.238-.574.205-.939-.117-.177-.157-.367-.302-.528-.474-.698-.75-2.126-.631-2.788.014-.264.258-.555.491-.842.724-.35.285-.746.401-1.181.218-.311-.129-.61-.291-.914-.441-.799-.396-1.598-.756-2.534-.47-.896.273-1.678.713-2.16 1.527-.705 1.189-1.064 2.525-1.509 3.822-.226.659-.421 1.329-.63 1.994-.224.714-.453 1.426-.668 2.143-.227.755-.444 1.514-.661 2.273-.234.82-.116 1.594.369 2.291.61.876 1.503 1.221 2.538 1.207.331-.005.679-.082.987-.206.608-.245.97-.767 1.209-1.34.648-1.55 1.259-3.114 1.88-4.675.52-1.304 1.026-2.612 1.554-3.912.15-.37.464-.577.864-.614.364-.033.624.184.757.484.169.39.126.81-.02 1.206a73.735 73.735 0 0 1-.654 1.691c-.415 1.047-.836 2.093-1.252 3.139-.189.479-.365.959-.285 1.494a.893.893 0 0 0 .605.75c1 .373 1.922.008 2.413-.951.518-1.012 1.022-2.029 1.535-3.044.684-1.352 1.363-2.708 2.065-4.051a7.19 7.19 0 0 1 .748-1.157c.226-.286.591-.315.902-.155.302.157.25.444.237.705-.007.143-.03.293-.087.422-.313.701-.637 1.398-.959 2.095-.619 1.339-1.278 2.662-1.846 4.02-.52 1.242-.293 2.436.557 3.465 1.06 1.285 2.513 1.55 4.079 1.396a15.456 15.456 0 0 0 3.757-.839c.98-.354 1.918-.784 2.73-1.452.452-.369.481-.371.926.016.629.543 1.324.994 2.127 1.207 1.283.338 2.523.053 3.701-.456.664-.286 1.273-.7 1.9-1.068.149-.088.242-.086.41-.007.731.345 1.454.777 2.229.945 1.514.328 2.963.003 4.303-.787.998-.59 1.731-1.44 2.385-2.373.068-.1.133-.204.234-.355.234.303.385.495.537.69.569.716 1.254 1.289 2.146 1.538.914.254 1.83.127 2.691-.236.773-.327 1.521-.717 2.27-1.098.211-.107.289-.037.376.143.155.321.301.653.499.947.64.949 1.539 1.54 2.668 1.719.783.124 1.587.193 2.347-.138.629-.274 1.16-.697 1.64-1.183.361-.367.777-.556 1.31-.438.784.172 1.571.327 2.358.484.381.074.473.168.436.564-.045.491-.119.98-.176 1.471-.081.703-.145 1.41-.238 2.113a19.455 19.455 0 0 0-.117 4.156c.023.281.113.562.211.831.114.317.367.467.711.411.572-.092.986-.456 1.115-.984a25.7 25.7 0 0 0 .549-2.963c.195-1.582.395-3.159.771-4.71.06-.248.199-.349.439-.333.473.033.944.074 1.418.1.627.035 1.26.118 1.883.076 1.467-.099 2.734-.66 3.666-1.833.219-.276.352-.638.461-.981.066-.203-.073-.336-.312-.225-.258.122-.526.235-.771.383-1.086.656-2.271.942-3.526.963-.131.002-.265-.108-.397-.168.076-.098.133-.224.229-.289 1.052-.717 1.806-1.659 2.216-2.867.357-1.044.477-2.091.174-3.175-.396-1.427-1.699-2.27-2.945-2.414a6.966 6.966 0 0 0-2.459.129c-1.36.33-2.098 1.36-2.293 2.495-.133.768-.144 1.556-.211 2.334-.058.655-.073 1.318-.192 1.963-.142.766-.621 1.258-1.297 1.181a6.543 6.543 0 0 1-1.142-.245c-.746-.226-1.177-.771-1.104-1.537.116-1.248.321-2.485.464-3.729.038-.335.062-.709-.047-1.015-.133-.366-.659-.528-1.061-.442-.348.074-.627.417-.68.863-.129 1.092-.212 2.192-.388 3.276-.124.765-.295 1.539-.583 2.253-.277.691-.664.935-1.318.927-.779-.009-1.566-.496-1.463-1.479.104-.971.189-1.943.283-2.916.074-.787.178-1.574.216-2.363.028-.564-.339-1.062-.872-1.108-.85-.073-1.709-.065-2.561-.039-.156.004-.377.228-.438.396-.108.304-.146.642-.165.968a174.36 174.36 0 0 0-.165 3.39c-.022.619-.325 1.066-.788 1.432-.834.659-1.791 1.024-2.837 1.199-.71.119-1.222-.141-1.522-.797-.37-.812-.5-1.681-.525-2.549-.048-1.656-.01-3.313-.021-4.97-.004-.335.16-.492.459-.546.445-.082.899-.128 1.338-.236.625-.154 1.253-.32 1.857-.539.434-.156.557-.549.453-1.121-.061-.33-.309-.509-.754-.562-.941-.111-1.881-.242-2.822-.338-.328-.033-.418-.188-.412-.479.006-.411.018-.823-.011-1.233-.034-.5-.3-.854-.803-.966a6.03 6.03 0 0 0-1.091-.158c-.612-.024-.75.118-.787.719-.025.4-.037.802-.062 1.202-.035.516-.219.647-.74.62-1.06-.056-2.121-.09-3.182-.129-1.028-.037-1.235.427-1.193 1.281.002.041.006.082.01.123.074.726.18 1.449.216 2.177.035.721.546.974 1.164.864.284-.052.568-.086.854-.138.9-.164 1.801-.324 2.699-.505.34-.069.397-.048.408.308.029.998.064 1.995.084 2.992.025 1.278.02 2.549-.477 3.764-.414 1.014-1.142 1.698-2.176 2.03-.945.305-1.918.334-2.856-.004-.431-.154-.819-.449-1.202-.717-.248-.174-.242-.412-.059-.673.459-.656.877-1.331 1.081-2.125.284-1.105.116-2.117-.546-3.041-.551-.77-1.364-1.128-2.26-1.241-.554-.07-1.154-.076-1.685.067-.859.229-1.228.983-1.373 1.781-.385 2.131.122 4.071 1.403 5.813.184.251.179.418-.087.598-.557.377-1.178.535-1.846.401a5.104 5.104 0 0 1-.914-.271 6.773 6.773 0 0 1-2.094-1.332c-.131-.121-.18-.254-.096-.461.305-.75.623-1.498.846-2.271.398-1.383.093-2.674-.836-3.747-1.072-1.24-2.257-1.469-3.717-.639-.989.563-1.376 1.492-1.475 2.56-.114 1.221.312 2.326.83 3.397.246.505.538.99.816 1.479.136.241.116.432-.143.562-.302.152-.597.328-.913.441-.656.236-1.317.463-1.989.648-.787.217-1.592.37-2.413.266-.539-.067-1.073-.259-1.22-.839a2.51 2.51 0 0 1 .008-1.218c.256-.936.557-1.864.912-2.768zm47.828 1.165c.264-1.021.529-2.048 1.115-2.944.176-.269.409-.52.666-.711.571-.423 1.276-.109 1.391.592.02.122.02.246.029.369.016.634-.251 1.178-.576 1.693-.533.849-1.166 1.611-2.021 2.161-.412.266-.701.121-.711-.369a2.907 2.907 0 0 1 .107-.791zM33.973 9.467c.287-.089.536-.005.736.189.36.351.474.802.466 1.289-.007.567-.14 1.096-.481 1.561-.243.333-.422.343-.61-.016-.366-.698-.722-1.408-.672-2.233.027-.426.215-.683.561-.79zm-8.483.007c.375-.098.801.064.966.421.13.282.188.594.28.893-.041.607-.254 1.129-.532 1.627-.201.361-.414.357-.618-.016a4.092 4.092 0 0 1-.363-.879 7.012 7.012 0 0 1-.248-1.264c-.042-.488.117-.678.515-.782z"/></symbol><symbol id="icon-twitter" viewBox="0 0 18 14.629"><path d="M0 12.968a10.434 10.434 0 0 0 5.66 1.659c6.793.002 10.508-5.626 10.508-10.506 0-.159-.003-.318-.01-.478A7.46 7.46 0 0 0 18 1.731a7.396 7.396 0 0 1-2.121.582A3.7 3.7 0 0 0 17.503.27a7.406 7.406 0 0 1-2.345.897 3.693 3.693 0 0 0-6.292 3.368A10.483 10.483 0 0 1 1.254.677c-.317.545-.5 1.18-.5 1.855 0 1.281.651 2.412 1.644 3.074a3.667 3.667 0 0 1-1.674-.461l-.001.046a3.697 3.697 0 0 0 2.963 3.622 3.77 3.77 0 0 1-1.668.062 3.695 3.695 0 0 0 3.45 2.564A7.416 7.416 0 0 1 0 12.968z"/></symbol><symbol id="icon-youtube" viewBox="0 0 17 12"><path d="M14.123 12C15.712 12 17 10.688 17 9.066V2.934C17 1.313 15.712 0 14.123 0H2.877C1.288 0 0 1.313 0 2.934v6.132C0 10.688 1.288 12 2.877 12h11.246zM6.67 3.333l2.549 1.334L11.77 6 9.219 7.333 6.67 8.667V3.333z"/></symbol></svg>