<?xml version="1.0" encoding="utf-8"?>
<!-- Generator: Adobe Illustrator 16.0.0, SVG Export Plug-In . SVG Version: 6.00 Build 0)  -->
<!DOCTYPE svg PUBLIC "-//W3C//DTD SVG 1.1//EN" "http://www.w3.org/Graphics/SVG/1.1/DTD/svg11.dtd">
<svg version="1.1" id="Layer_1" xmlns="http://www.w3.org/2000/svg" xmlns:xlink="http://www.w3.org/1999/xlink" x="0px" y="0px"
	 width="166px" height="30px" viewBox="0 0 166 30" enable-background="new 0 0 166 30" xml:space="preserve">
<g>
	<defs>
		<polygon id="SVGID_1_" points="-114.057,478.747 -106.485,486.294 -98.915,478.747 		"/>
	</defs>
	<clipPath id="SVGID_2_">
		<use xlink:href="#SVGID_1_"  overflow="visible"/>
	</clipPath>
	<g clip-path="url(#SVGID_2_)">
		<defs>
			<rect id="SVGID_3_" x="-802" y="-1369.252" width="1024" height="1914"/>
		</defs>
		<clipPath id="SVGID_4_">
			<use xlink:href="#SVGID_3_"  overflow="visible"/>
		</clipPath>
	</g>
</g>
<g>
	<defs>
		<path id="SVGID_5_" d="M-114.196,490.354l5.108-5.032l2.603,2.454l2.554-2.404l5.153,4.938c-0.014,0.011-0.024,0.026-0.029,0.044
			H-114.196z"/>
	</defs>
	<clipPath id="SVGID_6_">
		<use xlink:href="#SVGID_5_"  overflow="visible"/>
	</clipPath>
	<g clip-path="url(#SVGID_6_)">
		<defs>
			<rect id="SVGID_7_" x="-802" y="-1369.252" width="1024" height="1914"/>
		</defs>
		<clipPath id="SVGID_8_">
			<use xlink:href="#SVGID_7_"  overflow="visible"/>
		</clipPath>
	</g>
</g>
<g>
	<defs>
		<polygon id="SVGID_9_" points="-103.097,484.456 -97.972,479.337 -97.972,489.476 		"/>
	</defs>
	<clipPath id="SVGID_10_">
		<use xlink:href="#SVGID_9_"  overflow="visible"/>
	</clipPath>
	<g clip-path="url(#SVGID_10_)">
		<defs>
			<rect id="SVGID_11_" x="-802" y="-1369.252" width="1024" height="1914"/>
		</defs>
		<clipPath id="SVGID_12_">
			<use xlink:href="#SVGID_11_"  overflow="visible"/>
		</clipPath>
	</g>
</g>
<g>
	<defs>
		<rect id="SVGID_13_" x="-115" y="479.337" width="5.148" height="10.176"/>
	</defs>
	<clipPath id="SVGID_14_">
		<use xlink:href="#SVGID_13_"  overflow="visible"/>
	</clipPath>
	<g clip-path="url(#SVGID_14_)">
		<defs>
			<rect id="SVGID_15_" x="-802" y="-1369.252" width="1024" height="1914"/>
		</defs>
		<clipPath id="SVGID_16_">
			<use xlink:href="#SVGID_15_"  overflow="visible"/>
		</clipPath>
	</g>
</g>
<g>
	<defs>
		<polygon id="SVGID_23_" points="553.973,132.589 561.545,140.136 569.114,132.589 		"/>
	</defs>
	<clipPath id="SVGID_18_">
		<use xlink:href="#SVGID_23_"  overflow="visible"/>
	</clipPath>
	<g clip-path="url(#SVGID_18_)">
		<defs>
			<rect id="SVGID_25_" x="-133.971" y="-1715.411" width="1024" height="1914"/>
		</defs>
		<clipPath id="SVGID_20_">
			<use xlink:href="#SVGID_25_"  overflow="visible"/>
		</clipPath>
	</g>
</g>
<g>
	<defs>
		<path id="SVGID_27_" d="M553.833,144.196l5.108-5.032l2.603,2.454l2.554-2.404l5.153,4.938c-0.015,0.011-0.024,0.026-0.028,0.044
			H553.833z"/>
	</defs>
	<clipPath id="SVGID_22_">
		<use xlink:href="#SVGID_27_"  overflow="visible"/>
	</clipPath>
	<g clip-path="url(#SVGID_22_)">
		<defs>
			<rect id="SVGID_29_" x="-133.971" y="-1715.411" width="1024" height="1914"/>
		</defs>
		<clipPath id="SVGID_24_">
			<use xlink:href="#SVGID_29_"  overflow="visible"/>
		</clipPath>
	</g>
</g>
<g>
	<defs>
		<polygon id="SVGID_31_" points="564.933,138.298 570.058,133.179 570.058,143.317 		"/>
	</defs>
	<clipPath id="SVGID_26_">
		<use xlink:href="#SVGID_31_"  overflow="visible"/>
	</clipPath>
	<g clip-path="url(#SVGID_26_)">
		<defs>
			<rect id="SVGID_33_" x="-133.971" y="-1715.411" width="1024" height="1914"/>
		</defs>
		<clipPath id="SVGID_28_">
			<use xlink:href="#SVGID_33_"  overflow="visible"/>
		</clipPath>
	</g>
</g>
<g>
	<defs>
		<rect id="SVGID_35_" x="553.029" y="133.179" width="5.148" height="10.176"/>
	</defs>
	<clipPath id="SVGID_30_">
		<use xlink:href="#SVGID_35_"  overflow="visible"/>
	</clipPath>
	<g clip-path="url(#SVGID_30_)">
		<defs>
			<rect id="SVGID_37_" x="-133.971" y="-1715.411" width="1024" height="1914"/>
		</defs>
		<clipPath id="SVGID_32_">
			<use xlink:href="#SVGID_37_"  overflow="visible"/>
		</clipPath>
	</g>
</g>
<g>
	<defs>
		<path id="SVGID_45_" d="M185.335,243.177v-8.783h2.949l0.441-3.423h-3.391v-2.186c0-0.991,0.275-1.667,1.697-1.667l1.812-0.001
			v-3.062c-0.313-0.042-1.39-0.135-2.641-0.135c-2.614,0-4.403,1.596-4.403,4.525v2.524h-2.956v3.423h2.956v8.783H185.335z"/>
	</defs>
	<clipPath id="SVGID_34_">
		<use xlink:href="#SVGID_45_"  overflow="visible"/>
	</clipPath>
	<g clip-path="url(#SVGID_34_)">
		<defs>
			<rect id="SVGID_47_" x="-559.155" y="-1620.079" width="1024" height="1914"/>
		</defs>
		<clipPath id="SVGID_36_">
			<use xlink:href="#SVGID_47_"  overflow="visible"/>
		</clipPath>
	</g>
</g>
<g>
	<defs>
		<path id="SVGID_49_" d="M395.304,271.489c0-0.159-0.003-0.318-0.01-0.478c0.721-0.521,1.348-1.171,1.842-1.912
			c-0.662,0.294-1.374,0.492-2.121,0.582c0.763-0.457,1.348-1.181,1.624-2.043c-0.714,0.423-1.503,0.73-2.345,0.896
			c-0.674-0.718-1.634-1.167-2.695-1.167c-2.04,0-3.693,1.654-3.693,3.692c0,0.29,0.031,0.572,0.096,0.843
			c-3.07-0.154-5.791-1.624-7.612-3.858c-0.317,0.545-0.5,1.18-0.5,1.855c0,1.281,0.651,2.412,1.644,3.074
			c-0.605-0.019-1.176-0.186-1.673-0.462c-0.001,0.016-0.001,0.031-0.001,0.047c0,1.789,1.273,3.282,2.963,3.621
			c-0.311,0.084-0.637,0.13-0.974,0.13c-0.237,0-0.47-0.024-0.694-0.067c0.471,1.468,1.834,2.535,3.45,2.565
			c-1.265,0.99-2.856,1.581-4.587,1.581c-0.298,0-0.592-0.018-0.881-0.052c1.635,1.048,3.575,1.659,5.66,1.659
			C391.589,281.997,395.304,276.369,395.304,271.489z"/>
	</defs>
	<clipPath id="SVGID_38_">
		<use xlink:href="#SVGID_49_"  overflow="visible"/>
	</clipPath>
	<g clip-path="url(#SVGID_38_)">
		<defs>
			<rect id="SVGID_51_" x="-399.864" y="-1579.632" width="1024" height="1914"/>
		</defs>
		<clipPath id="SVGID_40_">
			<use xlink:href="#SVGID_51_"  overflow="visible"/>
		</clipPath>
	</g>
</g>
<g>
	<defs>
		<path id="SVGID_53_" d="M257.072,67.562c0,0.134-0.108,0.242-0.243,0.242h-1.336c-0.134,0-0.242-0.108-0.242-0.242v-1.336
			c0-0.134,0.108-0.243,0.242-0.243h1.336c0.135,0,0.243,0.109,0.243,0.243V67.562z M257.072,77.341
			c0,1.181-0.957,2.137-2.138,2.137h-9.082c-1.181,0-2.138-0.956-2.138-2.137v-6.153h2.051c-0.147,0.465-0.229,0.96-0.229,1.474
			c0,2.683,2.176,4.857,4.857,4.857s4.857-2.175,4.857-4.857c0-0.514-0.082-1.009-0.229-1.474h2.051V77.341z M247.741,71.188
			L247.741,71.188c0-0.002,0.002-0.004,0.004-0.007c0.033-0.061,0.069-0.119,0.107-0.178c0.022-0.034,0.046-0.067,0.07-0.101
			c0.025-0.036,0.053-0.072,0.08-0.107c0.023-0.031,0.047-0.062,0.072-0.091c0.047-0.056,0.097-0.11,0.147-0.163
			c0.024-0.025,0.052-0.05,0.077-0.074c0.037-0.035,0.074-0.069,0.113-0.103c0.025-0.022,0.051-0.045,0.078-0.066
			c0.06-0.049,0.121-0.095,0.186-0.139c0.022-0.017,0.047-0.031,0.07-0.046c0.051-0.033,0.102-0.063,0.154-0.094
			c0.025-0.015,0.05-0.028,0.075-0.042c0.073-0.039,0.146-0.075,0.222-0.107c0.018-0.008,0.036-0.014,0.054-0.021
			c0.065-0.027,0.131-0.051,0.198-0.073c0.023-0.008,0.048-0.016,0.072-0.022c0.083-0.025,0.168-0.048,0.254-0.065
			c0.009-0.002,0.02-0.003,0.028-0.005c0.079-0.016,0.159-0.027,0.241-0.037c0.023-0.003,0.047-0.005,0.071-0.007
			c0.091-0.009,0.183-0.015,0.276-0.015c0.093,0,0.185,0.006,0.275,0.015c0.024,0.002,0.049,0.004,0.072,0.007
			c0.082,0.01,0.162,0.021,0.24,0.037c0.01,0.002,0.02,0.003,0.029,0.005c0.086,0.018,0.17,0.04,0.254,0.065
			c0.023,0.007,0.048,0.015,0.072,0.022c0.066,0.022,0.133,0.047,0.198,0.073c0.018,0.007,0.035,0.013,0.053,0.021
			c0.075,0.032,0.149,0.068,0.223,0.107c0.024,0.013,0.05,0.027,0.075,0.041c0.053,0.03,0.104,0.062,0.155,0.095
			c0.022,0.016,0.046,0.029,0.069,0.045c0.063,0.044,0.126,0.091,0.186,0.14c0.026,0.021,0.052,0.043,0.077,0.065
			c0.039,0.033,0.077,0.068,0.114,0.104c0.025,0.024,0.052,0.049,0.076,0.073c0.051,0.053,0.102,0.108,0.148,0.164
			c0.024,0.029,0.047,0.059,0.07,0.089c0.029,0.036,0.057,0.073,0.083,0.11c0.023,0.033,0.046,0.065,0.068,0.099
			c0.312,0.478,0.495,1.047,0.495,1.659c0,1.676-1.359,3.035-3.035,3.035c-1.677,0-3.036-1.359-3.036-3.035
			C247.358,72.126,247.497,71.624,247.741,71.188z M255.979,64.161h-11.172c-1.609,0-2.914,1.305-2.914,2.914v11.172
			c0,1.609,1.305,2.914,2.914,2.914h11.172c1.609,0,2.914-1.305,2.914-2.914V67.075C258.893,65.466,257.588,64.161,255.979,64.161z"
			/>
	</defs>
	<clipPath id="SVGID_42_">
		<use xlink:href="#SVGID_53_"  overflow="visible"/>
	</clipPath>
	<g clip-path="url(#SVGID_42_)">
		<defs>
			<rect id="SVGID_55_" x="-585.107" y="-1781.839" width="1024" height="1914"/>
		</defs>
		<clipPath id="SVGID_44_">
			<use xlink:href="#SVGID_55_"  overflow="visible"/>
		</clipPath>
	</g>
</g>
<g>
	<defs>
		<path id="SVGID_57_" d="M570.776,361.521l-2.549,1.334v-5.334l2.549,1.334l2.551,1.333L570.776,361.521z M575.681,354.188h-11.246
			c-1.589,0-2.877,1.313-2.877,2.934v6.133c0,1.62,1.288,2.934,2.877,2.934h11.246c1.589,0,2.877-1.313,2.877-2.934v-6.133
			C578.558,355.502,577.27,354.188,575.681,354.188z"/>
	</defs>
	<clipPath id="SVGID_46_">
		<use xlink:href="#SVGID_57_"  overflow="visible"/>
	</clipPath>
	<g clip-path="url(#SVGID_46_)">
		<defs>
			<rect id="SVGID_59_" x="-311.442" y="-1493.812" width="1024" height="1914"/>
		</defs>
		<clipPath id="SVGID_48_">
			<use xlink:href="#SVGID_59_"  overflow="visible"/>
		</clipPath>
	</g>
</g>
<g>
	<defs>
		<path id="SVGID_61_" d="M521.231-15.212c-0.092-0.299-0.15-0.611-0.28-0.893c-0.165-0.357-0.591-0.519-0.966-0.421
			c-0.398,0.104-0.557,0.294-0.515,0.782c0.036,0.426,0.134,0.851,0.248,1.264c0.083,0.305,0.212,0.603,0.363,0.879
			c0.204,0.373,0.417,0.377,0.618,0.016C520.978-14.082,521.19-14.604,521.231-15.212z M529.67-15.055
			c0.008-0.487-0.106-0.938-0.466-1.289c-0.2-0.194-0.449-0.278-0.736-0.189c-0.346,0.107-0.534,0.364-0.561,0.79
			c-0.05,0.825,0.306,1.535,0.672,2.233c0.188,0.359,0.367,0.349,0.61,0.016C529.53-13.959,529.663-14.487,529.67-15.055z
			 M563.212-15.549c-0.01-0.123-0.01-0.247-0.029-0.369c-0.115-0.701-0.82-1.015-1.391-0.592c-0.257,0.191-0.49,0.442-0.666,0.711
			c-0.586,0.896-0.851,1.923-1.115,2.944c-0.066,0.256-0.113,0.527-0.107,0.791c0.01,0.49,0.299,0.634,0.711,0.369
			c0.854-0.55,1.487-1.312,2.021-2.161C562.961-14.37,563.228-14.914,563.212-15.549z M537.508-11.987
			c-0.101,0.151-0.165,0.255-0.234,0.355c-0.653,0.933-1.386,1.784-2.384,2.373c-1.34,0.79-2.79,1.115-4.303,0.788
			c-0.775-0.168-1.498-0.601-2.229-0.946c-0.168-0.079-0.261-0.081-0.41,0.007c-0.627,0.368-1.236,0.782-1.9,1.068
			c-1.178,0.509-2.418,0.794-3.701,0.456c-0.803-0.213-1.498-0.664-2.127-1.207c-0.445-0.386-0.474-0.385-0.926-0.015
			c-0.812,0.667-1.75,1.097-2.73,1.452c-1.218,0.44-2.473,0.711-3.757,0.838c-1.566,0.154-3.019-0.111-4.079-1.396
			c-0.85-1.029-1.077-2.223-0.557-3.464c0.568-1.358,1.227-2.681,1.846-4.02c0.322-0.697,0.646-1.394,0.959-2.095
			c0.057-0.129,0.08-0.279,0.087-0.422c0.013-0.261,0.065-0.548-0.237-0.705c-0.311-0.16-0.676-0.131-0.902,0.155
			c-0.285,0.358-0.537,0.751-0.748,1.157c-0.702,1.343-1.381,2.699-2.065,4.051c-0.513,1.015-1.017,2.032-1.535,3.044
			c-0.491,0.959-1.413,1.324-2.413,0.952c-0.338-0.127-0.549-0.374-0.605-0.751c-0.08-0.535,0.096-1.015,0.285-1.493
			c0.416-1.047,0.837-2.093,1.252-3.14c0.223-0.562,0.445-1.124,0.654-1.691c0.146-0.396,0.189-0.816,0.02-1.206
			c-0.133-0.3-0.393-0.517-0.757-0.484c-0.397,0.035-0.712,0.242-0.861,0.611c-0.528,1.3-1.034,2.608-1.554,3.912
			c-0.621,1.561-1.232,3.125-1.88,4.675c-0.239,0.573-0.601,1.095-1.209,1.34c-0.308,0.124-0.656,0.201-0.987,0.206
			c-1.035,0.014-1.928-0.331-2.538-1.207c-0.485-0.696-0.604-1.471-0.369-2.29c0.217-0.759,0.434-1.518,0.661-2.273
			c0.215-0.717,0.444-1.429,0.668-2.143c0.209-0.665,0.404-1.335,0.63-1.994c0.444-1.297,0.804-2.633,1.509-3.822
			c0.482-0.814,1.264-1.254,2.16-1.527c0.936-0.285,1.734,0.074,2.534,0.471c0.304,0.15,0.603,0.312,0.914,0.441
			c0.435,0.183,0.831,0.067,1.181-0.218c0.287-0.233,0.578-0.466,0.842-0.724c0.662-0.645,2.09-0.764,2.788-0.014
			c0.161,0.172,0.351,0.317,0.528,0.474c0.365,0.322,0.516,0.355,0.939,0.117c1.005-0.566,2.047-0.488,3.07-0.125
			c0.594,0.211,0.949,0.714,1.176,1.311c0.334,0.877,0.194,1.725-0.141,2.55c-0.615,1.518-1.285,3.013-1.887,4.535
			c-0.355,0.904-0.656,1.833-0.912,2.77c-0.104,0.382-0.104,0.834-0.008,1.218c0.147,0.58,0.681,0.771,1.22,0.839
			c0.821,0.104,1.626-0.049,2.413-0.266c0.672-0.185,1.333-0.412,1.989-0.648c0.316-0.114,0.611-0.289,0.913-0.442
			c0.259-0.131,0.279-0.321,0.143-0.562c-0.278-0.489-0.57-0.974-0.816-1.479c-0.518-1.071-0.944-2.176-0.83-3.397
			c0.099-1.068,0.486-1.997,1.475-2.56c1.46-0.83,2.645-0.601,3.717,0.639c0.929,1.073,1.234,2.364,0.836,3.747
			c-0.223,0.773-0.541,1.521-0.846,2.27c-0.084,0.207-0.035,0.34,0.096,0.461c0.615,0.573,1.315,1.018,2.094,1.332
			c0.293,0.119,0.604,0.208,0.914,0.271c0.668,0.134,1.289-0.025,1.846-0.401c0.266-0.18,0.271-0.347,0.087-0.598
			c-1.281-1.742-1.788-3.682-1.403-5.813c0.145-0.798,0.514-1.552,1.373-1.781c0.531-0.143,1.131-0.137,1.684-0.066
			c0.896,0.113,1.709,0.471,2.26,1.241c0.662,0.924,0.83,1.936,0.546,3.041c-0.204,0.794-0.622,1.469-1.081,2.125
			c-0.183,0.26-0.189,0.499,0.059,0.673c0.383,0.268,0.771,0.562,1.202,0.717c0.938,0.337,1.912,0.308,2.857,0.004
			c1.034-0.332,1.761-1.017,2.176-2.031c0.495-1.215,0.501-2.486,0.476-3.764c-0.02-0.997-0.055-1.994-0.084-2.992
			c-0.011-0.356-0.068-0.377-0.408-0.308c-0.898,0.181-1.799,0.341-2.699,0.505c-0.285,0.052-0.57,0.086-0.854,0.138
			c-0.618,0.11-1.129-0.143-1.164-0.864c-0.036-0.728-0.142-1.451-0.216-2.177c-0.004-0.041-0.008-0.082-0.01-0.123
			c-0.042-0.854,0.165-1.318,1.193-1.281c1.061,0.039,2.122,0.073,3.182,0.129c0.521,0.027,0.705-0.104,0.74-0.62
			c0.025-0.4,0.037-0.802,0.062-1.202c0.037-0.601,0.175-0.743,0.787-0.719c0.365,0.014,0.732,0.077,1.091,0.158
			c0.503,0.112,0.768,0.466,0.803,0.966c0.028,0.41,0.017,0.822,0.01,1.233c-0.005,0.291,0.085,0.446,0.412,0.479
			c0.942,0.096,1.882,0.227,2.823,0.338c0.445,0.053,0.694,0.232,0.754,0.562c0.104,0.572-0.02,0.965-0.453,1.121
			c-0.605,0.219-1.232,0.385-1.857,0.539c-0.439,0.108-0.893,0.154-1.339,0.236c-0.299,0.054-0.462,0.211-0.458,0.546
			c0.011,1.657-0.027,3.314,0.021,4.97c0.025,0.868,0.155,1.737,0.526,2.549c0.3,0.657,0.812,0.916,1.522,0.797
			c1.045-0.175,2.002-0.54,2.836-1.199c0.463-0.366,0.767-0.813,0.789-1.432c0.043-1.13,0.098-2.261,0.165-3.39
			c0.019-0.326,0.056-0.664,0.165-0.968c0.061-0.168,0.282-0.392,0.438-0.396c0.852-0.026,1.711-0.034,2.561,0.039
			c0.533,0.046,0.9,0.544,0.872,1.108c-0.038,0.789-0.141,1.576-0.216,2.363c-0.094,0.973-0.18,1.945-0.283,2.916
			c-0.104,0.982,0.684,1.47,1.463,1.479c0.654,0.008,1.041-0.236,1.318-0.927c0.288-0.714,0.459-1.488,0.583-2.253
			c0.176-1.084,0.259-2.184,0.388-3.276c0.053-0.446,0.332-0.789,0.68-0.863c0.401-0.086,0.928,0.076,1.06,0.442
			c0.11,0.306,0.085,0.68,0.047,1.015c-0.142,1.244-0.347,2.481-0.464,3.729c-0.072,0.766,0.359,1.311,1.104,1.537
			c0.372,0.112,0.757,0.201,1.142,0.245c0.676,0.077,1.155-0.415,1.297-1.181c0.119-0.645,0.135-1.308,0.193-1.963
			c0.067-0.778,0.077-1.566,0.211-2.334c0.195-1.135,0.932-2.165,2.293-2.495c0.818-0.199,1.643-0.223,2.459-0.129
			c1.246,0.144,2.548,0.987,2.945,2.414c0.303,1.084,0.183,2.131-0.174,3.175c-0.411,1.208-1.164,2.15-2.216,2.868
			c-0.097,0.065-0.153,0.191-0.229,0.289c0.132,0.059,0.266,0.169,0.397,0.167c1.256-0.02,2.441-0.306,3.527-0.963
			c0.244-0.147,0.512-0.26,0.77-0.382c0.238-0.112,0.378,0.021,0.312,0.225c-0.11,0.343-0.243,0.704-0.462,0.981
			c-0.931,1.172-2.199,1.734-3.666,1.833c-0.623,0.042-1.255-0.041-1.882-0.076c-0.474-0.026-0.946-0.067-1.419-0.1
			c-0.24-0.016-0.379,0.085-0.439,0.333c-0.377,1.551-0.576,3.128-0.771,4.71c-0.123,0.996-0.31,1.988-0.549,2.963
			c-0.129,0.528-0.543,0.893-1.115,0.984c-0.344,0.056-0.597-0.093-0.711-0.411c-0.098-0.269-0.188-0.55-0.211-0.831
			c-0.113-1.389-0.066-2.774,0.117-4.156c0.094-0.703,0.157-1.41,0.238-2.114c0.057-0.49,0.131-0.979,0.176-1.47
			c0.037-0.396-0.054-0.49-0.435-0.565c-0.788-0.157-1.575-0.312-2.359-0.484c-0.532-0.118-0.948,0.07-1.31,0.437
			c-0.479,0.486-1.01,0.909-1.639,1.183c-0.76,0.331-1.564,0.262-2.347,0.138c-1.128-0.179-2.028-0.77-2.668-1.719
			c-0.198-0.294-0.343-0.626-0.499-0.947c-0.086-0.18-0.165-0.25-0.376-0.143c-0.749,0.381-1.496,0.771-2.27,1.098
			c-0.861,0.363-1.776,0.49-2.691,0.236c-0.892-0.249-1.577-0.822-2.146-1.538C537.894-11.492,537.743-11.686,537.508-11.987z"/>
	</defs>
	<clipPath id="SVGID_50_">
		<use xlink:href="#SVGID_61_"  overflow="visible"/>
	</clipPath>
	<g clip-path="url(#SVGID_50_)">
		<defs>
			<rect id="SVGID_63_" x="-419.505" y="-1867" width="1024" height="1914"/>
		</defs>
		<clipPath id="SVGID_52_">
			<use xlink:href="#SVGID_63_"  overflow="visible"/>
		</clipPath>
	</g>
</g>
<g>
	<defs>
		<path id="SVGID_65_" d="M43.847,22.51c0,0-3.317,4.424-10.118,4.032c0,0-3.262,0-5.86-1.792c0,0-2.101-1.232-3.373-2.408
			c0,0-5.695-5.265-13.49-5.601c0,0,6.303-6.721,14.154-11.033c0,0,4.589-2.521,8.791-2.465c0,0,5.971-0.111,9.786,3.977
			c0,0,2.985,2.969,2.82,7.785C46.501,14.949,46.999,19.43,43.847,22.51z M49.984,15.341c0.276-8.737-5.695-12.153-5.695-12.153
			c-7.021-4.816-15.591-2.744-15.591-2.744c-7.519,1.904-15.425,9.241-15.425,9.241C6.916,14.612,0.17,23.126,0.17,23.126
			c-0.608,1.008,0.608,0.672,0.608,0.672s3.87-3.305,9.344-3.305c0,0,3.151-0.28,6.413,1.064c0,0,4.312,2.24,5.805,3.584
			c0,0,5.142,4.312,9.62,4.705c0,0,6.634,1.063,11.721-2.408l1.493-1.177C50.537,21.894,49.984,15.341,49.984,15.341z"/>
	</defs>
	<clipPath id="SVGID_54_">
		<use xlink:href="#SVGID_65_"  overflow="visible"/>
	</clipPath>
	<g clip-path="url(#SVGID_54_)">
		<defs>
			<rect id="SVGID_67_" x="-95" y="-1787" width="1024" height="1914"/>
		</defs>
		<clipPath id="SVGID_56_">
			<use xlink:href="#SVGID_67_"  overflow="visible"/>
		</clipPath>
		<rect x="-5" y="-5" clip-path="url(#SVGID_56_)" fill="#D2D9E3" width="60" height="40"/>
	</g>
</g>
<g>
	<defs>
		<path id="SVGID_69_" d="M44.25,21.999c0,0-3.359,4.363-10.244,3.977c0,0-3.302,0-5.933-1.768c0,0-2.127-1.215-3.415-2.374
			c0,0-5.766-5.191-13.658-5.523c0,0,6.381-6.627,14.33-10.88c0,0,4.646-2.485,8.9-2.43c0,0,6.045-0.11,9.908,3.921
			c0,0,3.023,2.928,2.855,7.677C46.938,14.544,47.441,18.962,44.25,21.999z"/>
	</defs>
	<clipPath id="SVGID_58_">
		<use xlink:href="#SVGID_69_"  overflow="visible"/>
	</clipPath>
	<g clip-path="url(#SVGID_58_)">
		<defs>
			<rect id="SVGID_71_" x="-95" y="-1787" width="1024" height="1914"/>
		</defs>
		<clipPath id="SVGID_60_">
			<use xlink:href="#SVGID_71_"  overflow="visible"/>
		</clipPath>
		<rect x="6" y="-2" clip-path="url(#SVGID_60_)" fill="#2C3A55" width="46" height="33"/>
	</g>
</g>
<g>
	<defs>
		<path id="SVGID_73_" d="M57.612,17.479c0.055,1.672,0.823,2.508,2.361,2.508c1.373,0,2.086-0.725,2.086-2.006
			c0-1.338-0.878-1.895-2.745-1.895c-0.165,0-0.275,0-0.385,0v-2.954c0.11,0,0.22,0,0.33,0c1.812,0,2.69-0.557,2.69-1.728
			c0-1.003-0.659-1.561-1.867-1.561c-1.373,0-2.086,0.613-2.141,1.896h-4.502C53.494,8.285,56.184,6,60.247,6
			c3.953,0,6.369,2.062,6.369,4.96c0,1.505-0.604,2.619-1.867,3.344C66.286,14.916,67,16.143,67,18.093
			C67,21.715,64.419,24,59.808,24C55.635,24,53,21.604,53,17.814c0-0.111,0-0.223,0-0.335H57.612z"/>
	</defs>
	<clipPath id="SVGID_62_">
		<use xlink:href="#SVGID_73_"  overflow="visible"/>
	</clipPath>
	<g clip-path="url(#SVGID_62_)">
		<defs>
			<rect id="SVGID_75_" x="-95" y="-1787" width="1024" height="1914"/>
		</defs>
		<clipPath id="SVGID_64_">
			<use xlink:href="#SVGID_75_"  overflow="visible"/>
		</clipPath>
		<rect x="48" y="1" clip-path="url(#SVGID_64_)" fill="#2C3A55" width="24" height="28"/>
	</g>
</g>
<g>
	<defs>
		<path id="SVGID_77_" d="M77.099,15.643v-4.961l-4.22,4.961H77.099z M76.985,19.488H69v-4.124L77.099,6h4.848v9.587H84v3.846
			h-2.053V23h-4.962V19.488z"/>
	</defs>
	<clipPath id="SVGID_66_">
		<use xlink:href="#SVGID_77_"  overflow="visible"/>
	</clipPath>
	<g clip-path="url(#SVGID_66_)">
		<defs>
			<rect id="SVGID_79_" x="-95" y="-1787" width="1024" height="1914"/>
		</defs>
		<clipPath id="SVGID_68_">
			<use xlink:href="#SVGID_79_"  overflow="visible"/>
		</clipPath>
		<rect x="64" y="1" clip-path="url(#SVGID_68_)" fill="#2C3A55" width="25" height="27"/>
	</g>
</g>
<g>
	<defs>
		<path id="SVGID_81_" d="M90.543,18.218c0.286,1.255,1.085,1.746,2.628,1.746c1.372,0,2.171-0.491,2.171-1.255
			c0-1.091-1.028-1.146-3.143-1.69c-2.515-0.601-4.114-1.146-4.857-1.637c-1.372-0.928-2.057-2.236-2.057-3.928
			C85.286,8.127,88.029,6,92.829,6c4.628,0,7.314,1.909,7.657,5.346h-5.429c-0.171-1.036-0.914-1.473-2.343-1.473
			c-1.2,0-1.829,0.382-1.829,1.146c0,0.927,0.914,1.091,2.686,1.473c2.229,0.545,4,0.872,5.143,1.636
			c1.543,0.982,2.286,2.236,2.286,3.982C101,21.818,98.2,24,93,24c-4.8,0-7.657-2.182-8-5.782H90.543z"/>
	</defs>
	<clipPath id="SVGID_70_">
		<use xlink:href="#SVGID_81_"  overflow="visible"/>
	</clipPath>
	<g clip-path="url(#SVGID_70_)">
		<defs>
			<rect id="SVGID_83_" x="-95" y="-1787" width="1024" height="1914"/>
		</defs>
		<clipPath id="SVGID_72_">
			<use xlink:href="#SVGID_83_"  overflow="visible"/>
		</clipPath>
		<rect x="80" y="1" clip-path="url(#SVGID_72_)" fill="#2C3A55" width="26" height="28"/>
	</g>
</g>
<g>
	<defs>
		<path id="SVGID_85_" d="M109.603,13.658c2.042,0,3.007-0.218,3.007-1.738c0-1.575-0.964-1.738-3.007-1.738h-1.816v3.477H109.603z
			 M102.057,6h7.319c2.723,0,4.766,0.217,6.185,1.141C117.206,8.227,118,9.748,118,11.92c0,3.802-2.383,5.866-6.865,5.866h-3.404V23
			H102V6H102.057z"/>
	</defs>
	<clipPath id="SVGID_74_">
		<use xlink:href="#SVGID_85_"  overflow="visible"/>
	</clipPath>
	<g clip-path="url(#SVGID_74_)">
		<defs>
			<rect id="SVGID_87_" x="-95" y="-1787" width="1024" height="1914"/>
		</defs>
		<clipPath id="SVGID_76_">
			<use xlink:href="#SVGID_87_"  overflow="visible"/>
		</clipPath>
		<rect x="97" y="1" clip-path="url(#SVGID_76_)" fill="#2C3A55" width="26" height="27"/>
	</g>
</g>
<g>
	<defs>
		<rect id="SVGID_89_" x="118" y="21" width="2" height="2"/>
	</defs>
	<clipPath id="SVGID_78_">
		<use xlink:href="#SVGID_89_"  overflow="visible"/>
	</clipPath>
	<g clip-path="url(#SVGID_78_)">
		<defs>
			<rect id="SVGID_91_" x="-95" y="-1787" width="1024" height="1914"/>
		</defs>
		<clipPath id="SVGID_80_">
			<use xlink:href="#SVGID_91_"  overflow="visible"/>
		</clipPath>
		<rect x="113" y="16" clip-path="url(#SVGID_80_)" fill="#2C3A55" width="12" height="12"/>
	</g>
</g>
<g>
	<defs>
		<path id="SVGID_93_" d="M134,19.393c-0.285,2.853-2.337,4.607-5.357,4.607c-3.42,0-5.643-2.413-5.643-6.418
			c0-4.169,2.223-6.582,5.756-6.582c2.907,0,4.958,1.7,5.073,4.278h-1.425c-0.228-1.81-1.71-2.962-3.648-2.962
			c-2.508,0-4.217,1.865-4.217,5.211s1.709,5.266,4.217,5.266c1.995,0,3.42-1.206,3.762-3.346H134V19.393z"/>
	</defs>
	<clipPath id="SVGID_82_">
		<use xlink:href="#SVGID_93_"  overflow="visible"/>
	</clipPath>
	<g clip-path="url(#SVGID_82_)">
		<defs>
			<rect id="SVGID_95_" x="-95" y="-1787" width="1024" height="1914"/>
		</defs>
		<clipPath id="SVGID_84_">
			<use xlink:href="#SVGID_95_"  overflow="visible"/>
		</clipPath>
		<rect x="118" y="6" clip-path="url(#SVGID_84_)" fill="#2C3A55" width="21" height="23"/>
	</g>
</g>
<g>
	<defs>
		<path id="SVGID_97_" d="M141,22.738c2.769,0,4.442-1.865,4.442-5.211c0-3.4-1.673-5.266-4.442-5.266s-4.442,1.865-4.442,5.266
			C136.615,20.873,138.289,22.738,141,22.738z M141,11c3.808,0,6,2.358,6,6.527S144.808,24,141,24s-6-2.358-6-6.473
			C135.058,13.358,137.25,11,141,11z"/>
	</defs>
	<clipPath id="SVGID_86_">
		<use xlink:href="#SVGID_97_"  overflow="visible"/>
	</clipPath>
	<g clip-path="url(#SVGID_86_)">
		<defs>
			<rect id="SVGID_99_" x="-95" y="-1787" width="1024" height="1914"/>
		</defs>
		<clipPath id="SVGID_88_">
			<use xlink:href="#SVGID_99_"  overflow="visible"/>
		</clipPath>
		<rect x="130" y="6" clip-path="url(#SVGID_88_)" fill="#2C3A55" width="22" height="23"/>
	</g>
</g>
<g>
	<defs>
		<path id="SVGID_101_" d="M149,10.335h1.333v2.064c0.833-1.562,2.278-2.399,4-2.399c1.889,0,3.167,0.893,3.555,2.455
			c0.833-1.618,2.278-2.455,4.056-2.455c2.722,0,4.056,1.339,4.056,4.129v8.815h-1.444v-8.648c0-2.064-0.722-2.957-2.667-2.957
			c-2.277,0-3.667,1.507-3.667,3.738V23h-1.444v-8.592c0-2.064-0.833-3.125-2.611-3.125c-2.222,0-3.722,1.562-3.722,3.85v7.812H149
			V10.335z"/>
	</defs>
	<clipPath id="SVGID_90_">
		<use xlink:href="#SVGID_101_"  overflow="visible"/>
	</clipPath>
	<g clip-path="url(#SVGID_90_)">
		<defs>
			<rect id="SVGID_103_" x="-95" y="-1787" width="1024" height="1914"/>
		</defs>
		<clipPath id="SVGID_92_">
			<use xlink:href="#SVGID_103_"  overflow="visible"/>
		</clipPath>
		<rect x="144" y="5" clip-path="url(#SVGID_92_)" fill="#2C3A55" width="27" height="23"/>
	</g>
</g>
</svg>
