<?xml version="1.0" encoding="UTF-8" standalone="no"?>
<svg width="19px" height="13px" viewBox="0 0 19 13" version="1.1" xmlns="http://www.w3.org/2000/svg" xmlns:xlink="http://www.w3.org/1999/xlink">
    <!-- Generator: Sketch 47.1 (45422) - http://www.bohemiancoding.com/sketch -->
    <title>Page 1</title>
    <desc>Created with Sketch.</desc>
    <defs>
        <polygon id="path-1" points="5.67773437 11.0434138 5.67773437 0.00593793103 0.00640532552 0.00593793103 0.00640532552 11.0434138 5.67773437 11.0434138"></polygon>
        <polygon id="path-3" points="0 0.00595862069 0 11.0841931 5.69584845 11.0841931 5.69584845 0.00595862069"></polygon>
    </defs>
    <g id="Page-1" stroke="none" stroke-width="1" fill="none" fill-rule="evenodd">
        <g>
            <polygon id="Fill-1" fill="#FFFFFF" points="1 0 9.5 8 18 0"></polygon>
            <g id="Group-10" transform="translate(0.000000, 1.000000)">
                <path d="M0.889322461,12 L6.54182246,6.52204138 L9.4208123,9.19336552 L12.2471044,6.5757931 L17.948559,11.9517931 C17.9332502,11.9643724 17.922063,11.981131 17.9165114,12 L0.889322461,12 Z" id="Fill-2" fill="#FFFFFF"></path>
                <g id="Group-6" transform="translate(13.163932, 0.000000)">
                    <mask id="mask-2" fill="white">
                        <use xlink:href="#path-1"></use>
                    </mask>
                    <g id="Clip-5"></g>
                    <polygon id="Fill-4" fill="#FFFFFF" mask="url(#mask-2)" points="0.00640532552 5.57844828 5.67774699 0.00593793103 5.67774699 11.0434138"></polygon>
                </g>
                <g id="Group-9">
                    <mask id="mask-4" fill="white">
                        <use xlink:href="#path-3"></use>
                    </mask>
                    <g id="Clip-8"></g>
                    <polygon id="Fill-7" fill="#FFFFFF" mask="url(#mask-4)" points="5.69584845 5.60255172 -1.26171875e-05 11.0841931 -1.26171875e-05 0.00595862069"></polygon>
                </g>
            </g>
        </g>
    </g>
</svg>