<?xml version="1.0" encoding="utf-8"?>
<!-- Generator: Adobe Illustrator 16.0.0, SVG Export Plug-In . SVG Version: 6.00 Build 0)  -->
<!DOCTYPE svg PUBLIC "-//W3C//DTD SVG 1.1//EN" "http://www.w3.org/Graphics/SVG/1.1/DTD/svg11.dtd">
<svg version="1.1" id="Layer_1" xmlns="http://www.w3.org/2000/svg" xmlns:xlink="http://www.w3.org/1999/xlink" x="0px" y="0px"
	 width="10px" height="19.256px" viewBox="0 0 10 19.256" enable-background="new 0 0 10 19.256" xml:space="preserve">
<g>
	<g>
		<defs>
			<polygon id="SVGID_1_" points="-292.901,254.826 -285.33,262.373 -277.76,254.826 			"/>
		</defs>
		<clipPath id="SVGID_2_">
			<use xlink:href="#SVGID_1_"  overflow="visible"/>
		</clipPath>
	</g>
</g>
<g>
	<g>
		<defs>
			<path id="SVGID_3_" d="M-293.041,266.435l5.108-5.033l2.603,2.455l2.554-2.404l5.153,4.938c-0.014,0.012-0.024,0.026-0.029,0.045
				H-293.041z"/>
		</defs>
		<clipPath id="SVGID_4_">
			<use xlink:href="#SVGID_3_"  overflow="visible"/>
		</clipPath>
	</g>
</g>
<g>
	<g>
		<defs>
			<polygon id="SVGID_5_" points="-281.941,260.535 -276.816,255.416 -276.816,265.556 			"/>
		</defs>
		<clipPath id="SVGID_6_">
			<use xlink:href="#SVGID_5_"  overflow="visible"/>
		</clipPath>
	</g>
</g>
<g>
	<g>
		<defs>
			<rect id="SVGID_7_" x="-293.845" y="255.416" width="5.148" height="10.176"/>
		</defs>
		<clipPath id="SVGID_8_">
			<use xlink:href="#SVGID_7_"  overflow="visible"/>
		</clipPath>
	</g>
</g>
<g>
	<g>
		<defs>
			<path id="SVGID_9_" d="M6.49,19.256v-8.782h2.949L9.881,7.05H6.49V4.864c0-0.991,0.275-1.667,1.697-1.667L10,3.196V0.135
				C9.688,0.093,8.609,0,7.359,0C4.745,0,2.956,1.596,2.956,4.525V7.05H0v3.424h2.956v8.782H6.49z"/>
		</defs>
		<use xlink:href="#SVGID_9_"  overflow="visible" fill="#FFFFFF"/>
		<clipPath id="SVGID_10_">
			<use xlink:href="#SVGID_9_"  overflow="visible"/>
		</clipPath>
		<g clip-path="url(#SVGID_10_)">
			<g>
				<defs>
					<rect id="SVGID_11_" x="-738" y="-1844" width="1024" height="1914"/>
				</defs>
				<use xlink:href="#SVGID_11_"  overflow="visible" fill="#FFFFFF"/>
				<clipPath id="SVGID_12_">
					<use xlink:href="#SVGID_11_"  overflow="visible"/>
				</clipPath>
				<rect x="-5" y="-5" clip-path="url(#SVGID_12_)" fill="#FFFFFF" width="20" height="29.256"/>
			</g>
		</g>
		<g clip-path="url(#SVGID_10_)">
			<g>
				<defs>
					<path id="SVGID_13_" d="M216.459,47.567c0-0.158-0.003-0.317-0.01-0.478c0.721-0.521,1.348-1.171,1.842-1.912
						c-0.662,0.294-1.374,0.492-2.121,0.582c0.764-0.457,1.348-1.181,1.624-2.043c-0.714,0.423-1.503,0.73-2.345,0.896
						c-0.674-0.717-1.635-1.166-2.695-1.166c-2.04,0-3.693,1.654-3.693,3.691c0,0.29,0.031,0.572,0.097,0.844
						c-3.07-0.154-5.791-1.625-7.612-3.858c-0.316,0.545-0.5,1.18-0.5,1.854c0,1.281,0.65,2.412,1.645,3.074
						c-0.605-0.019-1.176-0.186-1.674-0.462c0,0.017,0,0.031,0,0.048c0,1.788,1.272,3.281,2.963,3.62
						c-0.312,0.084-0.638,0.13-0.975,0.13c-0.236,0-0.47-0.023-0.693-0.066c0.471,1.468,1.834,2.535,3.449,2.564
						c-1.265,0.99-2.855,1.581-4.587,1.581c-0.298,0-0.592-0.018-0.881-0.052c1.635,1.048,3.575,1.659,5.66,1.659
						C212.744,58.076,216.459,52.448,216.459,47.567z"/>
				</defs>
				<use xlink:href="#SVGID_13_"  overflow="visible" fill="#FFFFFF"/>
				<clipPath id="SVGID_14_">
					<use xlink:href="#SVGID_13_"  overflow="visible"/>
				</clipPath>
			</g>
		</g>
		<g clip-path="url(#SVGID_10_)">
			<g>
				<defs>
					<path id="SVGID_15_" d="M391.932,137.601l-2.549,1.334v-5.334l2.549,1.334l2.551,1.334L391.932,137.601z M396.836,130.269
						H385.59c-1.589,0-2.877,1.312-2.877,2.934v6.133c0,1.62,1.288,2.934,2.877,2.934h11.246c1.589,0,2.877-1.312,2.877-2.934
						v-6.133C399.713,131.581,398.425,130.269,396.836,130.269z"/>
				</defs>
				<use xlink:href="#SVGID_15_"  overflow="visible" fill="#FFFFFF"/>
				<clipPath id="SVGID_16_">
					<use xlink:href="#SVGID_15_"  overflow="visible"/>
				</clipPath>
			</g>
		</g>
	</g>
</g>
</svg>
