<?xml version="1.0" encoding="utf-8"?>
<!-- Generator: Adobe Illustrator 16.0.0, SVG Export Plug-In . SVG Version: 6.00 Build 0)  -->
<!DOCTYPE svg PUBLIC "-//W3C//DTD SVG 1.1//EN" "http://www.w3.org/Graphics/SVG/1.1/DTD/svg11.dtd">
<svg version="1.1" id="Layer_1" xmlns="http://www.w3.org/2000/svg" xmlns:xlink="http://www.w3.org/1999/xlink" x="0px" y="0px"
	 width="10px" height="19.256px" viewBox="0 0 10 19.256" enable-background="new 0 0 10 19.256" xml:space="preserve">
<g>
	<defs>
		<polygon id="SVGID_1_" points="-292.901,254.826 -285.33,262.373 -277.76,254.826 		"/>
	</defs>
	<clipPath id="SVGID_2_">
		<use xlink:href="#SVGID_1_"  overflow="visible"/>
	</clipPath>
	<g clip-path="url(#SVGID_2_)">
		<defs>
			<rect id="SVGID_3_" x="-980.845" y="-1593.173" width="1024" height="1914"/>
		</defs>
		<clipPath id="SVGID_4_">
			<use xlink:href="#SVGID_3_"  overflow="visible"/>
		</clipPath>
	</g>
</g>
<g>
	<defs>
		<path id="SVGID_5_" d="M-293.041,266.434l5.108-5.032l2.603,2.454l2.554-2.404l5.153,4.938c-0.014,0.011-0.024,0.026-0.029,0.044
			H-293.041z"/>
	</defs>
	<clipPath id="SVGID_6_">
		<use xlink:href="#SVGID_5_"  overflow="visible"/>
	</clipPath>
	<g clip-path="url(#SVGID_6_)">
		<defs>
			<rect id="SVGID_7_" x="-980.845" y="-1593.173" width="1024" height="1914"/>
		</defs>
		<clipPath id="SVGID_8_">
			<use xlink:href="#SVGID_7_"  overflow="visible"/>
		</clipPath>
	</g>
</g>
<g>
	<defs>
		<polygon id="SVGID_9_" points="-281.941,260.535 -276.816,255.416 -276.816,265.555 		"/>
	</defs>
	<clipPath id="SVGID_10_">
		<use xlink:href="#SVGID_9_"  overflow="visible"/>
	</clipPath>
	<g clip-path="url(#SVGID_10_)">
		<defs>
			<rect id="SVGID_11_" x="-980.845" y="-1593.173" width="1024" height="1914"/>
		</defs>
		<clipPath id="SVGID_12_">
			<use xlink:href="#SVGID_11_"  overflow="visible"/>
		</clipPath>
	</g>
</g>
<g>
	<defs>
		<rect id="SVGID_13_" x="-293.845" y="255.416" width="5.148" height="10.176"/>
	</defs>
	<clipPath id="SVGID_14_">
		<use xlink:href="#SVGID_13_"  overflow="visible"/>
	</clipPath>
	<g clip-path="url(#SVGID_14_)">
		<defs>
			<rect id="SVGID_15_" x="-980.845" y="-1593.173" width="1024" height="1914"/>
		</defs>
		<clipPath id="SVGID_16_">
			<use xlink:href="#SVGID_15_"  overflow="visible"/>
		</clipPath>
	</g>
</g>
<g>
	<defs>
		<path id="SVGID_45_" d="M6.49,19.256v-8.783h2.949L9.881,7.05H6.49V4.864c0-0.991,0.275-1.667,1.697-1.667L10,3.196V0.135
			C9.687,0.093,8.61,0,7.359,0C4.745,0,2.956,1.596,2.956,4.525V7.05H0v3.423h2.956v8.783H6.49z"/>
	</defs>
	<clipPath id="SVGID_18_">
		<use xlink:href="#SVGID_45_"  overflow="visible"/>
	</clipPath>
	<g clip-path="url(#SVGID_18_)">
		<defs>
			<rect id="SVGID_47_" x="-738" y="-1844" width="1024" height="1914"/>
		</defs>
		<clipPath id="SVGID_20_">
			<use xlink:href="#SVGID_47_"  overflow="visible"/>
		</clipPath>
		<rect x="-5" y="-5" clip-path="url(#SVGID_20_)" fill="#F6F6F6" width="20" height="29.256"/>
	</g>
</g>
<g>
	<defs>
		<path id="SVGID_49_" d="M216.459,47.568c0-0.159-0.003-0.318-0.01-0.478c0.721-0.521,1.348-1.171,1.842-1.912
			c-0.662,0.294-1.374,0.492-2.121,0.582c0.763-0.457,1.348-1.181,1.624-2.043c-0.714,0.423-1.503,0.73-2.345,0.896
			c-0.674-0.718-1.634-1.167-2.695-1.167c-2.04,0-3.693,1.654-3.693,3.692c0,0.29,0.031,0.572,0.096,0.843
			c-3.07-0.154-5.791-1.624-7.612-3.858c-0.317,0.545-0.5,1.18-0.5,1.855c0,1.281,0.651,2.412,1.644,3.074
			c-0.605-0.019-1.176-0.186-1.673-0.462c-0.001,0.016-0.001,0.031-0.001,0.047c0,1.789,1.273,3.282,2.963,3.621
			c-0.311,0.084-0.637,0.13-0.974,0.13c-0.237,0-0.47-0.024-0.694-0.067c0.471,1.468,1.834,2.535,3.45,2.565
			c-1.265,0.99-2.856,1.581-4.587,1.581c-0.298,0-0.592-0.018-0.881-0.052c1.635,1.048,3.575,1.659,5.66,1.659
			C212.744,58.076,216.459,52.448,216.459,47.568z"/>
	</defs>
	<clipPath id="SVGID_22_">
		<use xlink:href="#SVGID_49_"  overflow="visible"/>
	</clipPath>
	<g clip-path="url(#SVGID_22_)">
		<defs>
			<rect id="SVGID_51_" x="-578.709" y="-1803.553" width="1024" height="1914"/>
		</defs>
		<clipPath id="SVGID_24_">
			<use xlink:href="#SVGID_51_"  overflow="visible"/>
		</clipPath>
	</g>
</g>
<g>
	<defs>
		<path id="SVGID_57_" d="M391.932,137.601l-2.549,1.334v-5.334l2.549,1.334l2.551,1.333L391.932,137.601z M396.836,130.268H385.59
			c-1.589,0-2.877,1.313-2.877,2.934v6.133c0,1.62,1.288,2.934,2.877,2.934h11.246c1.589,0,2.877-1.313,2.877-2.934v-6.133
			C399.713,131.581,398.425,130.268,396.836,130.268z"/>
	</defs>
	<clipPath id="SVGID_26_">
		<use xlink:href="#SVGID_57_"  overflow="visible"/>
	</clipPath>
	<g clip-path="url(#SVGID_26_)">
		<defs>
			<rect id="SVGID_59_" x="-490.287" y="-1717.732" width="1024" height="1914"/>
		</defs>
		<clipPath id="SVGID_28_">
			<use xlink:href="#SVGID_59_"  overflow="visible"/>
		</clipPath>
	</g>
</g>
</svg>
