<?xml version="1.0" encoding="utf-8"?>
<!-- Generator: Adobe Illustrator 16.0.0, SVG Export Plug-In . SVG Version: 6.00 Build 0)  -->
<!DOCTYPE svg PUBLIC "-//W3C//DTD SVG 1.1//EN" "http://www.w3.org/Graphics/SVG/1.1/DTD/svg11.dtd">
<svg version="1.1" id="Layer_1" xmlns="http://www.w3.org/2000/svg" xmlns:xlink="http://www.w3.org/1999/xlink" x="0px" y="0px"
	 width="17px" height="17px" viewBox="0 0 17 17" enable-background="new 0 0 17 17" xml:space="preserve">
<g>
	<defs>
		<polygon id="SVGID_23_" points="312.08,68.428 319.652,75.975 327.221,68.428 		"/>
	</defs>
	<clipPath id="SVGID_2_">
		<use xlink:href="#SVGID_23_"  overflow="visible"/>
	</clipPath>
	<g clip-path="url(#SVGID_2_)">
		<defs>
			<rect id="SVGID_25_" x="-375.864" y="-1779.572" width="1024" height="1914"/>
		</defs>
		<clipPath id="SVGID_4_">
			<use xlink:href="#SVGID_25_"  overflow="visible"/>
		</clipPath>
	</g>
</g>
<g>
	<defs>
		<path id="SVGID_27_" d="M311.94,80.035l5.108-5.032l2.603,2.454l2.554-2.404l5.153,4.938c-0.015,0.011-0.024,0.026-0.028,0.044
			H311.94z"/>
	</defs>
	<clipPath id="SVGID_6_">
		<use xlink:href="#SVGID_27_"  overflow="visible"/>
	</clipPath>
	<g clip-path="url(#SVGID_6_)">
		<defs>
			<rect id="SVGID_29_" x="-375.864" y="-1779.572" width="1024" height="1914"/>
		</defs>
		<clipPath id="SVGID_8_">
			<use xlink:href="#SVGID_29_"  overflow="visible"/>
		</clipPath>
	</g>
</g>
<g>
	<defs>
		<polygon id="SVGID_31_" points="323.04,74.137 328.165,69.018 328.165,79.156 		"/>
	</defs>
	<clipPath id="SVGID_10_">
		<use xlink:href="#SVGID_31_"  overflow="visible"/>
	</clipPath>
	<g clip-path="url(#SVGID_10_)">
		<defs>
			<rect id="SVGID_33_" x="-375.864" y="-1779.572" width="1024" height="1914"/>
		</defs>
		<clipPath id="SVGID_12_">
			<use xlink:href="#SVGID_33_"  overflow="visible"/>
		</clipPath>
	</g>
</g>
<g>
	<defs>
		<rect id="SVGID_35_" x="311.136" y="69.018" width="5.148" height="10.176"/>
	</defs>
	<clipPath id="SVGID_14_">
		<use xlink:href="#SVGID_35_"  overflow="visible"/>
	</clipPath>
	<g clip-path="url(#SVGID_14_)">
		<defs>
			<rect id="SVGID_37_" x="-375.864" y="-1779.572" width="1024" height="1914"/>
		</defs>
		<clipPath id="SVGID_16_">
			<use xlink:href="#SVGID_37_"  overflow="visible"/>
		</clipPath>
	</g>
</g>
<g>
	<defs>
		<path id="SVGID_45_" d="M-56.558,179.016v-8.783h2.949l0.441-3.423h-3.391v-2.186c0-0.991,0.275-1.667,1.697-1.667l1.812-0.001
			v-3.062c-0.313-0.042-1.39-0.135-2.641-0.135c-2.614,0-4.403,1.596-4.403,4.525v2.524h-2.956v3.423h2.956v8.783H-56.558z"/>
	</defs>
	<clipPath id="SVGID_18_">
		<use xlink:href="#SVGID_45_"  overflow="visible"/>
	</clipPath>
	<g clip-path="url(#SVGID_18_)">
		<defs>
			<rect id="SVGID_47_" x="-801.048" y="-1684.24" width="1024" height="1914"/>
		</defs>
		<clipPath id="SVGID_20_">
			<use xlink:href="#SVGID_47_"  overflow="visible"/>
		</clipPath>
	</g>
</g>
<g>
	<defs>
		<path id="SVGID_49_" d="M153.411,207.328c0-0.159-0.003-0.318-0.01-0.478c0.721-0.521,1.348-1.171,1.842-1.912
			c-0.662,0.294-1.374,0.492-2.121,0.582c0.763-0.457,1.348-1.181,1.624-2.043c-0.714,0.423-1.503,0.73-2.345,0.896
			c-0.674-0.718-1.634-1.167-2.695-1.167c-2.04,0-3.693,1.654-3.693,3.692c0,0.29,0.031,0.572,0.096,0.843
			c-3.07-0.154-5.791-1.624-7.612-3.858c-0.317,0.545-0.5,1.18-0.5,1.855c0,1.281,0.651,2.412,1.644,3.074
			c-0.605-0.019-1.176-0.186-1.673-0.462c-0.001,0.016-0.001,0.031-0.001,0.047c0,1.789,1.273,3.282,2.963,3.621
			c-0.311,0.084-0.637,0.13-0.974,0.13c-0.237,0-0.47-0.024-0.694-0.067c0.471,1.468,1.834,2.535,3.45,2.565
			c-1.265,0.99-2.856,1.581-4.587,1.581c-0.298,0-0.592-0.018-0.881-0.052c1.635,1.048,3.575,1.659,5.66,1.659
			C149.696,217.836,153.411,212.208,153.411,207.328z"/>
	</defs>
	<clipPath id="SVGID_22_">
		<use xlink:href="#SVGID_49_"  overflow="visible"/>
	</clipPath>
	<g clip-path="url(#SVGID_22_)">
		<defs>
			<rect id="SVGID_51_" x="-641.757" y="-1643.793" width="1024" height="1914"/>
		</defs>
		<clipPath id="SVGID_24_">
			<use xlink:href="#SVGID_51_"  overflow="visible"/>
		</clipPath>
	</g>
</g>
<g>
	<defs>
		<path id="SVGID_53_" d="M15.179,3.4c0,0.134-0.108,0.242-0.243,0.242H13.6c-0.134,0-0.242-0.108-0.242-0.242V2.064
			c0-0.134,0.108-0.243,0.242-0.243h1.336c0.135,0,0.243,0.109,0.243,0.243V3.4z M15.179,13.18c0,1.181-0.957,2.137-2.138,2.137
			H3.959c-1.181,0-2.138-0.956-2.138-2.137V7.026h2.051C3.725,7.491,3.643,7.986,3.643,8.5c0,2.683,2.176,4.857,4.857,4.857
			s4.857-2.175,4.857-4.857c0-0.514-0.082-1.009-0.229-1.474h2.051V13.18z M5.848,7.026L5.848,7.026
			c0-0.002,0.002-0.004,0.004-0.007C5.885,6.959,5.921,6.9,5.959,6.842c0.022-0.034,0.046-0.067,0.07-0.101
			c0.025-0.036,0.053-0.072,0.08-0.107c0.023-0.031,0.047-0.062,0.072-0.091c0.047-0.056,0.097-0.11,0.147-0.163
			c0.024-0.025,0.052-0.05,0.077-0.074C6.443,6.271,6.48,6.236,6.52,6.203C6.545,6.181,6.57,6.158,6.598,6.137
			c0.06-0.049,0.121-0.095,0.186-0.139c0.022-0.017,0.047-0.031,0.07-0.046c0.051-0.033,0.102-0.063,0.154-0.094
			c0.025-0.015,0.05-0.028,0.075-0.042c0.073-0.039,0.146-0.075,0.222-0.107c0.018-0.008,0.036-0.014,0.054-0.021
			c0.065-0.027,0.131-0.051,0.198-0.073C7.58,5.607,7.604,5.6,7.629,5.593c0.083-0.025,0.168-0.048,0.254-0.065
			c0.009-0.002,0.02-0.003,0.028-0.005C7.99,5.507,8.07,5.495,8.152,5.485C8.176,5.482,8.199,5.48,8.224,5.479
			C8.314,5.47,8.406,5.464,8.5,5.464c0.093,0,0.185,0.006,0.275,0.015C8.8,5.48,8.824,5.482,8.848,5.485
			c0.082,0.01,0.162,0.021,0.24,0.037c0.01,0.002,0.02,0.003,0.029,0.005c0.086,0.018,0.17,0.04,0.254,0.065
			C9.395,5.6,9.419,5.607,9.443,5.615C9.51,5.638,9.576,5.662,9.642,5.688c0.018,0.007,0.035,0.013,0.053,0.021
			C9.77,5.741,9.844,5.777,9.917,5.816c0.024,0.013,0.05,0.027,0.075,0.041c0.053,0.03,0.104,0.062,0.155,0.095
			c0.022,0.016,0.046,0.029,0.069,0.045c0.063,0.044,0.126,0.091,0.186,0.14c0.026,0.021,0.052,0.043,0.077,0.065
			c0.039,0.033,0.077,0.068,0.114,0.104c0.025,0.024,0.052,0.049,0.076,0.073c0.051,0.053,0.102,0.108,0.148,0.164
			c0.024,0.029,0.047,0.059,0.07,0.089c0.029,0.036,0.057,0.073,0.083,0.11c0.023,0.033,0.046,0.065,0.068,0.099
			c0.312,0.478,0.495,1.047,0.495,1.659c0,1.676-1.359,3.035-3.035,3.035c-1.677,0-3.036-1.359-3.036-3.035
			C5.465,7.965,5.604,7.463,5.848,7.026z M14.086,0H2.914C1.305,0,0,1.305,0,2.914v11.172C0,15.695,1.305,17,2.914,17h11.172
			C15.695,17,17,15.695,17,14.086V2.914C17,1.305,15.695,0,14.086,0z"/>
	</defs>
	<clipPath id="SVGID_26_">
		<use xlink:href="#SVGID_53_"  overflow="visible"/>
	</clipPath>
	<g clip-path="url(#SVGID_26_)">
		<defs>
			<rect id="SVGID_55_" x="-827" y="-1846" width="1024" height="1914"/>
		</defs>
		<clipPath id="SVGID_28_">
			<use xlink:href="#SVGID_55_"  overflow="visible"/>
		</clipPath>
		<rect x="-5" y="-5" clip-path="url(#SVGID_28_)" fill="#F6F6F6" width="27" height="27"/>
	</g>
</g>
<g>
	<defs>
		<path id="SVGID_57_" d="M328.883,297.36l-2.549,1.334v-5.334l2.549,1.334l2.551,1.333L328.883,297.36z M333.788,290.027h-11.246
			c-1.589,0-2.877,1.313-2.877,2.934v6.133c0,1.62,1.288,2.934,2.877,2.934h11.246c1.589,0,2.877-1.313,2.877-2.934v-6.133
			C336.665,291.341,335.376,290.027,333.788,290.027z"/>
	</defs>
	<clipPath id="SVGID_30_">
		<use xlink:href="#SVGID_57_"  overflow="visible"/>
	</clipPath>
	<g clip-path="url(#SVGID_30_)">
		<defs>
			<rect id="SVGID_59_" x="-553.335" y="-1557.973" width="1024" height="1914"/>
		</defs>
		<clipPath id="SVGID_32_">
			<use xlink:href="#SVGID_59_"  overflow="visible"/>
		</clipPath>
	</g>
</g>
</svg>
