<?xml version="1.0" encoding="utf-8"?>
<!-- Generator: Adobe Illustrator 21.1.0, SVG Export Plug-In . SVG Version: 6.00 Build 0)  -->
<svg version="1.1" id="Layer_1" xmlns="http://www.w3.org/2000/svg" xmlns:xlink="http://www.w3.org/1999/xlink" x="0px" y="0px"
	 viewBox="0 0 421.6 421.6" style="enable-background:new 0 0 421.6 421.6;" xml:space="preserve">
<style type="text/css">
	.st0{fill-rule:evenodd;clip-rule:evenodd;fill:#FFFFFF;}
	.st1{fill:#FFFFFF;}
</style>
<g>
	<path class="st0" d="M111.1,131c8.2-0.3,16.3-1,24.5-1.4c3.7-0.2,6,1.8,6.4,5.1c0.5,4-1.8,6.6-6.1,7c-5.2,0.5-10.3,0.9-15.8,1.4
		c17.6,52.4,35.1,104.6,52.8,157.1c0.4-0.8,0.6-1.1,0.7-1.5c10.2-30.6,20.4-61.3,30.6-92c0.3-1.1,0.3-2.5-0.1-3.5
		c-7-19.4-14.1-38.8-21.1-58.1c-0.6-1.7-1.5-2.2-3.3-2.3c-4.4-0.2-8.7-0.7-13.1-1.2c-3.3-0.4-5.3-2.9-5.2-6.1
		c0.2-3.4,2.6-5.9,6.1-5.9c1.2,0,2.5,0.1,3.7,0.1c13.5,0.5,27,1.4,40.5,1.5c10.7,0,21.5-1,32.2-1.6c2.7-0.2,5.2,0.2,6.7,2.8
		c2.4,4.1-0.2,8.8-5.2,9.3c-5.2,0.5-10.4,0.9-16,1.4c17.4,51.8,34.8,103.5,52.4,155.9c0.4-1.1,0.6-1.4,0.7-1.7
		c7.3-24.3,14.6-48.6,21.8-72.9c4.2-14.1,4.4-28.3-0.3-42.4c-3.1-9.3-8.1-17.6-13.2-25.9c-4.2-6.8-7.9-13.9-9.3-21.9
		c-2.3-13.8,6.4-27.3,19.7-30c1.7-0.4,3.5-0.4,5.4-0.6C281.4,78.9,236,59.3,186,67.7c-41.6,7-74,28.6-98.2,63.4
		C96,131.1,103.6,131.3,111.1,131z"/>
	<path class="st0" d="M257.3,348.7c-29.4,10-58.9,10.8-89.1,2.2c14.5-42.1,28.9-84.1,43.6-126.8C227.1,266,242.1,307.2,257.3,348.7z
		"/>
	<path class="st0" d="M76.6,152.9c22.9,62.8,45.8,125.7,68.8,188.5c-32.8-16.1-56.6-40.7-70.5-74.4C59.2,229,60.1,190.9,76.6,152.9z
		"/>
	<path class="st0" d="M283,336c2.4-7.1,4.9-14.1,7.3-21.2c13.7-39.5,27.5-78.9,41.1-118.4c5.1-14.9,7.3-30.3,6.6-46
		c-0.1-2.3-0.4-4.5-0.6-6.9c11.3,10.9,20.3,59.9,16.3,86.8c-6.9,46.3-30.7,81.4-69.9,106.3C283.5,336.4,283.2,336.2,283,336z"/>
</g>
<g>
	<path class="st1" d="M107,351.8c-1.4-1-2.4-1.7-3.1-2L91,367.9c0.3,0.2,0.6,0.5,1,0.8c0.4,0.3,1,0.8,1.8,1.3
		c3.2,2.3,6.1,3.1,8.8,2.6c2.7-0.5,5.1-2.2,7.2-5.1c2.1-2.9,2.9-5.7,2.5-8.4C112,356.5,110.2,354.1,107,351.8z"/>
	<path class="st1" d="M156.6,30.1c1.4-0.4,2.5-0.8,3.5-1.2c1-0.4,1.8-1,2.4-1.5c0.6-0.6,1-1.2,1.1-2c0.2-0.7,0.1-1.6-0.2-2.6
		c-0.3-0.9-0.7-1.7-1.2-2.2c-0.5-0.5-1.2-0.9-2-1.1c-0.8-0.2-1.6-0.2-2.6-0.1c-1,0.1-2,0.3-3.1,0.6c-1.2,0.3-2.3,0.7-3.2,1.1
		l2.8,9.9L156.6,30.1z"/>
	<path class="st1" d="M130.3,36.7c0.9-1.1,0.9-2.4,0.2-3.9c-0.7-1.4-1.7-2.1-3.2-2.1c-1.5,0-3.1,0.4-5,1.4c-0.8,0.4-1.5,0.7-2.1,1.1
		c-0.6,0.3-1.1,0.6-1.5,0.9l3.7,7.5l3.7-1.8C128,38.9,129.5,37.8,130.3,36.7z"/>
	<path class="st1" d="M138.5,370.7c-0.8-0.6-1.7-1.1-2.7-1.5c-1.3-0.6-2.4-1.1-3.3-1.4l-4.6,9.8l2.5,1.2c2.5,1.2,4.6,1.7,6.3,1.7
		c1.7-0.1,3-1.1,3.9-3.1c0.4-0.9,0.6-1.8,0.6-2.6c-0.1-0.8-0.3-1.5-0.8-2.2C140,371.8,139.3,371.2,138.5,370.7z"/>
	<path class="st1" d="M167.6,381.8c-0.6-0.6-1.3-1.1-2.1-1.5c-0.9-0.4-1.9-0.8-2.9-1.1c-1.2-0.3-2.3-0.6-3.3-0.8l-2.8,9.9l2.4,0.7
		c1.4,0.4,2.6,0.6,3.7,0.8c1.1,0.1,2,0.1,2.8-0.1c0.8-0.2,1.5-0.6,2-1.1c0.5-0.6,0.9-1.3,1.2-2.3c0.3-0.9,0.3-1.8,0.1-2.5
		C168.6,383,168.2,382.4,167.6,381.8z"/>
	<path class="st1" d="M130.5,53.7c0.7-0.3,1.3-0.6,1.8-0.8c1.1-0.5,2-1.1,2.9-1.7c0.9-0.6,1.5-1.2,2-1.9c0.5-0.7,0.8-1.4,0.9-2.2
		c0.1-0.8,0-1.6-0.5-2.5c-0.8-1.6-1.9-2.5-3.4-2.5c-1.5-0.1-3.3,0.4-5.4,1.4l-4.6,2.2l4.3,8.7C129.2,54.2,129.9,54,130.5,53.7z"/>
	<path class="st1" d="M290.4,370c-0.7-0.5-1.4-0.7-2.2-0.8c-0.8-0.1-1.7,0-2.6,0.3c-0.9,0.3-1.9,0.6-2.9,1.1
		c-1.3,0.6-2.4,1.2-3.2,1.6l4.5,9.9l2.5-1.2c2.5-1.2,4.3-2.4,5.4-3.8c1-1.3,1.1-3,0.2-5C291.6,371.2,291,370.5,290.4,370z"/>
	<path class="st1" d="M361.7,309.4c-0.9-0.6-1.7-0.9-2.5-1c-0.8-0.1-1.6,0.1-2.3,0.4c-0.7,0.3-1.4,0.9-2.1,1.6
		c-0.7,0.7-1.4,1.5-2,2.4c-0.8,1.2-1.5,2.2-2,3.1l8.9,6.2l1.6-2.3c1.6-2.3,2.5-4.3,2.7-5.9C364.3,312.1,363.5,310.6,361.7,309.4z"/>
	<path class="st1" d="M259.8,40.5c0.9,0.9,2.1,1.5,3.5,2c1.4,0.4,2.7,0.6,4,0.4c1.3-0.2,2.5-0.6,3.5-1.3c1.1-0.7,2-1.7,2.9-2.9
		c0.8-1.2,1.5-2.7,2-4.4c0.5-1.7,0.8-3.2,0.8-4.7c0-1.5-0.2-2.8-0.7-4c-0.5-1.2-1.2-2.2-2.1-3.1c-0.9-0.9-2.1-1.5-3.5-2
		c-1.4-0.4-2.7-0.6-4-0.4c-1.3,0.2-2.5,0.6-3.5,1.4c-1.1,0.7-2,1.7-2.9,2.9c-0.8,1.2-1.5,2.7-2,4.3c-0.5,1.7-0.8,3.2-0.8,4.7
		c0,1.5,0.2,2.8,0.7,4C258.1,38.6,258.8,39.6,259.8,40.5z"/>
	<path class="st1" d="M87.4,338.8c0.2-0.7,0.2-1.5,0.1-2.3c-0.2-0.8-0.6-1.6-1.1-2.4c-0.5-0.8-1.2-1.6-2-2.4
		c-0.9-0.9-1.7-1.7-2.5-2.3l-7.4,7.2l1.8,1.8c1,1,1.9,1.9,2.8,2.5c0.9,0.7,1.7,1.1,2.5,1.4c0.8,0.2,1.6,0.3,2.3,0.1
		c0.7-0.2,1.5-0.7,2.2-1.4C86.7,340.2,87.2,339.5,87.4,338.8z"/>
	<path class="st1" d="M66.4,314.6c0.4-1.2,0.5-2.5,0.3-3.8c-0.2-1.3-0.7-2.5-1.5-3.7c-0.8-1.2-1.8-2.2-2.9-2.9
		c-1.1-0.7-2.3-1.1-3.6-1.2c-1.3-0.1-2.6,0-4.1,0.4c-1.4,0.4-2.9,1.1-4.3,2.1c-1.5,1-2.7,2-3.6,3.2c-1,1.1-1.6,2.3-2,3.6
		c-0.4,1.2-0.5,2.5-0.3,3.8s0.7,2.5,1.5,3.8c0.8,1.2,1.7,2.1,2.8,2.8c1.1,0.7,2.3,1.1,3.6,1.2c1.3,0.1,2.6,0,4.1-0.4
		c1.4-0.4,2.9-1.1,4.3-2.1c1.5-1,2.7-2,3.6-3.2C65.4,317,66.1,315.8,66.4,314.6z"/>
	<path class="st1" d="M210.8,0C94.4,0,0,94.4,0,210.8s94.4,210.8,210.8,210.8s210.8-94.4,210.8-210.8S327.2,0,210.8,0z M302.2,28.6
		l-12.4,23.8l12.7,6.6l-2.3,4.4l-17.9-9.3L297.1,26L302.2,28.6z M252,26.8c0.8-2.6,1.9-4.8,3.3-6.5c1.4-1.7,3-3.1,4.8-4
		c1.8-0.9,3.7-1.4,5.7-1.6c2-0.1,4,0.1,6,0.8c2,0.6,3.8,1.5,5.4,2.8c1.6,1.2,2.8,2.7,3.7,4.5c0.9,1.8,1.5,3.8,1.6,6
		c0.2,2.2-0.1,4.6-1,7.2c-0.8,2.6-1.9,4.8-3.3,6.5c-1.4,1.8-3,3.1-4.7,4c-1.7,0.9-3.6,1.4-5.6,1.6c-2,0.1-4-0.1-6-0.8
		c-2-0.6-3.8-1.6-5.4-2.8c-1.6-1.2-2.8-2.7-3.8-4.5c-0.9-1.7-1.5-3.7-1.6-6C250.8,31.9,251.2,29.4,252,26.8z M223.3,7l25.2,3.1
		l-0.6,5l-9.7-1.2L235,40.6l-5.8-0.7l3.3-26.7l-9.7-1.2L223.3,7z M197,9.1c1.9-1.7,4.6-2.6,8.1-2.7c2-0.1,3.8,0.1,5.3,0.5
		c1.6,0.4,2.8,0.8,3.7,1.3l-1.6,4.7c-1.1-0.5-2.2-1-3.5-1.2c-1.3-0.3-2.5-0.4-3.9-0.3c-1.6,0-2.8,0.4-3.6,1.1
		c-0.9,0.7-1.3,1.6-1.2,2.8c0,0.7,0.2,1.3,0.5,1.8c0.3,0.5,0.7,0.9,1.3,1.3c0.5,0.4,1.2,0.7,1.9,1c0.7,0.3,1.5,0.6,2.4,0.9
		c1.5,0.5,2.9,1,4.1,1.6c1.2,0.5,2.2,1.2,3.1,1.9c0.8,0.8,1.5,1.7,1.9,2.7c0.5,1,0.7,2.3,0.8,3.8c0.1,2.9-0.9,5.1-2.9,6.8
		c-2,1.6-4.9,2.5-8.9,2.6c-1.3,0-2.5,0-3.6-0.1c-1.1-0.1-2.1-0.3-2.9-0.5c-0.9-0.2-1.6-0.4-2.2-0.7c-0.6-0.2-1.1-0.5-1.5-0.7
		l1.6-4.8c0.8,0.4,2,0.9,3.4,1.3c1.4,0.4,3.1,0.6,5.1,0.5c2.1-0.1,3.6-0.5,4.5-1.2c0.9-0.7,1.4-1.7,1.3-3c0-0.8-0.2-1.4-0.5-2
		c-0.3-0.5-0.8-1-1.4-1.5c-0.6-0.4-1.4-0.8-2.2-1.2c-0.9-0.4-1.9-0.7-3-1c-1.1-0.4-2.2-0.8-3.2-1.2c-1-0.4-2-1-2.8-1.7
		c-0.8-0.7-1.5-1.5-2-2.5c-0.5-1-0.8-2.1-0.8-3.5C194.2,13.1,195.1,10.8,197,9.1z M183.5,8.9l4.7,31.5l-5.7,0.9l-4.7-31.5L183.5,8.9
		z M148.8,16.4c1.5-0.5,2.9-1,4.1-1.3c4.4-1.3,8-1.4,10.8-0.5c2.8,1,4.7,3.1,5.6,6.4c1.2,4.2-0.1,7.6-3.7,10.2
		c0.8,0.5,1.6,1.2,2.6,1.9c1,0.8,2,1.6,3.1,2.5c1.1,0.9,2.1,1.9,3.1,2.9c1,1,2,2,2.8,3l-6.2,1.8c-0.9-0.9-1.8-1.8-2.7-2.7
		c-1-0.9-1.9-1.8-2.9-2.6c-1-0.8-1.9-1.6-2.8-2.3c-0.9-0.7-1.7-1.3-2.5-1.9c-0.4,0.1-0.8,0.3-1,0.3c-0.3,0.1-0.6,0.2-0.8,0.2
		l-2.7,0.8l3.3,11.6l-5.6,1.6l-8.6-30.2C145.9,17.6,147.2,16.9,148.8,16.4z M113.6,31.6c0.6-0.4,1.3-0.8,2-1.3
		c0.7-0.4,1.4-0.8,2.1-1.2c0.7-0.4,1.4-0.7,2-1c1.7-0.8,3.4-1.5,5-2c1.6-0.5,3.1-0.7,4.5-0.6c1.4,0.1,2.6,0.5,3.7,1.2
		c1.1,0.7,2,1.8,2.7,3.2c0.7,1.4,0.9,2.7,0.7,3.9c-0.2,1.3-0.7,2.5-1.6,3.6c2-0.3,3.7,0,5.1,0.7c1.4,0.7,2.5,2,3.3,3.7
		c1.4,3,1.4,5.7,0,8.2c-1.4,2.5-4.4,4.9-8.8,7c-1.5,0.7-3.1,1.4-4.7,2.1c-1.6,0.7-3,1.1-4.3,1.4l-13.6-27.8
		C112.3,32.5,112.9,32.1,113.6,31.6z M24.4,288.5c5-4.4,10.5-8.9,16.6-13.5c-3.9,0.2-7.6,0.4-11.1,0.5c-3.5,0.1-7,0.1-10.3,0.1
		l-1.9-5.2c4-3.2,8.2-6.4,12.7-9.5c4.5-3.1,9.3-6.1,14.3-9.1l2.2,5.8c-1.8,1.1-3.7,2.2-5.6,3.3c-1.9,1.1-3.8,2.3-5.6,3.4
		c-1.8,1.1-3.6,2.3-5.2,3.4c-1.7,1.1-3.2,2.2-4.6,3.2c1.7,0,3.4,0,5.2-0.1c1.8,0,3.7-0.1,5.6-0.2c1.9-0.1,3.8-0.2,5.6-0.3
		c1.9-0.1,3.6-0.2,5.3-0.4l1.7,4.7c-1.4,1-2.8,2.1-4.3,3.3c-1.5,1.1-3,2.3-4.4,3.5c-1.5,1.2-2.9,2.4-4.3,3.5c-1.4,1.2-2.7,2.3-4,3.3
		c1.7-0.1,3.6-0.4,5.5-0.6c2-0.3,4-0.6,6.1-0.9c2.1-0.3,4.3-0.7,6.5-1.1c2.2-0.4,4.3-0.8,6.4-1.1l2.1,5.6c-5.8,1-11.4,1.8-16.8,2.4
		c-5.4,0.6-10.7,1-15.8,1.2L24.4,288.5z M51.2,329.4c-1.9-0.4-3.7-1.2-5.3-2.4c-1.6-1.2-3-2.6-4.2-4.4c-1.2-1.8-2-3.6-2.4-5.6
		c-0.4-2-0.5-3.9-0.1-5.8c0.4-1.9,1.2-3.8,2.5-5.7c1.3-1.8,3.1-3.5,5.4-5c2.3-1.5,4.5-2.5,6.7-2.9c2.2-0.4,4.3-0.5,6.2,0
		c2,0.4,3.8,1.2,5.4,2.4c1.6,1.2,3,2.6,4.1,4.4c1.1,1.7,1.9,3.6,2.4,5.5c0.4,2,0.4,3.9,0,5.8c-0.4,1.9-1.3,3.8-2.5,5.7
		c-1.3,1.8-3.1,3.5-5.3,5c-2.3,1.5-4.5,2.5-6.7,2.9C55.2,329.8,53.2,329.8,51.2,329.4z M79,350c-0.2,1.2-0.5,2.5-0.8,3.9
		c-0.3,1.4-0.7,2.7-1.1,4.1c-0.4,1.4-0.8,2.7-1.3,3.9l-4.5-4.7c0.4-1.2,0.8-2.4,1.1-3.7c0.3-1.3,0.6-2.5,0.9-3.7
		c0.3-1.2,0.5-2.4,0.7-3.6c0.2-1.1,0.4-2.2,0.5-3.1c-0.3-0.3-0.6-0.5-0.8-0.8c-0.2-0.2-0.4-0.4-0.6-0.6l-2-2l-8.7,8.4l-4-4.2
		L81,322.2c1.2,0.8,2.4,1.7,3.6,2.8c1.2,1.1,2.2,2.1,3.1,3c3.2,3.3,5,6.4,5.5,9.3c0.5,2.9-0.5,5.6-3,8c-3.1,3-6.7,3.5-10.8,1.5
		C79.4,347.7,79.2,348.8,79,350z M109.6,376.3c-1.9,1.2-3.9,1.8-5.9,2c-2.1,0.2-4.2-0.1-6.4-0.8c-2.2-0.8-4.4-1.9-6.6-3.5
		c-1.1-0.7-2.2-1.6-3.5-2.7c-1.3-1-2.4-2.1-3.4-3.2l18-25.2c1.4,0.6,2.8,1.3,4.2,2.2c1.4,0.9,2.6,1.7,3.7,2.4c2.2,1.5,4,3.2,5.4,5
		c1.4,1.8,2.4,3.7,2.9,5.7c0.5,2,0.5,4.1,0,6.2c-0.5,2.2-1.5,4.4-3.2,6.7C113.2,373.4,111.5,375.1,109.6,376.3z M143.2,383.9
		c-1.2,0.9-2.5,1.5-4,1.7c-1.5,0.2-3.2,0.1-5-0.3c-1.8-0.4-3.8-1.1-5.9-2.1l-2.6-1.2l-4.8,10.2l-5.2-2.5l13.4-28.4
		c1.4,0.3,2.8,0.7,4.3,1.3c1.5,0.6,2.9,1.2,4.2,1.8c4.2,2,7,4.2,8.6,6.8c1.5,2.6,1.5,5.5,0,8.7C145.3,381.6,144.4,383,143.2,383.9z
		 M174.4,388c-1.2,4.2-4,6.4-8.5,6.8c0.4,0.8,0.8,1.8,1.2,3c0.4,1.2,0.9,2.4,1.3,3.8c0.4,1.3,0.8,2.7,1.2,4.1c0.3,1.4,0.6,2.7,0.8,4
		l-6.2-1.7c-0.3-1.2-0.6-2.5-0.9-3.7c-0.4-1.3-0.7-2.5-1.1-3.7c-0.4-1.2-0.8-2.3-1.2-3.4c-0.4-1.1-0.8-2.1-1.1-2.9
		c-0.4-0.1-0.8-0.2-1.1-0.2c-0.3-0.1-0.6-0.2-0.8-0.2l-2.7-0.7l-3.2,11.6l-5.6-1.5l8.4-30.3c1.4,0.1,2.9,0.3,4.5,0.6
		c1.6,0.3,3,0.7,4.2,1c4.4,1.2,7.6,3,9.5,5.3C174.9,381.8,175.4,384.6,174.4,388z M203.3,386.4l-14.6-1.5l-0.8,7.8l13,1.3l-0.5,4.8
		l-13-1.3l-1,9.3l15.7,1.6l-0.5,4.9l-21.5-2.2l3.3-31.7l20.4,2.1L203.3,386.4z M46.3,211.3c0-89.9,72.9-162.8,162.8-162.8
		S372,121.3,372,211.3s-72.9,162.8-162.8,162.8S46.3,301.2,46.3,211.3z M229.3,410.8c-2,1.7-4.9,2.6-8.8,2.8c-1.3,0.1-2.5,0-3.6-0.1
		c-1.1-0.1-2.1-0.3-2.9-0.5c-0.9-0.2-1.6-0.4-2.2-0.6c-0.6-0.2-1.1-0.4-1.5-0.6l1.5-4.8c0.8,0.4,2,0.8,3.4,1.2
		c1.4,0.4,3.1,0.5,5.1,0.4c2.1-0.1,3.6-0.5,4.5-1.3c0.9-0.8,1.3-1.8,1.3-3.1c0-0.8-0.2-1.4-0.6-2c-0.4-0.5-0.8-1-1.5-1.4
		c-0.6-0.4-1.4-0.8-2.2-1.1c-0.9-0.3-1.9-0.7-3-1c-1.1-0.3-2.2-0.7-3.3-1.1c-1.1-0.4-2-1-2.8-1.6c-0.8-0.7-1.5-1.5-2-2.4
		c-0.5-1-0.8-2.1-0.9-3.5c-0.1-2.9,0.7-5.2,2.6-6.9c1.9-1.7,4.6-2.7,8-2.9c2-0.1,3.8,0,5.3,0.4c1.6,0.4,2.8,0.8,3.7,1.3l-1.5,4.8
		c-1.1-0.5-2.2-0.9-3.5-1.2c-1.3-0.2-2.5-0.3-3.9-0.3c-1.6,0.1-2.8,0.5-3.6,1.2c-0.8,0.7-1.2,1.6-1.2,2.8c0,0.7,0.2,1.3,0.5,1.8
		c0.3,0.5,0.8,0.9,1.3,1.3c0.6,0.4,1.2,0.7,1.9,1c0.7,0.3,1.5,0.6,2.4,0.8c1.5,0.5,2.9,1,4.1,1.5c1.2,0.5,2.2,1.1,3.1,1.9
		c0.9,0.7,1.5,1.6,2,2.7c0.5,1,0.8,2.3,0.8,3.8C232.2,406.8,231.3,409.1,229.3,410.8z M258.5,405.9c-1.7,2-4.5,3.3-8.3,4.1
		c-1.3,0.3-2.5,0.4-3.6,0.5c-1.1,0-2.1,0-3,0c-0.9-0.1-1.6-0.2-2.3-0.3c-0.7-0.1-1.2-0.3-1.6-0.4l0.7-5c0.9,0.3,2.1,0.5,3.6,0.7
		c1.5,0.2,3.2,0.1,5.1-0.3c2-0.4,3.5-1.1,4.3-1.9c0.8-0.9,1.1-1.9,0.8-3.2c-0.2-0.8-0.4-1.4-0.9-1.8c-0.4-0.5-1-0.9-1.6-1.2
		c-0.7-0.3-1.5-0.6-2.4-0.8c-0.9-0.2-2-0.4-3.1-0.5c-1.2-0.2-2.3-0.4-3.4-0.7c-1.1-0.3-2.1-0.7-3-1.2c-0.9-0.5-1.7-1.2-2.4-2.1
		c-0.7-0.9-1.1-2-1.4-3.3c-0.6-2.8,0-5.2,1.6-7.2c1.6-2,4.1-3.3,7.5-4c2-0.4,3.7-0.5,5.3-0.4c1.6,0.1,2.9,0.4,3.9,0.7l-0.8,5
		c-1.1-0.4-2.3-0.6-3.6-0.6c-1.3-0.1-2.6,0.1-3.9,0.3c-1.5,0.3-2.7,0.9-3.4,1.7c-0.7,0.8-1,1.8-0.7,2.9c0.1,0.7,0.4,1.3,0.8,1.7
		c0.4,0.4,0.9,0.8,1.5,1.1c0.6,0.3,1.3,0.5,2.1,0.7c0.8,0.2,1.6,0.3,2.5,0.5c1.6,0.2,3,0.5,4.3,0.8c1.3,0.3,2.4,0.8,3.3,1.4
		c1,0.6,1.7,1.4,2.4,2.3c0.6,1,1.1,2.2,1.4,3.6C260.8,401.6,260.2,404,258.5,405.9z M297.4,378.6c-0.8,1.3-1.9,2.5-3.4,3.6
		c-1.5,1.1-3.3,2.2-5.4,3.1l-2.6,1.2l4.7,10.2l-5.3,2.4l-13.2-28.5c1.1-0.8,2.4-1.7,3.8-2.4c1.4-0.8,2.8-1.5,4-2
		c4.2-1.9,7.8-2.7,10.7-2.2c2.9,0.5,5.2,2.4,6.7,5.6c0.8,1.7,1.2,3.3,1.1,4.8C298.6,375.9,298.2,377.3,297.4,378.6z M315.2,384.3
		l-17.8-26.4l17-11.4l2.8,4.1l-12.2,8.2l4.4,6.5l10.8-7.3l2.7,4l-10.8,7.3l5.2,7.7l13.1-8.8l2.8,4.1L315.2,384.3z M355.3,351.6
		c-0.8,1.8-2,3.5-3.5,4.9c-1.5,1.5-3.2,2.6-5,3.4c-1.8,0.8-3.8,1.2-5.7,1.2c-2,0-4-0.5-6-1.4c-2-0.9-4-2.4-5.9-4.3
		c-1.9-2-3.3-4-4.1-6c-0.9-2.1-1.3-4.1-1.2-6.1c0-2,0.5-3.9,1.3-5.7c0.8-1.8,2-3.4,3.5-4.9c1.5-1.5,3.2-2.6,5-3.4
		c1.8-0.8,3.7-1.2,5.7-1.1c2,0,4,0.5,6,1.4c2,0.9,4,2.3,5.9,4.3c1.9,2,3.3,4,4.2,6c0.9,2.1,1.3,4.1,1.3,6
		C356.6,347.9,356.2,349.8,355.3,351.6z M369.6,336.1L343.9,318c0.5-1.3,1.2-2.6,2.1-4c0.9-1.4,1.7-2.7,2.5-3.8
		c2.7-3.8,5.4-6.2,8.2-7.3c2.8-1,5.7-0.5,8.6,1.5c1.5,1.1,2.7,2.3,3.4,3.6c0.7,1.3,1.1,2.7,1,4.2s-0.4,3.1-1.1,4.8
		c-0.7,1.7-1.7,3.5-3.1,5.4l-1.7,2.4l9.2,6.5L369.6,336.1z M387.7,308.3l-28.6-14.1l2.6-5.2l24.1,11.9l6.3-12.9l4.5,2.2L387.7,308.3
		z M369.6,271.9l6.1-19.5l4.7,1.5l-4.4,14l7.5,2.4l3.9-12.5l4.6,1.4l-3.9,12.5l8.9,2.8l4.7-15.1l4.7,1.5l-6.5,20.6L369.6,271.9z"/>
	<path class="st1" d="M349.7,341.9c-0.7-1.3-1.6-2.6-2.9-3.9c-1.2-1.3-2.5-2.2-3.8-3c-1.3-0.7-2.6-1.2-3.9-1.3
		c-1.3-0.1-2.5,0-3.7,0.4c-1.2,0.4-2.3,1.1-3.4,2.1c-1.1,1-1.8,2.1-2.3,3.4c-0.4,1.2-0.6,2.5-0.5,3.8c0.1,1.3,0.5,2.6,1.2,3.9
		c0.7,1.3,1.6,2.6,2.8,3.8c1.2,1.3,2.5,2.2,3.8,3s2.6,1.2,3.9,1.3c1.3,0.1,2.5,0,3.7-0.4c1.2-0.4,2.4-1.1,3.4-2.2
		c1-1,1.8-2.1,2.2-3.3c0.4-1.2,0.6-2.5,0.5-3.7C350.8,344.6,350.4,343.3,349.7,341.9z"/>
</g>
</svg>
