<?xml version="1.0" encoding="utf-8"?>
<!-- Generator: Adobe Illustrator 16.0.0, SVG Export Plug-In . SVG Version: 6.00 Build 0)  -->
<!DOCTYPE svg PUBLIC "-//W3C//DTD SVG 1.1//EN" "http://www.w3.org/Graphics/SVG/1.1/DTD/svg11.dtd">
<svg version="1.1" id="Layer_1" xmlns="http://www.w3.org/2000/svg" xmlns:xlink="http://www.w3.org/1999/xlink" x="0px" y="0px"
	 width="18px" height="14.629px" viewBox="0 0 18 14.629" enable-background="new 0 0 18 14.629" xml:space="preserve">
<g>
	<defs>
		<path id="SVGID_45_" d="M-193.801-24.191v-8.783h2.949l0.441-3.423h-3.391v-2.186c0-0.991,0.275-1.667,1.697-1.667l1.812-0.001
			v-3.062c-0.313-0.042-1.39-0.135-2.641-0.135c-2.614,0-4.403,1.596-4.403,4.525v2.524h-2.956v3.423h2.956v8.783H-193.801z"/>
	</defs>
	<clipPath id="SVGID_2_">
		<use xlink:href="#SVGID_45_"  overflow="visible"/>
	</clipPath>
	<g clip-path="url(#SVGID_2_)">
		<defs>
			<rect id="SVGID_47_" x="-938.291" y="-1887.447" width="1024" height="1914"/>
		</defs>
		<clipPath id="SVGID_4_">
			<use xlink:href="#SVGID_47_"  overflow="visible"/>
		</clipPath>
	</g>
</g>
<g>
	<defs>
		<path id="SVGID_49_" d="M16.168,4.121c0-0.159-0.003-0.318-0.01-0.478C16.879,3.123,17.506,2.473,18,1.731
			c-0.662,0.294-1.374,0.492-2.121,0.582c0.763-0.457,1.348-1.181,1.624-2.043C16.789,0.693,16,1.001,15.158,1.167
			C14.484,0.449,13.524,0,12.463,0C10.423,0,8.77,1.654,8.77,3.692c0,0.29,0.031,0.572,0.096,0.843
			c-3.07-0.154-5.791-1.624-7.612-3.858c-0.317,0.545-0.5,1.18-0.5,1.855c0,1.281,0.651,2.412,1.644,3.074
			C1.791,5.588,1.221,5.421,0.724,5.145C0.723,5.16,0.723,5.176,0.723,5.191c0,1.789,1.273,3.282,2.963,3.621
			c-0.311,0.084-0.637,0.13-0.974,0.13c-0.237,0-0.47-0.024-0.694-0.067c0.471,1.468,1.834,2.535,3.45,2.565
			c-1.265,0.99-2.856,1.581-4.587,1.581c-0.298,0-0.592-0.018-0.881-0.052c1.635,1.048,3.575,1.659,5.66,1.659
			C12.453,14.629,16.168,9.001,16.168,4.121z"/>
	</defs>
	<clipPath id="SVGID_6_">
		<use xlink:href="#SVGID_49_"  overflow="visible"/>
	</clipPath>
	<g clip-path="url(#SVGID_6_)">
		<defs>
			<rect id="SVGID_51_" x="-779" y="-1847" width="1024" height="1914"/>
		</defs>
		<clipPath id="SVGID_8_">
			<use xlink:href="#SVGID_51_"  overflow="visible"/>
		</clipPath>
		<rect x="-5" y="-5" clip-path="url(#SVGID_8_)" fill="#F6F6F6" width="28" height="24.629"/>
	</g>
</g>
<g>
	<defs>
		<path id="SVGID_57_" d="M191.641,94.153l-2.549,1.334v-5.334l2.549,1.334l2.551,1.333L191.641,94.153z M196.545,86.82h-11.246
			c-1.589,0-2.877,1.313-2.877,2.934v6.133c0,1.62,1.288,2.934,2.877,2.934h11.246c1.589,0,2.877-1.313,2.877-2.934v-6.133
			C199.422,88.134,198.134,86.82,196.545,86.82z"/>
	</defs>
	<clipPath id="SVGID_10_">
		<use xlink:href="#SVGID_57_"  overflow="visible"/>
	</clipPath>
	<g clip-path="url(#SVGID_10_)">
		<defs>
			<rect id="SVGID_59_" x="-690.578" y="-1761.18" width="1024" height="1914"/>
		</defs>
		<clipPath id="SVGID_12_">
			<use xlink:href="#SVGID_59_"  overflow="visible"/>
		</clipPath>
	</g>
</g>
</svg>
