<?xml version="1.0" encoding="utf-8"?>
<!-- Generator: Adobe Illustrator 16.0.0, SVG Export Plug-In . SVG Version: 6.00 Build 0)  -->
<!DOCTYPE svg PUBLIC "-//W3C//DTD SVG 1.1//EN" "http://www.w3.org/Graphics/SVG/1.1/DTD/svg11.dtd">
<svg version="1.1" id="Layer_1" xmlns="http://www.w3.org/2000/svg" xmlns:xlink="http://www.w3.org/1999/xlink" x="0px" y="0px"
	 width="447.954px" height="445.221px" viewBox="256.052 1.391 447.954 445.221"
	 enable-background="new 256.052 1.391 447.954 445.221" xml:space="preserve">
<title>Search1</title>
<path fill="#0D3047" d="M428.892,56c65.325,0,118.282,52.957,118.282,118.283c0,65.323-52.957,118.28-118.282,118.28
	s-118.282-52.957-118.282-118.28C310.607,108.957,363.564,56,428.892,56L428.892,56 M428.892,1.391
	C333.389,1.439,256.004,78.9,256.052,174.405c0.035,69.427,41.591,132.102,105.525,159.165
	c88.142,36.771,189.404-4.874,226.174-93.018c36.531-87.568-4.32-188.216-91.547-225.554C474.911,5.979,452.016,1.352,428.892,1.391
	L428.892,1.391z"/>
<rect x="583.901" y="249.876" transform="matrix(-0.7071 0.7071 -0.7071 -0.7071 1293.5753 171.8056)" fill="#0D3047" width="54.609" height="207.87"/>
</svg>
