<?xml version="1.0" encoding="utf-8"?>
<!-- Generator: Adobe Illustrator 16.0.0, SVG Export Plug-In . SVG Version: 6.00 Build 0)  -->
<!DOCTYPE svg PUBLIC "-//W3C//DTD SVG 1.1//EN" "http://www.w3.org/Graphics/SVG/1.1/DTD/svg11.dtd">
<svg version="1.1" id="Layer_1" xmlns="http://www.w3.org/2000/svg" xmlns:xlink="http://www.w3.org/1999/xlink" x="0px" y="0px"
	 width="421.613px" height="421.613px" viewBox="0 0 421.613 421.613" enable-background="new 0 0 421.613 421.613"
	 xml:space="preserve">
<g>
	<path fill="#FFFFFF" d="M309.816,363.32c-0.636-0.877-1.271-1.22-1.908-1.236C308.544,362.1,309.179,362.443,309.816,363.32z"/>
	<path fill="#FFFFFF" d="M20.14,234.875c5.646-2.525,11.293-5.051,16.992-7.602v-0.001c-5.699,2.55-11.346,5.075-16.993,7.601
		C20.139,234.874,20.139,234.874,20.14,234.875z"/>
	<path fill="#FFFFFF" d="M308.294,368.324c1.997-1.366,3.045-2.903,1.521-5.004C311.338,365.42,310.292,366.958,308.294,368.324z"/>
	<path fill="#FFFFFF" d="M304.568,377.135c1.815,2.717,3.628,5.43,5.459,8.169c2.1-1.393,4.04-2.682,6.188-4.105
		c-2.147,1.424-4.09,2.713-6.188,4.104C308.196,382.564,306.382,379.851,304.568,377.135z"/>
	<path fill="#FFFFFF" d="M233.13,382.876c4.16-1.852,8.461-1.748,13.091-0.48c-4.63-1.27-8.931-1.371-13.091,0.479
		c-2.873,1.279-4.742,3.41-4.735,6.818v0.001C228.388,386.287,230.257,384.154,233.13,382.876z"/>
	<path fill="#FFFFFF" d="M36.817,244.064c-4.663,1.736-9.13,3.996-13.68,6.033v0.001C27.687,248.061,32.155,245.8,36.817,244.064
		c2.252-0.836,2.936-1.901,2.948-3.6C39.752,242.162,39.068,243.226,36.817,244.064z"/>
	<path fill="#FFFFFF" d="M292.871,354.643c-3.489,2.005-7.058,3.887-10.7,5.64C285.813,358.53,289.381,356.648,292.871,354.643z"/>
	<path fill="#FFFFFF" d="M274.791,363.616c-2.492,1.053-5.015,2.046-7.566,2.979C269.776,365.662,272.298,364.668,274.791,363.616z"
		/>
	<path fill="#FFFFFF" d="M238.523,403.269c-2.705,0.104-5.425-0.168-8.49-0.309c0,0.001,0,0.001,0,0.002
		C233.098,403.103,235.818,403.375,238.523,403.269z"/>
	<path fill="#FFFFFF" d="M31.669,287.589c-1.418-1.567-1.509-4.145,0.285-5.397c2.638-1.846,5.634-3.438,8.713-4.312
		c1.709-0.486,3.329,0.539,4.258,2.333c-0.929-1.795-2.549-2.819-4.259-2.335c-3.079,0.875-6.075,2.468-8.713,4.312
		C30.159,283.445,30.25,286.021,31.669,287.589c0.764,0.847,2.024,1.749,3.174,2.145C33.693,289.338,32.434,288.435,31.669,287.589z
		"/>
	<path fill="#FFFFFF" d="M15.05,241.044c-2.019,0.051-2.996-0.485-3.44-2.664c-0.386-1.888-0.663-3.183-0.689-4.154
		c0.026,0.972,0.303,2.268,0.689,4.156c0.445,2.178,1.421,2.715,3.44,2.664c4.415-0.112,8.834-0.034,13.252-0.034
		c0.026,0.176,0.053,0.354,0.079,0.528c-0.026-0.177-0.053-0.354-0.079-0.529C23.884,241.011,19.465,240.933,15.05,241.044z"/>
	<path fill="#FFFFFF" d="M45.871,322.395c-0.478,0.359-0.968,0.729-1.493,1.124C44.903,323.124,45.393,322.754,45.871,322.395z"/>
	<path fill="#FFFFFF" d="M43.249,257.68L43.249,257.68c-1.047-0.001-1.975,0.03-2.9-0.007c-7.599-0.305-15.196-0.68-22.798-0.894
		c-1.703-0.048-2.344-0.743-2.595-2.263c-0.338-2.048-0.772-4.081-1.218-6.395c0,0,0,0,0,0c0.446,2.312,0.88,4.346,1.218,6.396
		c0.251,1.519,0.893,2.215,2.595,2.263c7.602,0.215,15.199,0.59,22.798,0.895C41.274,257.712,42.202,257.68,43.249,257.68z"/>
	<path fill="#FFFFFF" d="M316.078,358.888c2.674,3.887,2.717,7.812-0.101,10.998c-0.977,1.107-2.131,2.057-3.305,3.051
		c1.174-0.994,2.329-1.943,3.306-3.049c2.816-3.188,2.773-7.113,0.102-11c-1.078-1.565-2.393-2.714-3.85-3.34
		C313.686,356.174,315,357.324,316.078,358.888z"/>
	<path fill="#FFFFFF" d="M176.365,373.277c-5.423-1.113-10.751-2.489-15.969-4.116C165.614,370.788,170.941,372.164,176.365,373.277
		z"/>
	<path fill="#FFFFFF" d="M306.634,102.555c-0.891,0.074-1.764,0.138-2.619,0.226C304.872,102.693,305.744,102.628,306.634,102.555z"
		/>
	<path fill="#FFFFFF" d="M186.827,66.489c7.819-1.309,15.526-1.932,23.06-1.959c-7.535,0.027-15.243,0.651-23.063,1.959
		c-41.596,6.96-74.008,28.559-98.227,63.429c5.138,0,10.033,0.074,14.833,0.071c-4.799,0.003-9.694-0.071-14.831-0.071
		C112.819,95.048,145.231,73.449,186.827,66.489z"/>
	<path fill="#FFFFFF" d="M142.942,133.562c-0.376-3.244-2.735-5.251-6.424-5.073c0,0,0,0-0.001,0
		c3.688-0.177,6.046,1.83,6.422,5.073c0.458,3.952-1.799,6.619-6.056,7.038c-0.845,0.083-1.693,0.162-2.54,0.242
		c0.848-0.08,1.697-0.159,2.543-0.242C141.143,140.182,143.4,137.514,142.942,133.562z"/>
	<path fill="#FFFFFF" d="M106.86,70.586c2.5-2.089,4.066-4.813,3.1-8.16C110.926,65.773,109.359,68.497,106.86,70.586z"/>
	<path fill="#FFFFFF" d="M122.959,36.483c-0.827-2.135-1.663-4.292-2.512-6.483c0,0,0,0,0,0
		C121.296,32.191,122.132,34.348,122.959,36.483z"/>
	<path fill="#FFFFFF" d="M127.067,141.505c-1.972,0.175-3.962,0.352-6.001,0.536c17.602,52.39,35.128,104.554,52.781,157.093
		c0-0.001,0.001-0.002,0.002-0.004c-17.653-52.537-35.179-104.7-52.78-157.089C123.107,141.856,125.096,141.68,127.067,141.505z"/>
	<path fill="#FFFFFF" d="M169.382,128.494c0.911,0.028,1.823,0.087,2.735,0.122c3.6,0.14,7.2,0.307,10.799,0.476
		c-3.599-0.17-7.198-0.336-10.796-0.476C171.208,128.581,170.294,128.521,169.382,128.494z"/>
	<path fill="#FFFFFF" d="M130.518,356.519c-3.542-1.927-7.007-3.979-10.388-6.148C123.511,352.541,126.976,354.592,130.518,356.519z
		"/>
	<path fill="#FFFFFF" d="M212.691,222.98C212.691,222.98,212.691,222.98,212.691,222.98
		c-14.703,42.741-29.137,84.703-43.624,126.818c13.211,3.741,26.288,5.696,39.28,5.874c-12.992-0.178-26.068-2.133-39.279-5.874
		C183.555,307.683,197.989,265.722,212.691,222.98z"/>
	<path fill="#FFFFFF" d="M43.295,209.939L43.295,209.939c-0.016,58.932,30.623,110.772,76.834,140.431
		C73.917,320.711,43.279,268.872,43.295,209.939z"/>
	<path fill="#FFFFFF" d="M94.598,54.674c0.079-0.018,0.204,0.048,0.347,0.163C94.802,54.722,94.677,54.656,94.598,54.674z"/>
	<path fill="#FFFFFF" d="M152.653,366.536c-3.829-1.404-7.591-2.945-11.283-4.616C145.062,363.59,148.825,365.131,152.653,366.536z"
		/>
	<path fill="#FFFFFF" d="M99.416,69.795c-0.765-1.073-1.398-1.96-2.042-2.864C98.018,67.834,98.651,68.722,99.416,69.795z"/>
	<path fill="#FFFFFF" d="M212.623,130.069c0.001,0,0.001,0,0.002,0c-0.208,0-0.416-0.005-0.625-0.006
		C212.208,130.063,212.415,130.068,212.623,130.069z"/>
	<path fill="#FFFFFF" d="M102.548,64.972c-0.232,0.495-0.515,0.975-0.817,1.455C102.034,65.946,102.316,65.467,102.548,64.972
		c0.169-0.36-1.082-1.99-1.561-1.939c-1.702,0.183-3.353,0.84-5.379,1.42l0,0c2.025-0.58,3.677-1.237,5.377-1.419
		C101.466,62.983,102.716,64.612,102.548,64.972z"/>
	<path fill="#FFFFFF" d="M205.419,392.814c0.684,0.436,1.416,0.794,2.157,1.139c-0.742-0.345-1.474-0.704-2.158-1.141
		c-0.775-0.496-1.237-1.482-1.84-2.25c0,0,0,0,0,0C204.181,391.33,204.643,392.318,205.419,392.814z"/>
	<path fill="#FFFFFF" d="M168.032,378.986c-1.493,9.109-2.913,17.777-4.38,26.734c0,0,0.001,0,0.001,0
		C165.12,396.762,166.54,388.097,168.032,378.986C168.033,378.986,168.033,378.986,168.032,378.986z"/>
	<path fill="#FFFFFF" d="M113.269,366.152c-0.441,0.174-0.927,0.234-1.433,0.242C112.343,366.386,112.828,366.326,113.269,366.152z"
		/>
	<path fill="#FFFFFF" d="M113.348,373.728c3.178,0.067,5.889-1.629,7.777-4.91C119.236,372.099,116.526,373.794,113.348,373.728z"/>
	<path fill="#FFFFFF" d="M183.633,381.509c-4.422-0.716-8.967-1.45-13.654-2.209c4.688,0.759,9.231,1.495,13.655,2.211
		C183.633,381.51,183.633,381.51,183.633,381.509z"/>
	<path fill="#FFFFFF" d="M180.564,402.375c0-0.001,0-0.001,0-0.002c-2.986-0.564-5.725-1.082-8.541-1.615c0,0.001,0,0.001,0,0.002
		C174.839,401.291,177.579,401.808,180.564,402.375z"/>
	<path fill="#FFFFFF" d="M73.495,348.349c3.342-3.768,6.469-7.295,9.669-10.902C79.963,341.054,76.836,344.582,73.495,348.349z"/>
	<path fill="#FFFFFF" d="M108.545,351.333c3.582,2.229,7.087,4.113,10.255,6.455C115.632,355.447,112.127,353.56,108.545,351.333z"
		/>
	<path fill="#FFFFFF" d="M140.599,396.132c0.192,0.832,0.684,1.936,1.353,2.252C141.284,398.068,140.792,396.964,140.599,396.132z"
		/>
	<path fill="#FFFFFF" d="M145.052,378.846c-0.017,0.298-0.077,0.628-0.186,0.995C144.975,379.474,145.035,379.144,145.052,378.846z"
		/>
	<path fill="#FFFFFF" d="M146.793,386.876c3.458-1.057,5.387-3.4,5.846-6.955C152.18,383.476,150.25,385.82,146.793,386.876z"/>
	<path fill="#FFFFFF" d="M80.183,350.845c-0.688,0.289-1.321,0.399-1.915,0.371C78.862,351.245,79.495,351.134,80.183,350.845z"/>
	<path fill="#FFFFFF" d="M127.002,393.123c3.059-8.562,6.039-16.906,9.174-25.686C133.04,376.216,130.06,384.558,127.002,393.123z"
		/>
	<path fill="#FFFFFF" d="M148.893,400.947c-2.753-0.984-4.924-1.611-6.941-2.562C143.969,399.335,146.14,399.962,148.893,400.947z"
		/>
	<path fill="#FFFFFF" d="M137.362,386.623c-1.077,2.863-2.154,5.727-3.379,8.986C135.209,392.349,136.286,389.486,137.362,386.623z"
		/>
	<path fill="#FFFFFF" d="M152.639,379.921c0.231-1.793-0.113-3.294-0.876-4.531C152.525,376.627,152.87,378.128,152.639,379.921z"/>
	<path fill="#FFFFFF" d="M207.328,403.332c-0.567-0.696-1.042-1.532-1.686-2.112C206.285,401.801,206.761,402.634,207.328,403.332
		c-0.99,0.545-2.031,1.629-2.958,1.537c-2.703-0.262-5.36-0.996-8.246-1.588c2.886,0.592,5.543,1.326,8.247,1.59
		C205.298,404.96,206.339,403.878,207.328,403.332z"/>
	<path fill="#FFFFFF" d="M61.955,311.39c0.434,0.58,0.845,1.139,1.104,1.688C62.799,312.529,62.388,311.97,61.955,311.39z"/>
	<path fill="#FFFFFF" d="M49.625,327.66c0.897-2.398,1.971-4.73,2.869-7.129c-0.898,2.396-1.972,4.729-2.869,7.127
		c-0.274,0.732-0.559,1.834-0.215,2.359C49.067,329.492,49.351,328.39,49.625,327.66z"/>
	<path fill="#FFFFFF" d="M238.523,403.269c0.915-0.033,1.793-1.021,2.688-1.574C240.315,402.248,239.438,403.234,238.523,403.269z"
		/>
	<path fill="#FFFFFF" d="M52.829,318.052c-0.102,0.829-0.05,1.718-0.335,2.479C52.779,319.769,52.727,318.882,52.829,318.052
		L52.829,318.052z"/>
	<path fill="#FFFFFF" d="M238.169,391.324c1.802,0.824,3.769,1.279,5.625,1.994c-1.856-0.715-3.823-1.172-5.625-1.996
		c-0.887-0.406-1.508-1.393-2.248-2.115C236.662,389.931,237.283,390.916,238.169,391.324z"/>
	<path fill="#FFFFFF" d="M195.859,407.072c0.018-0.478,0.061-1.023,0.111-1.651C195.919,406.048,195.876,406.594,195.859,407.072z"
		/>
	<path fill="#FFFFFF" d="M248.105,397.395c-0.747-1.907-2.199-3.269-4.311-4.077C245.905,394.127,247.358,395.49,248.105,397.395z"
		/>
	<path fill="#FFFFFF" d="M68.191,310.318c-2.011-3.09-4.342-5.97-6.705-9.174c-7.299,5.551-14.371,10.926-21.612,16.432
		c7.241-5.504,14.312-10.881,21.612-16.431C63.849,304.349,66.18,307.23,68.191,310.318z"/>
	<path fill="#FFFFFF" d="M196.096,390.23c0.549-3.695,3.108-6.062,7.389-6.83c3.476-0.623,7.588,0.041,11.269,1.894v-0.001
		c-3.678-1.854-7.793-2.518-11.27-1.893c-4.28,0.768-6.839,3.133-7.389,6.828c-0.394,2.656,0.463,5.02,2.478,6.87
		C196.559,395.248,195.702,392.884,196.096,390.23z"/>
	<path fill="#FFFFFF" d="M86.735,343.228c-0.283,1.492-0.862,2.779-1.662,3.889C85.874,346.007,86.453,344.72,86.735,343.228z"/>
	<path fill="#FFFFFF" d="M246.287,140.588c5.037-0.518,7.598-5.134,5.211-9.27c-1.312-2.278-3.338-2.863-5.648-2.872
		c2.311,0.01,4.333,0.596,5.646,2.872c2.387,4.136-0.176,8.752-5.211,9.27c-5.191,0.534-10.395,0.949-15.961,1.45
		c15.24,45.328,30.44,90.543,45.809,136.26c-15.368-45.717-30.567-90.933-45.805-136.26
		C235.893,141.538,241.097,141.122,246.287,140.588z"/>
	<path fill="#FFFFFF" d="M56.868,314.219C56.868,314.22,56.868,314.22,56.868,314.219c1.191,1.725,2.398,3.063,4.031,2.581
		C59.267,317.283,58.06,315.944,56.868,314.219z"/>
	<path fill="#FFFFFF" d="M195.855,407.738c0.071,2.264,1.2,2.634,6.456,3.207c0.111,0.012,0.224,0.013,0.335,0.022
		c-0.111-0.01-0.224-0.011-0.334-0.022C197.055,410.372,195.926,410.001,195.855,407.738z"/>
	<path fill="#FFFFFF" d="M68.191,310.318c1.239,1.904,2.208,3.916,2.14,5.992C70.4,314.233,69.43,312.221,68.191,310.318z"/>
	<path fill="#FFFFFF" d="M333.285,333.367c1.564,1.705,2.836,3.092,4.256,4.641C336.121,336.458,334.85,335.072,333.285,333.367z"/>
	<path fill="#FFFFFF" d="M358.833,316.179c-1.254-0.114-3.289,0.812-4.089,1.805c-0.579,0.721-0.969,1.952-1.03,3.091
		c0.062-1.139,0.451-2.37,1.03-3.089C355.543,316.992,357.579,316.065,358.833,316.179z"/>
	<path fill="#FFFFFF" d="M251.751,20.709c2.196,0.421,4.196,0.804,6.351,1.215l0,0C255.948,21.512,253.949,21.13,251.751,20.709
		L251.751,20.709z"/>
	<path fill="#FFFFFF" d="M244.382,18.949c-1.596,6.864-3.146,13.526-4.725,20.312c2.659,0.604,4.838,1.099,7.223,1.641
		c-2.383-0.542-4.562-1.037-7.221-1.641c1.578-6.786,3.127-13.448,4.725-20.312c-2.1-0.578-4.068-1.121-6.273-1.729
		c0.293-1.202,0.572-2.345,0.859-3.522c-0.288,1.178-0.566,2.32-0.86,3.522C240.315,17.828,242.285,18.371,244.382,18.949z"/>
	<path fill="#FFFFFF" d="M317.027,28.908c4.312,2.516,8.506,5.161,12.584,7.935C325.533,34.069,321.338,31.424,317.027,28.908z"/>
	<path fill="#FFFFFF" d="M390.343,100.648c11.019,17.812,19.135,36.677,24.31,56.57C409.479,137.325,401.363,118.46,390.343,100.648
		c-16.006-25.878-36.266-47.162-60.732-63.805C354.078,53.486,374.337,74.77,390.343,100.648z"/>
	<path fill="#FFFFFF" d="M239.544,11.343c6.662,1.586,13.158,3.132,20.018,4.765C252.703,14.475,246.208,12.929,239.544,11.343z"/>
	<path fill="#FFFFFF" d="M364.436,336.265c2.941-0.782,5.72-2.892,7.687-5.587C370.156,333.374,367.376,335.483,364.436,336.265z"/>
	<path fill="#FFFFFF" d="M364.155,336.322c-0.7,0.166-1.405,0.269-2.11,0.273C362.75,336.59,363.455,336.488,364.155,336.322z"/>
	<path fill="#FFFFFF" d="M206.278,19.048c1.312,0.915,2.856,1.491,4.272,2.265c3.337,1.823,4.895,3.917,5.004,6.86
		c-0.108-2.944-1.666-5.039-5.004-6.862c-1.417-0.774-2.96-1.35-4.272-2.265c-0.735-0.513-1.117-1.535-1.658-2.328c0,0,0,0-0.001,0
		C205.16,17.512,205.542,18.534,206.278,19.048z"/>
	<path fill="#FFFFFF" d="M236.619,1.731c22.065,2.601,43.115,8.659,63.135,18.086C279.735,10.39,258.685,4.332,236.619,1.731z"/>
	<path fill="#FFFFFF" d="M346.365,322.683c0.116,6.732,8.262,13.961,15.68,13.912C354.626,336.644,346.482,329.416,346.365,322.683z
		"/>
	<path fill="#FFFFFF" d="M367.381,322.459c-0.116-0.396-0.285-0.73-0.509-0.958c-2.125-2.158-4.781-4-7.556-5.207
		c2.772,1.209,5.431,3.051,7.556,5.209C367.096,321.731,367.265,322.065,367.381,322.459z"/>
	<path fill="#FFFFFF" d="M286.473,34.658c0.359-0.6,1.27-0.87,1.94-1.081C287.743,33.789,286.833,34.058,286.473,34.658
		c-1.62,2.699-3.187,5.506-4.2,8.468c-0.091,0.266-0.147,0.524-0.171,0.774c0.024-0.25,0.08-0.508,0.171-0.773
		C283.287,40.165,284.853,37.357,286.473,34.658z"/>
	<path fill="#FFFFFF" d="M325.128,80.465c1.422-1.665,2.623-3.071,3.916-4.587v0C327.751,77.394,326.55,78.799,325.128,80.465
		c-4.528-3.891-8.896-7.64-13.508-11.604v0C316.233,72.824,320.599,76.574,325.128,80.465z"/>
	<path fill="#FFFFFF" d="M384.294,234.744L384.294,234.744c0.199-3.981,0.395-7.876,0.594-11.852
		C384.689,226.868,384.494,230.763,384.294,234.744z"/>
	<path fill="#FFFFFF" d="M334.957,53.179C334.957,53.179,334.957,53.179,334.957,53.179c-4.557,5.317-8.979,10.483-13.652,15.937
		C325.977,63.662,330.402,58.496,334.957,53.179z"/>
	<path fill="#FFFFFF" d="M377.097,286.291c0.546,0.149,0.978,0.388,1.302,0.706c-0.324-0.318-0.757-0.558-1.303-0.708
		c-2.709-0.746-3.238,1.217-3.979,3.203c0.001,0,0.002,0.001,0.002,0.001C373.858,287.506,374.388,285.542,377.097,286.291z"/>
	<path fill="#FFFFFF" d="M403.726,270.626L403.726,270.626c-1.475-0.345-2.937-0.687-4.4-1.029
		C400.79,269.94,402.251,270.282,403.726,270.626z"/>
	<path fill="#FFFFFF" d="M382.491,332.933c-16.207,22.877-36.729,42.03-61.543,57.41c-20.631,12.787-42.645,21.606-65.963,26.532
		c23.318-4.926,45.332-13.745,65.964-26.532C345.762,374.963,366.284,355.81,382.491,332.933z"/>
	<path fill="#FFFFFF" d="M302.208,39.067c-0.066-5.969-6.166-11.562-13.014-12.251C296.042,27.505,302.142,33.098,302.208,39.067z"
		/>
	<path fill="#FFFFFF" d="M294.523,37.768c0,0.005,0.001,0.01,0.002,0.016C294.524,37.778,294.523,37.773,294.523,37.768z"/>
	<path fill="#FFFFFF" d="M294.425,37.067c0.018,0.075,0.042,0.149,0.055,0.226C294.467,37.217,294.443,37.143,294.425,37.067z"/>
	<path fill="#FFFFFF" d="M359.191,308.49c-4.979,0.079-10.409,5.071-12.21,10.457c1.801-5.386,7.231-10.377,12.21-10.455
		c7.277-0.117,15.735,7.491,15.76,14.177v-0.001C374.928,315.984,366.47,308.375,359.191,308.49z"/>
	<path fill="#FFFFFF" d="M286.552,26.832c-6.299,0.874-12.084,8.195-12.135,15.783C274.469,35.027,280.253,27.706,286.552,26.832z"
		/>
	<path fill="#FFFFFF" d="M385.608,290.521c-0.354,1.254-0.847,2.471-1.323,3.846C384.763,292.992,385.255,291.775,385.608,290.521z"
		/>
	<path fill="#FFFFFF" d="M378.367,291.809c-0.524-0.231-1.032-0.455-1.535-0.678C377.334,291.354,377.842,291.578,378.367,291.809z"
		/>
	<path fill="#FFFFFF" d="M379.273,278.947c-4.246-1.411-7.822,0.164-10.225,4.758C371.451,279.112,375.027,277.536,379.273,278.947z
		"/>
	<path fill="#FFFFFF" d="M137.264,52.78c0,0,0-0.001,0-0.001c-2.28,0.893-4.445,1.742-6.937,2.718
		C132.82,54.521,134.984,53.673,137.264,52.78z"/>
	<path fill="#FFFFFF" d="M401.917,251.917c-0.838,3.393-1.602,6.488-2.457,9.949c0.855-3.461,1.621-6.558,2.459-9.949
		C401.918,251.917,401.918,251.917,401.917,251.917z"/>
	<path fill="#FFFFFF" d="M346.959,159.13c6.59,19.818,10.438,50.607,7.554,69.957c-4.965,33.306-18.662,60.784-40.532,82.85
		c21.87-22.065,35.567-49.544,40.532-82.848C357.398,209.739,353.55,178.949,346.959,159.13z"/>
	<path fill="#FFFFFF" d="M129.645,32.965c1.048-0.466,2.066-0.971,2.994-1.027C131.711,31.994,130.692,32.499,129.645,32.965z"/>
	<path fill="#FFFFFF" d="M376.679,210.049L376.679,210.049c-0.1,61.905-33.799,115.861-83.809,144.594
		C342.881,325.91,376.58,271.954,376.679,210.049z"/>
	<path fill="#FFFFFF" d="M340.824,364.576c-4.301-4.487-8.419-8.782-12.342-12.873C332.405,355.793,336.523,360.089,340.824,364.576
		z"/>
	<path fill="#FFFFFF" d="M203.343,9.907c4.281-0.828,8.499-0.449,12.553,1.879c-4.055-2.328-8.271-2.708-12.553-1.881
		c-3.194,0.616-5.538,2.525-6.217,5.915c-0.09,0.447-0.147,0.886-0.174,1.314c0.027-0.428,0.085-0.866,0.174-1.312
		C197.805,12.433,200.149,10.524,203.343,9.907z"/>
	<path fill="#FFFFFF" d="M164.493,14.42c1.31,7.674,2.592,15.182,3.877,22.709C167.085,29.602,165.804,22.093,164.493,14.42z"/>
	<path fill="#FFFFFF" d="M384.777,329.639c2.257-3.318,4.426-6.714,6.506-10.184C389.203,322.925,387.034,326.321,384.777,329.639z"
		/>
	<path fill="#FFFFFF" d="M142.87,49.014c-2.066-1.519-3.992-3.228-6.057-4.748c-0.716-0.527-1.683-0.715-3.264-1.35
		c0,0,0,0.001,0,0.001c1.581,0.635,2.547,0.823,3.264,1.35C138.878,45.787,140.804,47.496,142.87,49.014
		c0.608,0.447,1.612,0.868,2.243,0.675c2.201-0.672,4.319-1.619,6.95-2.65c0,0,0,0-0.001,0c-2.63,1.03-4.748,1.978-6.949,2.649
		C144.482,49.881,143.478,49.46,142.87,49.014z"/>
	<path fill="#FFFFFF" d="M305.007,320.296c-2.086,1.796-4.233,3.552-6.442,5.268C300.774,323.848,302.921,322.092,305.007,320.296z"
		/>
	<path fill="#FFFFFF" d="M338.8,149.196c-0.104-2.271-0.385-4.534-0.598-6.948l0,0C338.416,144.662,338.695,146.925,338.8,149.196
		c0.092,1.971,0.137,3.935,0.137,5.892C338.937,153.13,338.892,151.166,338.8,149.196z"/>
	<path fill="#FFFFFF" d="M207.887,29.805c0,0-0.001-0.001-0.001-0.002c-1.244,0.431-2.542,1.334-3.719,1.195
		c-2.495-0.294-4.927-1.132-7.698-1.826c0,0,0,0.001,0,0.002c2.771,0.693,5.203,1.531,7.698,1.826
		C205.344,31.139,206.643,30.236,207.887,29.805z"/>
	<path fill="#FFFFFF" d="M145.292,371.075c0.978,0.416,1.945,0.846,2.899,1.3C147.237,371.919,146.271,371.49,145.292,371.075z"/>
	<path fill="#FFFFFF" d="M176.425,39.791c-0.14-0.829-0.279-1.647-0.418-2.472C176.146,38.144,176.285,38.962,176.425,39.791
		L176.425,39.791z"/>
	<path fill="#FFFFFF" d="M339.739,341.568c-1.786,1.686-3.629,3.42-5.573,5.254C336.11,344.988,337.953,343.253,339.739,341.568
		C339.739,341.568,339.739,341.568,339.739,341.568z"/>
	<path fill="#FFFFFF" d="M338.27,351.316c1.329,1.186,2.44,2.176,3.64,3.244C340.712,353.492,339.599,352.5,338.27,351.316z"/>
	<path fill="#FFFFFF" d="M313.981,311.937c-1.901,1.919-3.865,3.797-5.89,5.634C310.116,315.734,312.08,313.856,313.981,311.937z"/>
	<path fill="#FFFFFF" d="M196.522,30.798c0.016,0.525,0.008,1.033-0.082,1.526c-0.064,0.354-0.098,0.684-0.103,0.99
		c0.005-0.306,0.039-0.634,0.103-0.988C196.531,31.832,196.538,31.323,196.522,30.798z"/>
	<path fill="#FFFFFF" d="M379.007,257.226c-0.394,1.699-0.743,3.202-1.106,4.763c0.364-1.561,0.714-3.062,1.108-4.763
		C379.008,257.226,379.008,257.226,379.007,257.226z"/>
	<path fill="#FFFFFF" d="M140.56,38.906C140.56,38.906,140.561,38.906,140.56,38.906c0.421-0.688,0.679-1.079,0.909-1.487
		c0.824-1.467,1.19-2.921,1.131-4.36c0.059,1.438-0.308,2.893-1.131,4.359C141.239,37.827,140.981,38.219,140.56,38.906z"/>
	<path fill="#FFFFFF" d="M395.231,220.119c-0.249,2.637-0.483,5.143-0.733,7.783c-1.371-0.166-2.469-0.3-3.572-0.434
		c1.104,0.135,2.201,0.269,3.572,0.435C394.748,225.262,394.982,222.757,395.231,220.119z"/>
	<path fill="#FFFFFF" d="M109.278,26.233c-35.666,19.797-63.423,47.608-83.185,83.28C45.856,73.841,73.612,46.031,109.278,26.233
		c25.26-14.019,52.326-22.362,81.099-25.127c3.197-0.309,6.383-0.735,9.575-1.106c-3.192,0.371-6.378,0.797-9.576,1.105
		C161.603,3.87,134.537,12.213,109.278,26.233z"/>
	<path fill="#FFFFFF" d="M172.924,19.107c-0.337-1.995-0.675-3.992-1.016-6.003c-2.594,0.46-4.883,0.867-7.415,1.316
		c2.532-0.449,4.821-0.855,7.415-1.315C172.249,15.116,172.586,17.113,172.924,19.107z"/>
	<path fill="#FFFFFF" d="M406.205,220.065c-0.256,2.74-0.512,5.449-0.793,8.438c-1.582-0.176-3.012-0.336-4.455-0.498
		c0,0.001,0,0.001,0,0.002c1.443,0.16,2.873,0.32,4.455,0.498C405.693,225.515,405.949,222.806,406.205,220.065
		c1.961,0.001,3.719,0.001,5.945,0.001v-0.001C409.923,220.065,408.166,220.065,406.205,220.065z"/>
	<path fill="#FFFFFF" d="M414.653,157.218c-5.175-19.894-13.291-38.758-24.31-56.57c-16.006-25.878-36.266-47.162-60.732-63.805
		c-4.078-2.774-8.272-5.419-12.584-7.935c-4.311-2.516-8.739-4.903-13.283-7.16c-1.325-0.659-2.655-1.302-3.99-1.931
		c-20.02-9.428-41.069-15.486-63.135-18.086c-4.986-0.587-9.973-1.154-14.957-1.731c-7.236,0-14.474,0-21.709,0
		c-3.192,0.371-6.378,0.797-9.575,1.106c-28.773,2.765-55.839,11.108-81.098,25.128c-35.667,19.797-63.423,47.607-83.186,83.279
		c-1.63,2.942-3.183,5.909-4.66,8.902C11.093,139.367,4.5,161.571,1.73,184.982c-0.59,4.988-1.154,9.98-1.73,14.97
		c0,7.236,0,14.471,0,21.708c0.577,4.99,1.136,9.983,1.735,14.971c3.644,30.385,13.558,58.611,29.694,84.572
		c23.376,37.607,55.444,65.326,96.004,83.104c18.298,8.021,37.416,13.203,57.278,15.551c5.078,0.6,10.161,1.172,15.241,1.756
		c7.236,0,14.473,0,21.709,0c3.19-0.371,6.377-0.795,9.574-1.105c8.06-0.779,15.977-1.989,23.749-3.632
		c23.318-4.926,45.332-13.745,65.963-26.532c24.813-15.38,45.336-34.533,61.543-57.41c0.772-1.09,1.534-2.188,2.286-3.294
		c2.257-3.318,4.426-6.714,6.506-10.184c4.854-8.099,9.229-16.609,13.123-25.53c7.99-18.311,13.166-37.428,15.477-57.295
		c0.578-4.99,1.152-9.98,1.73-14.971c0-7.236,0-14.472,0-21.708c-0.576-4.991-1.137-9.983-1.732-14.97
		C418.749,175.516,417.004,166.261,414.653,157.218z M311.621,68.86c5.918-6.876,11.713-13.609,17.686-20.549
		c1.918,1.652,3.686,3.173,5.65,4.867c0,0,0,0-0.001,0.001c0.001,0,0.001,0,0.001,0c-4.555,5.317-8.979,10.483-13.652,15.937
		c0.668,0.583,1.32,1.152,1.964,1.715c1.931,1.686,3.786,3.308,5.776,5.046v0v0c-1.293,1.516-2.494,2.922-3.916,4.587
		C320.599,76.574,316.233,72.824,311.621,68.86L311.621,68.86L311.621,68.86z M286.552,26.832c0.42-0.058,0.842-0.088,1.265-0.087
		c0.462,0.001,0.922,0.025,1.378,0.071c6.848,0.689,12.947,6.282,13.014,12.251c0.086,7.857-6.67,16.041-13.295,16.104
		c-7.42,0.07-14.541-6.098-14.496-12.556C274.468,35.027,280.253,27.706,286.552,26.832z M239.544,11.343
		c6.664,1.586,13.158,3.132,20.018,4.765c-0.133,0.527-0.259,1.03-0.381,1.519c-0.368,1.467-0.705,2.808-1.078,4.298h-0.001l0,0
		c-2.154-0.412-4.154-0.794-6.351-1.215c-1.613,6.69-3.205,13.289-4.871,20.192c-2.385-0.542-4.563-1.037-7.223-1.641
		c1.579-6.786,3.129-13.448,4.725-20.312c-2.098-0.578-4.067-1.121-6.272-1.729c0.294-1.203,0.572-2.345,0.86-3.522
		C239.156,12.937,239.343,12.165,239.544,11.343z M196.441,32.324c0.09-0.493,0.097-1.001,0.082-1.526s-0.054-1.066-0.054-1.624l0,0
		c0,0,0-0.001,0-0.002c2.771,0.694,5.203,1.532,7.698,1.826c1.176,0.139,2.475-0.764,3.719-1.195
		c-0.749-0.958-1.335-2.144-2.284-2.822c-1.454-1.04-3.221-1.63-4.742-2.59c-2.757-1.739-4.096-4.261-3.908-7.257
		c0.027-0.429,0.084-0.867,0.174-1.314c0.679-3.39,3.023-5.299,6.217-5.915c4.282-0.827,8.499-0.447,12.553,1.881
		c-0.748,1.804-1.466,3.538-2.225,5.371c-2.154-0.565-4.117-1.276-6.137-1.524c-0.914-0.112-1.94,0.695-2.914,1.085
		c0.541,0.793,0.922,1.814,1.658,2.328c1.312,0.915,2.855,1.491,4.272,2.265c3.338,1.823,4.896,3.918,5.004,6.862
		c0.025,0.679-0.026,1.403-0.151,2.18c-0.541,3.364-3.526,6.258-7.588,6.681c-2.604,0.271-5.293-0.096-7.925-0.365
		c-2.196-0.225-3.586-1.215-3.552-3.355C196.343,33.008,196.376,32.678,196.441,32.324z M171.908,13.104
		c0.34,2.011,0.678,4.009,1.016,6.003c1.028,6.071,2.048,12.101,3.083,18.211c0.14,0.825,0.278,1.644,0.418,2.472l0,0
		c0,0,0,0,0,0.001c-2.465,0.448-4.676,0.851-7.372,1.341c-0.228-1.336-0.456-2.669-0.683-4.003
		c-1.285-7.527-2.567-15.036-3.877-22.709C167.025,13.971,169.314,13.564,171.908,13.104z M120.447,29.999
		c4.542-1.476,8.859-3.132,13.312-4.236c2.924-0.725,5.677,0.268,7.415,3.032c0.881,1.402,1.367,2.825,1.426,4.264
		c0.059,1.438-0.308,2.893-1.131,4.36c-0.23,0.408-0.488,0.8-0.908,1.488c3.688,2.606,7.363,5.204,11.502,8.131c0,0,0,0-0.001,0
		c0,0,0,0,0.001,0c-2.631,1.031-4.749,1.978-6.95,2.65c-0.631,0.193-1.635-0.228-2.243-0.674c-2.066-1.519-3.992-3.228-6.057-4.748
		c-0.717-0.527-1.683-0.715-3.264-1.35c1.409,3.739,2.499,6.633,3.715,9.862h0c0,0,0,0.001,0,0.001
		c-2.28,0.893-4.444,1.741-6.937,2.717c-2.478-6.395-4.886-12.608-7.368-19.014C122.132,34.348,121.296,32.191,120.447,29.999
		C120.447,30,120.447,30,120.447,29.999C120.447,30,120.447,30,120.447,29.999z M92.776,48.301c0.633-0.261,1.282-0.494,1.952-0.692
		c4.229-1.252,8.256,2.43,7.746,6.854c-0.095,0.83-0.358,1.64-0.582,2.626c3.936-0.599,6.495,1.142,7.84,4.659
		c0.087,0.229,0.163,0.455,0.228,0.678c0.967,3.347-0.599,6.071-3.1,8.16c-3.323,2.776-6.966,5.17-10.643,7.856
		C91.016,70.937,86,63.699,80.772,56.156C84.746,53.361,88.347,50.128,92.776,48.301z M14.956,254.518
		c-0.338-2.05-0.772-4.083-1.218-6.396c0,0,0,0,0,0c0-0.001,0-0.001,0-0.002c4.895-2.199,9.769-4.39,14.643-6.58
		c-0.026-0.174-0.053-0.353-0.079-0.528c-4.418,0-8.837-0.078-13.252,0.034c-2.019,0.051-2.995-0.486-3.44-2.664
		c-0.386-1.889-0.663-3.185-0.689-4.156c-0.058-2.139,1.098-2.707,4.981-4.562c6.417-3.063,12.836-6.123,19.644-9.369
		c0.535,2.354,1.024,4.504,1.586,6.978l0,0v0.001c-5.699,2.551-11.346,5.076-16.992,7.602c0.034,0.198,0.069,0.397,0.104,0.597
		c4.898,0,9.796-0.005,14.694,0.002c2.201,0.002,4.144-0.201,4.649,3.065c0.112,0.723,0.183,1.359,0.179,1.926
		c-0.012,1.698-0.696,2.764-2.948,3.601c-4.662,1.735-9.13,3.996-13.68,6.033c0.022,0.193,0.045,0.385,0.067,0.577
		c4.989,0,9.988,0.195,14.963-0.072c2.946-0.159,4.441,0.684,4.571,3.693c0.045,1.033,0.303,2.056,0.511,3.383l0,0v0.001
		c-1.047,0-1.975,0.032-2.9-0.005c-7.599-0.305-15.196-0.68-22.798-0.895C15.849,256.733,15.207,256.037,14.956,254.518z
		 M23.983,283.458c-0.037-6.754,7.748-13.268,15.892-13.297c6.568-0.022,12.574,6.74,12.68,14.278
		c0.093,6.661-7.781,13.218-15.929,13.265C30.01,297.742,24.023,290.996,23.983,283.458z M58.671,322.837
		c-1.508,4.271-3.005,8.51-4.681,13.254c-1.698-2.205-3.266-4.057-4.58-6.074c-0.344-0.525-0.059-1.627,0.215-2.359
		c0.897-2.398,1.971-4.73,2.869-7.127c0.285-0.761,0.233-1.649,0.335-2.479c-0.258-0.1-0.516-0.199-0.773-0.297
		c-1.285,0.961-2.572,1.922-3.855,2.885c-0.758,0.569-1.521,1.145-2.331,1.755c-0.478,0.359-0.968,0.729-1.493,1.124
		c-1.519-2.004-2.923-3.857-4.504-5.943c7.241-5.506,14.313-10.881,21.612-16.432c2.363,3.204,4.694,6.084,6.705,9.174
		c1.239,1.903,2.209,3.915,2.14,5.992c-0.034,1.038-0.328,2.092-0.979,3.157c-0.13,0.213-0.274,0.426-0.433,0.64
		C66.372,323.525,62.925,324.166,58.671,322.837z M90.289,352.818c-5.201,5.768-11.359,7.006-17.233,3.049
		c-3.273-2.207-6.149-5.002-9.397-7.693c6.11-6.91,11.997-13.566,18.133-20.504c3.271,3.096,6.613,5.789,9.375,8.982
		C95.506,341.667,95.007,347.587,90.289,352.818z M121.125,368.818c-1.888,3.281-4.599,4.978-7.777,4.91
		c-1.06-0.022-2.171-0.241-3.321-0.662c-1.408-0.516-2.733-1.262-4.356-2.025c-1.518,2.545-2.915,4.889-4.462,7.482
		c-2.179-1.266-4.186-2.432-6.447-3.742c4.606-7.836,9.096-15.475,13.783-23.447c3.582,2.227,7.087,4.113,10.255,6.455
		C122.845,360.777,123.502,364.689,121.125,368.818z M152.639,379.921c-0.459,3.555-2.388,5.898-5.846,6.955
		c-0.341,0.104-0.647,0.326-1.13,0.576c1.036,4.33,2.059,8.602,3.23,13.494c-2.753-0.984-4.924-1.611-6.941-2.562
		c-0.669-0.316-1.161-1.42-1.353-2.252c-0.533-2.309-0.81-4.676-1.308-6.994c-0.19-0.885-0.708-1.699-1.075-2.547
		c-0.285,0.01-0.569,0.021-0.854,0.031c-1.076,2.863-2.153,5.727-3.379,8.986c-2.267-0.809-4.436-1.58-6.981-2.486
		c3.058-8.564,6.038-16.906,9.174-25.686c3.142,1.273,6.181,2.392,9.117,3.638c0.978,0.415,1.945,0.845,2.899,1.3
		c1.539,0.732,2.78,1.732,3.571,3.016C152.526,376.627,152.871,378.128,152.639,379.921z M177.923,386.753
		c-1.095-0.168-2.188-0.346-3.392-0.537c-0.25,1.346-0.456,2.447-0.701,3.764c2.542,0.486,5.031,0.965,7.843,1.504
		c-0.292,1.889-0.573,3.693-0.891,5.75c-2.743-0.355-5.247-0.682-7.899-1.023c-0.289,1.528-0.548,2.901-0.858,4.547
		c2.815,0.533,5.554,1.051,8.541,1.615c0,0.001,0,0.001,0,0.002c0,0,0.001,0,0.001,0c-0.322,1.975-0.619,3.793-0.968,5.936
		c-5.341-0.867-10.447-1.695-15.945-2.588c0-0.001,0-0.001,0-0.002c0,0-0.001,0-0.001,0c1.467-8.957,2.887-17.625,4.38-26.734
		c0,0,0,0,0.001,0l0,0c0.654,0.105,1.297,0.21,1.945,0.314c4.688,0.759,9.232,1.493,13.654,2.209c0,0.001,0,0.001,0,0.002h0
		c0.156,0.516,0.277,0.699,0.251,0.861C183.077,387.533,183.075,387.533,177.923,386.753z M214.833,403.857
		c-0.465,3.396-3.472,6.285-7.412,6.895c-1.566,0.242-3.198,0.351-4.776,0.216c-0.111-0.01-0.224-0.011-0.335-0.022
		c-5.256-0.573-6.385-0.943-6.456-3.207c-0.007-0.206-0.004-0.428,0.004-0.666c0.018-0.478,0.061-1.023,0.111-1.651
		c0.05-0.627,0.108-1.337,0.154-2.14c2.886,0.592,5.543,1.326,8.246,1.588c0.927,0.092,1.968-0.992,2.957-1.537
		c-0.566-0.697-1.042-1.53-1.685-2.112c-0.113-0.103-0.22-0.213-0.345-0.296c-1.333-0.883-2.905-1.393-4.326-2.152
		c-0.926-0.495-1.726-1.056-2.398-1.673c-2.015-1.851-2.872-4.214-2.478-6.87c0.55-3.695,3.109-6.061,7.389-6.828
		c3.476-0.625,7.591,0.039,11.27,1.893v0.001c0,0,0.001,0.001,0.002,0.001c-0.318,0.906-0.633,1.857-0.988,2.793
		c-0.33,0.869-0.707,1.723-1.076,2.617c-2.171-0.506-4.163-1.166-6.198-1.352c-0.928-0.084-1.941,0.775-2.916,1.209
		c0.604,0.768,1.065,1.754,1.84,2.25c0.684,0.437,1.416,0.796,2.158,1.141c0.81,0.376,1.633,0.734,2.422,1.15
		C213.937,397.177,215.384,399.835,214.833,403.857z M246.902,405.826c-0.491,0.566-1.087,1.082-1.79,1.541
		c-3.88,2.535-8.221,2.768-12.63,2.016c-0.678-0.115-1.521-1.047-1.729-1.764c-0.438-1.496-0.504-3.104-0.721-4.656l0,0
		c0-0.001,0-0.001,0-0.002c3.065,0.141,5.785,0.412,8.49,0.309c0.915-0.035,1.792-1.021,2.688-1.574
		c-0.764-0.801-1.385-1.896-2.318-2.344c-1.869-0.896-3.958-1.322-5.866-2.15c-3.235-1.402-4.624-4.025-4.631-7.506v-0.001v-0.001
		c-0.007-3.408,1.862-5.539,4.735-6.818c4.16-1.85,8.461-1.748,13.091-0.479c-0.493,2.084-0.904,3.82-1.356,5.734
		c-2.131-0.168-4.182-0.51-6.209-0.408c-0.935,0.047-1.824,0.963-2.734,1.484c0.74,0.723,1.361,1.709,2.248,2.115
		c1.802,0.824,3.769,1.281,5.625,1.996c2.111,0.809,3.563,2.17,4.311,4.077c0.249,0.635,0.42,1.331,0.51,2.087
		C248.911,401.97,248.375,404.127,246.902,405.826z M316.214,381.199c-2.147,1.424-4.088,2.713-6.188,4.105
		c-1.831-2.739-3.644-5.452-5.459-8.169c-3.184-4.763-6.378-9.542-9.71-14.526c4.024-2.385,7.763-4.982,11.823-6.891
		c1.948-0.914,3.846-0.9,5.549-0.17c1.457,0.626,2.771,1.774,3.85,3.34c2.672,3.887,2.715,7.812-0.102,11
		c-0.977,1.105-2.132,2.055-3.306,3.049c-0.391,0.331-0.784,0.667-1.173,1.016C313.026,376.3,314.562,378.66,316.214,381.199z
		 M292.871,354.643c-3.489,2.005-7.058,3.887-10.7,5.64c-2.428,1.169-4.889,2.28-7.38,3.333c-2.492,1.053-5.015,2.046-7.566,2.979
		c-17.862,6.532-37.155,10.092-57.283,10.084c-11.5-0.005-22.729-1.176-33.576-3.402c-5.423-1.113-10.751-2.489-15.969-4.116
		c-2.609-0.812-5.19-1.688-7.743-2.625c-3.829-1.404-7.591-2.945-11.283-4.616c-3.691-1.672-7.311-3.474-10.853-5.4
		c-3.542-1.927-7.007-3.979-10.388-6.148c-46.212-29.659-76.851-81.499-76.834-140.431v0v0
		c0.025-91.961,74.782-166.668,166.751-166.642c91.975,0.026,166.782,74.886,166.633,166.751v0v0
		C376.58,271.954,342.881,325.91,292.871,354.643z M340.824,364.576c-4.301-4.486-8.419-8.782-12.342-12.873
		c-2.032-2.12-4.027-4.201-5.936-6.191c3.65-4.127,7.106-8.037,10.738-12.145c1.565,1.705,2.836,3.092,4.256,4.641
		c-1.987,1.861-3.979,3.73-6.176,5.789c0.765,0.828,1.409,1.523,2.095,2.264c0.229,0.247,0.462,0.498,0.706,0.762
		c1.944-1.834,3.787-3.568,5.573-5.254c0,0,0,0,0.001,0l0,0c1.128,1.034,2.178,1.995,3.318,3.037c0.38,0.347,0.77,0.703,1.176,1.074
		c-1.992,1.883-3.829,3.617-5.964,5.637c1.329,1.184,2.442,2.176,3.64,3.244c1.998-1.906,3.973-3.793,5.789-5.527
		c1.559,1.459,2.916,2.729,3.721,3.48C347.921,356.496,344.485,360.408,340.824,364.576z M374.951,322.669
		c0.01,2.802-1.095,5.633-2.828,8.009c-1.967,2.695-4.745,4.805-7.687,5.587c-0.094,0.024-0.188,0.035-0.281,0.057
		c-0.7,0.166-1.405,0.269-2.11,0.273c-7.418,0.049-15.563-7.18-15.68-13.912c-0.021-1.229,0.201-2.493,0.616-3.736
		c1.801-5.386,7.231-10.378,12.21-10.457c7.279-0.115,15.737,7.494,15.76,14.178V322.669L374.951,322.669z M389.267,304.789
		c-8.303-3.643-16.417-7.205-24.881-10.92c1.658-3.646,3-6.988,4.662-10.164c2.402-4.594,5.979-6.169,10.225-4.758
		c0.282,0.095,0.568,0.201,0.857,0.322c4.953,2.068,6.931,6.096,5.478,11.252c-0.353,1.254-0.845,2.471-1.323,3.846
		c2.662,1.213,5.141,2.342,7.905,3.604C391.222,300.227,390.309,302.356,389.267,304.789z M403.728,270.626
		c-0.001,0-0.001,0-0.002,0l0,0c-1.475-0.345-2.937-0.687-4.4-1.029c-7.312-1.71-14.536-3.4-21.998-5.146
		c0.201-0.862,0.389-1.668,0.573-2.462c0.363-1.561,0.713-3.063,1.106-4.763c0.001,0,0.001,0,0.002,0l0,0
		c6.828,1.549,13.57,3.078,20.451,4.641c0.855-3.461,1.619-6.557,2.457-9.949c0.001,0,0.001,0,0.002,0l0,0
		c1.93,0.457,3.715,0.879,5.848,1.383C406.421,259.069,405.123,264.643,403.728,270.626z M412.15,220.066
		c-0.275,5.365-0.539,10.521-0.826,16.148c-8.988-0.487-17.758-0.965-27.029-1.469c0-0.001,0-0.001,0-0.002l0,0
		c0.199-3.98,0.395-7.876,0.594-11.852c0.066-1.324,0.133-2.658,0.201-4.008c2.115,0,3.886,0,5.836,0c0,2.889,0,5.599,0,8.584
		c1.104,0.134,2.201,0.268,3.572,0.434c0.25-2.641,0.484-5.146,0.733-7.783c1.937,0,3.763,0,5.726,0c0,2.668,0,5.108,0,7.887
		c1.443,0.162,2.873,0.322,4.455,0.498c0.281-2.989,0.537-5.698,0.793-8.438C408.166,220.065,409.923,220.065,412.15,220.066
		L412.15,220.066L412.15,220.066z"/>
	<path fill="#FFFFFF" d="M221.662,421.613c3.19-0.371,6.377-0.793,9.574-1.105C228.039,420.818,224.852,421.242,221.662,421.613z"/>
	<path fill="#FFFFFF" d="M210.046,43.298c91.975,0.025,166.782,74.885,166.633,166.75v0
		C376.828,118.183,302.021,43.323,210.046,43.298c-91.969-0.027-166.726,74.68-166.751,166.641v0
		C43.32,117.979,118.077,43.272,210.046,43.298z"/>
	<path fill="#FFFFFF" d="M13.738,248.121c0,0.001,0,0.001,0,0.002c4.895-2.201,9.769-4.391,14.643-6.582
		C23.507,243.731,18.633,245.921,13.738,248.121z"/>
	<path fill="#FFFFFF" d="M38.167,250.604c2.946-0.16,4.441,0.683,4.571,3.694c0.045,1.031,0.303,2.055,0.511,3.381l0,0
		c-0.208-1.327-0.466-2.35-0.511-3.383C42.608,251.287,41.113,250.444,38.167,250.604c-4.975,0.267-9.974,0.071-14.963,0.071
		C28.193,250.675,33.192,250.871,38.167,250.604z"/>
	<path fill="#FFFFFF" d="M20.243,235.472c4.898,0,9.796-0.004,14.694,0.002c2.201,0.002,4.143-0.202,4.649,3.066
		c0.112,0.722,0.183,1.357,0.179,1.924c0.004-0.566-0.067-1.203-0.179-1.926c-0.505-3.267-2.448-3.063-4.649-3.065
		C30.039,235.466,25.141,235.471,20.243,235.472c-0.034-0.2-0.069-0.399-0.104-0.598c0,0,0,0,0,0
		C20.173,235.074,20.208,235.273,20.243,235.472z"/>
	<path fill="#FFFFFF" d="M23.204,250.675c-0.022-0.192-0.045-0.384-0.067-0.577l0,0C23.159,250.291,23.182,250.484,23.204,250.675z"
		/>
	<path fill="#FFFFFF" d="M15.902,229.666c6.417-3.064,12.837-6.125,19.644-9.371c-6.808,3.246-13.227,6.306-19.644,9.369
		c-3.884,1.855-5.04,2.424-4.981,4.562C10.863,232.089,12.019,231.519,15.902,229.666z"/>
	<path fill="#FFFFFF" d="M37.132,227.272c-0.562-2.474-1.051-4.624-1.586-6.978C36.081,222.649,36.57,224.798,37.132,227.272
		L37.132,227.272z"/>
	<path fill="#FFFFFF" d="M52.555,284.44c0.092,6.661-7.782,13.218-15.929,13.265C44.774,297.658,52.648,291.101,52.555,284.44z"/>
	<path fill="#FFFFFF" d="M80.772,56.156c3.974-2.794,7.575-6.028,12.004-7.855C88.347,50.128,84.746,53.361,80.772,56.156z"/>
	<path fill="#FFFFFF" d="M109.732,61.748c-1.345-3.517-3.904-5.258-7.84-4.659C105.828,56.491,108.387,58.231,109.732,61.748z"/>
	<path fill="#FFFFFF" d="M364.436,336.265c-0.094,0.024-0.188,0.035-0.281,0.057C364.248,336.3,364.342,336.29,364.436,336.265z"/>
	<path fill="#FFFFFF" d="M374.951,322.669L374.951,322.669c0.01,2.802-1.095,5.633-2.828,8.009
		C373.856,328.302,374.96,325.471,374.951,322.669z"/>
	<path fill="#FFFFFF" d="M63.659,348.173c6.111-6.91,11.998-13.566,18.133-20.504C75.656,334.607,69.769,341.263,63.659,348.173z"/>
	<path fill="#FFFFFF" d="M91.167,336.652c-2.762-3.193-6.104-5.887-9.375-8.982C85.063,330.765,88.404,333.458,91.167,336.652z"/>
	<path fill="#FFFFFF" d="M73.056,355.867c-3.272-2.207-6.148-5.002-9.397-7.693C66.907,350.865,69.783,353.66,73.056,355.867z"/>
	<path fill="#FFFFFF" d="M130.327,55.497c-2.478-6.395-4.886-12.608-7.368-19.014C125.441,42.889,127.849,49.103,130.327,55.497z"/>
	<path fill="#FFFFFF" d="M137.264,52.779L137.264,52.779c-1.216-3.229-2.305-6.123-3.714-9.862h0
		C134.958,46.656,136.048,49.55,137.264,52.779z"/>
	<path fill="#FFFFFF" d="M152.062,47.039C152.062,47.039,152.062,47.038,152.062,47.039c-4.138-2.928-7.813-5.525-11.501-8.132
		c0,0,0,0,0,0C144.248,41.514,147.922,44.111,152.062,47.039z"/>
	<path fill="#FFFFFF" d="M141.174,28.796c0.881,1.402,1.367,2.824,1.426,4.263C142.541,31.62,142.055,30.197,141.174,28.796
		c-1.738-2.765-4.491-3.758-7.415-3.033c-4.453,1.104-8.77,2.76-13.312,4.236c0,0,0,0,0,0.001c4.542-1.476,8.858-3.132,13.312-4.236
		C136.683,25.039,139.436,26.031,141.174,28.796z"/>
	<path fill="#FFFFFF" d="M136.176,367.437c3.142,1.274,6.182,2.392,9.117,3.638C142.357,369.829,139.317,368.71,136.176,367.437z"/>
	<path fill="#FFFFFF" d="M151.763,375.39c-0.791-1.283-2.032-2.283-3.571-3.016C149.73,373.107,150.972,374.107,151.763,375.39z"/>
	<path fill="#FFFFFF" d="M139.291,389.138c-0.19-0.885-0.707-1.699-1.075-2.547C138.583,387.439,139.101,388.253,139.291,389.138z"
		/>
	<path fill="#FFFFFF" d="M44.378,323.519c-1.519-2.006-2.923-3.857-4.504-5.943C41.455,319.662,42.859,321.515,44.378,323.519z"/>
	<path fill="#FFFFFF" d="M58.671,322.837c-1.508,4.27-3.005,8.51-4.681,13.254C55.666,331.347,57.163,327.109,58.671,322.837z"/>
	<path fill="#FFFFFF" d="M70.331,316.31c-0.034,1.038-0.329,2.092-0.979,3.157C70.002,318.402,70.296,317.348,70.331,316.31z"/>
	<path fill="#FFFFFF" d="M48.201,320.64c-0.758,0.568-1.521,1.145-2.331,1.755C46.68,321.785,47.443,321.209,48.201,320.64z"/>
	<path fill="#FFFFFF" d="M68.919,320.107c-2.547,3.416-5.994,4.057-10.248,2.73C62.925,324.166,66.372,323.525,68.919,320.107z"/>
	<path fill="#FFFFFF" d="M392.19,297.97c-2.765-1.262-5.243-2.391-7.905-3.604C386.947,295.58,389.423,296.708,392.19,297.97z"/>
	<path fill="#FFFFFF" d="M389.267,304.789c-8.303-3.644-16.417-7.205-24.881-10.92C372.85,297.583,380.964,301.146,389.267,304.789z
		"/>
	<path fill="#FFFFFF" d="M364.386,293.869c1.658-3.646,3-6.988,4.662-10.164C367.386,286.88,366.044,290.222,364.386,293.869z"/>
	<path fill="#FFFFFF" d="M392.19,297.97c-0.968,2.257-1.881,4.385-2.923,6.818C390.309,302.356,391.222,300.227,392.19,297.97z"/>
	<path fill="#FFFFFF" d="M113.348,373.728c-1.06-0.022-2.171-0.241-3.321-0.662C111.177,373.487,112.289,373.706,113.348,373.728z"
		/>
	<path fill="#FFFFFF" d="M163.653,405.72c0,0.001,0,0.001,0,0.002c5.498,0.893,10.604,1.721,15.945,2.588
		c0.349-2.143,0.646-3.961,0.968-5.936c0,0-0.001,0-0.001,0c-0.321,1.974-0.619,3.794-0.967,5.934
		C174.256,407.443,169.151,406.615,163.653,405.72z"/>
	<path fill="#FFFFFF" d="M183.633,381.511c0.155,0.514,0.276,0.697,0.25,0.859c-0.808,5.16-0.81,5.162-5.962,4.381
		c-1.094-0.166-2.187-0.344-3.391-0.535c1.204,0.191,2.297,0.369,3.392,0.537c5.152,0.779,5.154,0.779,5.962-4.381
		C183.911,382.21,183.79,382.027,183.633,381.511L183.633,381.511z"/>
	<path fill="#FFFFFF" d="M168.033,378.986L168.033,378.986c0.655,0.106,1.296,0.21,1.945,0.314
		C169.33,379.196,168.688,379.091,168.033,378.986z"/>
	<path fill="#FFFFFF" d="M181.672,391.484c-0.292,1.887-0.573,3.693-0.891,5.748c-2.743-0.355-5.247-0.68-7.899-1.023
		c-0.289,1.531-0.548,2.904-0.859,4.549c0,0,0.001,0,0.001,0c0.311-1.646,0.569-3.019,0.858-4.547
		c2.652,0.342,5.156,0.668,7.899,1.023C181.1,395.177,181.381,393.373,181.672,391.484c-2.811-0.539-5.3-1.018-7.842-1.504
		c0.245-1.316,0.451-2.418,0.701-3.764c-0.251,1.346-0.456,2.447-0.702,3.764C176.371,390.466,178.86,390.945,181.672,391.484z"/>
	<path fill="#FFFFFF" d="M200.97,398.769c-0.925-0.494-1.725-1.054-2.397-1.671c0.672,0.617,1.472,1.178,2.398,1.673
		c1.421,0.76,2.993,1.27,4.326,2.152c0.125,0.083,0.232,0.193,0.345,0.296c-0.113-0.103-0.221-0.214-0.346-0.298
		C203.963,400.041,202.391,399.531,200.97,398.769z"/>
	<path fill="#FFFFFF" d="M212.69,390.703c-2.171-0.504-4.163-1.166-6.198-1.352c-0.928-0.084-1.941,0.777-2.916,1.209
		c0,0.001,0.001,0.001,0.001,0.002c0.974-0.434,1.987-1.293,2.916-1.209c2.035,0.186,4.027,0.846,6.198,1.352
		c0.369-0.895,0.746-1.748,1.076-2.617c0.355-0.936,0.67-1.887,0.988-2.793c-0.001,0-0.002-0.001-0.002-0.001
		c-0.317,0.908-0.633,1.858-0.987,2.792C213.436,388.957,213.059,389.808,212.69,390.703z"/>
	<path fill="#FFFFFF" d="M209.998,395.103c-0.789-0.416-1.612-0.774-2.422-1.15C208.386,394.329,209.208,394.687,209.998,395.103
		c3.938,2.074,5.384,4.732,4.833,8.754c-0.465,3.396-3.471,6.285-7.411,6.895c-1.566,0.241-3.198,0.351-4.775,0.216
		c1.578,0.135,3.209,0.026,4.776-0.216c3.94-0.609,6.947-3.498,7.412-6.895C215.384,399.835,213.937,397.177,209.998,395.103z"/>
	<path fill="#FFFFFF" d="M339.74,341.568L339.74,341.568c1.128,1.034,2.178,1.995,3.318,3.037
		C341.917,343.563,340.868,342.602,339.74,341.568z"/>
	<path fill="#FFFFFF" d="M333.459,346.06c-0.686-0.74-1.33-1.436-2.095-2.264c2.196-2.059,4.188-3.928,6.176-5.789
		c-1.988,1.861-3.98,3.73-6.177,5.789C332.129,344.625,332.774,345.32,333.459,346.06z"/>
	<path fill="#FFFFFF" d="M328.482,351.703c-2.032-2.12-4.027-4.201-5.936-6.191C324.455,347.501,326.45,349.583,328.482,351.703z"/>
	<path fill="#FFFFFF" d="M384.294,234.746c9.271,0.504,18.041,0.981,27.029,1.469c-8.988-0.489-17.758-0.965-27.029-1.471
		C384.294,234.745,384.294,234.745,384.294,234.746z"/>
	<path fill="#FFFFFF" d="M412.15,220.066L412.15,220.066c-0.275,5.365-0.539,10.52-0.826,16.148
		C411.611,230.587,411.875,225.431,412.15,220.066z"/>
	<path fill="#FFFFFF" d="M199.89,36.669c2.632,0.269,5.321,0.636,7.925,0.365c4.062-0.423,7.047-3.317,7.588-6.681
		c0.125-0.777,0.177-1.501,0.151-2.18c0.025,0.679-0.026,1.402-0.151,2.178c-0.541,3.365-3.526,6.258-7.588,6.681
		c-2.603,0.271-5.293-0.095-7.925-0.365c-2.195-0.225-3.585-1.214-3.552-3.353C196.304,35.454,197.694,36.444,199.89,36.669z"/>
	<path fill="#FFFFFF" d="M196.469,29.174L196.469,29.174c0,0.558,0.038,1.099,0.054,1.624
		C196.507,30.273,196.469,29.732,196.469,29.174z"/>
	<path fill="#FFFFFF" d="M205.602,26.979c-1.454-1.04-3.221-1.631-4.742-2.59c-2.756-1.738-4.095-4.259-3.908-7.255
		c-0.188,2.996,1.151,5.518,3.908,7.257c1.521,0.96,3.288,1.55,4.742,2.59c0.948,0.679,1.535,1.864,2.284,2.822c0,0,0.001,0,0.001,0
		C207.138,28.844,206.551,27.658,205.602,26.979z"/>
	<path fill="#FFFFFF" d="M207.534,15.631c-0.914-0.112-1.94,0.695-2.915,1.086c0,0,0,0.001,0.001,0.001
		c0.974-0.391,2-1.197,2.914-1.085c2.02,0.248,3.983,0.959,6.137,1.524c0.759-1.833,1.477-3.567,2.225-5.371
		c-0.749,1.804-1.466,3.538-2.225,5.369C211.517,16.589,209.554,15.879,207.534,15.631z"/>
	<path fill="#FFFFFF" d="M246.221,382.396c-0.493,2.084-0.905,3.82-1.356,5.734C245.317,386.216,245.728,384.48,246.221,382.396z"/>
	<path fill="#FFFFFF" d="M238.892,399.349c-1.869-0.895-3.958-1.322-5.866-2.148c1.908,0.828,3.997,1.254,5.866,2.15
		c0.934,0.447,1.555,1.543,2.318,2.344C240.449,400.892,239.826,399.796,238.892,399.349z"/>
	<path fill="#FFFFFF" d="M238.656,387.72c-0.934,0.047-1.824,0.965-2.734,1.486c0.91-0.521,1.8-1.438,2.734-1.484
		c2.027-0.102,4.078,0.24,6.209,0.408C242.734,387.962,240.683,387.619,238.656,387.72z"/>
	<path fill="#FFFFFF" d="M228.395,389.694L228.395,389.694c0.007,3.481,1.396,6.104,4.631,7.507
		C229.791,395.796,228.402,393.174,228.395,389.694z"/>
	<path fill="#FFFFFF" d="M230.753,407.619c0.207,0.717,1.051,1.648,1.729,1.764C231.805,409.265,230.962,408.335,230.753,407.619z"
		/>
	<path fill="#FFFFFF" d="M248.105,397.395c0.248,0.635,0.419,1.331,0.509,2.087c0.297,2.488-0.239,4.646-1.712,6.344
		c1.473-1.698,2.009-3.855,1.713-6.344C248.525,398.726,248.354,398.03,248.105,397.395z"/>
	<path fill="#FFFFFF" d="M232.482,409.382c4.409,0.752,8.75,0.52,12.63-2.016C241.232,409.902,236.891,410.132,232.482,409.382z"/>
	<path fill="#FFFFFF" d="M230.033,402.962c0.217,1.553,0.282,3.16,0.721,4.656C230.315,406.122,230.25,404.516,230.033,402.962
		L230.033,402.962z"/>
	<path fill="#FFFFFF" d="M238.97,13.697c0.186-0.76,0.373-1.532,0.574-2.354C239.343,12.165,239.156,12.937,238.97,13.697z"/>
	<path fill="#FFFFFF" d="M246.88,40.902c1.666-6.904,3.258-13.502,4.871-20.192c-0.001,0-0.001,0-0.002,0
		C250.137,27.4,248.546,33.997,246.88,40.902z"/>
	<path fill="#FFFFFF" d="M258.103,21.925c0.373-1.49,0.71-2.832,1.078-4.298C258.813,19.093,258.476,20.435,258.103,21.925
		L258.103,21.925z"/>
	<path fill="#FFFFFF" d="M399.326,269.597c-7.312-1.71-14.536-3.4-21.998-5.146C384.79,266.197,392.014,267.887,399.326,269.597z"/>
	<path fill="#FFFFFF" d="M379.009,257.226L379.009,257.226c6.827,1.549,13.569,3.079,20.451,4.641
		C392.58,260.304,385.837,258.775,379.009,257.226z"/>
	<path fill="#FFFFFF" d="M377.328,264.451c0.201-0.861,0.389-1.667,0.573-2.462C377.716,262.783,377.529,263.588,377.328,264.451z"
		/>
	<path fill="#FFFFFF" d="M401.919,251.917c1.931,0.457,3.716,0.879,5.846,1.383c-1.344,5.768-2.643,11.343-4.039,17.326
		c0.001,0,0.001,0,0.002,0c1.395-5.983,2.693-11.558,4.039-17.326C405.634,252.796,403.849,252.375,401.919,251.917L401.919,251.917
		z"/>
	<path fill="#FFFFFF" d="M329.044,75.877c-1.99-1.738-3.846-3.36-5.776-5.046C325.199,72.517,327.054,74.139,329.044,75.877
		L329.044,75.877z"/>
	<path fill="#FFFFFF" d="M334.956,53.179C334.957,53.178,334.957,53.178,334.956,53.179c-1.964-1.695-3.731-3.216-5.649-4.868
		c-5.973,6.94-11.768,13.673-17.686,20.549v0c5.918-6.877,11.713-13.609,17.686-20.548C331.224,49.964,332.99,51.484,334.956,53.179
		z"/>
	<path fill="#FFFFFF" d="M168.37,37.129c0.228,1.334,0.455,2.667,0.683,4.003c2.696-0.49,4.907-0.893,7.372-1.341c0,0,0,0,0-0.001
		c-2.465,0.448-4.677,0.851-7.372,1.341C168.825,39.796,168.598,38.463,168.37,37.129z"/>
	<path fill="#FFFFFF" d="M172.924,19.107c1.027,6.071,2.048,12.101,3.083,18.211C174.972,31.208,173.952,25.179,172.924,19.107z"/>
	<path fill="#FFFFFF" d="M305.192,223.257c4.177-14.132,4.369-28.303-0.319-42.403c-3.086-9.285-8.078-17.594-13.172-25.863
		c-4.201-6.821-7.93-13.852-9.298-21.909c-2.348-13.836,6.425-27.318,19.695-30.029c0.629-0.128,1.27-0.207,1.917-0.273
		c0.855-0.088,1.729-0.152,2.619-0.226c0.282-0.023,0.563-0.044,0.85-0.074c-21.247-20.84-56.909-38.097-97.597-37.951
		c-7.534,0.027-15.241,0.651-23.06,1.959c-41.596,6.96-74.008,28.559-98.227,63.429c5.137,0,10.031,0.074,14.831,0.071
		c2.88-0.002,5.726-0.032,8.569-0.122c8.178-0.259,16.34-0.984,24.515-1.378c0.001,0,0.001,0,0.002,0s0,0,0.001,0
		c3.689-0.178,6.048,1.829,6.424,5.073c0.458,3.952-1.799,6.62-6.056,7.038c-0.847,0.083-1.695,0.162-2.543,0.242
		c-2.401,0.227-4.822,0.445-7.275,0.663c-1.971,0.175-3.96,0.352-5.999,0.536c17.602,52.389,35.127,104.552,52.78,157.089
		c0.374-0.792,0.572-1.119,0.691-1.475c10.208-30.648,20.421-61.296,30.564-91.966c0.349-1.057,0.293-2.459-0.087-3.515
		c-7-19.396-14.102-38.754-21.103-58.149c-0.626-1.735-1.541-2.225-3.302-2.325c-4.366-0.248-8.729-0.674-13.07-1.214
		c-3.323-0.414-5.331-2.934-5.185-6.096c0.159-3.442,2.591-5.851,6.052-5.921c0.324-0.006,0.648,0.014,0.973,0.024
		c0.912,0.027,1.825,0.086,2.738,0.122c3.599,0.14,7.198,0.306,10.796,0.476c9.694,0.456,19.388,0.93,29.083,0.971
		c0.209,0,0.417,0.005,0.625,0.006c10.737,0.023,21.479-0.998,32.215-1.595c0.342-0.019,0.679-0.029,1.01-0.028
		c2.311,0.009,4.336,0.594,5.648,2.872c2.387,4.136-0.174,8.752-5.211,9.27c-5.189,0.534-10.394,0.95-15.959,1.45
		c15.237,45.328,30.437,90.543,45.805,136.26c2.195,6.53,4.394,13.072,6.597,19.625c0.053-0.136,0.101-0.26,0.145-0.373
		c0.311-0.795,0.436-1.076,0.523-1.37C290.671,271.875,298.001,247.587,305.192,223.257z"/>
	<path fill="#FFFFFF" d="M244.839,128.474c-10.736,0.597-21.478,1.618-32.215,1.595c0.001,0,0.001,0,0.002,0
		c10.738,0.023,21.479-0.998,32.217-1.595c0.34-0.019,0.676-0.029,1.006-0.028C245.518,128.445,245.181,128.455,244.839,128.474z"/>
	<path fill="#FFFFFF" d="M162.357,134.391c-0.146,3.162,1.862,5.682,5.185,6.096c4.341,0.54,8.704,0.966,13.07,1.214
		c1.761,0.1,2.676,0.59,3.302,2.325c7.001,19.395,14.103,38.753,21.103,58.149c0.38,1.056,0.436,2.458,0.087,3.515
		c-10.143,30.67-20.356,61.317-30.564,91.966c-0.119,0.355-0.317,0.683-0.691,1.475c0,0.002,0,0.003,0.001,0.004
		c0.376-0.793,0.574-1.122,0.693-1.479c10.208-30.648,20.421-61.296,30.564-91.966c0.35-1.057,0.294-2.459-0.087-3.515
		c-7.001-19.396-14.102-38.754-21.103-58.149c-0.626-1.735-1.541-2.225-3.302-2.325c-4.366-0.248-8.729-0.674-13.07-1.214
		c-3.323-0.413-5.331-2.933-5.185-6.096c0.159-3.442,2.591-5.851,6.052-5.921c0.323-0.007,0.646,0.014,0.97,0.024
		c-0.325-0.01-0.649-0.031-0.973-0.024C164.948,128.54,162.516,130.949,162.357,134.391z"/>
	<path fill="#FFFFFF" d="M112,129.867c-2.844,0.09-5.689,0.12-8.569,0.122c2.881-0.002,5.728-0.032,8.572-0.122
		c8.178-0.259,16.34-0.984,24.514-1.378c0,0-0.001,0-0.002,0C128.34,128.883,120.178,129.608,112,129.867z"/>
	<path fill="#FFFFFF" d="M306.634,102.555c0.283-0.023,0.565-0.044,0.853-0.074c-21.247-20.841-56.911-38.098-97.6-37.951
		c40.688-0.146,76.35,17.111,97.597,37.951C307.198,102.51,306.917,102.531,306.634,102.555z"/>
	<path fill="#FFFFFF" d="M127.067,141.505c2.454-0.218,4.874-0.437,7.275-0.663C131.941,141.068,129.521,141.287,127.067,141.505z"
		/>
	<path fill="#FFFFFF" d="M212,130.063c-9.695-0.041-19.389-0.515-29.083-0.971C192.61,129.549,202.305,130.023,212,130.063z"/>
	<path fill="#FFFFFF" d="M304.876,180.854c-3.088-9.285-8.08-17.593-13.174-25.863c-4.199-6.821-7.929-13.852-9.297-21.909
		c-2.348-13.836,6.424-27.318,19.695-30.029c0.628-0.128,1.268-0.207,1.914-0.273c-0.647,0.066-1.288,0.145-1.917,0.273
		c-13.271,2.711-22.043,16.193-19.695,30.029c1.368,8.057,5.097,15.088,9.298,21.909c5.094,8.269,10.086,16.578,13.172,25.863
		c4.688,14.1,4.496,28.271,0.319,42.403c-7.19,24.33-14.521,48.617-21.795,72.923c-0.088,0.294-0.213,0.575-0.523,1.37
		c0.311-0.795,0.436-1.076,0.526-1.37c7.275-24.306,14.605-48.593,21.795-72.923C309.373,209.125,309.564,194.954,304.876,180.854z"
		/>
	<path fill="#FFFFFF" d="M169.068,349.798c13.211,3.741,26.287,5.696,39.279,5.874c7.424,0.102,14.821-0.378,22.2-1.436
		c9.224-1.322,18.419-3.549,27.605-6.677c-15.17-41.568-30.18-82.705-45.461-124.58
		C197.989,265.722,183.555,307.683,169.068,349.798z"/>
	<path fill="#FFFFFF" d="M212.691,222.98c15.281,41.875,30.291,83.012,45.461,124.58C242.982,305.99,227.973,264.854,212.691,222.98
		C212.692,222.98,212.692,222.98,212.691,222.98z"/>
	<path fill="#FFFFFF" d="M230.546,354.237c-7.379,1.058-14.775,1.537-22.2,1.436C215.771,355.774,223.167,355.294,230.546,354.237z"
		/>
	<path fill="#FFFFFF" d="M70.635,251.611c0.722,2.38,1.508,4.76,2.359,7.139c0.851,2.38,1.766,4.759,2.747,7.138
		c13.865,33.643,37.708,58.265,70.461,74.38c-22.922-62.835-45.844-125.671-68.766-188.507
		C63.042,184.944,60.529,218.293,70.635,251.611z"/>
	<path fill="#FFFFFF" d="M77.436,151.76c-14.396,33.186-16.907,66.535-6.801,99.851C60.529,218.293,63.042,184.944,77.436,151.76z"
		/>
	<path fill="#FFFFFF" d="M72.995,258.75c-0.851-2.379-1.637-4.759-2.359-7.139C71.357,253.991,72.144,256.371,72.995,258.75z"/>
	<path fill="#FFFFFF" d="M346.959,159.13c-2.579-7.755-5.577-13.83-8.757-16.882c0.213,2.414,0.493,4.677,0.598,6.948
		c0.092,1.97,0.137,3.935,0.137,5.892c-0.003,13.706-2.259,27.106-6.746,40.132c-13.607,39.505-27.373,78.956-41.07,118.43
		c-2.451,7.064-4.873,14.139-7.309,21.209c0.259,0.172,0.518,0.346,0.775,0.52c4.9-3.111,9.562-6.383,13.978-9.814
		c2.209-1.716,4.356-3.472,6.442-5.268c1.043-0.898,2.071-1.808,3.084-2.726c2.024-1.837,3.988-3.715,5.89-5.634
		c21.87-22.065,35.567-49.544,40.532-82.85C357.397,209.738,353.549,178.949,346.959,159.13z"/>
	<path fill="#FFFFFF" d="M338.937,155.088c-0.003,13.705-2.259,27.106-6.746,40.131c-13.607,39.505-27.373,78.957-41.07,118.431
		c13.697-39.475,27.463-78.925,41.07-118.43C336.678,182.194,338.934,168.793,338.937,155.088z"/>
	<path fill="#FFFFFF" d="M338.203,142.247C338.203,142.248,338.203,142.248,338.203,142.247c3.18,3.053,6.178,9.128,8.757,16.883
		C344.38,151.375,341.382,145.3,338.203,142.247z"/>
	<path fill="#FFFFFF" d="M44.925,280.213c-0.929-1.794-2.549-2.819-4.258-2.333c-3.079,0.873-6.075,2.466-8.713,4.312
		c-1.794,1.253-1.703,3.83-0.285,5.397c0.765,0.846,2.024,1.749,3.174,2.145c0.53,0.182,1.039,0.267,1.461,0.17
		c2.761-0.63,5.381-2.173,7.837-3.695c0.948-0.588,1.296-2.145,1.588-2.67c-0.015-0.914-0.176-1.771-0.45-2.529
		C45.177,280.728,45.056,280.465,44.925,280.213z"/>
	<path fill="#FFFFFF" d="M44.141,286.208c-2.456,1.522-5.076,3.065-7.837,3.695c-0.422,0.097-0.931,0.012-1.461-0.17
		c0.53,0.183,1.04,0.268,1.462,0.171C39.066,289.275,41.685,287.732,44.141,286.208c0.948-0.588,1.296-2.145,1.588-2.67
		C45.437,284.064,45.089,285.621,44.141,286.208z"/>
	<path fill="#FFFFFF" d="M44.925,280.213c0.131,0.252,0.252,0.515,0.354,0.796C45.177,280.728,45.056,280.465,44.925,280.213z"/>
	<path fill="#FFFFFF" d="M99.416,69.795c0.869-1.281,1.66-2.33,2.314-3.368c0.303-0.48,0.585-0.959,0.817-1.455
		c0.168-0.36-1.082-1.989-1.562-1.938c-1.7,0.183-3.353,0.839-5.377,1.419c0.657,0.923,1.215,1.706,1.765,2.478
		C98.018,67.834,98.651,68.722,99.416,69.795z"/>
	<path fill="#FFFFFF" d="M97.374,66.931c-0.55-0.772-1.108-1.555-1.765-2.478c0,0-0.001,0-0.001,0
		C96.265,65.376,96.823,66.159,97.374,66.931z"/>
	<path fill="#FFFFFF" d="M101.73,66.427c-0.655,1.038-1.445,2.087-2.314,3.368C100.285,68.515,101.076,67.465,101.73,66.427z"/>
	<path fill="#FFFFFF" d="M94.945,54.837c-0.143-0.115-0.269-0.181-0.347-0.163c-1.509,0.343-2.947,0.997-4.616,1.617
		c1.131,1.595,1.88,2.652,3.28,4.627c1.141-1.997,2.021-3.298,2.596-4.723C95.953,55.959,95.373,55.181,94.945,54.837z"/>
	<path fill="#FFFFFF" d="M95.858,56.195c0.095-0.235-0.484-1.014-0.913-1.358C95.373,55.181,95.953,55.959,95.858,56.195z"/>
	<path fill="#FFFFFF" d="M285.046,47.856c2.055,0.998,4.18,0.792,5.386-1.038c1.636-2.481,3.116-5.203,3.954-8.032
		c0.1-0.336,0.144-0.672,0.139-1.002c-0.001-0.005-0.002-0.01-0.002-0.016c-0.003-0.16-0.018-0.318-0.043-0.475
		c-0.013-0.076-0.037-0.15-0.055-0.226c-0.475-2.005-2.735-3.655-5.45-3.691c-0.142,0.067-0.339,0.131-0.562,0.202
		c-0.671,0.211-1.581,0.48-1.94,1.081c-1.62,2.699-3.187,5.507-4.2,8.469c-0.091,0.266-0.146,0.523-0.171,0.773
		C281.932,45.651,283.311,47.014,285.046,47.856z"/>
	<path fill="#FFFFFF" d="M294.425,37.067c-0.475-2.005-2.734-3.655-5.45-3.691C291.69,33.413,293.951,35.062,294.425,37.067z"/>
	<path fill="#FFFFFF" d="M294.48,37.293c0.025,0.157,0.04,0.315,0.043,0.475C294.52,37.608,294.505,37.45,294.48,37.293z"/>
	<path fill="#FFFFFF" d="M285.046,47.857c2.055,0.998,4.18,0.792,5.386-1.038c1.636-2.481,3.116-5.203,3.954-8.032
		c0.1-0.336,0.144-0.673,0.139-1.003c0.005,0.331-0.039,0.667-0.139,1.002c-0.838,2.829-2.318,5.551-3.954,8.032
		C289.226,48.648,287.101,48.854,285.046,47.857c-1.735-0.843-3.114-2.206-2.944-3.957
		C281.931,45.651,283.311,47.015,285.046,47.857z"/>
	<path fill="#FFFFFF" d="M367.381,322.459c-0.116-0.395-0.285-0.729-0.509-0.956c-2.125-2.158-4.783-4-7.556-5.209
		c-0.142-0.062-0.305-0.099-0.484-0.115c-1.254-0.114-3.289,0.812-4.089,1.807c-0.579,0.719-0.969,1.95-1.03,3.089
		c-0.037,0.683,0.043,1.331,0.271,1.817c1.234,2.635,3.363,4.349,6.332,5.527c0.99,0.394,2.073,0.727,3.248,1.016
		c0.995-0.793,2.911-1.631,3.579-3.053C367.619,325.369,367.732,323.644,367.381,322.459z"/>
	<path fill="#FFFFFF" d="M353.984,322.892c-0.228-0.486-0.308-1.135-0.271-1.817c-0.038,0.683,0.043,1.333,0.271,1.819
		c1.234,2.634,3.363,4.347,6.332,5.525C357.347,327.241,355.218,325.527,353.984,322.892z"/>
	<path fill="#FFFFFF" d="M363.564,329.435c0.996-0.793,2.912-1.631,3.579-3.053C366.475,327.804,364.559,328.642,363.564,329.435z"
		/>
	<path fill="#FFFFFF" d="M367.143,326.382c0.476-1.012,0.589-2.738,0.238-3.923C367.732,323.644,367.619,325.369,367.143,326.382z"
		/>
	<path fill="#FFFFFF" d="M83.164,337.447c-3.2,3.607-6.327,7.135-9.669,10.902c0.129,0.121,0.258,0.242,0.386,0.361
		c1.408,1.31,2.752,2.43,4.387,2.506c0.594,0.028,1.227-0.082,1.915-0.371c2.03-0.853,3.708-2.092,4.89-3.729
		c0.8-1.109,1.379-2.396,1.662-3.889C87.247,340.525,85.358,338.941,83.164,337.447z"/>
	<path fill="#FFFFFF" d="M78.268,351.216c-1.635-0.076-2.979-1.196-4.387-2.506C75.289,350.02,76.633,351.14,78.268,351.216z"/>
	<path fill="#FFFFFF" d="M80.183,350.845c2.03-0.852,3.708-2.091,4.89-3.729C83.891,348.753,82.213,349.993,80.183,350.845z"/>
	<path fill="#FFFFFF" d="M135.089,33.6c-0.085-0.166-0.173-0.317-0.264-0.455c-0.632-0.963-1.375-1.257-2.186-1.208
		c-0.928,0.056-1.946,0.561-2.994,1.027c0.709,1.808,1.377,3.516,2.043,5.218C135.066,36.945,136.109,35.575,135.089,33.6z"/>
	<path fill="#FFFFFF" d="M131.688,38.183c3.379-1.238,4.422-2.609,3.401-4.583C136.109,35.575,135.066,36.945,131.688,38.183z"/>
	<path fill="#FFFFFF" d="M134.825,33.146c-0.632-0.963-1.375-1.257-2.186-1.208C133.451,31.888,134.193,32.182,134.825,33.146z"/>
	<path fill="#FFFFFF" d="M141.28,375.611c-0.641,1.719-1.263,3.387-1.944,5.211c3.196,1.346,4.934,1.037,5.53-0.98
		c0.109-0.367,0.169-0.697,0.186-0.995C145.175,376.764,143.214,376.265,141.28,375.611z"/>
	<path fill="#FFFFFF" d="M141.28,375.611c1.935,0.654,3.895,1.153,3.772,3.235C145.175,376.762,143.215,376.263,141.28,375.611z"/>
	<path fill="#FFFFFF" d="M63.059,313.079c-0.259-0.55-0.67-1.108-1.104-1.688c-0.105-0.141-0.211-0.282-0.317-0.426
		c-0.09-0.123-0.181-0.246-0.269-0.371c-0.411,0.331-0.808,0.65-1.194,0.962c-1.159,0.934-2.225,1.793-3.306,2.664
		c1.192,1.725,2.399,3.063,4.031,2.581c0.376-0.111,0.776-0.319,1.203-0.643C63.5,315.099,63.542,314.103,63.059,313.079z"/>
	<path fill="#FFFFFF" d="M56.867,314.218C56.868,314.218,56.868,314.219,56.867,314.218c1.082-0.87,2.147-1.729,3.307-2.663
		C59.014,312.489,57.949,313.348,56.867,314.218z"/>
	<path fill="#FFFFFF" d="M61.637,310.964c0.106,0.144,0.212,0.285,0.317,0.426C61.85,311.25,61.744,311.108,61.637,310.964z"/>
	<path fill="#FFFFFF" d="M63.059,313.079c0.483,1.024,0.441,2.021-0.957,3.079C63.501,315.1,63.542,314.103,63.059,313.079z"/>
	<path fill="#FFFFFF" d="M309.816,363.32c-0.637-0.877-1.271-1.22-1.908-1.236c-0.956-0.024-1.919,0.685-2.899,1.426
		c-0.108,0.083-0.218,0.166-0.327,0.248c1.061,1.604,2.046,3.092,3.201,4.838c0.141-0.09,0.278-0.18,0.412-0.271
		C310.292,366.958,311.338,365.42,309.816,363.32z"/>
	<path fill="#FFFFFF" d="M305.008,363.509c0.98-0.741,1.943-1.45,2.899-1.426C306.951,362.059,305.99,362.768,305.008,363.509z"/>
	<path fill="#FFFFFF" d="M378.399,286.997c-0.324-0.318-0.756-0.557-1.302-0.706c-2.709-0.748-3.239,1.216-3.979,3.202
		c1.301,0.572,2.49,1.099,3.713,1.639c0.503,0.223,1.011,0.446,1.535,0.678C379.345,289.552,379.342,287.925,378.399,286.997z"/>
	<path fill="#FFFFFF" d="M373.119,289.494c1.3,0.571,2.49,1.098,3.713,1.638C375.609,290.591,374.419,290.065,373.119,289.494
		L373.119,289.494z"/>
	<path fill="#FFFFFF" d="M378.367,291.809c0.979-2.259,0.977-3.885,0.032-4.812C379.342,287.925,379.345,289.552,378.367,291.809z"
		/>
	<path fill="#FFFFFF" d="M112.038,360.171c-1.24,2.119-2.095,3.58-2.95,5.041c0.052,0.354,0.104,0.707,0.155,1.062
		c0.849,0,1.75,0.133,2.593,0.119c0.506-0.008,0.992-0.068,1.433-0.242c0.766-0.301,1.674-1.963,1.448-2.676
		C114.344,362.304,113.104,361.41,112.038,360.171z"/>
	<path fill="#FFFFFF" d="M111.836,366.394c-0.843,0.014-1.745-0.119-2.593-0.119C110.092,366.275,110.993,366.408,111.836,366.394z"
		/>
	<path fill="#FFFFFF" d="M112.038,360.171c1.066,1.238,2.306,2.133,2.679,3.305C114.345,362.304,113.104,361.408,112.038,360.171z"
		/>
</g>
</svg>
