<?xml version="1.0" encoding="utf-8"?>
<!-- Generator: Adobe Illustrator 16.0.0, SVG Export Plug-In . SVG Version: 6.00 Build 0)  -->
<!DOCTYPE svg PUBLIC "-//W3C//DTD SVG 1.1//EN" "http://www.w3.org/Graphics/SVG/1.1/DTD/svg11.dtd">
<svg version="1.1" id="Layer_1" xmlns="http://www.w3.org/2000/svg" xmlns:xlink="http://www.w3.org/1999/xlink" x="0px" y="0px"
	 width="421.612px" height="421.612px" viewBox="0 0 421.612 421.612" enable-background="new 0 0 421.612 421.612"
	 xml:space="preserve">
<g>
	<path d="M199.952,0c7.236,0,14.473,0,21.709,0c4.985,0.577,9.972,1.144,14.957,1.731c23.537,2.774,45.919,9.482,67.126,20.017
		c36.354,18.059,65.257,44.396,86.6,78.9c16.026,25.908,25.913,54.044,29.537,84.334c0.596,4.987,1.155,9.979,1.731,14.97
		c0,7.236,0,14.472,0,21.708c-0.577,4.99-1.151,9.98-1.73,14.97c-2.31,19.868-7.485,38.985-15.477,57.296
		c-17.8,40.783-45.646,72.981-83.457,96.417c-27.508,17.05-57.475,27.045-89.712,30.165c-3.198,0.311-6.384,0.734-9.575,1.104
		c-7.236,0-14.473,0-21.709,0c-5.08-0.584-10.163-1.155-15.241-1.755c-19.862-2.347-38.98-7.53-57.278-15.55
		c-40.56-17.779-72.628-45.496-96.004-83.105c-16.136-25.961-26.05-54.187-29.694-84.572C1.136,231.643,0.577,226.65,0,221.66
		c0-7.236,0-14.472,0-21.708c0.576-4.99,1.14-9.982,1.73-14.97c3.166-26.755,11.325-51.935,24.363-75.469
		c19.763-35.672,47.519-63.482,83.186-83.279c25.259-14.02,52.325-22.363,81.098-25.128C193.574,0.797,196.76,0.371,199.952,0z
		 M209.941,376.68c92.011,0.037,166.59-74.494,166.738-166.631c0.148-91.866-74.658-166.726-166.633-166.751
		c-91.969-0.026-166.726,74.681-166.751,166.642C43.27,301.931,117.939,376.643,209.941,376.68z M23.204,250.676
		c-0.022-0.192-0.045-0.385-0.067-0.578c4.55-2.037,9.018-4.297,13.68-6.033c3.002-1.117,3.217-2.637,2.769-5.525
		c-0.506-3.268-2.448-3.064-4.649-3.066c-4.898-0.006-9.796-0.002-14.694-0.002c-0.035-0.199-0.07-0.398-0.104-0.598
		c5.647-2.525,11.294-5.051,16.993-7.601c-0.562-2.474-1.051-4.624-1.586-6.978c-6.807,3.246-13.227,6.306-19.644,9.37
		c-5.649,2.698-5.527,2.676-4.292,8.717c0.445,2.178,1.421,2.715,3.44,2.664c4.415-0.112,8.834-0.034,13.252-0.034
		c0.026,0.176,0.053,0.354,0.079,0.529c-4.874,2.191-9.748,4.381-14.643,6.581c0.446,2.313,0.88,4.347,1.218,6.396
		c0.251,1.519,0.893,2.215,2.595,2.263c7.602,0.214,15.199,0.589,22.798,0.894c0.925,0.037,1.853,0.005,2.9,0.005
		c-0.208-1.327-0.466-2.35-0.511-3.382c-0.13-3.011-1.625-3.854-4.571-3.694C33.192,250.871,28.193,250.676,23.204,250.676z
		 M39.875,270.162c-8.144,0.029-15.929,6.542-15.892,13.297c0.04,7.537,6.027,14.283,12.643,14.246
		c8.147-0.047,16.021-6.604,15.929-13.265C52.449,276.902,46.443,270.139,39.875,270.162z M96.217,78.442
		c3.677-2.686,7.32-5.08,10.643-7.856c2.667-2.228,4.271-5.179,2.872-8.838c-1.345-3.517-3.904-5.257-7.84-4.659
		c0.224-0.986,0.487-1.796,0.582-2.626c0.51-4.424-3.517-8.106-7.746-6.854c-5.36,1.587-9.414,5.354-13.956,8.547
		C86,63.699,91.016,70.937,96.217,78.442z M287.817,26.745c-6.767-0.014-13.345,7.776-13.4,15.87
		c-0.044,6.458,7.077,12.626,14.497,12.556c6.625-0.063,13.381-8.247,13.294-16.104C302.138,32.7,295.202,26.761,287.817,26.745z
		 M362.044,336.595c6.396-0.042,12.93-7.092,12.906-13.927c-0.022-6.685-8.48-14.294-15.759-14.178
		c-6.127,0.098-12.94,7.637-12.827,14.193C346.481,329.416,354.627,336.644,362.044,336.595z M81.792,327.669
		c-6.135,6.938-12.022,13.595-18.133,20.505c3.249,2.69,6.125,5.486,9.397,7.692c5.874,3.957,12.032,2.72,17.233-3.048
		c4.718-5.231,5.217-11.151,0.878-16.166C88.404,333.459,85.063,330.766,81.792,327.669z M130.327,55.497
		c2.493-0.976,4.657-1.824,6.937-2.717c-1.216-3.229-2.306-6.124-3.715-9.863c1.581,0.635,2.547,0.823,3.264,1.35
		c2.065,1.52,3.991,3.229,6.057,4.748c0.608,0.446,1.612,0.867,2.243,0.674c2.201-0.672,4.319-1.619,6.95-2.65
		c-4.14-2.927-7.815-5.525-11.503-8.132c0.421-0.688,0.679-1.08,0.909-1.488c1.647-2.933,1.467-5.819-0.295-8.623
		c-1.738-2.765-4.491-3.757-7.415-3.032c-4.454,1.104-8.77,2.76-13.312,4.236C123.844,38.766,127.023,46.971,130.327,55.497z
		 M148.893,400.946c-1.171-4.892-2.194-9.164-3.23-13.493c0.483-0.25,0.789-0.473,1.13-0.577c3.458-1.057,5.387-3.399,5.846-6.955
		c0.472-3.651-1.425-6.108-4.447-7.547c-3.819-1.817-7.827-3.238-12.016-4.937c-3.136,8.779-6.116,17.122-9.174,25.685
		c2.545,0.906,4.714,1.679,6.981,2.486c1.226-3.259,2.303-6.122,3.379-8.985c0.285-0.011,0.569-0.021,0.854-0.032
		c0.368,0.848,0.885,1.662,1.075,2.547c0.498,2.318,0.775,4.686,1.308,6.994c0.192,0.832,0.684,1.936,1.353,2.252
		C143.969,399.336,146.14,399.963,148.893,400.946z M52.056,317.755c0.258,0.099,0.515,0.197,0.773,0.296
		c-0.102,0.83-0.05,1.719-0.335,2.479c-0.898,2.397-1.972,4.729-2.869,7.128c-0.274,0.732-0.559,1.833-0.215,2.359
		c1.314,2.017,2.882,3.869,4.58,6.074c1.676-4.744,3.173-8.984,4.681-13.254c4.254,1.326,7.701,0.686,10.248-2.731
		c2.547-3.419,1.255-6.743-0.728-9.789c-2.011-3.088-4.342-5.969-6.705-9.173c-7.299,5.55-14.371,10.926-21.612,16.431
		c1.581,2.086,2.985,3.939,4.504,5.944c1.415-1.065,2.618-1.974,3.823-2.879C49.484,319.677,50.771,318.717,52.056,317.755z
		 M311.499,373.953c1.557-1.395,3.177-2.591,4.479-4.065c2.816-3.188,2.774-7.113,0.101-10.999
		c-2.337-3.395-5.782-4.866-9.397-3.169c-4.061,1.907-7.798,4.505-11.823,6.889c5.232,7.828,10.128,15.154,15.168,22.695
		c2.099-1.393,4.04-2.681,6.188-4.105C314.562,378.66,313.026,376.301,311.499,373.953z M364.386,293.868
		c8.464,3.715,16.579,7.277,24.881,10.921c1.042-2.434,1.955-4.562,2.923-6.819c-2.766-1.261-5.243-2.39-7.905-3.604
		c0.478-1.374,0.97-2.591,1.323-3.845c1.453-5.156-0.524-9.184-5.478-11.252c-4.62-1.93-8.519-0.465-11.082,4.436
		C367.386,286.881,366.044,290.223,364.386,293.868z M105.671,371.04c1.624,0.764,2.948,1.511,4.356,2.026
		c4.601,1.684,8.581,0.127,11.098-4.248c2.377-4.129,1.72-8.041-2.325-11.03c-3.168-2.342-6.673-4.227-10.255-6.454
		c-4.687,7.973-9.177,15.611-13.783,23.446c2.261,1.312,4.268,2.478,6.447,3.743C102.756,375.929,104.153,373.585,105.671,371.04z
		 M174.531,386.217c1.204,0.19,2.297,0.369,3.391,0.535c5.152,0.78,5.154,0.779,5.962-4.381c0.025-0.162-0.096-0.347-0.251-0.861
		c-5.035-0.815-10.215-1.654-15.601-2.525c-1.493,9.111-2.913,17.778-4.38,26.736c5.498,0.893,10.604,1.721,15.945,2.588
		c0.349-2.142,0.646-3.961,0.968-5.936c-2.987-0.565-5.726-1.083-8.542-1.615c0.311-1.646,0.57-3.019,0.859-4.549
		c2.652,0.344,5.156,0.668,7.899,1.023c0.318-2.055,0.599-3.861,0.891-5.749c-2.812-0.539-5.301-1.017-7.843-1.504
		C174.075,388.663,174.28,387.562,174.531,386.217z M196.124,403.281c-0.371,6.425-1.458,6.83,6.187,7.663
		c1.679,0.184,3.433,0.065,5.11-0.193c3.94-0.608,6.946-3.497,7.411-6.895c0.551-4.021-0.896-6.679-4.835-8.753
		c-1.511-0.797-3.148-1.377-4.579-2.291c-0.776-0.496-1.238-1.484-1.842-2.251c0.975-0.433,1.988-1.293,2.916-1.209
		c2.035,0.185,4.027,0.846,6.198,1.351c0.369-0.894,0.746-1.747,1.076-2.617c0.355-0.935,0.67-1.886,0.988-2.793
		c-3.679-1.854-7.794-2.518-11.27-1.894c-4.28,0.769-6.839,3.134-7.389,6.83c-0.525,3.54,1.173,6.561,4.875,8.541
		c1.421,0.76,2.993,1.271,4.326,2.152c0.84,0.557,1.365,1.59,2.031,2.409c-0.989,0.546-2.03,1.629-2.957,1.538
		C201.667,404.606,199.01,403.873,196.124,403.281z M333.285,333.366c-3.632,4.108-7.088,8.018-10.738,12.146
		c5.591,5.832,11.747,12.253,18.276,19.064c3.662-4.169,7.099-8.081,10.596-12.062c-0.804-0.753-2.161-2.023-3.72-3.482
		c-1.817,1.735-3.791,3.621-5.789,5.528c-1.198-1.068-2.311-2.06-3.64-3.245c2.135-2.018,3.972-3.753,5.964-5.635
		c-1.625-1.486-2.99-2.734-4.495-4.112c-1.787,1.685-3.629,3.42-5.574,5.254c-0.975-1.053-1.78-1.923-2.801-3.025
		c2.196-2.06,4.188-3.928,6.176-5.79C336.121,336.459,334.85,335.072,333.285,333.366z M385.089,218.885
		c-0.271,5.396-0.529,10.551-0.795,15.859c9.272,0.505,18.042,0.981,27.029,1.47c0.287-5.628,0.552-10.784,0.826-16.149
		c-2.226,0-3.984,0-5.944,0c-0.257,2.74-0.512,5.449-0.793,8.439c-1.582-0.177-3.012-0.337-4.455-0.498c0-2.779,0-5.219,0-7.888
		c-1.964,0-3.789,0-5.726,0c-0.249,2.638-0.484,5.144-0.734,7.784c-1.37-0.166-2.468-0.3-3.572-0.434c0-2.985,0-5.695,0-8.584
		C388.975,218.885,387.205,218.885,385.089,218.885z M215.896,11.786c-4.055-2.328-8.271-2.708-12.553-1.881
		c-3.194,0.616-5.538,2.525-6.217,5.915c-0.716,3.572,0.583,6.582,3.734,8.569c1.521,0.959,3.288,1.55,4.742,2.59
		c0.949,0.679,1.536,1.865,2.285,2.824c-1.244,0.431-2.543,1.334-3.72,1.195c-2.495-0.294-4.927-1.132-7.698-1.826
		c0,1.116,0.152,2.165-0.028,3.152c-0.517,2.83,0.94,4.086,3.449,4.343c2.632,0.27,5.322,0.636,7.925,0.365
		c4.062-0.423,7.047-3.316,7.588-6.681c0.666-4.142-0.746-6.797-4.853-9.04c-1.417-0.774-2.96-1.35-4.272-2.265
		c-0.736-0.514-1.118-1.536-1.659-2.329c0.975-0.391,2.001-1.198,2.915-1.086c2.02,0.248,3.983,0.958,6.137,1.524
		C214.43,15.324,215.147,13.59,215.896,11.786z M246.221,382.396c-4.63-1.269-8.931-1.371-13.09,0.479
		c-2.873,1.278-4.743,3.41-4.736,6.818c0.007,3.481,1.395,6.104,4.631,7.507c1.908,0.827,3.997,1.254,5.866,2.15
		c0.934,0.447,1.556,1.543,2.319,2.344c-0.896,0.553-1.773,1.54-2.688,1.575c-2.705,0.104-5.425-0.167-8.49-0.308
		c0.217,1.554,0.282,3.16,0.72,4.657c0.209,0.717,1.052,1.648,1.729,1.764c4.409,0.751,8.75,0.519,12.63-2.016
		c2.814-1.838,3.897-4.565,3.502-7.885c-0.36-3.024-2.005-5.084-4.819-6.164c-1.857-0.714-3.824-1.17-5.626-1.995
		c-0.886-0.407-1.507-1.393-2.247-2.116c0.91-0.521,1.8-1.438,2.734-1.485c2.027-0.102,4.078,0.241,6.209,0.409
		C245.316,386.217,245.728,384.48,246.221,382.396z M259.562,16.108c-6.859-1.633-13.354-3.179-20.018-4.765
		c-0.512,2.097-0.95,3.898-1.434,5.877c2.205,0.608,4.175,1.151,6.273,1.729c-1.597,6.864-3.146,13.526-4.725,20.312
		c2.659,0.604,4.838,1.099,7.222,1.641c1.666-6.905,3.257-13.502,4.87-20.193c2.197,0.421,4.197,0.804,6.352,1.216
		C258.601,19.938,259.032,18.216,259.562,16.108z M377.328,264.451c8.956,2.096,17.562,4.109,26.399,6.176
		c1.395-5.984,2.694-11.559,4.039-17.326c-2.132-0.504-3.917-0.927-5.848-1.383c-0.838,3.392-1.603,6.488-2.458,9.949
		c-6.882-1.562-13.624-3.092-20.452-4.641C378.413,259.79,377.923,261.896,377.328,264.451z M321.304,69.116
		c4.673-5.454,9.098-10.62,13.652-15.937c-1.966-1.694-3.732-3.215-5.65-4.867c-5.972,6.939-11.767,13.672-17.686,20.549
		c4.613,3.963,8.979,7.713,13.509,11.604c1.421-1.665,2.622-3.071,3.915-4.587C326.391,73.559,323.976,71.449,321.304,69.116z
		 M164.493,14.42c1.542,9.033,3.045,17.835,4.56,26.712c2.695-0.49,4.907-0.893,7.372-1.341c-1.521-8.984-3.001-17.728-4.517-26.687
		C169.314,13.564,167.025,13.971,164.493,14.42z"/>
	<path fill-rule="evenodd" clip-rule="evenodd" fill="#FFFFFF" d="M221.661,421.612c3.191-0.37,6.377-0.794,9.575-1.104
		c32.237-3.12,62.204-13.115,89.712-30.165c37.811-23.436,65.657-55.634,83.457-96.417c7.991-18.311,13.167-37.428,15.477-57.296
		c0.579-4.989,1.153-9.979,1.73-14.97c0,66.604,0,133.207,0,199.952C354.962,421.612,288.312,421.612,221.661,421.612z"/>
	<path fill-rule="evenodd" clip-rule="evenodd" fill="#FFFFFF" d="M199.952,0c-3.192,0.371-6.378,0.797-9.576,1.105
		c-28.773,2.765-55.839,11.108-81.098,25.128C73.612,46.03,45.855,73.841,26.093,109.513C13.055,133.047,4.896,158.226,1.73,184.981
		c-0.59,4.988-1.154,9.98-1.73,14.97C0,133.349,0,66.746,0,0C66.65,0,133.301,0,199.952,0z"/>
	<path fill-rule="evenodd" clip-rule="evenodd" fill="#FFFFFF" d="M0,221.66c0.577,4.99,1.136,9.982,1.734,14.97
		c3.644,30.386,13.558,58.611,29.694,84.572c23.376,37.609,55.444,65.326,96.004,83.105c18.297,8.02,37.416,13.203,57.278,15.55
		c5.079,0.6,10.161,1.171,15.241,1.755c-66.603,0-133.206,0-199.952,0C0,354.962,0,288.312,0,221.66z"/>
	<path fill-rule="evenodd" clip-rule="evenodd" fill="#FFFFFF" d="M421.612,199.952c-0.576-4.99-1.136-9.982-1.731-14.97
		c-3.624-30.29-13.511-58.426-29.537-84.334c-21.343-34.504-50.246-60.841-86.6-78.9c-21.207-10.535-43.589-17.243-67.126-20.017
		c-4.985-0.587-9.972-1.155-14.957-1.731c66.65,0,133.301,0,199.951,0C421.612,66.65,421.612,133.301,421.612,199.952z"/>
	<path fill-rule="evenodd" clip-rule="evenodd" fill="#FFFFFF" d="M209.941,376.68c-92.002-0.037-166.671-74.749-166.646-166.741
		c0.025-91.961,74.782-166.668,166.751-166.642c91.975,0.026,166.782,74.886,166.633,166.751
		C376.531,302.186,301.952,376.717,209.941,376.68z M282.729,297.923c0.419-1.087,0.567-1.407,0.668-1.743
		c7.275-24.305,14.605-48.592,21.795-72.922c4.177-14.133,4.369-28.304-0.319-42.404c-3.087-9.285-8.079-17.594-13.173-25.863
		c-4.2-6.821-7.929-13.852-9.297-21.909c-2.348-13.836,6.424-27.318,19.695-30.029c1.725-0.352,3.516-0.381,5.386-0.572
		c-25.182-24.7-70.613-44.366-120.66-35.992c-41.596,6.96-74.008,28.559-98.227,63.429c8.221,0,15.819,0.189,23.403-0.051
		c8.178-0.259,16.34-0.984,24.515-1.378c3.689-0.178,6.048,1.83,6.424,5.073c0.458,3.952-1.799,6.619-6.056,7.038
		c-5.169,0.508-10.346,0.946-15.817,1.441c17.602,52.39,35.128,104.554,52.781,157.094c0.375-0.795,0.574-1.123,0.693-1.479
		c10.208-30.648,20.421-61.296,30.564-91.966c0.349-1.057,0.293-2.459-0.087-3.515c-7-19.396-14.102-38.754-21.103-58.149
		c-0.626-1.735-1.541-2.225-3.302-2.325c-4.366-0.248-8.729-0.674-13.07-1.214c-3.323-0.414-5.331-2.934-5.185-6.096
		c0.159-3.442,2.591-5.851,6.052-5.921c1.234-0.025,2.472,0.099,3.708,0.146c13.502,0.525,27.003,1.423,40.506,1.453
		c10.738,0.023,21.479-0.998,32.217-1.595c2.726-0.152,5.154,0.242,6.655,2.844c2.387,4.136-0.175,8.752-5.211,9.27
		c-5.19,0.534-10.394,0.949-15.96,1.45C247.741,193.841,265.106,245.498,282.729,297.923z M258.152,347.561
		c-15.17-41.57-30.18-82.707-45.461-124.582c-14.703,42.742-29.137,84.704-43.624,126.82
		C199.264,358.35,228.756,357.569,258.152,347.561z M77.436,151.76c-16.451,37.925-17.382,76.066-1.695,114.127
		c13.865,33.643,37.708,58.264,70.461,74.381C123.28,277.432,100.358,214.596,77.436,151.76z M283.812,334.858
		c0.259,0.173,0.518,0.347,0.776,0.521c39.207-24.896,63.017-59.953,69.925-106.29c4.014-26.922-5.006-75.988-16.31-86.841
		c0.212,2.414,0.492,4.677,0.598,6.949c0.731,15.76-1.482,31.137-6.61,46.023c-13.607,39.505-27.373,78.956-41.07,118.43
		C288.67,320.714,286.248,327.788,283.812,334.858z"/>
	<path fill-rule="evenodd" clip-rule="evenodd" fill="#FFFFFF" d="M23.204,250.676c4.989,0,9.988,0.195,14.963-0.073
		c2.946-0.159,4.441,0.684,4.571,3.694c0.045,1.032,0.303,2.055,0.511,3.382c-1.047,0-1.975,0.032-2.9-0.005
		c-7.599-0.305-15.196-0.68-22.798-0.894c-1.703-0.048-2.344-0.744-2.595-2.263c-0.338-2.049-0.772-4.082-1.218-6.396
		c4.895-2.2,9.769-4.39,14.643-6.581c-0.026-0.176-0.053-0.354-0.079-0.529c-4.418,0-8.837-0.078-13.252,0.034
		c-2.019,0.051-2.996-0.486-3.44-2.664c-1.235-6.041-1.357-6.019,4.292-8.717c6.417-3.064,12.836-6.124,19.644-9.37
		c0.535,2.354,1.024,4.504,1.586,6.978c-5.699,2.55-11.346,5.075-16.993,7.601c0.035,0.199,0.07,0.398,0.104,0.598
		c4.898,0,9.796-0.004,14.694,0.002c2.201,0.002,4.144-0.201,4.649,3.066c0.448,2.889,0.233,4.408-2.769,5.525
		c-4.663,1.736-9.13,3.996-13.68,6.033C23.159,250.291,23.182,250.483,23.204,250.676z"/>
	<path fill-rule="evenodd" clip-rule="evenodd" fill="#FFFFFF" d="M39.875,270.162c6.568-0.023,12.574,6.74,12.68,14.278
		c0.093,6.661-7.781,13.218-15.929,13.265c-6.616,0.037-12.603-6.709-12.643-14.246C23.946,276.704,31.731,270.191,39.875,270.162z
		 M45.729,283.538c-0.059-3.654-2.463-6.397-5.063-5.659c-3.079,0.875-6.075,2.467-8.713,4.312c-1.794,1.254-1.703,3.83-0.285,5.398
		c1.117,1.236,3.298,2.621,4.636,2.315c2.761-0.63,5.381-2.173,7.837-3.696C45.089,285.621,45.437,284.064,45.729,283.538z"/>
	<path fill-rule="evenodd" clip-rule="evenodd" fill="#FFFFFF" d="M96.217,78.442C91.016,70.937,86,63.699,80.772,56.156
		c4.542-3.194,8.596-6.96,13.956-8.547c4.229-1.252,8.256,2.43,7.746,6.854c-0.095,0.83-0.358,1.64-0.582,2.626
		c3.936-0.599,6.495,1.142,7.84,4.659c1.399,3.659-0.206,6.61-2.872,8.838C103.537,73.362,99.894,75.756,96.217,78.442z
		 M99.416,69.795c1.271-1.873,2.398-3.256,3.133-4.824c0.168-0.359-1.083-1.989-1.562-1.938c-1.702,0.183-3.353,0.84-5.379,1.42
		C97.034,66.456,97.997,67.805,99.416,69.795z M93.262,60.918c1.141-1.997,2.021-3.298,2.596-4.723
		c0.126-0.314-0.946-1.593-1.26-1.521c-1.509,0.343-2.947,0.997-4.616,1.617C91.113,57.886,91.862,58.943,93.262,60.918z"/>
	<path fill-rule="evenodd" clip-rule="evenodd" fill="#FFFFFF" d="M287.817,26.745c7.385,0.016,14.32,5.955,14.391,12.322
		c0.087,7.857-6.669,16.041-13.294,16.104c-7.42,0.07-14.541-6.098-14.497-12.556C274.473,34.521,281.051,26.731,287.817,26.745z
		 M288.975,33.376c-0.565,0.27-2.022,0.482-2.502,1.281c-1.62,2.7-3.187,5.507-4.2,8.469c-0.728,2.124,0.79,3.768,2.774,4.73
		c2.054,0.998,4.179,0.792,5.385-1.038c1.636-2.481,3.117-5.203,3.954-8.032C295.182,36.097,292.442,33.423,288.975,33.376z"/>
	<path fill-rule="evenodd" clip-rule="evenodd" fill="#FFFFFF" d="M362.044,336.595c-7.417,0.049-15.562-7.179-15.68-13.911
		c-0.113-6.557,6.7-14.096,12.827-14.193c7.278-0.116,15.736,7.493,15.759,14.178C374.974,329.503,368.439,336.553,362.044,336.595z
		 M363.564,329.436c0.995-0.793,2.911-1.631,3.579-3.054c0.634-1.351,0.624-3.97-0.271-4.88c-2.124-2.158-4.781-4-7.555-5.208
		c-1.132-0.492-3.659,0.556-4.573,1.69c-0.927,1.152-1.367,3.612-0.76,4.909C355.631,326.405,358.865,328.28,363.564,329.436z"/>
	<path fill-rule="evenodd" clip-rule="evenodd" fill="#FFFFFF" d="M81.792,327.669c3.271,3.097,6.613,5.79,9.375,8.983
		c4.339,5.015,3.84,10.935-0.878,16.166c-5.201,5.768-11.359,7.005-17.233,3.048c-3.273-2.206-6.149-5.002-9.397-7.692
		C69.769,341.264,75.656,334.606,81.792,327.669z M73.495,348.35c2.069,1.944,3.936,3.652,6.688,2.496
		c3.405-1.43,5.853-3.922,6.552-7.617c0.512-2.704-1.377-4.288-3.571-5.783C79.963,341.055,76.836,344.581,73.495,348.35z"/>
	<path fill-rule="evenodd" clip-rule="evenodd" fill="#FFFFFF" d="M130.327,55.497c-3.304-8.526-6.483-16.73-9.88-25.498
		c4.542-1.476,8.859-3.132,13.312-4.236c2.924-0.725,5.677,0.268,7.415,3.032c1.762,2.804,1.942,5.69,0.295,8.623
		c-0.23,0.409-0.488,0.801-0.909,1.488c3.688,2.607,7.364,5.205,11.503,8.132c-2.631,1.031-4.749,1.978-6.95,2.65
		c-0.631,0.193-1.635-0.228-2.243-0.674c-2.066-1.519-3.992-3.228-6.057-4.748c-0.716-0.527-1.683-0.715-3.264-1.35
		c1.409,3.739,2.499,6.634,3.715,9.863C134.984,53.672,132.819,54.521,130.327,55.497z M131.688,38.183
		c3.378-1.238,4.421-2.608,3.401-4.583c-1.37-2.654-3.35-1.567-5.444-0.635C130.354,34.773,131.022,36.481,131.688,38.183z"/>
	<path fill-rule="evenodd" clip-rule="evenodd" fill="#FFFFFF" d="M148.893,400.946c-2.753-0.983-4.924-1.61-6.941-2.562
		c-0.668-0.316-1.16-1.42-1.353-2.252c-0.533-2.309-0.81-4.676-1.308-6.994c-0.19-0.885-0.708-1.699-1.075-2.547
		c-0.285,0.011-0.569,0.021-0.854,0.032c-1.077,2.863-2.154,5.727-3.379,8.985c-2.267-0.808-4.436-1.58-6.981-2.486
		c3.059-8.562,6.039-16.905,9.174-25.685c4.188,1.698,8.196,3.119,12.016,4.937c3.022,1.438,4.918,3.896,4.447,7.547
		c-0.459,3.556-2.389,5.898-5.846,6.955c-0.341,0.104-0.647,0.327-1.13,0.577C146.699,391.782,147.722,396.055,148.893,400.946z
		 M139.336,380.822c3.196,1.345,4.934,1.036,5.53-0.98c0.87-2.939-1.375-3.484-3.586-4.231
		C140.639,377.329,140.017,378.997,139.336,380.822z"/>
	<path fill-rule="evenodd" clip-rule="evenodd" fill="#FFFFFF" d="M52.056,317.755c-1.285,0.962-2.571,1.922-3.855,2.886
		c-1.206,0.905-2.409,1.813-3.823,2.879c-1.519-2.005-2.923-3.858-4.504-5.944c7.241-5.505,14.312-10.881,21.612-16.431
		c2.363,3.204,4.694,6.085,6.705,9.173c1.983,3.046,3.275,6.37,0.728,9.789c-2.547,3.417-5.994,4.058-10.248,2.731
		c-1.508,4.27-3.005,8.51-4.681,13.254c-1.698-2.205-3.266-4.058-4.58-6.074c-0.343-0.526-0.059-1.627,0.215-2.359
		c0.897-2.398,1.971-4.73,2.869-7.128c0.285-0.761,0.233-1.649,0.335-2.479C52.571,317.952,52.313,317.854,52.056,317.755z
		 M61.368,310.593c-1.645,1.325-3.059,2.465-4.501,3.627c1.468,2.122,2.957,3.66,5.235,1.938
		C64.588,314.275,62.786,312.592,61.368,310.593z"/>
	<path fill-rule="evenodd" clip-rule="evenodd" fill="#FFFFFF" d="M311.499,373.953c1.527,2.348,3.063,4.707,4.715,7.245
		c-2.147,1.425-4.089,2.713-6.188,4.105c-5.04-7.541-9.936-14.867-15.168-22.695c4.025-2.384,7.763-4.981,11.823-6.889
		c3.615-1.697,7.061-0.226,9.397,3.169c2.674,3.886,2.716,7.812-0.101,10.999C314.676,371.362,313.056,372.559,311.499,373.953z
		 M307.883,368.595c2.257-1.435,3.558-3.035,1.933-5.275c-1.696-2.339-3.384-0.879-5.135,0.438
		C305.742,365.361,306.727,366.85,307.883,368.595z"/>
	<path fill-rule="evenodd" clip-rule="evenodd" fill="#FFFFFF" d="M364.386,293.868c1.658-3.646,3-6.987,4.662-10.163
		c2.563-4.9,6.462-6.365,11.082-4.436c4.953,2.068,6.931,6.096,5.478,11.252c-0.354,1.254-0.846,2.471-1.323,3.845
		c2.662,1.214,5.14,2.343,7.905,3.604c-0.968,2.257-1.881,4.386-2.923,6.819C380.965,301.146,372.85,297.583,364.386,293.868z
		 M378.366,291.809c1.315-3.033,0.865-4.932-1.27-5.52c-2.709-0.747-3.238,1.217-3.979,3.203
		C374.953,290.301,376.566,291.015,378.366,291.809z"/>
	<path fill-rule="evenodd" clip-rule="evenodd" fill="#FFFFFF" d="M105.671,371.04c-1.518,2.545-2.915,4.889-4.462,7.483
		c-2.179-1.266-4.186-2.431-6.447-3.743c4.606-7.835,9.096-15.474,13.783-23.446c3.582,2.228,7.087,4.112,10.255,6.454
		c4.045,2.989,4.702,6.901,2.325,11.03c-2.518,4.375-6.498,5.932-11.098,4.248C108.619,372.551,107.294,371.804,105.671,371.04z
		 M109.088,365.212c0.052,0.354,0.104,0.707,0.155,1.062c1.358,0,2.851,0.341,4.026-0.122c0.766-0.301,1.674-1.963,1.448-2.675
		c-0.373-1.172-1.613-2.068-2.679-3.305C110.798,362.291,109.943,363.752,109.088,365.212z"/>
	<path fill-rule="evenodd" clip-rule="evenodd" fill="#FFFFFF" d="M174.531,386.217c-0.25,1.345-0.456,2.446-0.701,3.763
		c2.542,0.487,5.031,0.965,7.843,1.504c-0.292,1.888-0.573,3.694-0.891,5.749c-2.743-0.355-5.247-0.68-7.899-1.023
		c-0.289,1.53-0.548,2.903-0.859,4.549c2.816,0.532,5.555,1.05,8.542,1.615c-0.322,1.975-0.619,3.794-0.968,5.936
		c-5.341-0.867-10.447-1.695-15.945-2.588c1.467-8.958,2.887-17.625,4.38-26.736c5.386,0.871,10.565,1.71,15.601,2.525
		c0.156,0.515,0.277,0.699,0.251,0.861c-0.808,5.16-0.81,5.161-5.962,4.381C176.828,386.586,175.735,386.407,174.531,386.217z"/>
	<path fill-rule="evenodd" clip-rule="evenodd" fill="#FFFFFF" d="M196.124,403.281c2.886,0.592,5.543,1.325,8.247,1.589
		c0.927,0.091,1.968-0.992,2.957-1.538c-0.666-0.819-1.191-1.853-2.031-2.409c-1.333-0.882-2.905-1.393-4.326-2.152
		c-3.702-1.98-5.4-5.001-4.875-8.541c0.549-3.696,3.108-6.062,7.389-6.83c3.476-0.624,7.59,0.04,11.27,1.894
		c-0.318,0.907-0.633,1.858-0.988,2.793c-0.33,0.87-0.707,1.724-1.076,2.617c-2.171-0.505-4.163-1.166-6.198-1.351
		c-0.928-0.084-1.941,0.776-2.916,1.209c0.604,0.767,1.066,1.755,1.842,2.251c1.43,0.914,3.068,1.494,4.579,2.291
		c3.939,2.074,5.386,4.731,4.835,8.753c-0.465,3.397-3.471,6.286-7.411,6.895c-1.677,0.259-3.431,0.377-5.11,0.193
		C194.666,410.111,195.753,409.706,196.124,403.281z"/>
	<path fill-rule="evenodd" clip-rule="evenodd" fill="#FFFFFF" d="M333.285,333.366c1.564,1.706,2.836,3.093,4.255,4.641
		c-1.987,1.862-3.979,3.73-6.176,5.79c1.021,1.103,1.826,1.973,2.801,3.025c1.945-1.834,3.787-3.569,5.574-5.254
		c1.505,1.378,2.87,2.626,4.495,4.112c-1.992,1.882-3.829,3.617-5.964,5.635c1.329,1.186,2.441,2.177,3.64,3.245
		c1.998-1.907,3.972-3.793,5.789-5.528c1.559,1.459,2.916,2.729,3.72,3.482c-3.497,3.981-6.934,7.894-10.596,12.062
		c-6.529-6.812-12.686-13.232-18.276-19.064C326.197,341.384,329.653,337.475,333.285,333.366z"/>
	<path fill-rule="evenodd" clip-rule="evenodd" fill="#FFFFFF" d="M385.089,218.885c2.116,0,3.886,0,5.836,0
		c0,2.889,0,5.599,0,8.584c1.104,0.134,2.202,0.268,3.572,0.434c0.25-2.641,0.485-5.146,0.734-7.784c1.937,0,3.762,0,5.726,0
		c0,2.669,0,5.108,0,7.888c1.443,0.161,2.873,0.321,4.455,0.498c0.281-2.99,0.536-5.699,0.793-8.439c1.96,0,3.719,0,5.944,0
		c-0.274,5.365-0.539,10.521-0.826,16.149c-8.987-0.488-17.757-0.965-27.029-1.47C384.56,229.436,384.818,224.281,385.089,218.885z"
		/>
	<path fill-rule="evenodd" clip-rule="evenodd" fill="#FFFFFF" d="M215.896,11.786c-0.748,1.804-1.466,3.538-2.225,5.371
		c-2.154-0.565-4.117-1.276-6.137-1.524c-0.914-0.112-1.94,0.695-2.915,1.086c0.541,0.793,0.923,1.815,1.659,2.329
		c1.312,0.915,2.856,1.491,4.272,2.265c4.107,2.243,5.519,4.898,4.853,9.04c-0.541,3.364-3.526,6.258-7.588,6.681
		c-2.604,0.271-5.293-0.096-7.925-0.365c-2.509-0.257-3.966-1.513-3.449-4.343c0.18-0.988,0.028-2.036,0.028-3.152
		c2.771,0.693,5.203,1.531,7.698,1.826c1.177,0.139,2.476-0.764,3.72-1.195c-0.75-0.959-1.336-2.145-2.285-2.824
		c-1.454-1.04-3.221-1.63-4.742-2.59c-3.151-1.987-4.45-4.997-3.734-8.569c0.679-3.389,3.023-5.298,6.217-5.915
		C207.624,9.079,211.841,9.458,215.896,11.786z"/>
	<path fill-rule="evenodd" clip-rule="evenodd" fill="#FFFFFF" d="M246.221,382.396c-0.493,2.084-0.904,3.82-1.356,5.735
		c-2.131-0.168-4.182-0.511-6.209-0.409c-0.935,0.047-1.824,0.964-2.734,1.485c0.74,0.724,1.361,1.709,2.247,2.116
		c1.802,0.825,3.769,1.281,5.626,1.995c2.814,1.08,4.459,3.14,4.819,6.164c0.396,3.319-0.688,6.047-3.502,7.885
		c-3.88,2.534-8.221,2.767-12.63,2.016c-0.678-0.115-1.521-1.047-1.729-1.764c-0.438-1.497-0.503-3.104-0.72-4.657
		c3.065,0.141,5.785,0.412,8.49,0.308c0.915-0.035,1.793-1.022,2.688-1.575c-0.764-0.801-1.386-1.896-2.319-2.344
		c-1.869-0.896-3.958-1.323-5.866-2.15c-3.236-1.403-4.624-4.025-4.631-7.507c-0.007-3.408,1.863-5.54,4.736-6.818
		C237.29,381.025,241.591,381.128,246.221,382.396z"/>
	<path fill-rule="evenodd" clip-rule="evenodd" fill="#FFFFFF" d="M259.562,16.108c-0.529,2.108-0.961,3.83-1.459,5.817
		c-2.154-0.413-4.154-0.795-6.352-1.216c-1.613,6.691-3.204,13.289-4.87,20.193c-2.384-0.542-4.562-1.037-7.222-1.641
		c1.579-6.786,3.128-13.448,4.725-20.312c-2.099-0.578-4.068-1.121-6.273-1.729c0.483-1.979,0.922-3.781,1.434-5.877
		C246.207,12.929,252.702,14.475,259.562,16.108z"/>
	<path fill-rule="evenodd" clip-rule="evenodd" fill="#FFFFFF" d="M377.328,264.451c0.595-2.556,1.085-4.661,1.681-7.225
		c6.828,1.549,13.57,3.078,20.452,4.641c0.855-3.461,1.62-6.558,2.458-9.949c1.931,0.456,3.716,0.879,5.848,1.383
		c-1.345,5.768-2.645,11.342-4.039,17.326C394.89,268.561,386.284,266.547,377.328,264.451z"/>
	<path fill-rule="evenodd" clip-rule="evenodd" fill="#FFFFFF" d="M321.304,69.116c2.672,2.333,5.087,4.443,7.74,6.761
		c-1.293,1.516-2.494,2.922-3.915,4.587c-4.529-3.89-8.896-7.64-13.509-11.604c5.919-6.876,11.714-13.609,17.686-20.549
		c1.918,1.652,3.685,3.173,5.65,4.867C330.401,58.496,325.977,63.662,321.304,69.116z"/>
	<path fill-rule="evenodd" clip-rule="evenodd" fill="#FFFFFF" d="M164.493,14.42c2.532-0.449,4.821-0.855,7.415-1.315
		c1.516,8.958,2.997,17.703,4.517,26.687c-2.465,0.448-4.676,0.851-7.372,1.341C167.538,32.255,166.036,23.453,164.493,14.42z"/>
	<path fill-rule="evenodd" clip-rule="evenodd" d="M282.729,297.923c-17.623-52.425-34.988-104.082-52.402-155.885
		c5.566-0.5,10.77-0.916,15.96-1.45c5.036-0.518,7.598-5.134,5.211-9.27c-1.501-2.603-3.93-2.996-6.655-2.844
		c-10.737,0.597-21.479,1.618-32.217,1.595c-13.503-0.029-27.004-0.928-40.506-1.453c-1.236-0.048-2.474-0.171-3.708-0.146
		c-3.461,0.07-5.893,2.479-6.052,5.921c-0.146,3.163,1.862,5.683,5.185,6.096c4.341,0.54,8.704,0.966,13.07,1.214
		c1.761,0.1,2.676,0.59,3.302,2.325c7.001,19.395,14.102,38.753,21.103,58.149c0.381,1.056,0.437,2.458,0.087,3.515
		c-10.143,30.67-20.356,61.318-30.564,91.966c-0.119,0.356-0.317,0.685-0.693,1.479c-17.653-52.54-35.179-104.704-52.781-157.094
		c5.471-0.495,10.647-0.934,15.817-1.441c4.257-0.418,6.514-3.086,6.056-7.038c-0.376-3.244-2.735-5.251-6.424-5.073
		c-8.175,0.394-16.337,1.119-24.515,1.378c-7.584,0.24-15.183,0.051-23.403,0.051c24.219-34.87,56.631-56.469,98.227-63.429
		c50.046-8.374,95.478,11.292,120.66,35.992c-1.87,0.19-3.661,0.22-5.386,0.572c-13.271,2.711-22.043,16.193-19.695,30.029
		c1.368,8.057,5.097,15.088,9.297,21.909c5.094,8.27,10.086,16.578,13.173,25.863c4.688,14.1,4.496,28.271,0.319,42.404
		c-7.189,24.33-14.52,48.617-21.795,72.922C283.297,296.516,283.148,296.836,282.729,297.923z"/>
	<path fill-rule="evenodd" clip-rule="evenodd" d="M258.152,347.561c-29.396,10.009-58.888,10.789-89.084,2.238
		c14.487-42.116,28.921-84.078,43.624-126.82C227.973,264.854,242.982,305.99,258.152,347.561z"/>
	<path fill-rule="evenodd" clip-rule="evenodd" d="M77.436,151.76c22.922,62.835,45.844,125.671,68.766,188.508
		c-32.753-16.117-56.596-40.738-70.461-74.381C60.054,227.826,60.984,189.686,77.436,151.76z"/>
	<path fill-rule="evenodd" clip-rule="evenodd" d="M283.812,334.858c2.436-7.07,4.857-14.145,7.309-21.209
		c13.697-39.474,27.463-78.925,41.07-118.43c5.128-14.886,7.342-30.264,6.61-46.023c-0.105-2.271-0.386-4.535-0.598-6.949
		c11.304,10.854,20.323,59.919,16.31,86.841c-6.908,46.337-30.718,81.395-69.925,106.29
		C284.33,335.205,284.071,335.031,283.812,334.858z"/>
	<path fill-rule="evenodd" clip-rule="evenodd" d="M45.729,283.538c-0.292,0.526-0.64,2.083-1.587,2.671
		c-2.457,1.523-5.076,3.066-7.837,3.696c-1.338,0.306-3.519-1.079-4.636-2.315c-1.418-1.568-1.509-4.145,0.285-5.398
		c2.638-1.846,5.634-3.438,8.713-4.312C43.266,277.141,45.67,279.884,45.729,283.538z"/>
	<path fill-rule="evenodd" clip-rule="evenodd" d="M99.416,69.795c-1.419-1.99-2.382-3.34-3.809-5.341
		c2.026-0.58,3.678-1.237,5.379-1.42c0.48-0.051,1.73,1.578,1.562,1.938C101.814,66.539,100.687,67.923,99.416,69.795z"/>
	<path fill-rule="evenodd" clip-rule="evenodd" d="M93.262,60.918c-1.4-1.975-2.149-3.032-3.28-4.627
		c1.669-0.62,3.107-1.274,4.616-1.617c0.314-0.072,1.387,1.208,1.26,1.521C95.283,57.62,94.403,58.921,93.262,60.918z"/>
	<path fill-rule="evenodd" clip-rule="evenodd" d="M288.975,33.376c3.468,0.047,6.207,2.721,5.411,5.411
		c-0.837,2.829-2.318,5.551-3.954,8.032c-1.206,1.83-3.331,2.036-5.385,1.038c-1.984-0.962-3.502-2.606-2.774-4.73
		c1.014-2.962,2.58-5.77,4.2-8.469C286.952,33.858,288.409,33.646,288.975,33.376z"/>
	<path fill-rule="evenodd" clip-rule="evenodd" d="M363.564,329.436c-4.699-1.155-7.934-3.03-9.58-6.542
		c-0.607-1.297-0.167-3.757,0.76-4.909c0.914-1.135,3.441-2.183,4.573-1.69c2.773,1.208,5.431,3.05,7.555,5.208
		c0.896,0.91,0.905,3.529,0.271,4.88C366.476,327.805,364.56,328.643,363.564,329.436z"/>
	<path fill-rule="evenodd" clip-rule="evenodd" d="M73.495,348.35c3.342-3.769,6.469-7.295,9.669-10.904
		c2.194,1.495,4.083,3.079,3.571,5.783c-0.7,3.695-3.147,6.188-6.552,7.617C77.43,352.002,75.564,350.294,73.495,348.35z"/>
	<path fill-rule="evenodd" clip-rule="evenodd" d="M131.688,38.183c-0.666-1.702-1.334-3.41-2.043-5.218
		c2.095-0.932,4.074-2.019,5.444,0.635C136.11,35.574,135.067,36.945,131.688,38.183z"/>
	<path fill-rule="evenodd" clip-rule="evenodd" d="M139.336,380.822c0.681-1.825,1.303-3.493,1.944-5.212
		c2.211,0.747,4.456,1.292,3.586,4.231C144.27,381.858,142.532,382.167,139.336,380.822z"/>
	<path fill-rule="evenodd" clip-rule="evenodd" d="M61.368,310.593c1.418,1.999,3.221,3.683,0.734,5.564
		c-2.278,1.723-3.767,0.185-5.235-1.938C58.309,313.058,59.723,311.918,61.368,310.593z"/>
	<path fill-rule="evenodd" clip-rule="evenodd" d="M307.883,368.595c-1.156-1.745-2.141-3.233-3.202-4.837
		c1.751-1.317,3.438-2.777,5.135-0.438C311.44,365.56,310.14,367.16,307.883,368.595z"/>
	<path fill-rule="evenodd" clip-rule="evenodd" d="M378.366,291.809c-1.8-0.794-3.413-1.508-5.248-2.316
		c0.74-1.986,1.27-3.95,3.979-3.203C379.231,286.877,379.682,288.775,378.366,291.809z"/>
	<path fill-rule="evenodd" clip-rule="evenodd" d="M109.088,365.212c0.855-1.46,1.71-2.921,2.95-5.04
		c1.066,1.236,2.307,2.133,2.679,3.305c0.226,0.712-0.682,2.374-1.448,2.675c-1.176,0.463-2.668,0.122-4.026,0.122
		C109.191,365.919,109.14,365.565,109.088,365.212z"/>
</g>
</svg>
